<?xml version="1.0" encoding="UTF-8" standalone="no"?>
<svg
   version="1.1"
   viewBox="0 0 1041.3 554.14"
   id="svg176"
   sodipodi:docname="undraw_attributico_double.svg"
   xml:space="preserve"
   inkscape:version="1.3.2 (091e20e, 2023-11-25, custom)"
   xmlns:inkscape="http://www.inkscape.org/namespaces/inkscape"
   xmlns:sodipodi="http://sodipodi.sourceforge.net/DTD/sodipodi-0.dtd"
   xmlns="http://www.w3.org/2000/svg"
   xmlns:svg="http://www.w3.org/2000/svg"
   xmlns:rdf="http://www.w3.org/1999/02/22-rdf-syntax-ns#"
   xmlns:cc="http://creativecommons.org/ns#"
   xmlns:dc="http://purl.org/dc/elements/1.1/"><defs
     id="defs176" /><sodipodi:namedview
     id="namedview176"
     pagecolor="#ffffff"
     bordercolor="#000000"
     borderopacity="0.25"
     inkscape:showpageshadow="2"
     inkscape:pageopacity="0.0"
     inkscape:pagecheckerboard="0"
     inkscape:deskcolor="#d1d1d1"
     inkscape:zoom="1.3473542"
     inkscape:cx="520.65002"
     inkscape:cy="277.20996"
     inkscape:window-width="1920"
     inkscape:window-height="1009"
     inkscape:window-x="-8"
     inkscape:window-y="-8"
     inkscape:window-maximized="1"
     inkscape:current-layer="svg176" /><title
     id="title1">Powered by React</title><g
     transform="translate(-.011 -.035)"
     data-name="Group 23"
     id="g2"><path
       transform="translate(-79.34,-172.91)"
       d="m1040.8 611.12q-1.74 3.75-3.47 7.4-2.7 5.67-5.33 11.12c-0.78 1.61-1.56 3.19-2.32 4.77-8.6 17.57-16.63 33.11-23.45 45.89a73.21 73.21 0 0 1-63.81 38.7l-151.65 1.65h-1.6l-24.12 0.26-34.1 0.37h-1.38l-17.36 0.19h-0.53l-107 1.16-95.51 1-11.11 0.12-69 0.75h-0.08l-44.75 0.48h-0.48l-141.5 1.53-42.33 0.46a87.991 87.991 0 0 1-10.79-0.54c-1.22-0.14-2.44-0.3-3.65-0.49a87.38 87.38 0 0 1-51.29-27.54c-18.21-20.03-31.46-43.4-40.36-68.76q-1.93-5.49-3.6-11.12c-30.81-104.15 6.75-238.52 74.35-328.44q4.25-5.64 8.64-11l0.07-0.08c20.79-25.52 44.1-46.84 68.93-62 44-26.91 92.75-34.49 140.7-11.9 40.57 19.12 78.45 28.11 115.17 30.55 3.71 0.24 7.42 0.42 11.11 0.53 84.23 2.65 163.17-27.7 255.87-47.29 3.69-0.78 7.39-1.55 11.12-2.28 66.13-13.16 139.49-20.1 226.73-5.51a189.09 189.09 0 0 1 26.76 6.4q5.77 1.86 11.12 4c41.64 16.94 64.35 48.24 74 87.46q1.37 5.46 2.37 11.11c17.11 94.34-33 228.16-76.37 321.05z"
       fill="#f2f2f2"
       data-name="Path 299"
       id="path1" /><path
       transform="translate(-79.34,-172.91)"
       d="m576.36 618.52a95.21 95.21 0 0 1-1.87 11.12h93.7v-11.12zm-78.25 62.81 11.11-0.09v-27.47c-3.81-0.17-7.52-0.34-11.11-0.52zm-232.92-62.81v11.12h198.5v-11.12zm849.68-339.52h-74v-87.49q-5.35-2.17-11.12-4v91.49h-253.54v-92.42c-3.73 0.73-7.43 1.5-11.12 2.28v90.14h-255.87v-42.85c-3.69-0.11-7.4-0.29-11.11-0.53v43.38h-255.87v-62c-24.83 15.16-48.14 36.48-68.93 62h-0.07v0.08q-4.4 5.4-8.64 11h8.64v328.44h-83q1.66 5.63 3.6 11.12h79.39v93.62a87 87 0 0 0 12.2 2.79c1.21 0.19 2.43 0.35 3.65 0.49a87.991 87.991 0 0 0 10.79 0.54l42.33-0.46v-97h255.91v94.21l11.11-0.12v-94.07h255.87v91.36l11.12-0.12v-91.24h253.49v4.77c0.76-1.58 1.54-3.16 2.32-4.77q2.63-5.45 5.33-11.12 1.73-3.64 3.47-7.4v-321h76.42q-1.01-5.69-2.37-11.12zm-872.63 339.52v-328.44h255.87v328.44zm267 0v-328.44h255.85v328.44zm520.48 0h-253.51v-328.44h253.49z"
       opacity=".1"
       data-name="Path 300"
       id="path2" /></g><g
     transform="translate(-98.114 -99.169)"
     id="g176"><path
       d="m727.64 138.3 181.3-0.0369 57.427-0.0266c10.047-4e-3 20.787-0.76594 30.737 0.45063 3.8647 0.4733 7.1921 2.3924 9.9434 5.1065 4.046 3.9884 5.3602 8.1671 5.9104 13.739 0.5762 5.7928 0.2525 11.829 0.2395 17.656l-0.078 29.838-0.1165 93.299-0.058 300.84c0.065 8.9958 0.9322 17.91-5.9946 24.775-2.6995 2.6766-6.7973 4.4998-10.584 4.799-6.0722 0.47976-12.403 0.13272-18.495 0.12819l-33.669-6.5e-4 -106.9-8e-3 -335.31 0.0498-178.36 0.0622c-7.8518 0-16.078 0.5102-23.867-0.42344-3.5339-0.42344-6.3254-1.6717-8.9711-4.0809-5.2138-4.7465-6.0438-10.897-6.4082-17.531-7.3585 1.1486-15.13 1.9573-22.548 2.6967-1.7977 0.1787-2.6315-0.202-3.969-1.2852l0.0725-1.2548c3.0264-2.033 21.696-3.3247 26.521-3.866 0.45704-10.805 0.22722-21.718 0.27254-32.536l-0.0887-73.662-9e-3 -203.61c-9.4896-0.0272-19.722 0.46617-27.555-5.8699-7.3268-5.9285-9.0779-14.689-10.084-23.546 7.9975-17.231 17.37-34.043 26.139-50.901 3.5126-6.7511 8.5581-14.431 10.704-21.713 3.4491-11.706-2.7927-29.614 2.403-41.421q0.33145-0.75688 0.73023-1.4794 0.39877-0.72321 0.86163-1.4069 0.46351-0.68371 0.98723-1.3221 0.52371-0.63839 1.1037-1.2263c2.895-2.9317 6.7798-5.2872 10.923-5.7533 5.3012-0.59696 10.852-0.30236 16.19-0.31337l28.308-0.0123 91.459 0.0304 290.83-0.19618z"
       fill="#0c1216"
       stroke-width=".64741"
       id="path103" /><g
       transform="translate(163.1 16.127)"
       id="g131"><g
         fill="#fafafa"
         id="g111"><path
           transform="scale(.64736 .64746)"
           d="m601.79 385.77c28.855-1.532 58.438-0.224 87.351-0.112-0.408 10.562-4.409 17.787-10.911 25.819-7.212 6.257-14.825 9.644-24.356 10.689-13.414 1.471-28.175 0.161-38.974-8.669-8.855-7.239-11.92-16.73-13.11-27.727z"
           id="path104" /><path
           transform="scale(.64736 .64746)"
           d="m433.9 385.49q33.045-0.207 66.089 0.028c-0.46 5.001-0.885 9.899-2.784 14.606-3.964 9.822-11.466 15.749-21.024 19.762-3.737 1.34-7.914 2.028-11.865 2.416-13.321 1.31-27.841-0.291-38.451-9.177-8.67-7.261-11.719-16.604-12.675-27.496z"
           id="path105" /><path
           transform="scale(.64736 .64746)"
           d="m786.86 385.81 87.597-0.105c-1.228 10.844-4.137 17.812-10.967 26.224-7.986 6.837-16.695 9.988-27.161 10.671-13.068 0.853-27.278-0.669-37.414-9.756-7.779-6.974-11.449-16.777-12.055-27.034z"
           id="path106" /><path
           transform="scale(.64736 .64746)"
           d="m726.35 385.48c17.619-0.163 35.641-0.894 53.21 0.286 1.71 1.081 2.039 1.98 2.412 4.019 0.834 4.556-2.783 10.77-5.135 14.42-6.124 9.507-14.589 15.118-25.547 17.493-13.898 0.783-29.427 2.379-41.564-5.826-10.757-7.272-13.982-18.147-16.264-30.21z"
           id="path107" /><path
           transform="scale(.64736 .64746)"
           d="m320.94 385.36 56.486-0.048c9.416-4e-3 20.145-0.938 29.381 0.699 1.027 1.525 1.547 2.158 1.623 4.069 0.319 7.993-6.203 17.116-11.495 22.548-10.245 8.189-22.156 10.55-35.022 10.395-12.01-0.146-23.812-3.603-32.318-12.491-6.945-7.256-8.792-15.393-8.655-25.172z"
           id="path108" /><path
           transform="scale(.64736 .64746)"
           d="m263.37 385.51c17.494-0.305 35.017-0.15 52.515-0.201 0.151 8.241-0.917 15.331-5.848 22.197-6.778 9.436-16.57 13.224-27.581 15.025-9.155 0.143-22.237 1.724-30.859-1.818-10.072-4.138-17.483-12.863-21.659-22.726-1.36-3.213-2.826-6.744-1.411-10.161 5.016-4.028 27.316-2.323 34.843-2.316z"
           id="path109" /><path
           transform="scale(.64736 .64746)"
           d="m135.15 385.85q44.08-0.372 88.159 5e-3c0.047 11.749-2.465 18.323-10.344 27.056-6.216 5.672-13.561 8.561-21.843 9.717-13.605 1.899-30.299 1.536-41.616-7.044-10.102-7.658-12.628-17.867-14.356-29.734z"
           id="path110" /><path
           transform="scale(.64736 .64746)"
           d="m505.57 385.66 91.68 0.031c-0.813 10.565-3.469 18.523-10.573 26.43-8.69 7.184-17.93 9.813-29.037 10.436-14.498 0.814-29.976 0.647-41.33-9.763-8.199-7.517-10.379-16.435-10.74-27.134z"
           id="path111" /></g><path
         transform="scale(.64736 .64746)"
         d="m551.06 280.76c5.189 7.138 8.692 17.638 12.412 25.724q16.897 36.695 32.973 73.757l-45.057-0.15-46.543 0.086c15.852-32.809 28.728-67.48 46.215-99.417z"
         fill="#f6575e"
         id="path112" /><path
         transform="scale(.64736 .64746)"
         d="m463.06 275.07 84.646 0.114c-17.051 34.499-32.385 69.893-48.49 104.84l-85.59-0.091c17.4-34.448 32.452-70.182 49.434-104.86z"
         fill="#fafafa"
         id="path113" /><path
         transform="scale(.64736 .64746)"
         d="m554.95 275.15q41.689-0.336 83.378-0.114 25.101 52.67 50.845 105.03c-28.986 0.569-58.105-0.011-87.103 0.012-6.052-15.944-14.153-31.632-21.263-47.182-8.772-19.183-16.963-38.619-25.857-57.746z"
         fill="#f6575e"
         id="path114" /><path
         transform="scale(.64736 .64746)"
         d="m280.86 274.96q42.056-0.329 84.112-0.047c-8.949 21.743-19.83 42.881-29.877 64.147-6.279 13.292-11.972 28.691-20.04 40.95l-85.299 0.021c17.829-34.577 34.224-70.017 51.104-105.07z"
         fill="#fafafa"
         id="path115" /><g
         fill="#f6575e"
         id="g118"><path
           transform="scale(.64736 .64746)"
           d="m735.55 275.09 85.579 0.122c7.395 12.119 13.123 26.199 19.376 38.968l32.747 66.098-85.777-0.083-51.925-105.1z"
           id="path116" /><path
           transform="scale(.64736 .64746)"
           d="m191.02 275.12q41.866-0.283 83.732-0.12c-4.767 10.259-47.776 101.78-50.659 104.4-0.446 0.406-1.11 0.471-1.664 0.706q-42.776-0.22-85.552 0.033c9.539-20.463 20.516-40.464 31.044-60.434 7.807-14.807 15.217-29.82 23.099-44.589z"
           id="path117" /><path
           transform="scale(.64736 .64746)"
           d="m370.67 275.13 86.186 0.023-49.007 104.77-86.044 0.117c15.425-35.265 34.583-69.207 48.865-104.91z"
           id="path118" /></g><path
         transform="scale(.64736 .64746)"
         d="m644.03 275.22 85.702-0.117c5.296 11.695 11.48 23.157 17.157 34.687q17.188 35.307 35.047 70.278l-87.238-0.072c-3.951-10.668-10.366-21.229-15.313-31.549q-17.468-36.715-35.355-73.227z"
         fill="#fafafa"
         id="path119" /><path
         transform="scale(.64736 .64746)"
         d="m1290.8 275.59c5.11-0.484 10.47-0.147 15.61-0.132 1.1 1.853 1.23 3.534 1.27 5.657 0.79 44.327-0.01 88.795-0.07 133.14l-0.4 268.47v158.69l0.21 49.282c0.05 8.86 0.57 18.007 0 26.839-0.41 6.164-2.3 12.12-6.74 16.574-3.85 3.87-8.46 6.122-13.9 6.488-12.52 0.842-25.53 0.094-38.11 0.07l-73.54-0.089-229.87-3e-3 -717.48 0.753c-9.475 0.067-20.98 0.471-28.166-6.866-3.718-3.796-6.048-9.619-6.549-14.863-1.513-15.848-0.353-32.536-0.254-48.499l0.231-87.025-0.288-294.02-0.065-62.319c5.431-1.294 10.526-2.894 15.744-4.876l0.263 324.24-0.17 86.511c-0.018 13.292-1.537 28.86 0.655 41.935 0.976 5.827 5.655 12.745 10.497 16.056 3.213 2.197 6.918 3.509 10.734 4.166 9.24 1.593 19.597 0.507 28.973 0.434l40.855 0.054 166.22-0.075 596.58 0.074 148.56 1e-3c12.44 0 48.1 1.612 58.41-0.649 7.01-1.538 12.83-6.73 16.63-12.634 3.56-5.525 4.68-11.026 4.86-17.522 1.07-38.374-0.07-77.012 0.04-115.43l-0.31-306.27 0.1-111.93c0.09-13.867 2.04-44.055-0.53-56.241z"
         fill="#505051"
         id="path120" /><path
         transform="scale(.64736 .64746)"
         d="m213.2 194.5c14.552-0.689 29.336-0.176 43.91-0.182l81.598-0.017 254.79 0.082 679.1 0.078c5.48 0.054 18.8-0.855 23.03 2.566 5.43 4.393 9.05 10.299 10.88 17.026 2.09 7.655 3.34 50.218-0.04 56.202l-23.38-0.123-624.1-0.422-249.09-0.132q-108.67-0.487-217.34 0.164c0.054-15.912-3.245-50.63 4.213-63.536 3.809-6.59 9.253-9.786 16.434-11.706z"
         fill="#156eac"
         id="path121" /><path
         transform="scale(.64736 .64746)"
         d="m1136.3 215.1c5.12-0.701 9.62-0.065 13.94 2.903q0.77 0.537 1.49 1.147t1.37 1.287 1.24 1.416q0.58 0.738 1.09 1.53t0.94 1.63 0.77 1.715q0.35 0.876 0.61 1.782 0.25 0.905 0.42 1.832c0.88 4.814-0.04 9.978-2.86 14.02-3.28 4.703-7.69 6.625-13.16 7.621-2.79 0.391-5.84-0.083-8.47-1.08-4.23-1.602-7.52-4.559-9.37-8.706-2.21-4.97-2.19-10.775-0.17-15.804 2.46-6.112 6.28-8.767 12.16-11.293z"
         fill="#0c1216"
         id="path122" /><path
         transform="scale(.64736 .64746)"
         d="m1135.1 221.07c3.68-0.78 6.99-1.208 10.51 0.577q0.64 0.331 1.25 0.725 0.61 0.393 1.18 0.845 0.56 0.452 1.08 0.958t0.99 1.061q0.46 0.555 0.87 1.154t0.75 1.235q0.35 0.636 0.63 1.303 0.29 0.668 0.5 1.36c0.96 3.152 0.69 6.548-0.98 9.414-1.92 3.306-4.5 4.74-8.05 5.776-0.87 0.587-1.99 0.825-3.03 0.888-3.34 0.201-6.54-0.794-8.89-3.261-2.59-2.73-3.45-6.35-3.42-10.015 0.03-5.424 3.01-8.477 6.61-12.02z"
         fill="#77cdeb"
         id="path123" /><path
         transform="scale(.64736 .64746)"
         d="m1243.8 215.11c4.83-0.72 9.31-0.645 13.7 1.754q0.43 0.228 0.84 0.478 0.42 0.25 0.82 0.521t0.79 0.562 0.76 0.601 0.73 0.639q0.35 0.329 0.69 0.676 0.34 0.346 0.66 0.71 0.32 0.363 0.63 0.743 0.3 0.379 0.58 0.773 0.28 0.395 0.54 0.803 0.27 0.408 0.51 0.829t0.45 0.853q0.22 0.433 0.42 0.876 0.2 0.444 0.37 0.896 0.17 0.453 0.32 0.914t0.28 0.929c1.32 4.891 0.72 10.149-1.94 14.487-2.95 4.811-7.49 7.386-12.87 8.592-2.04 0.806-4.26 0.547-6.37 0.129-4.61-0.91-8.33-3.47-10.8-7.466-2.98-4.805-4.07-10.563-2.63-16.069 1.75-6.674 5.75-9.925 11.52-13.23z"
         fill="#0c1216"
         id="path124" /><path
         transform="scale(.64736 .64746)"
         d="m1244.6 221.07c3.75-0.478 6.79-0.989 10.32 0.877 3.32 1.757 5.95 5.092 6.94 8.705 0.88 3.162 0.54 6.448-1.14 9.283-1.8 3.043-4.52 4.959-7.91 5.845-1.29 0.383-2.71 0.614-4.06 0.475-3.28-0.341-6.42-1.442-8.51-4.138-2.32-3.003-3.06-7.619-2.54-11.347 0.66-4.732 3.36-6.968 6.9-9.7z"
         fill="#f1cd92"
         id="path125" /><path
         transform="scale(.64736 .64746)"
         d="m1190.1 215.1c4.87-0.789 9.34-0.411 13.68 2.096q0.42 0.243 0.82 0.506 0.41 0.264 0.8 0.547t0.77 0.586 0.74 0.624 0.71 0.66q0.34 0.339 0.67 0.695t0.64 0.728 0.6 0.759q0.29 0.386 0.56 0.787t0.52 0.815 0.48 0.841q0.23 0.426 0.44 0.863t0.39 0.884q0.19 0.447 0.35 0.902 0.16 0.456 0.3 0.919t0.26 0.933q0.12 0.458 0.21 0.921t0.16 0.931q0.07 0.467 0.12 0.937 0.04 0.47 0.06 0.942 0.03 0.472 0.02 0.945 0 0.472-0.03 0.944-0.02 0.471-0.07 0.941t-0.13 0.937q-0.07 0.466-0.17 0.928t-0.22 0.919-0.26 0.907q-0.15 0.449-0.32 0.891-0.16 0.442-0.35 0.875t-0.4 0.856q-0.21 0.422-0.44 0.834-0.24 0.411-0.49 0.81c-2.87 4.463-7.14 7.268-12.24 8.429-2.04 0.56-4.64 0.218-6.68-0.3-4.88-1.238-9.04-3.65-11.63-8.079-2.63-4.506-3.54-10.024-2.15-15.088 1.92-7.025 6.25-10.084 12.28-13.625z"
         fill="#0c1216"
         id="path126" /><path
         transform="scale(.64736 .64746)"
         d="m1190.1 221.07c3.11-0.575 6.46-1.134 9.45 0.177 3.51 1.536 6.5 4.423 7.82 8.058 1.16 3.176 1.17 6.557-0.35 9.626-1.79 3.612-4.87 5.68-8.61 6.849-1.02 0.557-2.41 0.81-3.56 0.825-3.28 0.042-6.65-1.536-8.79-3.98-2.48-2.826-3.33-6.478-3.1-10.159 0.33-5.367 3.29-8.098 7.14-11.396z"
         fill="#e17871"
         id="path127" /><path
         transform="scale(.64736 .64746)"
         d="m827.62 275.41c19.649-0.767 39.487-0.332 59.156-0.328l101.99 0.084 296.38 0.079c0.57 0.877 0.87 1.517 1.01 2.573 0.96 7.3 0.24 15.606 0.24 23.015l-0.03 47.19 0.17 152.36-0.01 251.64 0.05 73.356c0.04 13.036 0.73 26.382-0.04 39.381-0.37 6.42-2.01 13.097-6.16 18.168-4.27 5.214-9.97 7.264-16.45 7.983-14.83 0.965-30.2 0.185-45.08 0.192l-87.92 0.031-270.41 0.039 0.079-282.06c0.031-62.716-0.638-125.52 0.249-188.23q0.8-0.631 1.582-1.284c12.946-10.829 15.48-22.215 16.924-38.339-15.987-35.822-35.392-70.164-51.728-105.86z"
         fill="#fafafa"
         id="path128" /><path
         transform="scale(.64736 .64746)"
         d="m915.48 774.61c13.308-0.909 27.151-0.146 40.525-0.151l81.646 0.026 66.82-0.093c11.86-0.05 24.27-0.841 36.09 0.065 4.44 0.341 8.29 1.707 12.07 4.06 4.92 3.056 9.61 8.033 10.78 13.874 0.98 4.904-1.22 9.335-3.84 13.338-3.6 5.482-8.55 7.816-14.83 9.124-6.17 2.034-30.96 0.649-39.28 0.743q-62.86 0.808-125.72 0.46c-19.315-0.04-38.771 0.472-58.067-0.118-3.153-0.096-6.689-0.112-9.589-1.466-5.11-2.386-9.302-6.703-11.185-12.033-2.066-5.851-1.009-12.553 1.694-18.024 2.648-5.357 7.431-7.955 12.887-9.805z"
         fill="#dcdbdb"
         id="path129" /><path
         transform="scale(.64736 .64746)"
         d="m1000.7 348.35c12.15-0.834 24.8-0.154 37-0.158l71.89-0.046 91.09-0.025c17.18 0.011 34.55-0.459 51.7 0.379 0.76 1.074 1.25 1.907 1.46 3.221 0.97 6.064 1.21 37.027-0.36 41.781-0.2 0.608-1.22 1.656-1.64 2.216-1.55 0.945-1.67 0.729-3.39 0.425l-0.55 1.673-0.45-0.745c-82.23-1.225-164.61-0.279-246.85-0.08-0.57-16.074-0.41-32.566 0.1-48.641z"
         fill="#0c1216"
         id="path130" /><path
         transform="scale(.64736 .64746)"
         d="m1005.8 353.58 241.85 0.073c0.49 0.783 0.88 1.563 1.05 2.487 0.97 5.545 1.22 31.434-1.77 35.316-7.31 0.916-15.62 0.213-23.02 0.19q-22.35-0.116-44.7 0.015l-173.5-0.079z"
         fill="#f6575e"
         id="path131" /></g><g
       transform="translate(163.1 16.127)"
       fill="#dcdbdb"
       id="g137"><path
         transform="scale(.64736 .64746)"
         d="m918.16 672.43c64.071-1.514 128.48-0.244 192.58-0.186l79.01 0.118c14.98 0.049 30.35-0.475 45.26 0.663 4.36 0.332 8.37 0.861 12.11 3.264 4.74 3.046 8.34 8.428 9.36 13.979q0.14 0.763 0.2 1.535 0.05 0.773 0.03 1.547-0.02 0.775-0.12 1.543t-0.28 1.522-0.43 1.486-0.58 1.433q-0.33 0.702-0.73 1.367t-0.86 1.285c-4.26 5.766-10.27 8.362-17.18 9.34-19.71 0.781-39.7 0.051-59.44 0.041q-65.94 0.088-131.88-0.495c-28.87-0.083-57.77 0.386-86.644 0.638-12.055 0.106-24.361 0.989-36.388 0.423-4.731-0.222-9.812-1.07-13.867-3.671-4.118-2.642-7.366-7.847-8.292-12.611-0.958-4.929 0.15-9.875 2.946-14.021 3.767-5.585 8.741-8.024 15.2-9.2z"
         id="path132" /><path
         transform="scale(.64736 .64746)"
         d="m1118.8 479.2q38.78-0.517 77.57-0.274c12.55-0.042 27.19-1.603 39.53 0.273 5.64 0.858 10.05 2.514 14.29 6.406 4.06 3.735 5.97 7.575 6.14 13.14 0.15 5.285-1.59 9.648-5.32 13.428-4.26 4.327-9.83 5.602-15.69 6.246-8.32 0.913-17.12 0.403-25.49 0.387q-23.66-0.038-47.31-0.316-64.05-0.741-128.1-0.489l-75.217 0.223c-13.9 0.174-29.826 2.111-43.442-0.086-3.985-0.644-7.036-2.229-9.988-4.965-4.213-3.905-6.203-9.349-6.314-15.05-0.086-4.433 1.326-8.379 4.468-11.55 3.943-3.979 9.626-6.049 15.077-6.806 7.366-1.023 15.409-0.365 22.846-0.302l36.015 0.082q70.465 0.181 140.94-0.347z"
         id="path133" /><path
         transform="scale(.64736 .64746)"
         d="m916.13 530.18c43.543-1.485 87.612 0.179 131.19 0.237l125.55 3e-3c12.64 0.02 60.66-1.855 69.95 1.753l0.51 0.204c1.22 0.472 2.39 0.934 3.5 1.643 4.58 2.93 8.21 8.042 9.23 13.403q0.09 0.442 0.15 0.888t0.11 0.895q0.04 0.449 0.06 0.899 0.01 0.45 0.01 0.9 0 0.451-0.03 0.901-0.03 0.449-0.08 0.897t-0.12 0.893q-0.08 0.444-0.17 0.885-0.1 0.44-0.21 0.875-0.12 0.435-0.26 0.863-0.14 0.429-0.3 0.849-0.16 0.421-0.35 0.833-0.18 0.412-0.38 0.814-0.21 0.402-0.43 0.793-0.22 0.392-0.47 0.771-0.24 0.379-0.5 0.746c-3.81 5.374-9.27 7.801-15.59 8.889-0.22 0.095-0.44 0.198-0.67 0.287-5.12 1.991-203.62 0.556-226.38 0.578-29.073 0.028-58.298 0.982-87.357 0.388-4.072-0.083-8.134-0.046-11.869-1.879-4.975-2.441-8.574-6.914-10.302-12.138q-0.168-0.505-0.31-1.017-0.143-0.512-0.259-1.031t-0.206-1.043-0.153-1.052-0.099-1.058q-0.036-0.531-0.045-1.062-0.01-0.532 8e-3 -1.064 0.018-0.531 0.062-1.061 0.045-0.53 0.116-1.057 0.071-0.526 0.169-1.049t0.223-1.04q0.124-0.517 0.274-1.027 0.151-0.51 0.327-1.011 0.176-0.502 0.377-0.994t0.427-0.974q0.226-0.481 0.476-0.95c3.024-5.774 7.791-8.619 13.819-10.58z"
         id="path134" /><path
         transform="scale(.64736 .64746)"
         d="m922.71 620.56c32.937-0.736 65.93-5e-3 98.873 0.169l108.25-0.047 67.64 0.071c13.18-0.028 27.14-0.938 40.21 0.533 4.37 0.491 8.32 2.723 11.6 5.578 4.03 3.507 7.21 8.294 7.49 13.756 0.26 4.893-1.99 9.606-5.3 13.105-5.53 5.84-11.58 7.837-19.42 7.953-77.45-1.256-155.09-0.124-232.57-0.309l-54.679 0.026c-9.312 0.01-19.982 0.981-29.146-0.652-5.121-0.912-10.01-3.467-12.997-7.821-2.931-4.271-3.695-9.862-2.609-14.873 1.718-7.92 6.306-12.501 12.896-16.753l9.76-0.736z"
         id="path135" /><path
         transform="scale(.64736 .64746)"
         d="m929.26 722.81 198.58 0.176q37.02-0.494 74.04-0.435c11.41 0.041 23.68-0.724 34.98 0.798q1.01 0.133 2.01 0.344 0.99 0.212 1.97 0.501t1.93 0.654 1.87 0.803q0.92 0.439 1.8 0.948 0.89 0.509 1.73 1.086t1.63 1.218q0.79 0.642 1.53 1.343c3.78 3.522 5.71 8.633 5.78 13.779 0.07 4.879-1.81 9.187-5.28 12.599-6.69 6.602-14.4 7.337-23.24 7.168q-109.4-0.578-218.8 0.219l-60.864 0.081c-10.498 9e-3 -21.9 0.891-32.282-0.497-5.002-0.668-9.968-3.467-12.947-7.582-3.204-4.426-4.19-10.411-3.19-15.727 1.478-7.848 6.041-12.433 12.393-16.813l16.362-0.663z"
         id="path136" /><path
         transform="scale(.64736 .64746)"
         d="m916.41 427.04c17.148-0.535 34.454-0.02 51.621-0.089l130.5-0.055 89.64-0.099c15.77-0.019 31.85-0.688 47.59 0.14 3.98 0.209 6.83 0.65 10.29 2.716 5.07 3.023 8.93 7.709 10.34 13.501 1.16 4.771 0.51 9.828-2.11 14.01-3.58 5.725-10.42 8.99-16.8 10.363-9.62 2.182-21.68 1.071-31.59 1.023l-57.02-0.444q-80.45 0.639-160.9 0.139c-24.914-0.119-50.046 0.477-74.929-0.716-6.048-3.305-10.417-7.671-12.486-14.354-1.618-5.228-1.202-11.2 1.489-16.003 3.136-5.597 8.355-8.514 14.364-10.132z"
         id="path137" /></g><g
       stroke-width=".64741"
       id="g140"><path
         d="m670.96 275.15c2.9131 6.4675 6.5798 11.434 13.063 14.734 9.5906 4.8799 22.706 3.9527 32.66 0.73033l0.0337 302.36-251.81 0.13532-97.214 0.0317c-16.526 3e-3 -33.359 0.65846-49.852-0.0913-3.6686-0.16705-8.8902-0.19101-11.482-3.0683l-0.25441-0.28747c-2.1324-2.3794-3.6686-4.9906-4.4118-8.1243-1.8728-7.9016-0.52242-28.781-0.44473-38.165l0.0349-194.79c0.14501-20.29-0.47581-40.642 0.15666-60.919 3.6628-3.1667 5.7596-6.4092 8.0784-10.582 2.6283 5.2762 5.9551 9.4704 11.149 12.42 8.1768 4.6436 21.716 5.0482 30.708 2.5594 8.3891-2.3212 13.696-7.4885 17.892-14.852 2.7396 5.1674 6.247 9.1337 11.39 12.034 8.4506 4.7653 21.31 5.2807 30.563 2.5529 8.705-2.5659 13.804-8.0343 17.964-15.783 2.9973 6.226 7.0025 10.892 13.285 13.984 8.3121 4.0906 20.64 4.5115 29.39 1.5002 8.1574-2.808 12.926-8.316 16.66-15.809 2.3337 6.4163 6.7584 11.458 12.892 14.501 8.8138 4.3742 24.293 4.4539 33.544 1.1713 8.0693-2.8631 12.693-7.9838 16.301-15.475 3.1721 6.1522 7.0148 11.188 13.393 14.264 7.9923 3.8543 21.252 4.112 29.626 1.1706 8.0137-2.8145 12.923-8.5672 16.56-15.96 3.1649 6.136 6.5578 11.41 12.969 14.601 8.0098 3.9864 22.13 4.4014 30.605 1.5345 8.4927-2.8741 12.721-8.7206 16.55-16.385z"
         fill="#fafafa"
         id="path138" /><path
         d="m324.09 331.18c24.687-0.49661 49.462-0.12885 74.155-0.14245 30.748-0.0162 61.526-0.31337 92.268 0.0835 0.83445 17.062 0.12624 34.514 0.1476 51.612l0.0654 98.615-0.0401 49.61c-5e-3 7.8466 0.78589 16.771-0.40072 24.509l-166.62 0.0932c-0.47192-8.2629-0.10099-16.756-0.0997-25.04l-0.0104-47.946-0.0738-107.58c-2e-3 -6.966-1.0766-38.717 0.60787-43.814z"
         fill="#0c1216"
         id="path139" /><path
         d="m526.58 332.34c24.687-0.4966 49.462-0.12884 74.158-0.14244 30.748-0.0162 61.526-0.31337 92.27 0.0835 0.83445 17.062 0.12624 34.514 0.1476 51.612l0.0654 98.615-0.0401 49.61c-5e-3 7.8466 0.7859 16.771-0.40072 24.509l-166.62 0.0932c-0.47193-8.2629-0.10099-16.756-0.0997-25.04l-0.0104-47.946-0.0738-107.58c-2e-3 -6.966-1.0766-38.718 0.60788-43.814z"
         fill="#0c1216"
         id="path140" /></g><g
       transform="translate(163.1 16.127)"
       fill="#4c918c"
       id="g147"><path
         transform="scale(.64736 .64746)"
         d="m325.3 551.32c2.049 0.046 4.2 0.021 6.22 0.369 1.941 0.335 3.126 0.398 4.308 2.049-1.08 2.778-4.267 4.512-6.6 6.242-0.864 0.816-1.679 1.479-2.679 2.127-1.312 0.851-1.565 0.527-3.045 0.204-1.073-1.654-1.359-2.167-1.377-4.227-0.027-2.999 1.102-4.726 3.173-6.764z"
         id="path141" /><path
         transform="scale(.64736 .64746)"
         d="m274.45 745.22c1.924 0.141 2.509-0.038 4.027 1.225 1.123 4.026 1.661 9.16-0.314 13.007l-1.828 0.04c-1.683-1-3.578-2.061-5.053-3.342-1.773-1.54-1.842-2.857-2.011-5.02 0.862-2.744 3.032-4.188 5.179-5.91z"
         id="path142" /><path
         transform="scale(.64736 .64746)"
         d="m301.86 582.84c2.79 0.25 5.155 0.476 7.247 2.367 0.681 3.701-2.933 8.981-4.543 12.292l-0.974 0.078c-0.996-0.632-2.164-1.319-2.962-2.202-1.804-1.997-2.576-5.532-2.207-8.19 0.253-1.826 2.128-3.214 3.439-4.345z"
         id="path143" /><path
         transform="scale(.64736 .64746)"
         d="m359.25 531.36c1.779 0.482 3.381 1.17 4.976 2.087 2.574 1.48 4.061 2.984 4.825 5.847-1.49 2.167-2.76 2.118-5.149 2.815-2.042 0.601-3.618 0.968-5.752 0.87-1.034-0.523-2.137-1.02-2.84-1.977-0.978-1.333-1.18-2.548-0.882-4.195 0.471-2.61 2.816-4.049 4.822-5.447z"
         id="path144" /><path
         transform="scale(.64736 .64746)"
         d="m274.26 705.37c2.623 0.042 4.153-0.477 6.159 1.355 1.407 4.666 0.357 8.137-0.816 12.72l-1.556 0.4c-3.874-2.337-7.192-3.778-8.43-8.368 0.61-2.893 2.53-4.266 4.643-6.107z"
         id="path145" /><path
         transform="scale(.64736 .64746)"
         d="m281.26 663.67 3.676 0.154c1.357 1.455 1.484 2.371 1.582 4.32 0.151 3.002-0.987 9.211-2.945 11.444-2.745-1.594-5.137-3.121-6.931-5.815-1.332-2.001-1.344-3.529-0.883-5.82 1.232-2.546 3.073-3.191 5.501-4.283z"
         id="path146" /><path
         transform="scale(.64736 .64746)"
         d="m287.9 623.73c0.386-0.045 0.772-0.094 1.159-0.121 2.572-0.18 3.593-0.407 5.539 1.33 0.978 4.433-1.844 10.94-3.015 15.423q-2.051-1.794-4.038-3.659c-2.418-2.288-3.831-4.018-3.93-7.487 0.754-2.764 2.145-3.807 4.285-5.486z"
         fill="#4c918c"
         id="path147" /></g><g
       stroke-width=".64741"
       id="g157"><path
         d="m344.7 523.31q71.274-0.37165 142.56 0.17546l-0.0117 28.342-19.708-0.024q-70.355-0.34316-140.71 0.31272l0.11459-28.682 17.764-0.12366z"
         fill="#9ed9c7"
         id="path148" /><path
         d="m440.35 457.72q1.384 0.573 2.6885 1.3092c7.0996 4.0654 13.082 12.607 15.031 20.486 0.94514 3.8207 1.1491 7.5371-0.9445 10.967-1.643 0.83717-3.7424 1.7753-5.5874 1.3882-1.8029-3.1998-1.9492-11.378-3.1701-15.503-1.9369-6.5406-5.0106-12.554-8.0176-18.647z"
         fill="#4c918c"
         id="path149" /><path
         d="m326.87 334.49 160.4 0.0615-0.0246 185.45q-19.669-0.10618-39.337 0.0589c2.3052-8.0654 3.2368-15.864 3.4239-24.233 1.452-0.12755 3.2174-0.15992 4.5891-0.65328 2.4619-0.88443 4.7749-3.1687 5.7544-5.5908 2.0521-5.0761-0.32886-12.613-2.5156-17.278q-0.39295-0.84364-0.82668-1.6666-0.43438-0.82292-0.90889-1.6232-0.47452-0.80026-0.98852-1.5759-0.51401-0.77501-1.0656-1.5241-0.5522-0.74911-1.1406-1.4697-0.58845-0.72063-1.2118-1.4108-0.62406-0.69019-1.2811-1.3487t-1.3465-1.2833q-0.68879-0.6248-1.4086-1.2146-0.71922-0.58984-1.4669-1.1428-0.74835-0.55293-1.5226-1.0683-0.77424-0.51537-1.5737-0.99126-0.79949-0.47588-1.621-0.91097-0.82215-0.43574-1.6644-0.8294-0.84286-0.3943-1.7038-0.74523-0.86099-0.35157-1.7388-0.65976c-2.7785-5.5371-3.7223-10.737-3.9703-16.852 9.311 0.0738 18.361-0.20848 26.275-5.8427 6.4263-4.5756 10.514-11.547 11.73-19.314 1.6987-10.861-1.9453-21.187-8.2927-29.897-1.5381-1.875-3.1656-3.5999-4.9737-5.2198-13.802-12.363-35.112-11.024-52.474-10.104-1.2908-2.9919-3.1384-5.8679-6.1972-7.2658-2.0728-0.94788-4.3632-1.2852-6.5254-0.38265-1.375 0.5743-2.4457 1.7566-3.0063 3.1253-1.2708 3.1007-0.32821 5.5345 0.88235 8.4293-2.3538 0.97572-4.6273 2.136-6.9119 3.2606-1.544-1.1065-3.0504-2.0945-4.8889-2.6403-2.5014-0.74328-5.3977-0.61962-7.6751 0.73616-1.6521 0.9835-2.7662 2.5704-3.174 4.4461-0.71922 3.304 0.78913 5.9514 2.4891 8.6416l-5.0158 7.8122c-2.1272-0.70249-4.3567-1.5474-6.6322-1.4315-2.0042 0.1023-4.1955 0.9045-5.5026 2.4901-1.1827 1.4354-1.4928 3.2496-1.2811 5.0534 0.49135 4.1819 3.207 6.3354 6.3111 8.832l-3.3229 9.8718c-1.8003-0.055-3.6666-0.11072-5.4475 0.20071-2.1958 0.38395-4.5341 1.8291-5.7298 3.7216-0.98528 1.5591-1.1471 3.4555-0.63053 5.2062 1.14 3.8589 4.2687 5.809 7.5333 7.7566l-1.7168 9.0567c-1.4443 0.0227-2.9041 0.12237-4.3282 0.37812-2.3629 0.42473-4.8021 1.8278-6.0897 3.8971-0.86358 1.3875-1.0481 2.933-0.64995 4.507 1.0584 4.1826 4.6804 6.1334 8.1263 8.1476q-0.69203 4.9019-1.2436 9.8213c-1.8728 0.0784-3.7353 0.17029-5.5149 0.81321-2.1175 0.76465-4.3043 2.3568-5.1925 4.483-0.58197 1.3914-0.50558 2.8695 0.0634 4.2506 1.5983 3.8802 5.6942 5.585 9.2462 7.2069l-0.19939 8.597c-1.476 0.41049-3.1222 0.80156-4.5056 1.4684-2.1305 1.0262-4.3036 3.1719-4.9536 5.4898-0.42143 1.5034-0.19421 3.0334 0.55543 4.3911 1.8948 3.4322 5.4754 4.4448 8.9472 5.5772l0.72569 8.2066-17.611 0.0751-0.0486-185.34z"
         fill="#77cdeb"
         id="path150" /><path
         d="m407.09 369.34c10.168-1.5261 29.843-0.97313 39.169 2.8385 8.6882 3.552 16.519 11.263 20.079 19.966 3.1533 7.7106 3.4084 17.096 0.0518 24.782-4.5827 10.492-15.004 15.384-26.036 15.584-2.2457 0.0408-6.4859-0.54258-8.415 0.39365-1.1924 0.57948-1.3737 2.0123-1.4384 3.2069-0.55868 10.351 4.5749 18.824 8.9776 27.724 8.9426 18.079 10.922 36.464 5.0268 55.868l-16.104-0.0505-80.525 0.12755c-2.5111-35.516 3.1552-104.11 24.927-132.19 8.5445-11.022 20.733-16.56 34.287-18.245z"
         fill="#4c918c"
         id="path151" /><path
         d="m426.01 404.98c5.8321 2.8236 5.5349-0.0265 10.586 0.40013 0.62535 1.1156 0.43955 1.324 0.22916 2.5452-2.4166 1.6361-4.1878 2.1949-7.1132 1.8692-1.744-0.19424-3.2815-0.62156-4.4254-2.035-0.14631-1.4251-0.0227-1.5358 0.72375-2.7795z"
         fill="#0c1216"
         id="path152" /><path
         d="m411.86 386.35c2.0761-0.24538 4.5199-0.47264 6.5604 0.0499 2.4516 0.62739 5.7 2.4655 6.895 4.7808q0.0991 0.18777 0.17803 0.38459 0.0783 0.19748 0.13594 0.40143 0.057 0.2046 0.0919 0.41437 0.0356 0.20913 0.0479 0.42085 0.013 0.21237 3e-3 0.42409t-0.0427 0.42149q-0.0324 0.20978-0.0874 0.41503-0.0544 0.20524-0.13077 0.40336c-0.91083 2.347-3.7696 3.5869-5.9182 4.4817-1.6682 0.21237-3.4932 0.35546-5.1646 0.14309-2.6878-0.34251-5.946-1.6536-7.5327-3.9683-0.76-1.1084-0.97946-2.3995-0.60399-3.6918 0.78525-2.7018 3.2847-3.8679 5.5686-5.0806z"
         fill="#0c1216"
         id="path153" /><path
         d="m412.1 389.63c2.8477-0.36646 5.7039-0.39171 8.3458 0.92005 1.2701 0.63127 1.4689 0.84946 1.9317 2.1677-0.92637 1.4814-1.6851 1.7604-3.1863 2.5678-2.1881 0.49984-4.4849 0.50955-6.6484-0.10424-1.6042-0.45517-2.1097-0.92522-2.8555-2.2959 0.43956-1.6918 1.1542-2.1081 2.4127-3.2554z"
         fill="#fafafa"
         id="path154" /><path
         d="m442.68 386.36c2.3383-0.27323 4.9912-0.47005 7.2368 0.35805 2.1635 0.79832 4.7833 2.5057 5.6903 4.6896 0.46156 1.1117 0.45703 2.2091-0.0512 3.3027-1.1264 2.426-3.5197 3.3752-5.8327 4.2966-2.4859 0.0874-5.1614 0.31725-7.5644-0.44092-2.1784-0.68696-4.7316-2.09-5.7803-4.1852-0.47322-0.9453-0.55738-2.0479-0.15019-3.0502 1.0636-2.6164 4.0777-3.8757 6.4516-4.9706z"
         fill="#0c1216"
         id="path155" /><path
         d="m443.72 389.59c0.9212-0.0868 1.8508-0.15604 2.7772-0.1418 1.8217 0.0278 4.1101 0.73228 5.3938 2.1023 0.60075 0.64163 0.42208 0.93299 0.39554 1.8006-1.0753 1.4005-2.3324 1.752-3.9275 2.3037-2.7966 0.0298-5.6735 0.0673-8.035-1.6769-0.78136-0.57688-0.65124-0.78472-0.7846-1.7442 1.0461-1.5235 2.537-1.9676 4.1806-2.6436z"
         fill="#fafafa"
         id="path156" /><path
         d="m461.66 412.83c0.95227-0.12431 1.999-0.0473 2.9643-0.0453 1.1154 0.64746 1.5187 0.63322 1.9155 1.899-0.1845 0.20524-0.34439 0.41243-0.56903 0.57365-2.0508 1.4678-6.6095 1.6575-9.1278 2.0214-16.614 2.4034-33.415 3.012-50.152 1.1499-2.2101-0.14115-4.7426-0.0874-6.4594-1.5727l0.0887-1.1279c1.2022-0.62933 2.181-0.74134 3.5093-0.77824 4.4202-0.12432 9.0339 0.62091 13.462 0.87666 5.7337 0.33085 11.54 0.27711 17.285 0.18582 9.2346-0.14698 18.067-1.1907 27.083-3.1823z"
         fill="#0c1216"
         id="path157" /></g><g
       transform="translate(203.61 2)"
       id="g175"><g
         transform="translate(163.1 16.127)"
         fill="#4c918c"
         id="g164"><path
           transform="scale(.64736 .64746)"
           d="m325.3 551.32c2.049 0.046 4.2 0.021 6.22 0.369 1.941 0.335 3.126 0.398 4.308 2.049-1.08 2.778-4.267 4.512-6.6 6.242-0.864 0.816-1.679 1.479-2.679 2.127-1.312 0.851-1.565 0.527-3.045 0.204-1.073-1.654-1.359-2.167-1.377-4.227-0.027-2.999 1.102-4.726 3.173-6.764z"
           id="path158" /><path
           transform="scale(.64736 .64746)"
           d="m274.45 745.22c1.924 0.141 2.509-0.038 4.027 1.225 1.123 4.026 1.661 9.16-0.314 13.007l-1.828 0.04c-1.683-1-3.578-2.061-5.053-3.342-1.773-1.54-1.842-2.857-2.011-5.02 0.862-2.744 3.032-4.188 5.179-5.91z"
           id="path159" /><path
           transform="scale(.64736 .64746)"
           d="m301.86 582.84c2.79 0.25 5.155 0.476 7.247 2.367 0.681 3.701-2.933 8.981-4.543 12.292l-0.974 0.078c-0.996-0.632-2.164-1.319-2.962-2.202-1.804-1.997-2.576-5.532-2.207-8.19 0.253-1.826 2.128-3.214 3.439-4.345z"
           id="path160" /><path
           transform="scale(.64736 .64746)"
           d="m359.25 531.36c1.779 0.482 3.381 1.17 4.976 2.087 2.574 1.48 4.061 2.984 4.825 5.847-1.49 2.167-2.76 2.118-5.149 2.815-2.042 0.601-3.618 0.968-5.752 0.87-1.034-0.523-2.137-1.02-2.84-1.977-0.978-1.333-1.18-2.548-0.882-4.195 0.471-2.61 2.816-4.049 4.822-5.447z"
           id="path161" /><path
           transform="scale(.64736 .64746)"
           d="m274.26 705.37c2.623 0.042 4.153-0.477 6.159 1.355 1.407 4.666 0.357 8.137-0.816 12.72l-1.556 0.4c-3.874-2.337-7.192-3.778-8.43-8.368 0.61-2.893 2.53-4.266 4.643-6.107z"
           id="path162" /><path
           transform="scale(.64736 .64746)"
           d="m281.26 663.67 3.676 0.154c1.357 1.455 1.484 2.371 1.582 4.32 0.151 3.002-0.987 9.211-2.945 11.444-2.745-1.594-5.137-3.121-6.931-5.815-1.332-2.001-1.344-3.529-0.883-5.82 1.232-2.546 3.073-3.191 5.501-4.283z"
           id="path163" /><path
           transform="scale(.64736 .64746)"
           d="m287.9 623.73c0.386-0.045 0.772-0.094 1.159-0.121 2.572-0.18 3.593-0.407 5.539 1.33 0.978 4.433-1.844 10.94-3.015 15.423q-2.051-1.794-4.038-3.659c-2.418-2.288-3.831-4.018-3.93-7.487 0.754-2.764 2.145-3.807 4.285-5.486z"
           fill="#4c918c"
           id="path164" /></g><g
         stroke-width=".64741"
         id="g174"><path
           d="m344.7 523.31q71.274-0.37165 142.56 0.17546l-0.0117 28.342-19.708-0.024q-70.355-0.34316-140.71 0.31272l0.11459-28.682 17.764-0.12366z"
           fill="#9ed9c7"
           id="path165" /><path
           d="m440.35 457.72q1.384 0.573 2.6885 1.3092c7.0996 4.0654 13.082 12.607 15.031 20.486 0.94514 3.8207 1.1491 7.5371-0.9445 10.967-1.643 0.83717-3.7424 1.7753-5.5874 1.3882-1.8029-3.1998-1.9492-11.378-3.1701-15.503-1.9369-6.5406-5.0106-12.554-8.0176-18.647z"
           fill="#4c918c"
           id="path166" /><path
           d="m326.87 334.49 160.4 0.0615-0.0246 185.45q-19.669-0.10618-39.337 0.0589c2.3052-8.0654 3.2368-15.864 3.4239-24.233 1.452-0.12755 3.2174-0.15992 4.5891-0.65328 2.4619-0.88443 4.7749-3.1687 5.7544-5.5908 2.0521-5.0761-0.32886-12.613-2.5156-17.278q-0.39295-0.84364-0.82668-1.6666-0.43438-0.82292-0.90889-1.6232-0.47452-0.80026-0.98852-1.5759-0.51401-0.77501-1.0656-1.5241-0.5522-0.74911-1.1406-1.4697-0.58845-0.72063-1.2118-1.4108-0.62406-0.69019-1.2811-1.3487t-1.3465-1.2833q-0.68879-0.6248-1.4086-1.2146-0.71922-0.58984-1.4669-1.1428-0.74835-0.55293-1.5226-1.0683-0.77424-0.51537-1.5737-0.99126-0.79949-0.47588-1.621-0.91097-0.82215-0.43574-1.6644-0.8294-0.84286-0.3943-1.7038-0.74523-0.86099-0.35157-1.7388-0.65976c-2.7785-5.5371-3.7223-10.737-3.9703-16.852 9.311 0.0738 18.361-0.20848 26.275-5.8427 6.4263-4.5756 10.514-11.547 11.73-19.314 1.6987-10.861-1.9453-21.187-8.2927-29.897-1.5381-1.875-3.1656-3.5999-4.9737-5.2198-13.802-12.363-35.112-11.024-52.474-10.104-1.2908-2.9919-3.1384-5.8679-6.1972-7.2658-2.0728-0.94788-4.3632-1.2852-6.5254-0.38265-1.375 0.5743-2.4457 1.7566-3.0063 3.1253-1.2708 3.1007-0.32821 5.5345 0.88235 8.4293-2.3538 0.97572-4.6273 2.136-6.9119 3.2606-1.544-1.1065-3.0504-2.0945-4.8889-2.6403-2.5014-0.74328-5.3977-0.61962-7.6751 0.73616-1.6521 0.9835-2.7662 2.5704-3.174 4.4461-0.71922 3.304 0.78913 5.9514 2.4891 8.6416l-5.0158 7.8122c-2.1272-0.70249-4.3567-1.5474-6.6322-1.4315-2.0042 0.1023-4.1955 0.9045-5.5026 2.4901-1.1827 1.4354-1.4928 3.2496-1.2811 5.0534 0.49135 4.1819 3.207 6.3354 6.3111 8.832l-3.3229 9.8718c-1.8003-0.055-3.6666-0.11072-5.4475 0.20071-2.1958 0.38395-4.5341 1.8291-5.7298 3.7216-0.98528 1.5591-1.1471 3.4555-0.63053 5.2062 1.14 3.8589 4.2687 5.809 7.5333 7.7566l-1.7168 9.0567c-1.4443 0.0227-2.9041 0.12237-4.3282 0.37812-2.3629 0.42473-4.8021 1.8278-6.0897 3.8971-0.86358 1.3875-1.0481 2.933-0.64995 4.507 1.0584 4.1826 4.6804 6.1334 8.1263 8.1476q-0.69203 4.9019-1.2436 9.8213c-1.8728 0.0784-3.7353 0.17029-5.5149 0.81321-2.1175 0.76465-4.3043 2.3568-5.1925 4.483-0.58197 1.3914-0.50558 2.8695 0.0634 4.2506 1.5983 3.8802 5.6942 5.585 9.2462 7.2069l-0.19939 8.597c-1.476 0.41049-3.1222 0.80156-4.5056 1.4684-2.1305 1.0262-4.3036 3.1719-4.9536 5.4898-0.42143 1.5034-0.19421 3.0334 0.55543 4.3911 1.8948 3.4322 5.4754 4.4448 8.9472 5.5772l0.72569 8.2066-17.611 0.0751-0.0486-185.34z"
           fill="#77cdeb"
           id="path167" /><path
           d="m407.09 369.34c10.168-1.5261 29.843-0.97313 39.169 2.8385 8.6882 3.552 16.519 11.263 20.079 19.966 3.1533 7.7106 3.4084 17.096 0.0518 24.782-4.5827 10.492-15.004 15.384-26.036 15.584-2.2457 0.0408-6.4859-0.54258-8.415 0.39365-1.1924 0.57948-1.3737 2.0123-1.4384 3.2069-0.55868 10.351 4.5749 18.824 8.9776 27.724 8.9426 18.079 10.922 36.464 5.0268 55.868l-16.104-0.0505-80.525 0.12755c-2.5111-35.516 3.1552-104.11 24.927-132.19 8.5445-11.022 20.733-16.56 34.287-18.245z"
           fill="#4c918c"
           id="path168" /><path
           d="m426.01 404.98c5.8321 2.8236 5.5349-0.0265 10.586 0.40013 0.62535 1.1156 0.43955 1.324 0.22916 2.5452-2.4166 1.6361-4.1878 2.1949-7.1132 1.8692-1.744-0.19424-3.2815-0.62156-4.4254-2.035-0.14631-1.4251-0.0227-1.5358 0.72375-2.7795z"
           fill="#0c1216"
           id="path169" /><path
           d="m411.86 386.35c2.0761-0.24538 4.5199-0.47264 6.5604 0.0499 2.4516 0.62739 5.7 2.4655 6.895 4.7808q0.0991 0.18777 0.17803 0.38459 0.0783 0.19748 0.13594 0.40143 0.057 0.2046 0.0919 0.41437 0.0356 0.20913 0.0479 0.42085 0.013 0.21237 3e-3 0.42409t-0.0427 0.42149q-0.0324 0.20978-0.0874 0.41503-0.0544 0.20524-0.13077 0.40336c-0.91083 2.347-3.7696 3.5869-5.9182 4.4817-1.6682 0.21237-3.4932 0.35546-5.1646 0.14309-2.6878-0.34251-5.946-1.6536-7.5327-3.9683-0.76-1.1084-0.97946-2.3995-0.60399-3.6918 0.78525-2.7018 3.2847-3.8679 5.5686-5.0806z"
           fill="#0c1216"
           id="path170" /><path
           d="m412.1 389.63c2.8477-0.36646 5.7039-0.39171 8.3458 0.92005 1.2701 0.63127 1.4689 0.84946 1.9317 2.1677-0.92637 1.4814-1.6851 1.7604-3.1863 2.5678-2.1881 0.49984-4.4849 0.50955-6.6484-0.10424-1.6042-0.45517-2.1097-0.92522-2.8555-2.2959 0.43956-1.6918 1.1542-2.1081 2.4127-3.2554z"
           fill="#fafafa"
           id="path171" /><path
           d="m442.68 386.36c2.3383-0.27323 4.9912-0.47005 7.2368 0.35805 2.1635 0.79832 4.7833 2.5057 5.6903 4.6896 0.46156 1.1117 0.45703 2.2091-0.0512 3.3027-1.1264 2.426-3.5197 3.3752-5.8327 4.2966-2.4859 0.0874-5.1614 0.31725-7.5644-0.44092-2.1784-0.68696-4.7316-2.09-5.7803-4.1852-0.47322-0.9453-0.55738-2.0479-0.15019-3.0502 1.0636-2.6164 4.0777-3.8757 6.4516-4.9706z"
           fill="#0c1216"
           id="path172" /><path
           d="m443.72 389.59c0.9212-0.0868 1.8508-0.15604 2.7772-0.1418 1.8217 0.0278 4.1101 0.73228 5.3938 2.1023 0.60075 0.64163 0.42208 0.93299 0.39554 1.8006-1.0753 1.4005-2.3324 1.752-3.9275 2.3037-2.7966 0.0298-5.6735 0.0673-8.035-1.6769-0.78136-0.57688-0.65124-0.78472-0.7846-1.7442 1.0461-1.5235 2.537-1.9676 4.1806-2.6436z"
           fill="#fafafa"
           id="path173" /><path
           d="m461.66 412.83c0.95227-0.12431 1.999-0.0473 2.9643-0.0453 1.1154 0.64746 1.5187 0.63322 1.9155 1.899-0.1845 0.20524-0.34439 0.41243-0.56903 0.57365-2.0508 1.4678-6.6095 1.6575-9.1278 2.0214-16.614 2.4034-33.415 3.012-50.152 1.1499-2.2101-0.14115-4.7426-0.0874-6.4594-1.5727l0.0887-1.1279c1.2022-0.62933 2.181-0.74134 3.5093-0.77824 4.4202-0.12432 9.0339 0.62091 13.462 0.87666 5.7337 0.33085 11.54 0.27711 17.285 0.18582 9.2346-0.14698 18.067-1.1907 27.083-3.1823z"
           fill="#0c1216"
           id="path174" /></g></g></g><metadata
     id="metadata176"><rdf:RDF><cc:Work
         rdf:about=""><dc:title>Powered by React</dc:title></cc:Work></rdf:RDF></metadata></svg>
