<?xml version="1.0" encoding="UTF-8"?>
<svg class="iconLeftSlogan" data-v-fde0c5aa="" version="1.1" viewBox="0 0 300 300" xmlns="http://www.w3.org/2000/svg">
 <!---->
 <defs data-v-fde0c5aa="">
  <!----></defs>
 <rect class="logo-background-square" width="300px" height="300px" fill="#156EAC" data-v-fde0c5aa=""/>
 <defs data-v-fde0c5aa="">
  <!----></defs>
 <g transform="matrix(2.0418 0 0 2.0418 95.877 123.17)" fill="#fff" data-v-fde0c5aa="">
  <path d="m7.11 13.45v-1.17h0.86l-0.82-2.35h-3.98l-0.8 2.35h1.06v1.17h-3.36v-1.17h0.9l3.23-9.19h2.01l3.22 9.19h1.04v1.17h-3.36zm-1.97-9.29-1.59 4.63h3.2l-1.61-4.63zm8.14-0.07v2.28h1.66v1.03h-1.68l-0.02 4.09q0 0.42 0.1 0.68 0.09 0.26 0.3 0.36 0.22 0.1 0.48 0.1 0.29 0 0.51-0.06 0.22-0.05 0.48-0.17l0.29 0.85q-0.33 0.18-0.69 0.27-0.36 0.1-0.85 0.1-0.47 0-0.81-0.11-0.35-0.11-0.58-0.38-0.24-0.26-0.36-0.71-0.11-0.45-0.11-1.12l0.02-3.9h-1.13v-1.03h1.14v-1.69l1.25-0.59zm5.2 0v2.28h1.67v1.03h-1.68l-0.02 4.09q0 0.42 0.1 0.68 0.09 0.26 0.3 0.36 0.22 0.1 0.48 0.1 0.29 0 0.51-0.06 0.22-0.05 0.48-0.17l0.29 0.85q-0.33 0.18-0.69 0.27-0.36 0.1-0.85 0.1-0.47 0-0.81-0.11-0.35-0.11-0.59-0.38-0.23-0.26-0.35-0.71-0.11-0.45-0.11-1.12l0.02-3.9h-1.13v-1.03h1.14v-1.69l1.24-0.59zm8.26 2.24v1.54h-1.3v-0.44q-0.23 0-0.46 0.09-0.24 0.08-0.45 0.26-0.2 0.17-0.35 0.44-0.16 0.27-0.23 0.64v3.42h1.21v1.17h-3.52v-1.17h0.98l0.01-4.73h-0.99v-1.18h2.27v0.98q0.12-0.22 0.27-0.41 0.16-0.19 0.34-0.33 0.19-0.14 0.42-0.21 0.23-0.08 0.5-0.08 0.35 0 0.67 0 0.31 0 0.63 0.01zm1.41 1.22v-1.18h2.31v5.91h1.07v1.17h-3.37v-1.17h1.02v-4.73h-1.03zm0.79-3.69q0-0.18 0.07-0.34t0.19-0.28 0.28-0.19q0.17-0.07 0.35-0.07t0.34 0.07 0.28 0.19 0.19 0.28 0.07 0.34q0 0.19-0.07 0.35-0.07 0.17-0.19 0.29-0.12 0.13-0.28 0.2t-0.34 0.07-0.35-0.07q-0.16-0.07-0.28-0.2-0.12-0.12-0.19-0.29-0.07-0.16-0.07-0.35zm3.46 0.13v-1.17h2.3v4.14q0.45-0.35 0.98-0.55 0.54-0.21 1.1-0.21 0.7 0 1.28 0.26t1 0.73 0.66 1.13q0.23 0.66 0.23 1.46 0 0.86-0.26 1.55t-0.72 1.19-1.1 0.77q-0.63 0.27-1.39 0.27-0.53 0-0.99-0.15-0.46-0.16-0.79-0.4v0.44h-1.27v-9.46h-1.03zm4.05 3.33q-0.5 0-0.96 0.21-0.46 0.2-0.79 0.55v3.81q0.22 0.22 0.64 0.4 0.43 0.17 1.07 0.17 0.44 0 0.84-0.16 0.4-0.17 0.71-0.5t0.49-0.82q0.19-0.49 0.19-1.15 0-0.6-0.18-1.07-0.17-0.46-0.47-0.78t-0.69-0.49q-0.4-0.17-0.85-0.17zm9.08 0.23v-1.18h2.28v5.91h0.79v1.17h-2.07v-0.65q-0.48 0.37-1.04 0.57-0.56 0.21-1.21 0.21-0.53 0-0.96-0.16-0.44-0.15-0.74-0.48-0.31-0.32-0.47-0.82t-0.16-1.19v-3.38h-0.96v-1.18h2.28v4.41q0 0.81 0.38 1.23 0.37 0.42 1.08 0.42 0.41 0 0.88-0.15 0.46-0.15 0.87-0.42v-4.31h-0.95zm7.01-3.46v2.28h1.66v1.03h-1.67l-0.02 4.09q0 0.42 0.09 0.68 0.1 0.26 0.31 0.36t0.48 0.1q0.29 0 0.5-0.06 0.22-0.05 0.48-0.17l0.3 0.85q-0.33 0.18-0.69 0.27-0.37 0.1-0.86 0.1-0.46 0-0.81-0.11-0.34-0.11-0.58-0.38-0.23-0.26-0.35-0.71t-0.12-1.12l0.02-3.9h-1.12v-1.03h1.14v-1.69l1.24-0.59zm12.23 8.58-0.95 0.82-1.61-1.55q-0.29 0.35-0.63 0.64-0.33 0.3-0.71 0.51-0.38 0.22-0.81 0.34-0.42 0.12-0.9 0.12-0.66 0-1.24-0.23-0.58-0.24-1.01-0.64-0.42-0.4-0.67-0.95t-0.25-1.19q0-0.42 0.13-0.81t0.35-0.73q0.22-0.35 0.52-0.62t0.92-0.59l-0.45-0.44q-0.17-0.17-0.34-0.38t-0.3-0.46q-0.12-0.24-0.2-0.51-0.08-0.26-0.08-0.52 0-0.55 0.21-1.02t0.58-0.82 0.86-0.55q0.49-0.21 1.05-0.21 0.59 0 1.1 0.22 0.51 0.21 0.88 0.56 0.37 0.36 0.58 0.83 0.22 0.47 0.22 0.99 0 0.41-0.09 0.72-0.08 0.31-0.23 0.55-0.15 0.25-0.36 0.45t-0.44 0.37q-0.24 0.18-0.48 0.32-0.25 0.14-0.51 0.27l2.09 1.94q0.22-0.5 0.35-0.98 0.14-0.49 0.21-0.89h1.29q-0.12 0.64-0.36 1.33t-0.61 1.36l1.89 1.75zm-5.97-4.02-0.55 0.25q-0.23 0.1-0.42 0.26-0.19 0.17-0.33 0.39-0.13 0.21-0.21 0.46-0.07 0.25-0.07 0.5 0 0.4 0.15 0.74t0.42 0.58q0.27 0.25 0.64 0.39t0.78 0.14q0.36 0 0.67-0.09 0.32-0.09 0.59-0.25t0.5-0.38 0.43-0.48l-2.6-2.51zm1.58-2.21q0.17-0.19 0.3-0.44 0.12-0.25 0.12-0.52 0-0.29-0.13-0.56-0.12-0.26-0.34-0.47-0.21-0.2-0.49-0.32-0.29-0.12-0.6-0.12-0.34 0-0.62 0.11t-0.47 0.31q-0.2 0.2-0.31 0.46t-0.11 0.57q0 0.29 0.14 0.61 0.14 0.31 0.51 0.66l0.61 0.57q0.4-0.18 0.76-0.38 0.35-0.21 0.63-0.48zm11.75 1.82h-1.28q-0.29-0.51-0.73-0.75t-1.02-0.24q-0.45 0-0.84 0.18-0.39 0.19-0.68 0.53t-0.45 0.83q-0.17 0.49-0.17 1.09 0 0.59 0.17 1.07 0.16 0.48 0.46 0.82 0.29 0.34 0.68 0.52 0.38 0.18 0.83 0.18 0.65 0 1.14-0.32 0.48-0.32 0.77-0.93l1.05 0.52q-0.2 0.44-0.5 0.78-0.3 0.35-0.68 0.6-0.38 0.24-0.84 0.38-0.45 0.13-0.96 0.13-0.73 0-1.36-0.28-0.63-0.27-1.08-0.77t-0.71-1.19q-0.25-0.69-0.25-1.51t0.27-1.51q0.26-0.69 0.73-1.19 0.46-0.49 1.08-0.77 0.63-0.28 1.34-0.28 0.67 0 1.27 0.23 0.59 0.23 1.05 0.7h0.71v1.18zm1.15 1.65q0.01-0.84 0.27-1.53t0.74-1.19q0.47-0.49 1.12-0.76 0.65-0.26 1.43-0.26t1.43 0.26q0.66 0.27 1.12 0.76 0.47 0.49 0.73 1.18t0.26 1.53q0 0.83-0.26 1.52t-0.73 1.19q-0.46 0.5-1.12 0.78-0.65 0.28-1.43 0.28-0.8 0-1.45-0.28-0.65-0.27-1.12-0.77-0.46-0.49-0.72-1.18t-0.27-1.53zm1.35 0q0 0.61 0.17 1.1 0.18 0.49 0.48 0.84t0.7 0.53q0.4 0.19 0.86 0.19 0.47 0 0.87-0.18 0.41-0.19 0.71-0.53 0.3-0.35 0.47-0.84t0.17-1.11q0-0.64-0.17-1.14t-0.46-0.83q-0.3-0.34-0.71-0.51t-0.88-0.17q-0.46 0-0.86 0.17t-0.7 0.51q-0.3 0.33-0.48 0.83-0.17 0.5-0.17 1.14z"/>
 </g>
 <defs data-v-fde0c5aa="">
  <!----></defs>
 <g transform="matrix(.56607 0 0 .56607 40 121.7)" fill="#F6575E" data-v-fde0c5aa="">
  <path d="M33.999 88h8v12h-8zM75.999 88L38 0h-.001L0 88h33.999V50h8v38z"/>
 </g>
 <defs data-v-fde0c5aa="">
  <!----></defs>
 <g transform="matrix(1.3679 0 0 1.3679 94.393 157.73)" fill="#fff" data-v-fde0c5aa="">
  <path d="m1.19 2.8v9.8h0.42v-9.8zm8.89 0.41h2.52v9.39h0.42v-9.39h2.52v-0.41h-5.46zm25.13-0.41v9.8h0.42v-9.8zm9.55 6.94-0.38 0.16c0.63 1.87 1.68 2.81 3.15 2.81 0.91 0 1.61-0.26 2.07-0.78 0.47-0.52 0.7-1.16 0.7-1.92 0-0.35-0.06-0.66-0.17-0.95-0.12-0.28-0.25-0.51-0.4-0.69-0.14-0.18-0.34-0.35-0.6-0.51-0.27-0.16-0.48-0.28-0.64-0.36-0.16-0.07-0.39-0.16-0.67-0.28-0.03-0.01-0.15-0.06-0.35-0.14-0.19-0.07-0.31-0.12-0.36-0.14-0.05-0.03-0.15-0.07-0.32-0.14s-0.28-0.13-0.33-0.16c-0.05-0.04-0.14-0.1-0.27-0.19-0.13-0.08-0.22-0.15-0.27-0.21s-0.11-0.14-0.2-0.24c-0.08-0.1-0.14-0.2-0.17-0.3-0.03-0.09-0.06-0.2-0.09-0.32-0.03-0.13-0.04-0.26-0.04-0.4 0-0.57 0.19-1.03 0.59-1.36s0.89-0.5 1.48-0.5c1.13 0 1.91 0.65 2.35 1.95l0.41-0.17c-0.21-0.67-0.55-1.21-1.01-1.61-0.47-0.4-1.05-0.6-1.74-0.6s-1.29 0.21-1.8 0.64-0.76 1-0.76 1.71c0 0.35 0.07 0.67 0.22 0.95 0.14 0.28 0.36 0.52 0.64 0.72 0.29 0.2 0.54 0.36 0.77 0.46 0.23 0.11 0.53 0.24 0.89 0.38 0.28 0.1 0.47 0.17 0.57 0.22 0.11 0.05 0.28 0.13 0.52 0.25 0.24 0.11 0.42 0.22 0.53 0.32 0.1 0.11 0.23 0.24 0.37 0.41 0.15 0.17 0.25 0.36 0.31 0.57 0.05 0.22 0.08 0.46 0.08 0.73 0 0.67-0.19 1.22-0.57 1.63s-0.94 0.61-1.7 0.61c-1.23 0-2.17-0.85-2.81-2.55zm26.19-2.26h4.34v-0.4h-4.34v-3.87h4.62v-0.41h-5.04v9.8h5.04v-0.41h-4.62zm17.22-5.03-4.27 10.15h0.49l1.28-3.08h5.01l1.27 3.08h0.49zm0 1.05 2.31 5.57h-4.62zm12.42 6.24-0.38 0.16c0.63 1.87 1.68 2.81 3.15 2.81 0.92 0 1.61-0.26 2.07-0.78 0.47-0.52 0.7-1.16 0.7-1.92 0-0.35-0.05-0.66-0.17-0.95-0.12-0.28-0.25-0.51-0.39-0.69-0.15-0.18-0.35-0.35-0.61-0.51s-0.48-0.28-0.64-0.36c-0.16-0.07-0.38-0.16-0.66-0.28-0.04-0.01-0.16-0.06-0.35-0.14-0.2-0.07-0.32-0.12-0.37-0.14-0.04-0.03-0.15-0.07-0.32-0.14s-0.28-0.13-0.33-0.16c-0.05-0.04-0.14-0.1-0.27-0.19-0.13-0.08-0.22-0.15-0.27-0.21-0.04-0.06-0.11-0.14-0.19-0.24-0.09-0.1-0.15-0.2-0.18-0.3-0.03-0.09-0.06-0.2-0.09-0.32-0.03-0.13-0.04-0.26-0.04-0.4 0-0.57 0.2-1.03 0.59-1.36 0.4-0.33 0.89-0.5 1.48-0.5 1.13 0 1.91 0.65 2.35 1.95l0.41-0.17c-0.21-0.67-0.54-1.21-1.01-1.61s-1.05-0.6-1.74-0.6-1.29 0.21-1.8 0.64c-0.5 0.43-0.76 1-0.76 1.71 0 0.35 0.07 0.67 0.22 0.95 0.14 0.28 0.36 0.52 0.64 0.72 0.29 0.2 0.54 0.36 0.77 0.46 0.23 0.11 0.53 0.24 0.89 0.38 0.28 0.1 0.47 0.17 0.58 0.22 0.1 0.05 0.27 0.13 0.51 0.25 0.25 0.11 0.42 0.22 0.53 0.32 0.11 0.11 0.23 0.24 0.38 0.41 0.14 0.17 0.24 0.36 0.3 0.57 0.05 0.22 0.08 0.46 0.08 0.73 0 0.67-0.19 1.22-0.57 1.63-0.37 0.41-0.94 0.61-1.7 0.61-1.23 0-2.17-0.85-2.81-2.55zm19.95-6.94-3.01 5.36-2.88-5.36h-0.54l3.2 5.82v3.98h0.44v-3.99l3.32-5.81z"/>
 </g>
</svg>
