<?xml version="1.0" encoding="UTF-8"?>
<svg version="1.1" viewBox="0 0 1129 663" xmlns="http://www.w3.org/2000/svg">
 <g fill="#F1FAEE">
  <path transform="scale(.64736 .64746)" d="m0 706.54c12.147-2.249 54.205-9.889 63.59-8.244l0.9292 2.01c-7.7338 2.38-17.023 2.15-25.1 3.13q-19.75 2.558-39.419 5.682v-2.578z"/>
  <path transform="scale(.64736 .64746)" d="m1482.3 482.99c-0.96-1.942-2.06-4.007-2.49-6.141-0.42-2.008-0.28-3.941 0.4-5.863 2.73-7.789 8.35-15.838 12.38-23.056 7.27-12.997 14.15-26.558 22.35-38.985 2.11-0.938 2.52-0.493 4.68 0.13 0.12 0.444 0.66 1.858 0.59 2.227-1.17 6.382-25.03 47.257-29.51 55.94-2.24 4.347-3.97 9.891-6.47 13.938-0.47 0.753-1.2 1.338-1.93 1.81z"/>
  <path transform="scale(.64736 .64746)" d="m1473.8 571.07c-1.49-4.07-5.26-6.851-4.1-11.787 1.19-5.009 33.93-64.503 35.48-65.519 2.01 0.126 3.43 0.346 5.22 1.292 0.43 3.203-2.55 7.164-4.06 10.021-9.34 17.724-19.5 35.276-28.18 53.311-1.74 3.599-1.72 9.187-3.9 12.137-0.14 0.192-0.31 0.363-0.46 0.545z"/>
  <path transform="scale(.64736 .64746)" d="m1698.8 409.07c2.6-0.336 6.01-1.314 8.37 0.018 9.75 11.47 34.44 54.823 33.56 68.839-0.1 1.507-0.58 2.576-1.47 3.771-1.29 0.579-2.5 1.158-3.89 1.456-6.15-26.281-20.61-52.547-36.57-74.084z"/>
  <path transform="scale(.64736 .64746)" d="m199.62 326.02 8.382-2.259c9.794 15.305 31.814 46.474 37.698 60.91 0.913 2.239 1.541 4.604 0.892 7.014-0.647 2.406-3.416 4.426-5.249 6.005-1e-3 -2.798-0.219-5.549-1.239-8.178-6.192-15.966-29.541-47.537-40.484-63.492z"/>
  <path transform="scale(.64736 .64746)" d="m211.85 410.98c2.278-0.42 4.984-1.334 7.171-0.376 8.742 12.317 34.014 49.974 38.629 62.125 0.592 1.557 0.629 2.901 0.294 4.535-0.609 2.974-2.373 4.317-4.821 5.785-0.818 0.491-1.645 0.962-2.511 1.366 0.399-2.17 1.028-4.796 0.536-6.976-3.673-16.253-30.944-48.699-39.817-65.132l0.519-1.327z"/>
  <path transform="scale(.64736 .64746)" d="m221.08 494.91c2.045 3e-3 5.789-0.628 7.288 0.9 2.741 2.793 35.452 58.641 37.432 63.921 0.537 1.433 0.432 3.15 0.138 4.623-0.747 3.738-3.896 6.05-6.972 7.903q-0.713 0.433-1.439 0.845c-0.019-2.313 1.854-5.993 2.69-8.247-7.599-17.938-20.242-35.66-30.356-52.313-2.987-4.92-7.87-11.04-9.35-16.589l0.389-0.154 0.18-0.889z"/>
 </g>
 <path transform="scale(.64736 .64746)" d="m1718.4 492.69c7.54-1.242 18.23-3.522 24.43-8.079 2.04 4.805 2.09 51.404 0.46 55.361-0.13 0.31-0.28 0.61-0.42 0.915-0.77-6.819-19.12-43.14-24.47-48.197z" fill="#A8DADC"/>
 <g fill="#F1FAEE">
  <path transform="scale(.64736 .64746)" d="m1611.9 202.64c1.11-3.513 1.63-6.97-0.09-10.407 19.81 10.494 45.97 45.413 52.56 67.048 1.44 4.725 3.7 13.035 2.09 17.692l-0.34 1.018-1.55 0.542c-4.1-4.408-5.1-15.799-7.84-21.635-7.25-15.442-28.13-48.107-44.83-54.258z"/>
  <path transform="scale(.64736 .64746)" d="m1607.1 192.57c0.37 0.713 0.72 1.39 1.01 2.146 1.19 3.183 0.55 5.842-0.79 8.81-19.61 22.22-28.13 28.186-41.96 56.018-2.03 4.085-4.05 8.252-5.3 12.652-1.84 6.45-1.57 18.724-6.02 23.285 1.27-3.634 0.48-8.872 0.52-12.742 0.09-7.877 1.14-14.86 3.91-22.26 7.21-19.211 19.32-37.157 33.44-51.953 4.62-4.831 11.68-9.698 14.92-15.453 0.1-0.165 0.18-0.336 0.27-0.503z"/>
  <path transform="scale(.64736 .64746)" d="m1390.3 699.39c5.51-1.407 11.96-1.599 17.64-2.196q20.83-2.117 41.7-3.777 43.85-4.009 87.84-6.031c11.08-0.527 23.15-1.982 34.19-1.017l0.9 1.139-1.67 2.401q-66.14 1.8-131.97 8.415c-7.78 0.722-42.57 5.331-47.03 4.001-0.69-0.996-1.2-1.77-1.6-2.935z"/>
  <path transform="scale(.64736 .64746)" d="m167.92 234.98 0.874-9.932c19.811 16.447 52.587 48.787 54.929 76.061 0.327 3.81-0.619 6.792-2.808 9.919-3.364-5.615-3.939-14.5-6.685-20.718-9.582-21.696-28.659-40.129-46.31-55.33z"/>
  <path transform="scale(.64736 .64746)" d="m1665.5 318.51c1.06-1.868 2.15-3.691 3.32-5.489 12.68 3.751 40.42 43.214 47.25 55.785 3.53 6.502 10.87 18.958 8.56 26.409-0.71 2.303-2.41 3.564-4.49 4.607-1-2.276-1.23-5.434-1.97-7.9-6.05-20.293-34.51-63.612-52.67-73.412z"/>
  <path transform="scale(.64736 .64746)" d="m47.029 228.67c-1.4709-16.117-0.2438-31.612 4.98-47.001 7.4855-22.051 29.272-50.198 50.293-60.536l0.828 0.573-0.045 6.04c-24.744 21.327-44.025 42.93-51.859 75.476-2.0122 8.359-2.0886 17.215-4.1975 25.448z"/>
  <path transform="scale(.64736 .64746)" d="m107.37 128.77c-0.189-2.872-0.504-5.81-0.505-8.684 28.373 20.642 50.99 47.336 56.554 82.955 1.406 9.002 1.264 18.13 0.718 27.201l-0.651 0.427c-1.787-2.494-1.381-13.346-2.051-17.078-6.893-38.36-26.669-59.32-54.065-84.821z"/>
  <path transform="scale(.64736 .64746)" d="m1500.6 399.61c-2.22-2.524-4.1-4.662-4.27-8.225-0.75-16.146 26.29-48.903 37.01-60.568 4.27-4.644 14.03-16.976 20.33-17.237 0.9 2.104 0.62 2.711 0.27 4.917-1.53 7.986-46.43 44.528-51.94 80.366l-1.4 0.747z"/>
  <path transform="scale(.64736 .64746)" d="m1575.2 760.51c-0.77 0.147-1.39 0.288-2.16 0.049-4.43-1.38-0.95-18.641-0.64-23.027q4.4-61.296 9.77-122.51c1.94-22.867 5.4-47.951 4.98-70.787-0.04-2.058-0.72-3.738-1.64-5.553 1.6 1.656 2.67 3.328 3.64 5.426 1.8 3.932 4.71 10.409 3.13 14.705 1.83 9.011-4.83 66.227-5.92 79.119-3.32 39.318-5.49 78.745-9.37 118.02-0.14 1.366-0.35 2.572-1.13 3.735-0.36 0.545-0.29 0.442-0.66 0.827z"/>
  <path transform="scale(.64736 .64746)" d="m790.49 749.46c31.594-0.426 63.225-0.035 94.824-0.114 22.696-0.057 45.711-0.92 68.362 0.138 2.016 1.389 2.029 2.709 2.721 4.936-53.363 1.644-107.28 0.526-160.69 0.245-3.703 21.238-18.772 92.093-32.782 105.56-1.284 0.221-2.571 0.481-3.865 0.633 14.126-36.182 27.561-72.38 31.43-111.4z"/>
  <path transform="scale(.64736 .64746)" d="m66.996 781.57c-1.3727-0.079-2.5038-0.393-3.8015-0.799-1.2163-2.395-1.1496-4.804-1.0335-7.436 0.4652-10.543 2.0696-21.306 2.7898-31.899 4.7072-69.229 12.854-138.46 14.797-207.83 1.6878 5.681 3.4114 11.308 5.4328 16.881 1.007 16.166-1.3807 32.512-2.8032 48.614l-5.1579 63.347-6.1514 79.601c-1.0812 12.952-1.4302 26.824-4.0723 39.518z"/>
 </g>
 <defs>
  <linearGradient id="gradient_0" x1="361.67" x2="371.82" y1="447.22" y2="447.27" gradientUnits="userSpaceOnUse">
   <stop stop-color="#588D7F" offset="0"/>
   <stop stop-color="#F8F0FB" offset="1"/>
  </linearGradient>
 </defs>
 <path transform="scale(.64736 .64746)" d="m365.38 698.53c-1.091-0.087-2.087-0.329-3.15-0.574q-0.246-2.253-0.36-4.516c-1.365-27.421-0.069-55.573-0.089-83.067l-0.324-165-0.038-154.77c0.014-24.197-1.589-50.787 0.061-74.58 0.389-5.605 1.504-10.734 5.438-14.965 3.992-4.294 8.747-5.718 14.448-5.916-0.094 0.231-0.178 0.467-0.281 0.694-1.283 2.82-11.892 6.53-14.358 15.009-3.305 11.365-1.557 86.947-1.59 104.18l0.315 303.56c0.059 12.474 2.032 72.579-0.072 79.939z" fill="url(#gradient_0)"/>
 <path transform="scale(.64736 .64746)" d="m1383 742.64c0.22 0.839 0.68 1.554 0.24 2.34-1.91 3.405-6.92 6.913-10.61 8.046-9.36 2.868-53.13 1.202-66.44 1.207l-159.11-0.138-124.66 0.029c-20.75 0.023-42.333 1.25-62.983-0.07-0.057-1.281 4e-3 -2.555 0.043-3.836 3.56-2.364 295.28-1.034 326.89-0.979l55.76 0.099c9.94 0.017 22.22 1.264 31.87-0.855 3.51-0.769 7.08-2.761 9-5.843z" fill="#F1FAEE"/>
 <path transform="scale(.64736 .64746)" d="m0 709.12q19.669-3.124 39.419-5.682c8.0769-0.98 17.366-0.75 25.1-3.13-3.5125 26.424-4.7033 54.205-6.0052 80.863l-58.514 0.035v-72.086z" fill="#1D3557"/>
 <path transform="scale(.64736 .64746)" d="m0 596.02c22.792 5.06 48.377 9.508 71.738 9.818-1.6023 29.136-4.2378 58.311-6.7591 87.386-21.662 2.924-43.431 5.703-64.979 9.372v-106.58z" fill="#A8DADC"/>
 <path transform="scale(.64736 .64746)" d="m1635.2 604.64c28.08-2.96 87.3-12.116 107.6-29.691 0.59 1.335 0.99 2.615 1.07 4.074 0.64 11.701 1.22 103.85-0.49 108.52-0.22 0.594-0.55 1.131-0.9 1.651-10.54-1.445-21.39-1.955-31.99-2.864-23.72-2.033-47.32-3.785-71.14-4.121 0.25-0.463 0.37-0.619 0.52-1.089 0.74-2.3-2.76-66.455-3.5-72.856-0.15-1.268-0.64-2.477-1.17-3.628z" fill="#A8DADC"/>
 <path transform="scale(.64736 .64746)" d="m1592.2 558.8c0.13 0.109 0.26 0.212 0.38 0.327 6.7 6.333 5.14 22.098 13.09 27.549 1.9-0.318 2.02-0.369 3.17-1.921 3.59-4.809 19.36-46.656 18.63-51.617 4.16 6.495 2.87 31.351 3.3 40.214 1.68 34.641 3.13 69.244 5.45 103.85q2.1 29.871 3.6 59.779c0.32 6.465 1.75 14.988 0.67 21.232-0.15 0.825-0.45 1.467-0.82 2.21l-64.55 0.077c0.37-0.385 0.3-0.282 0.66-0.827 0.78-1.163 0.99-2.369 1.13-3.735 3.88-39.275 6.05-78.702 9.37-118.02 1.09-12.892 7.75-70.108 5.92-79.119z" fill="#22ADDA"/>
 <path transform="scale(.64736 .64746)" d="m1597.8 688.76c1.57-0.096 2.22-0.164 3.62 0.685 0.48 1.103 0.77 2.17 0.91 3.368 0.71 6.282 1.61 30.283-0.16 35.478-0.21 0.601-1.29 1.674-1.72 2.226l-0.71 0.138c-3.13-3.351-1.21-34.487-1.94-41.895z"/>
 <path transform="scale(.64736 .64746)" d="m1616 629.99 1.68 0.272c1.5 2.111 1.54 4.138 1.63 6.702 0.27 7.836 2.13 45.871-1.32 49.603l-1-0.14c-1.94-2.884-2.2-49.802-0.99-56.437z"/>
 <path transform="scale(.64736 .64746)" d="m128.41 531.61c-1.969 47.055 1.947 94.819 5.596 141.72l8.305 107.93c-24.964 4e-3 -50.409-0.985-75.314 0.317 2.6421-12.694 2.9911-26.566 4.0723-39.518l6.1514-79.601 5.1579-63.347c1.4225-16.102 3.8102-32.448 2.8032-48.614 5.2482 13.442 9.9307 27.808 16.464 40.647 1.336-0.151 1.397-0.012 2.224-1.073 6.196-7.953 18.778-45.977 24.54-58.46z" fill="#22ADDA"/>
 <path transform="scale(.64736 .64746)" d="m92.402 615.27c0.6403 0.363 1.1885 0.67 1.6488 1.263 2.6948 3.471 1.0641 16.06 0.5666 20.518-0.9087-0.403-1.5361-0.492-2.128-1.331-2.2738-3.222-0.7638-16.407-0.0874-20.45z"/>
 <path transform="scale(.64736 .64746)" d="m91.826 708.21c0.8317 0.409 1.4675 0.579 2.0551 1.327 2.1896 2.785 0.7156 44.912 0.2508 51.027l-2.4826-0.972c-1.9895-5.217-1.2302-44.721 0.1767-51.382z"/>
 <path transform="scale(.64736 .64746)" d="m110.78 625.58 2.742 1.222c2.219 7.176 4.755 87.428 3.917 96.986l-2.191-0.835c-2.498-3.926-4.772-86.74-4.468-97.373z"/>
 <path transform="scale(.64736 .64746)" d="m956.4 754.42c-1.37 20.155 24.461 86.339 33.818 106.35l-154.58 0.069c-25.445 0.027-51.161 0.902-76.571 0.019 1.294-0.152 2.581-0.412 3.865-0.633 14.01-13.469 29.079-84.324 32.782-105.56 53.411 0.281 107.33 1.399 160.69-0.245z" fill="#22ADDA"/>
 <path transform="scale(.64736 .64746)" d="m1588.9 456.49c11.62-0.451 23.01 3.506 34.48 3.015l1.05-1.171c9.96 16.545 20.7 28.91 40.28 33.807 13.38 3.348 28.67 3.537 42.33 2.133 3.02-0.218 5.15-0.824 7.89 0.535 7.76 10.048 26.89 47.234 27.92 59.917 1.71 4.024 1.38 8.481 0.49 12.674l-0.88 0.785c-1.56 4.497-7.67 7.639-11.67 9.618-26.65 13.187-66.32 20.408-96.25 22.982 0.8-1.52 1.15-2.893 1.2-4.601 0.33-11.324-1.13-22.926-1.58-34.26-0.43-10.616 0.58-27.21-1.8-37.165-0.2-0.861-0.59-1.369-1.08-2.082-0.74 0.137-1.35 0.422-2.04 0.71-5.69 11.445-17.09 52.079-24.66 57.782 0.09-1.037 0.14-2.147-0.14-3.162-3.41-12.555-8.6-24.792-12.26-37.359-1.45-4.995-3.05-15.218-5.84-19.028-0.9-1.228-2.43-2.287-3.62-3.231 0.85 2.122 1.28 4.186 1.39 6.477 0.45 9.722-1.93 66.737-4.81 73.819-0.28 0.677-0.61 1.323-0.96 1.961l-0.69-0.151c-7.77-1.663-15.9-1.97-23.77-3.233-26.13-4.197-58.17-11.2-80.13-26.19 0.15-0.182 0.32-0.353 0.46-0.545 2.18-2.95 2.16-8.538 3.9-12.137 8.68-18.035 18.84-35.587 28.18-53.311 1.51-2.857 4.49-6.818 4.06-10.021 7.88 0.509 15.72 1.013 23.6 0.322 19.4-1.702 35.92-10.633 48.44-25.545 3.42-4.071 6.99-7.839 6.51-13.345z" fill="#0E092E"/>
 <path transform="scale(.64736 .64746)" d="m1707.1 494.27c3.02-0.218 5.15-0.824 7.89 0.535 7.76 10.048 26.89 47.234 27.92 59.917 1.71 4.024 1.38 8.481 0.49 12.674l-0.88 0.785c-1.82-1.051-2.74-2.843-3.6-4.678-3.64-7.797-5.86-16.579-8.98-24.64-5.82-15.088-13.85-31.093-22.84-44.593z" fill="#F1FAEE"/>
 <path transform="scale(.64736 .64746)" d="m0 492.47c25.26 0.374 51.973-8.002 69.659-26.677 3.2237-3.404 7.1732-11.604 10.85-13.858 1.1675-0.716 2.1007-0.192 3.3882 0.067 2.5657 4.501 8.2571 10.576 13.426 11.949 6.0571 1.609 12.713-0.54 17.84-3.8 3.249-2.065 6.433-6.457 9.71-7.924 2.181 10.672 15.186 21.879 24.146 27.763 16.718 10.976 51.431 20.303 71.007 15.299 0.322-0.082 0.764-0.269 1.054-0.382l-0.18 0.889-0.389 0.154c1.48 5.549 6.363 11.669 9.35 16.589 10.114 16.653 22.757 34.375 30.356 52.313-0.836 2.254-2.709 5.934-2.69 8.247-27.387 20.398-89.616 28.006-123.84 28.5q-1.238-21.016-1.573-42.065c-0.089-7.474 1.579-38.135 0.082-42.737l-1.284-0.42c-2.379 2.208-25.412 60.256-28.201 68.246-4.1214-10.699-21.853-61.4-25.614-65.595l-1.1581 0.084c-2.1645 9.725-0.2106 22.355-0.5865 32.542-0.6182 16.752-2.3878 33.385-3.2352 50.109q-18.231-0.902-36.299-3.494-18.068-2.591-35.818-6.85v-94.319-4.63z" fill="#0E092E"/>
 <path transform="scale(.64736 .64746)" d="m0 492.47c25.26 0.374 51.973-8.002 69.659-26.677 3.2237-3.404 7.1732-11.604 10.85-13.858 1.1675-0.716 2.1007-0.192 3.3882 0.067-5.0503 14.684-21.892 27.651-35.453 34.302-14.818 7.267-32.061 10.227-48.445 10.796v-4.63z"/>
 <path transform="scale(.64736 .64746)" d="m1611.9 202.64c16.7 6.151 37.58 38.816 44.83 54.258 2.74 5.836 3.74 17.227 7.84 21.635l1.55-0.542 0.34-1.018c2.63 2.917 2.02 8.807 1.83 12.513-0.49 9.22-2.74 18.697-6.13 27.272-1.44 3.656-3.44 7.285-4.56 11.037-0.54 1.803-1.06 3.072-0.1 4.756 4.26-2.004 5.98-7.049 7.44-11.198 0.35-1.002 0.46-1.792 0.5-2.844 18.16 9.8 46.62 53.119 52.67 73.412 0.74 2.466 0.97 5.624 1.97 7.9-3.73 4.363-18.29 4.701-23.79 5.135-19.59 1.544-39.53 1.557-55.3-12.028-5.35-4.607-12.66-17.54-16.55-19.847-0.89 3.831 2.87 10.068 4.83 13.247 6.55 10.63 20.83 18.981 32.63 21.766 11.98 2.826 24.67 2.03 36.81 0.976 15.96 21.537 30.42 47.803 36.57 74.084-1.43 1.734-4.39 2.425-6.51 2.959-27.18 6.844-66.01 9.28-87.69-11.497-2.76-2.649-11.57-15.963-12.94-16.637-1.23-0.607-2.44 0.033-3.73 0.349l-1.05 1.171c-11.47 0.491-22.86-3.466-34.48-3.015l-1.25-0.112c-14.93 19.451-25.35 31.214-51.79 34.668-14.12 1.845-41.72-0.148-53.58-8.054 0.73-0.472 1.46-1.057 1.93-1.81 2.5-4.047 4.23-9.591 6.47-13.938 4.48-8.683 28.34-49.558 29.51-55.94 0.07-0.369-0.47-1.783-0.59-2.227 11.22 1.073 22.81 1.515 33.92-0.699 15.85-3.159 29.69-11.513 38.68-25.127 1.83-2.777 4.96-6.868 4.26-10.252-4.76 0.713-13.19 15.248-17.46 19.259-3.05 2.866-7.49 5.258-11.21 7.08-20.28 9.905-46.42 7.252-67.2 0.279l1.4-0.747c5.51-35.838 50.41-72.38 51.94-80.366 4.06 3.498 4.13 10.157 8.76 13.431l1.43-0.699 0.34-1.894c-6.05-11.059-6.66-22.246-10.47-33.861 4.45-4.561 4.18-16.835 6.02-23.285 1.25-4.4 3.27-8.567 5.3-12.652 13.83-27.832 22.35-33.798 41.96-56.018 5.04 9.473-2.57 82.554 2.93 95.438l1.95-1.159-0.21 0.397c1.65-3.594 1.74-90.806-0.02-95.556z" fill="#1D3557"/>
 <path transform="scale(.64736 .64746)" d="m103.08 127.74c-0.191 14.415-2.36 92.095 2.034 99.099l1.255-0.29-0.631 0.962-0.741-1.189c0.482-0.528 1.496-1.368 1.794-1.969 1.69-3.402 0.501-84.725 0.577-95.589 27.396 25.501 47.172 46.461 54.065 84.821 0.67 3.732 0.264 14.584 2.051 17.078l0.651-0.427c-0.943 10.397-5.119 20.886-4.597 31.213 5.51-7.782 7.069-17.191 8.382-26.478 17.651 15.201 36.728 33.634 46.31 55.33 2.746 6.218 3.321 15.103 6.685 20.718-10.367 9.874-26.477 12.972-40.413 12.628-13.214-0.326-32.062-4.054-41.462-13.899-2.995-3.137-9.575-12.324-13.787-12.795 0.726 6.245 7.703 13.192 12.349 16.928 14.653 11.782 35.961 15.772 54.422 13.488 2.544-0.315 5.079-0.837 7.589-1.349 10.943 15.955 34.292 47.526 40.484 63.492 1.02 2.629 1.238 5.38 1.239 8.178-20.265 10.843-52.302 13.12-74.162 6.574q-1.919-0.566-3.803-1.237-1.885-0.671-3.729-1.446-1.845-0.774-3.643-1.651-1.799-0.876-3.546-1.85-1.748-0.975-3.438-2.045t-3.319-2.232q-1.628-1.162-3.19-2.413-1.561-1.251-3.051-2.587c-3.217-2.906-8.441-10.036-12.233-11.448-1.08-0.403-1.138-0.143-2.147 0.248 0.193 4.596 6.915 10.536 10.271 13.605 18.53 16.951 42.458 21.671 66.888 20.591 3.214-0.143 6.408-0.513 9.608-0.822l-0.519 1.327c8.873 16.433 36.144 48.879 39.817 65.132 0.492 2.18-0.137 4.806-0.536 6.976-0.686 0.327-1.318 0.618-2.042 0.857-33.845 11.198-77.149 9.107-105.12-15.038-4.054-3.5-14.664-17.77-16.474-18.745l-2.103 0.736c-3.277 1.467-6.461 5.859-9.71 7.924-5.127 3.26-11.783 5.409-17.84 3.8-5.1685-1.373-10.86-7.448-13.426-11.949-1.2875-0.259-2.2207-0.783-3.3882-0.067-3.677 2.254-7.6265 10.454-10.85 13.858-17.686 18.675-44.399 27.051-69.659 26.677v-80.858-4.851-73.297-8.975-5.363-46.905-12.951c11.681-9.493 28.52-30.207 41.061-35.81 1.6901 1.642 1.74 3.519 2.288 5.769-0.1683 6.473 1.3998 12.834 3.1897 19.019 0.6967 2.408 1.7825 6.735 3.9634 7.944 2.262-5.17-2.855-21.163-3.4733-27.523 2.1089-8.233 2.1853-17.089 4.1975-25.448 7.8342-32.546 27.115-54.149 51.859-75.476z" fill="#1D3557"/>
 <path transform="scale(.64736 .64746)" d="m0 324.49 4.7804 1.693-4.7804 7.282v-8.975z" fill="#F1FAEE"/>
 <path transform="scale(.64736 .64746)" d="m0 319.13 0.90752 0.44c14.03 6.725 35.538 4.137 49.887-1.005 4.1139-1.474 8.8765-3.302 12.36-5.924 5.5662-4.19 11.526-13.39 17.826-15.692l0.7925 0.9c-0.9553 5.981-9.2625 13.206-13.914 16.589-16.79 12.21-41.526 15.412-61.68 12.011q-0.70177-0.117-1.3981-0.263l-4.7804-1.693v-5.363z"/>
 <path transform="scale(.64736 .64746)" d="m0 406.76c23.451 1.244 51.21-1.563 69.461-18.189 3.8489-3.506 7.1861-9.784 11.924-11.89l1.4118 0.748c0.4548 2.1 0.5702 2.958-0.6424 4.934-1.7157 2.796-4.9419 5.185-7.4701 7.253q-2.4409 2.03-5.0099 3.896-2.569 1.865-5.255 3.558t-5.4773 3.205-5.6759 2.838-5.85 2.459q-2.9655 1.133-5.9989 2.069-3.0335 0.936-6.1218 1.671-3.0884 0.734-6.2183 1.264c-9.1702 1.625-19.734 1.079-29.078 1.035v-4.851z"/>
 <path transform="scale(.64736 .64746)" d="m0 259.27c11.681-9.493 28.52-30.207 41.061-35.81 1.6901 1.642 1.74 3.519 2.288 5.769-3.1011 5.871-18.236 16.636-23.923 22.043-6.9207 6.58-13.486 13.467-19.426 20.949v-12.951z" fill="#F1FAEE"/>
 <path transform="scale(.64736 .64746)" d="m244.82 702.99c21.586-0.76 43.425-0.07 65.034-0.042l126.9 0.091 66.857-0.076c11.77-0.013 25.767-1.54 37.195 0.987 2.555 0.565 5.102 2.942 6.504 5.096 2.026 3.114 2.531 6.235 2.708 9.884 0.695 14.315 0.079 28.979 0.055 43.329l0.023 80.291 0.13 56.11c0.016 8.936 1.278 20.265-0.739 28.854-1.009 4.294-3.715 6.612-7.315 8.781q-91.118 0.785-182.24 0.483c-33.828 0.039-67.746 0.825-101.56 0.21-3.677-0.067-13.798-0.13-16.102-2.867-3.008-3.572-4.058-8.344-4.471-12.885-0.993-10.92-0.147-22.545-0.078-33.525l-5e-3 -57.015-0.029-74.308c0.01-13.606-0.654-27.669 0.466-41.227 0.488-5.899 2.226-8.439 6.671-12.171z" fill="#040008"/>
 <path transform="scale(.64736 .64746)" d="m248.45 714.47c52.066-0.877 104.33 0.067 156.41 0.181 43.763 0.096 87.691-0.825 131.43 0.302 0.931 10.649 0.296 21.884 0.284 32.591l-0.079 58.954-0.03 71.222c0.026 13.102 0.615 26.483-0.074 39.561-0.127 2.404-0.651 4.449-1.656 6.626-0.123 0.084-0.243 0.175-0.37 0.252-0.212 0.128-0.432 0.241-0.646 0.365-0.603 0.348-1.163 0.664-1.833 0.882-6.349 2.064-131.19 0.41-147.27 0.37-40.452-0.099-81.294 1.351-121.7-0.03-4.539-0.155-8.853-0.627-12.931-2.729-2.595-4.569-1.755-187.82-1.54-208.55z"/>
 <path transform="scale(.64736 .64746)" d="m252.07 718.26 281.11 0.293c0.052 21.601 1.376 196.31-1.022 202.45-2.135 0.911-4.251 1.251-6.553 1.37-13.445 0.695-27.222 0.08-40.702 0.093l-83.606-0.034-89.799 0.017c-15.427 0-31.043 0.475-46.451-0.152-3.388-0.138-9.765-0.105-12.382-2.505-2.068-18.477-0.514-46.001-0.543-65.449l-0.055-136.08z" fill="#F1FAEE"/>
 <path transform="scale(.64736 .64746)" d="m260.43 790.91c27.445-0.149 54.992-0.408 82.421 0.6 0.504 8.992 1.449 53.26-0.71 58.984l-82.827-0.202c-0.683-8.177-1.827-52.581-0.225-57.194 0.237-0.683 0.949-1.549 1.341-2.188z"/>
 <path transform="scale(.64736 .64746)" d="m266.55 795.01c24.15-0.736 48.461-0.212 72.627-0.175q-0.163 25.936 0.054 51.872c-11.592-0.022-67.656 1.7-75.288-0.59-1.667-5.161-1.637-45.988-0.02-50.593l2.627-0.514z" fill="#457B9D"/>
 <path transform="scale(.64736 .64746)" d="m263.94 846.12c-1.667-5.161-1.637-45.988-0.02-50.593l2.627-0.514c2.02 4.348 1.666 44.134 0.513 50.449-1.03 0.234-2.073 0.529-3.12 0.658z" fill="#658790"/>
 <path transform="scale(.64736 .64746)" d="m362.75 791.01c23.916-0.174 48.399-1.225 72.253 0.202 1.217 19.388 0.137 39.609 0.238 59.109l-11.992-0.038-73.007 0.087q-0.405-29.599 0.585-59.184l11.923-0.176z"/>
 <path transform="scale(.64736 .64746)" d="m355.34 847.11c-1.732-6.242-2.1-46.913 0.022-51.665l2.339-0.406c2.229 3.847 1.296 43.975 0.442 49.976-0.903 1.191-1.4 1.579-2.803 2.095z" fill="#F1FAEE"/>
 <path transform="scale(.64736 .64746)" d="m357.7 795.04c24.438-1.001 49.165-0.299 73.636-0.283 0.068 17.296 0.374 34.626 0.187 51.919l-52.517-0.093c-7.08 1e-3 -16.85-1.08-23.667 0.528 1.403-0.516 1.9-0.904 2.803-2.095 0.854-6.001 1.787-46.129-0.442-49.976z" fill="#457B9D"/>
 <path transform="scale(.64736 .64746)" d="m442.79 790.8q42.115-0.258 84.229 3e-3c0.792 19.742-0.059 39.728 0.233 59.51-27.926 0.866-56.608 1.085-84.509-0.156-0.573-19.671-0.464-39.681 0.047-59.357z"/>
 <path transform="scale(.64736 .64746)" d="m450.44 846.64-2.479-0.24c-0.126-0.209-0.259-0.414-0.377-0.628-1.944-3.539-1.412-45.388 0.031-50.513l2.439-1.203c1.587 5.021 1.925 48.396 0.386 52.584z" fill="#F1FAEE"/>
 <path transform="scale(.64736 .64746)" d="m450.05 794.05c8.71 1.33 18.248 0.677 27.063 0.668l46.489-0.098-0.087 52.218c-24.286 3e-3 -48.824 0.709-73.079-0.204 1.539-4.188 1.201-47.563-0.386-52.584z" fill="#457B9D"/>
 <path transform="scale(.64736 .64746)" d="m260.41 856.31 82.552 0.126c-0.093 11.404 1.84 52.487-0.794 60.299l-82.675-0.082c-0.681-9.588-2.461-53.947 0.917-60.343z"/>
 <path transform="scale(.64736 .64746)" d="m264.11 912.46c-0.128-0.309-0.273-0.613-0.384-0.929-1.252-3.579-1.15-48.45-0.102-50.428 0.536-1.013 2.416-1.173 3.511-1.486 0.575 7.347 1.792 48.079-0.626 52.449l-2.399 0.394z" fill="#658790"/>
 <path transform="scale(.64736 .64746)" d="m267.13 859.62c9.007 1.163 18.607 0.665 27.684 0.642l44.346-0.233-0.173 53.019c-12.5-0.155-66.483 1.431-74.882-0.585l2.399-0.394c2.418-4.37 1.201-45.102 0.626-52.449z" fill="#457B9D"/>
 <path transform="scale(.64736 .64746)" d="m444.58 856.45c27.366-0.276 55.159-1.073 82.481 0.203 0.076 12.603 2.205 50.214-1.328 60.068l-82.813-0.025c-0.497-9.073-1.735-52.299 0.103-57.977 0.209-0.646 1.146-1.669 1.557-2.269z"/>
 <path transform="scale(.64736 .64746)" d="m450.07 913.39c-0.988-0.452-2.008-0.627-2.492-1.64-1.777-3.715-1.602-46.522 0.14-51.182l2.35-1.049c1.803 6.032 1.88 48.546 2e-3 53.871z" fill="#F1FAEE"/>
 <path transform="scale(.64736 .64746)" d="m450.06 859.52c8.851 1.114 18.218 0.564 27.134 0.584l46.466 0.122-0.19 52.68c-13.768-0.02-65.236-1.591-73.408 0.485 1.878-5.325 1.801-47.839-2e-3 -53.871z" fill="#457B9D"/>
 <path transform="scale(.64736 .64746)" d="m350.87 856.22 84.215 0.033c0.082 19.859 1.258 40.762-0.461 60.511-9.568 0.638-19.437 0.146-29.033 0.134q-27.365 0.035-54.729-0.238c-0.883-19.58-1.655-40.901 8e-3 -60.44z"/>
 <path transform="scale(.64736 .64746)" d="m355.17 860.42c7.933-1.721 17.952-0.751 26.121-0.744l50.176 0.063 0.096 53.399-55.249-0.076c-6.248-7e-3 -14.861-1.082-20.863 0.233-1.706-6.279-1.951-46.77-0.281-52.875z" fill="#457B9D"/>
 <path transform="scale(.64736 .64746)" d="m355.17 860.42 3.004 0.371c1.145 6.267 1.606 47.736-0.77 51.654l-1.953 0.85c-1.706-6.279-1.951-46.77-0.281-52.875z" fill="#F1FAEE"/>
 <path transform="scale(.64736 .64746)" d="m259.02 724.21c27.856-0.829 55.852-0.398 83.726-0.513 1.142 20.33 0.231 41.338 0.031 61.73-27.871 0.753-55.959-3e-3 -83.853-0.036-0.627-20.24-0.584-40.941 0.096-61.181z"/>
 <path transform="scale(.64736 .64746)" d="m267.24 781.97c-1.342-0.292-2.636-0.742-3.945-1.156-0.076-0.311-0.229-0.891-0.28-1.242-0.716-4.9-0.492-49.498 0.553-50.913l3.035-0.259c2.234 7.417 1.475 45.361 0.637 53.57z" fill="#658790"/>
 <path transform="scale(.64736 .64746)" d="m266.6 728.4c23.728-1.85 48.53-0.412 72.378-0.3l0.079 53.474-47.874-0.096c-7.552-5e-3 -16.579-0.837-23.946 0.492 0.838-8.209 1.597-46.153-0.637-53.57z" fill="#457B9D"/>
 <path transform="scale(.64736 .64746)" d="m442.33 724.1c28.17-0.857 56.627-0.203 84.817 0.155l-0.13 61.108-84.39-0.096-0.297-61.167z"/>
 <path transform="scale(.64736 .64746)" d="m446.95 727.36 3.578 1.356c1.671 4.461 1.27 48.834 0.068 52.409-1.504 0.088-2.178-0.073-3.514-0.655-1.574-13.931-1.075-38.841-0.132-53.11z" fill="#F1FAEE"/>
 <path transform="scale(.64736 .64746)" d="m446.95 727.36c9.273 0.911 18.9 0.44 28.218 0.429l48.599-0.081-0.036 53.64c-21.667 0.05-52.431 1.642-73.135-0.223 1.202-3.575 1.603-47.948-0.068-52.409l-3.578-1.356z" fill="#457B9D"/>
 <path transform="scale(.64736 .64746)" d="m350.8 724.04c26.338-1.542 57.407-0.138 84.278-0.137l0.13 39.301c0.017 7.208 0.603 14.906-0.413 22.046-28.065 0.678-56.236 0.233-84.314 0.269 0.034-20.476-0.268-41.013 0.319-61.479z"/>
 <path transform="scale(.64736 .64746)" d="m355.57 727.4c25.04 1.45 50.751 0.338 75.865 0.365l0.043 53.996c-10.657-4e-3 -70.785-1.306-76.046 0.35-2.032-5.851-1.266-47.943 0.138-54.711z" fill="#457B9D"/>
 <path transform="scale(.64736 .64746)" d="m355.57 727.4 2.242 1.067c1.564 4.925 1.684 49.336 0.03 52.133-0.573 0.968-1.414 1.085-2.41 1.511-2.032-5.851-1.266-47.943 0.138-54.711z" fill="#F1FAEE"/>
 <path transform="scale(.64736 .64746)" d="m138.54 682.52c24.236-0.298 48.525-1.945 72.765-2.622q73.23-2.304 146.43 0.825l2e-3 17.964-113-0.058q-0.863 0.493-1.692 1.041c-3.771 2.49-7.812 5.588-8.654 10.322-1.621 9.117-0.581 19.722-0.544 29.048l4e-3 49.571 0.042 90.318c-0.034 15.692-1.425 32.752 0.302 48.318 0.39 3.509 2.64 6.453 4.572 9.3q-50.777-0.33-101.55-0.144c-19.002 7e-3 -38.381-0.808-57.35-0.078-2.7392 0.105-6.3791 0.457-8.3048 2.566l1.3469 1.005c13.65 2.512 34.007 0.771 48.27 0.763l103.2 0.034 263.14 0.124c56.63 0.091 113.36 1.02 169.98 0.516 3.733-0.033 7.476-0.214 11.029-1.447l0.45-1.111c-6.208-3.528-105.3-1.694-120.32-1.701 2.471-3.34 3.895-6.053 4.467-10.17 2.43-17.495 0.672-37.283 0.688-55.03 0.039-40.795-0.469-81.658 0.077-122.45l160.04-0.043 52.964 0.037c4.155 5e-3 8.324-0.585 12.467-0.473 2.493 0.067 4.758 0.232 6.947 1.511 0.548 1.552 0.483 2.535 0.258 4.152-2.205 9.883-3.7 19.917-5.98 29.805q-2.24 9.918-5.016 19.699-2.776 9.782-6.08 19.398t-7.126 19.037q-3.821 9.422-8.15 18.622l-87.313 9e-3c-10.192 0.011-31.871-1.497-40.777 0.915l-0.412 0.853c1.709 1.496 3.555 2.041 5.77 2.314 7.281 0.896 15.936-0.044 23.338-0.083l54.329-0.174 181.83-0.092 84.854-0.023c12.326-3e-3 25.621 1.059 37.841 0.056 2.03-0.166 3.35-0.332 4.94-1.611l0.35-0.286-0.07-1.173c-4.77-3.032-18.971-1.211-24.883-1.061-9.464-21.117-18.102-43.196-24.452-65.457-3.902-13.68-6.708-27.52-10.138-41.304 20.65 1.32 42.233 0.093 62.983 0.07l124.66-0.029 159.11 0.138c13.31-5e-3 57.08 1.661 66.44-1.207 3.69-1.133 8.7-4.641 10.61-8.046 0.44-0.786-0.02-1.501-0.24-2.34 0.87-0.665 1.55-1.41 2.25-2.26 8.19-10.073 6.24-28.826 5.05-40.985 0.4 1.165 0.91 1.939 1.6 2.935 4.46 1.33 39.25-3.279 47.03-4.001q65.83-6.615 131.97-8.415c1.76 3.856-2.35 63.826-4.61 69.199-0.23 0.53-0.59 1.051-0.92 1.516-6.19-0.026-22.45-1.815-27.17 1.449 0.27 1.123 0.09 1.532 1.11 2.215 2.62 1.765 29.93 0.61 34.48 0.6l89.16 9e-3c8.22 0.037 29.08 1.398 35.11-0.061 1.53-0.372 1.78-0.969 2.66-2.172l-0.59-1.377c-12.74-2.842-41.62 1.899-51.87-0.913-1.36-0.375-1.94-0.905-2.62-2.088-5.4-9.316-0.07-63.519-6.51-72.727 24.11 0.371 48.31 2.469 72.32 4.573 10.02 0.877 21.29 0.984 31.07 3.277 3.28 5.344 1.51 48.868 1.51 59.239l0.01 201.9c-0.01 11.392 1.25 60.281-0.33 66.821-0.23 0.98-0.62 1.8-1.18 2.63h-1742.5v-238.53l115.32-0.032c17.171 0.01 35.111 1.165 52.203 0.138 2.054-0.124 3.461-0.785 5.103-1.981l-0.116-1.001c-4.134-3.356-21.259-1.472-26.674-1.39-0.227-12.277-1.613-24.644-2.503-36.897q-2.068-30.923-4.789-61.795z" fill="#1D3557"/>
 <path transform="scale(.64736 .64746)" d="m553.89 749.42 160.04-0.043 52.964 0.037c4.155 5e-3 8.324-0.585 12.467-0.473 2.493 0.067 4.758 0.232 6.947 1.511 0.548 1.552 0.483 2.535 0.258 4.152l-128.64-1e-3c-33.878-0.09-68.111-1.227-101.93 0.839-1.892-1.91-1.697-3.444-2.106-6.022z" fill="#F1FAEE"/>
 <path transform="scale(.64736 .64746)" d="m1135 844.67c17.36-1.139 35.16-0.294 52.57-0.279l94.56-6e-3 293.45 0.341c0.48 0.744 0.9 1.521 1.14 2.38 1.48 5.173 1.08 76.44 0.38 85.36-0.12 1.469-0.55 2.634-1.29 3.908l73.42 0.198c11.24 0.06 23.12-0.76 34.26 0.289 1.19 0.111 1.85 0.544 2.79 1.208l0.12 1.485c-1.04 0.76-1.63 1.046-2.94 1.19-10.44 1.146-22.11 0.047-32.7 5e-3l-68.72-0.071-374.07-0.403c-20.05-8e-3 -169.46 1.865-177.09-1.302 5.64-4.749 88.76-2.741 102.37-2.751 3-5.266 2.06-79.933 1.75-91.552z"/>
 <path transform="scale(.64736 .64746)" d="m1140.8 879.82-0.9-0.176-0.89-1.493c-0.19-6.535-2.25-24.358 1.25-29.523l2.67-0.066c0.5 1.13 0.92 1.592 0.69 2.843-1.03 5.642 0.71 25.419-2.82 28.415z" fill="#F1FAEE"/>
 <path transform="scale(.64736 .64746)" d="m1137.2 883.62 306.02 0.131 88.64-0.056c12.43 0.015 27.6-1.562 39.72 0.73l0.72 2.491-1.02 1.007-285.15-0.146-90.02-0.013c-16.93 3e-3 -34.66-1.183-51.42 1.063-5.35 8.897 2.64 33.317-2.3 42.572 49.68 2.756 423.91-0.876 429.72 2.128l-0.28 1.862c-1.01 0.833-2.24 0.877-3.53 0.919-15.72 0.509-31.62-0.025-47.36-0.044l-92.11-0.036-291.37 0.017c0.46-0.766 0.78-1.313 0.99-2.188 1.27-5.219 0.86-47.071-1.25-50.437z" fill="#F1FAEE"/>
 <path transform="scale(.64736 .64746)" d="m1142.9 848.56c45.96-1.04 92.14-0.116 138.11-0.084l290.62 0.013c2.13 4.29 2.55 24.59 0.92 29.344-0.24 0.71-0.54 1.38-0.88 2.043l-307.84 0.015c-41-0.028-82.06 0.451-123.06-0.073 3.53-2.996 1.79-22.773 2.82-28.415 0.23-1.251-0.19-1.713-0.69-2.843z" fill="#457B9D"/>
 <path transform="scale(.64736 .64746)" d="m1571.6 884.43c0.37 0.462 1.51 1.594 1.66 2.086 1.39 4.814 0.42 40.407-0.2 47.038l-1.21 1.84 0.28-1.862c-5.81-3.004-380.04 0.628-429.72-2.128 4.94-9.255-3.05-33.675 2.3-42.572 16.76-2.246 34.49-1.06 51.42-1.063l90.02 0.013 285.15 0.146 1.02-1.007-0.72-2.491z" fill="#658790"/>
 <path transform="scale(.64736 .64746)" d="m0 0h1742.5c1 1.5727 1.29 2.7787 1.39 4.6212 0.63 12.11 0.1 24.525 0.11 36.666l0.01 70.82 0.01 218.22-0.01 99.207c0 8.27 1.38 28.688-0.3 35.553-0.22 0.863-0.5 1.677-0.81 2.504-0.02-0.219-0.02-0.439-0.04-0.659-0.75-8.907-25.66-52.783-33.04-59.269 1.72-0.21 3.45-0.589 5.14-0.959 4.87-1.062 9.75-3.097 12.39-7.601 2.27-3.881 1.97-8.165 0.89-12.37-6.17-23.825-38.07-66.663-59.16-79.214 2.34-2.803 2.56-9.044 2.99-12.716 3.25-27.708-8.82-54.002-25.69-75.187-6.9-8.669-23.59-30.131-35.31-30.878-3.3-0.211-5.76 1.844-8.16 3.84-21.95 18.227-49.42 53.818-52.39 83.108-1.06 10.461 2.26 21.156 1.1 31.178-0.02 0.184-0.05 0.367-0.07 0.551-0.49 1.652-19.43 19.023-22.18 21.982-10.71 11.523-20.17 23.722-27.69 37.591-3.63 6.699-6.71 17.269-11.63 22.783 1.59 1.667 2.45 3.911 3.48 5.947 3.59 7.116 9.3 8.987 16.28 11.498 0.45 7.236-30.42 50.716-33.24 63.746-0.84 3.865-0.39 7.832 1.79 11.206 4.75 7.338 13.61 9.024 21.5 10.807 0.33 9.144-30.88 50.681-33.65 65.439-0.86 4.553 0.31 8.371 2.97 12.068 15.4 21.387 82.82 29.653 109.4 34.261 0.27 0.535 0.37 0.638 0.47 1.319 0.76 4.819-4.62 63.422-5.79 71.707-0.24 1.714-0.77 3.032-1.67 4.514-60.78 1.002-121.79 6.911-182.24 13.007 0.92-1.477 1.21-3.07 1.26-4.8 0.96-33.211-0.03-66.767-0.04-100.01l-0.04-198.05v-120.9c0-18.498 1.58-38.246-0.08-56.616-0.57-6.234-2.76-12.251-7.18-16.797-5.24-5.387-12.03-7.074-19.28-7.171-24.23-0.323-48.51 0.206-72.74 0.217l-132.69-0.221-425.91 0.03-227.9-0.036q-45.192-0.233-90.382 0.294c-11.564 0.13-23.525-0.582-35.028 0.201-5.296 0.36-10.441 2.149-14.246 5.954-3.862 3.862-6.666 9.21-7.22 14.658-1.741 17.113-0.582 35.294-0.556 52.534l0.158 97.158 0.179 314.74c-73.319-2.035-146.26-0.447-219.52 2.305-2.014-24.356-3.772-48.632-4.511-73.063 39.918-1.09 85.097-7.237 120.88-25.635 5.891-3.029 12.596-7.263 14.626-13.992 0.793-2.627 0.813-5.713-0.084-8.312-3.532-10.235-11.432-20.608-17.113-29.867q-10.431-16.806-19.983-34.126c6.587-1.248 13.978-2.574 20.056-5.474 3.907-1.863 8.279-5.049 9.528-9.425 0.971-3.399-0.439-7.468-1.768-10.6-2.674-6.298-6.88-12.221-10.467-18.039-8.503-13.791-17.662-27.318-25.597-41.434 5.448-1.557 11.16-3.217 16.228-5.789 4.263-2.164 9.222-5.895 10.511-10.779 0.95-3.602-0.803-8.243-2.27-11.496-3.223-7.144-8.251-13.952-12.456-20.569q-12.154-18.742-23.705-37.862c3.559-2.066 7.488-4.385 10.243-7.471 3.82-4.279 5.632-9.692 5.246-15.392-0.551-8.158-4.695-16.261-8.693-23.278-13.187-23.139-30.053-39.268-50.029-56.456 0.096-24.242-7.795-47.086-22.023-66.644-5.888-8.092-31.755-36.798-41.417-37.635-5.4267-0.47-22.724 14.805-27.349 19.292-23.073 22.383-35.589 50.841-36.156 82.995-15.31 10.372-28.161 23.584-41.834 35.921v-253.66z" fill="#fff"/>
 <path transform="scale(.64736 .64746)" d="m381.37 195.15c71.316-1.009 142.78-0.123 214.11-0.12l404.05-0.054 252.67 0.025 71.03-3e-3c13.89-0.09 28.15-0.876 42-0.162 5.54 0.285 10.78 1.652 14.9 5.556 6.36 6.025 6.5 13.74 6.6 21.91 1.29 104.72-0.19 209.56 0.17 314.31l-0.07 115.43c0.14 24.063 1.81 49.134-0.1 73.09-0.47 6-1.84 10.555-6.06 15.025-5.98 6.333-14.66 5.162-22.72 5.236l-803.84 0.017c0.13-11.646 3.097-32.875-5.14-41.881-2.82-3.084-10.216-4.175-14.151-4.571-12.358-1.242-25.568-0.312-37.997-0.276l-88.455 0.094c-14.032-2e-3 -29.044 1.077-42.975-0.245 2.104-7.36 0.131-67.465 0.072-79.939l-0.315-303.56c0.033-17.234-1.715-92.816 1.59-104.18 2.466-8.479 13.075-12.189 14.358-15.009 0.103-0.227 0.187-0.463 0.281-0.694z" fill="#22ADDA"/>
 <path transform="scale(.64736 .64746)" d="m391.24 216.49c14.719-0.642 29.659-0.198 44.399-0.194l80.913 0.036 240.82 0.02 392.13 0.07c63.91 7e-3 127.94-0.856 191.83-0.033 4.67 0.06 10.74 0.029 15.07 1.809 2.96 1.22 5.41 5.107 6.63 8.02 1.12 2.661 1.14 5.7 1.2 8.541 0.64 27.65 0.12 55.441 0.14 83.105l0.12 159.1-0.1 113c-0.04 18.634 0.83 37.802-0.21 56.355q-0.13 1.99-0.61 3.927-0.47 1.936-1.28 3.76c-2.08 4.666-5.9 8.662-10.68 10.543-0.2 0.261-0.38 0.548-0.61 0.784-4.28 4.335-51.21 2.574-60.67 2.566l-637.47-0.12-179.29-0.094-48.651 0.053c-8.133 0.013-17.363 0.797-25.363-0.485-4.58-0.734-9.973-3.337-12.616-7.3-2.978-4.467-3.572-12.454-3.736-17.677-1.066-33.838-0.015-68.076-0.022-101.95l-0.065-198.5-0.094-73.878c-0.069-12.722-1.85-30.139 0.79-42.446 0.919-4.282 3.953-6.753 7.418-9.009z"/>
 <path transform="scale(.64736 .64746)" d="m1035.7 570.07 0.56-5e-3c1.09 6.621 2.6 54.745 0.91 59.566l1.83 3.304c1.46-1.681 0.75-10.679 0.79-13.518 1.4 6.931 1.91 33.749 0.03 39.901l0.12 2.255-0.93 0.828-3.66-0.444c1.78-5.498 0.43-79.376 0.35-91.887z" fill="#658790"/>
 <path transform="scale(.64736 .64746)" d="m1141.7 661.2c47.55-1.062 95.36-0.174 142.94-0.028 20.73 0.063 45.65 1.988 65.95-0.756-1.07 1.841-2.33 2.56-4.39 3.123-7.13 1.95-43.3 0.287-53.6 0.317l-111.97 0.223c-19.44-0.02-39.29 0.686-58.66-0.489-27.28 0.943-55.15 0.487-82.44-0.069 18.23-4.453 80.24-3.03 102.17-2.321z" fill="#2B3443"/>
 <path transform="scale(.64736 .64746)" d="m777.77 430.93-3.261-0.801c-1.578-2.079-1.262-4.523-1.345-7.101-0.897-27.823 0.09-55.987 0.053-83.844-0.023-17.657-1.524-39.635 0.191-56.924 0.29-2.93 0.743-5.044 2.93-7.179 2.164-2.112 4.321-2.315 7.198-2.539 9.051-0.704 18.474-0.23 27.565-0.236l50.983 0.019 153.56 0.108c5.34 0.014 10.52-0.623 14.5 3.384 0.85 2.994 0.83 3.346-0.16 6.296-2.73-1.338-5.04-1.821-8.07-1.941-20.97-0.828-234.34-1.006-238.25 0.619-2.029 0.844-3.029 2.333-3.669 4.329-2.452 7.648-0.859 20.471-0.846 28.683q0.085 41.634-0.425 83.265c-0.114 10.506 1.251 23.791-0.962 33.862z" fill="#F1FAEE"/>
 <path transform="scale(.64736 .64746)" d="m777.77 430.93c2.213-10.071 0.848-23.356 0.962-33.862q0.511-41.631 0.425-83.265c-0.013-8.212-1.606-21.035 0.846-28.683 0.64-1.996 1.64-3.485 3.669-4.329 3.91-1.625 217.28-1.447 238.25-0.619 3.03 0.12 5.34 0.603 8.07 1.941 1.27 1.858 1.46 3.391 1.56 5.588 1.52 31.524 0.22 63.741 0.3 95.342 0.02 9.339 1.42 37.544-0.23 44.792-0.19 0.867-0.6 1.696-1.03 2.468l-189.08 4e-3c-12.65 2e-3 -55.21-1.9-63.74 0.623z" fill="#1D8875"/>
 <path transform="scale(.64736 .64746)" d="m943.61 434.05 86.929 0.307c0.15 0.252 0.31 0.498 0.45 0.755 1.97 3.654 1.46 217.73-0.01 222.82-0.33 2.461-2.54 4.33-4.37 5.776l-164.48-0.116c-11.192 5e-3 -78.469 1.458-84.826-0.566-0.572-0.182-1.472-0.994-2.004-1.353-3.92-10.212-1.829-197.94-1.818-227.39 56.67-0.928 113.44 0.162 170.13-0.231z" fill="#F1FAEE"/>
 <path transform="scale(.64736 .64746)" d="m812.95 599.17c26.965-1.49 54.817-0.262 81.862-0.282 30.364-0.022 61.179-1.148 91.495 0.054 1.858 0.074 2.899-0.227 4.213 1.201l-0.26 2.211c-19.361-7e-3 -174.1 1.517-177.46-0.82l0.15-2.364z"/>
 <path transform="scale(.64736 .64746)" d="m812 471.34c16.883-1.056 176.35-0.712 178.22 0.201 1.239 0.603 1.309 1.692 1.783 2.915-13.636 0.987-174.99 1.258-178.98-0.36l-1.022-2.756z"/>
 <path transform="scale(.64736 .64746)" d="m811.96 534.39c15.35-0.938 176.31-0.86 178.03 0.17 1.042 0.626 1.03 1.633 1.354 2.745-12.877 0.871-26.188 0.235-39.115 0.238l-73.838 6e-3 -46.41 0.011c-5.467 5e-3 -11.806 0.84-17.161 0.196-0.84-0.101-1.399-0.431-2.13-0.821l-0.731-2.545z"/>
 <path transform="scale(.64736 .64746)" d="m770.89 663.56-254.06-7e-3 -75.563 0.029c-13.213 0.021-27.117 1.013-40.222-0.347-3.654-0.379-6.418-1.777-9.017-4.344-4.247-4.196-4.624-8.919-5.049-14.62-1.18-15.827-0.277-32.326-0.259-48.217l0.258-95.116-0.316-262.05c0.043-6.057-0.846-12.304 3.746-16.996 1.273-1.301 10.747-1.515 13.066-1.605 16.269-0.627 32.709-0.203 48.996-0.204l89.696 0.124 242.6 0.266 393.28-0.14c54.82 0.028 109.75-0.688 164.55 0.049 5.35 0.072 10.75 0.798 15.16 4.01 2.7 3.909 2.84 11.42 2.96 16.113 0.79 32.301 0.09 64.786 0.09 97.101l-0.02 187.65-0.04 84.378c-0.01 11.818 1.56 25.946-0.46 37.482-0.81 4.662-3.06 9.514-7.17 12.174-0.78 0.505-1.67 0.837-2.55 1.13-20.3 2.744-45.22 0.819-65.95 0.756-47.58-0.146-95.39-1.034-142.94 0.028-21.93-0.709-83.94-2.132-102.17 2.321-1.98 0.024-2.52-0.543-4.19-1.56l3.66 0.444 0.93-0.828-0.12-2.255c1.88-6.152 1.37-32.97-0.03-39.901-0.04 2.839 0.67 11.837-0.79 13.518l-1.83-3.304c1.69-4.821 0.18-52.945-0.91-59.566l-0.56 5e-3v-190.18l-0.14-59.992c0-11.272 0.49-22.827-0.19-34.071-0.21-3.487-0.71-11.559-3.15-14.095-2.11-2.182-6.46-2.395-9.32-2.616-11.04-0.849-22.4-0.392-33.48-0.427l-59.159-0.126c-46.905-0.058-94.117-1.123-140.99 0.053-3.993 0.1-12.629 0.428-15.622 3.339-1.854 1.804-3.359 4.407-3.608 6.994-1.501 15.661-0.384 32.488-0.39 48.271l0.091 96.448 0.017 152.19c6e-3 25.914-0.652 52.045 0.178 77.938 0.106 3.303 0.316 6.517 0.994 9.761z" fill="#457B9D"/>
 <path transform="scale(.64736 .64746)" d="m1036.2 570.07c1.67-24.977 0.47-50.808 0.49-75.868q-0.77-87.379 0.68-174.75c0.3-11.347-2.63-26.756 0.52-37.532 1.72 3.415 2.19 8.713 2.32 12.564 1.35 37.937 0.17 76.192-0.12 114.15-0.25 32.484 0.38 64.995 0.44 97.484l0.02 75.836c-0.02 11.949 1.16 25.724-0.82 37.463-0.04 2.839 0.67 11.837-0.79 13.518l-1.83-3.304c1.69-4.821 0.18-52.945-0.91-59.566z" fill="#F1FAEE"/>
 <path transform="scale(.64736 .64746)" d="m431.39 268.66c16.048-1.007 32.65-0.218 48.744-0.231l94.514-2e-3 59.095 0.105c10.275 0.013 23.739-1.421 33.695 1.084 2.749 0.692 5.806 3.117 7.104 5.636 1.455 2.827 1.439 7.38 1.542 10.519 1.294 39.274-0.085 79.029-0.066 118.36 0.018 36.6 1.526 73.8 0.045 110.33-0.111 2.75-0.332 5.194-1.404 7.763-1.6 3.833-4.567 5.414-8.14 6.981l-171.49 0.055c-14.272-0.032-53.246 1.987-64.818-1.265-3.637-1.022-5.759-2.521-7.493-6.022-1.24-2.502-1.147-5.622-1.227-8.364-0.668-23.038-1.518-230.38 0.851-237.18 1.489-4.271 5.21-6.093 9.046-7.765z"/>
 <path transform="scale(.64736 .64746)" d="m429.88 272.73c9.269-0.833 18.962-0.372 28.276-0.396l51.057-0.068c48.411-0.016 96.922-0.481 145.32 0.233 4.465 0.066 12.686-0.252 15.771 3.149 1.597 1.76 1.762 3.837 1.877 6.104 0.781 15.294 0.119 30.926 0.106 46.269l-0.196 92.017 0.17 64.299c0.016 11.122 0.637 22.675-0.333 33.751-0.32 3.66-2.238 4.781-4.901 7.005-7.306 1.387-16.255 0.463-23.769 0.459l-48.351-0.032-102.18-0.088c-17.075-0.016-34.307 0.465-51.364-0.084-4.003-0.129-8.5-0.217-12.34-1.384-1.862-2.005-3.487-3.874-3.824-6.715-0.981-8.267-0.301-17.338-0.309-25.68l-0.048-51.803c-0.129-51.527-1.348-103.43 3e-3 -154.92 0.155-5.899 0.766-8.058 5.032-12.116z" fill="#F1FAEE"/>
 <path transform="scale(.64736 .64746)" d="m466.71 401.55c13.641-0.927 27.887-0.115 41.577-0.095l82.945 0.14c6.307 0.01 39.562-1.052 43.268-8e-3 0.578 0.163 1 0.666 1.5 0.999l0.41 2.665c-15.884-0.057-166.42 0.642-169.2-1.181l-0.497-2.52z"/>
 <path transform="scale(.64736 .64746)" d="m497.87 335.23 88.863-0.172c13.745-4e-3 28.264-1.035 41.941 0.019 2.474 0.191 5.517 0.487 7.326 2.219-5.489 3.426-21.837 1.548-28.622 1.5l-104.1 0.043c-6.874 0.019-29.481 1.472-34.19-0.019-1.597-0.505-1.712-0.63-2.542-2.075 4.094-3.574 24.997-1.562 31.328-1.515z"/>
 <path transform="scale(.64736 .64746)" d="m467.89 466.29c38.176-0.736 76.503-0.031 114.69-0.01 10.527 6e-3 45.193-1.91 52.734 0.583l0.626 1.802-1.001 1.198q-54.646 0.452-109.29 0.316c-19.08-0.029-38.667 0.793-57.683-0.415l-0.95-1.301 0.873-2.173z"/>
 <path transform="scale(.64736 .64746)" d="m1078.6 269.62c11.55-2.151 242.94-0.952 245.99 0.074 2.43 0.822 5.07 2.654 6.03 5.146 2.37 6.222 1.81 215.66 1.06 239.74-0.09 2.776-0.14 6.526-1.45 9.032-1.31 2.498-3.4 3.321-5.95 4.148-4.53 2.002-220.71 0.679-243.54 0.366-0.9-1.889-3.82-3.93-5.29-5.549-1.71-1.899-2.27-4.039-2.43-6.543-0.78-12.683-0.16-25.761-0.15-38.49l0.02-73.031 0.02-82.129c0-14.149-0.57-28.591 0.12-42.713 0.25-5.124 1.93-6.707 5.57-10.049z"/>
 <path transform="scale(.64736 .64746)" d="m1079.6 273.03c0.51-0.064 1.01-0.118 1.52-0.154 14.42-1.02 29.4-0.206 43.86-0.182l81.2-0.012 78.25-0.062c11.75-0.012 24.23-0.955 35.91-0.111 2.29 0.165 4.02 0.813 5.78 2.311 1.49 2.727 1.52 6.122 1.61 9.165 0.5 16.81 0.07 33.764 0.07 50.589l0.02 102.55 0.12 53.148c0.02 9.684 1.31 21.418-0.9 30.761-1.78 2.148-2.71 2.392-5.26 3.31-7.95 1.347-17.39 0.405-25.49 0.383l-51.09-0.081-97.25-0.02c-18.86 0.069-37.94 0.806-56.76 0.13-3.14-0.113-8.12-0.31-10.82-2.07-2.16-1.407-3.48-4.064-3.78-6.56-1.54-12.437-0.41-26.378-0.43-38.968v-80.44-77.952c-0.01-12.872-0.94-26.472 0.24-39.248 0.28-3.01 1.47-4.174 3.2-6.484z" fill="#F1FAEE"/>
 <path transform="scale(.64736 .64746)" d="m1115.8 335.22c7.38-1.059 15.49-0.473 22.96-0.484l41.34-0.044 65.49-0.104c12.32-0.054 24.79-0.568 37.09-0.097 2.16 0.083 4.1-0.024 5.9 1.3l-1.25 1.991c-2.26 0.669-167.06 1.162-170.1-0.061-0.74-0.3-1.1-1.76-1.43-2.501z"/>
 <path transform="scale(.64736 .64746)" d="m1246.6 467.28c11.56-0.026 23.33-0.505 34.87 0.118 2.25 0.122 5.22 0.157 6.76 1.877-2.23 1.32-4.78 1.504-7.32 1.643-12.89 0.708-26.35-0.114-39.3-0.111l-84.58 0.056c-9.14-0.066-31.79 1.855-39.42-1.193-0.86-0.343-0.69-0.428-1.04-1.218 7.58-2.625 113.19-1.147 130.03-1.172z"/>
 <path transform="scale(.64736 .64746)" d="m1202.1 401.68c14.94 0.011 75.86-1.703 84.91 0.962l0.28 0.981c-7.59 3.48-72.77 1.587-85.11 1.571-11.21-0.052-80.68 1.414-85.85-1.503 8.8-4.03 72.28-1.982 85.77-2.011z"/>
</svg>
