<?xml version="1.0" encoding="UTF-8" standalone="no"?>
<svg
   width="1129"
   height="663"
   viewBox="0 0 1129 663"
   version="1.1"
   id="svg29"
   sodipodi:docname="undraw_attributico_tree.svg"
   inkscape:version="1.3.2 (091e20e, 2023-11-25, custom)"
   xmlns:inkscape="http://www.inkscape.org/namespaces/inkscape"
   xmlns:sodipodi="http://sodipodi.sourceforge.net/DTD/sodipodi-0.dtd"
   xmlns="http://www.w3.org/2000/svg"
   xmlns:svg="http://www.w3.org/2000/svg"
   xmlns:rdf="http://www.w3.org/1999/02/22-rdf-syntax-ns#"
   xmlns:cc="http://creativecommons.org/ns#"
   xmlns:dc="http://purl.org/dc/elements/1.1/">
  <defs
     id="defs29">
    <linearGradient
       id="swatch10"
       inkscape:swatch="solid">
      <stop
         style="stop-color:#298eb3;stop-opacity:1;"
         offset="0"
         id="stop10" />
    </linearGradient>
  </defs>
  <sodipodi:namedview
     id="namedview29"
     pagecolor="#ffffff"
     bordercolor="#000000"
     borderopacity="0.25"
     inkscape:showpageshadow="2"
     inkscape:pageopacity="0.0"
     inkscape:pagecheckerboard="0"
     inkscape:deskcolor="#d1d1d1"
     inkscape:zoom="0.99911426"
     inkscape:cx="561.49734"
     inkscape:cy="331.79388"
     inkscape:window-width="1920"
     inkscape:window-height="1009"
     inkscape:window-x="-8"
     inkscape:window-y="-8"
     inkscape:window-maximized="1"
     inkscape:current-layer="svg29" />
  <title
     id="title1">Focus on What Matters</title>
  <circle
     cx="321"
     cy="321"
     r="321"
     fill="#f2f2f2"
     id="circle1" />
  <ellipse
     cx="559"
     cy="635.49998"
     rx="514"
     ry="27.50002"
     fill="#3f3d56"
     id="ellipse1" />
  <ellipse
     cx="558"
     cy="627"
     rx="460"
     ry="22"
     opacity="0.2"
     id="ellipse2" />
  <rect
     x="131"
     y="152.5"
     width="840"
     height="50"
     fill="#3f3d56"
     id="rect2" />
  <path
     d="M166.5,727.3299A21.67009,21.67009,0,0,0,188.1701,749H984.8299A21.67009,21.67009,0,0,0,1006.5,727.3299V296h-840Z"
     fill="#3f3d56"
     id="path2"
     transform="translate(-35.5 -118.5)"
     style="fill:#457b9d;fill-opacity:1" />
  <path
     d="M984.8299,236H188.1701A21.67009,21.67009,0,0,0,166.5,257.6701V296h840V257.6701A21.67009,21.67009,0,0,0,984.8299,236Z"
     transform="translate(-35.5 -118.5)"
     fill="#3f3d56"
     id="path3" />
  <path
     d="M984.8299,236H188.1701A21.67009,21.67009,0,0,0,166.5,257.6701V296h840V257.6701A21.67009,21.67009,0,0,0,984.8299,236Z"
     transform="translate(-35.5 -118.5)"
     opacity="0.2"
     id="path4" />
  <circle
     cx="181"
     cy="147.5"
     r="13"
     fill="#3f3d56"
     id="circle4" />
  <circle
     cx="217"
     cy="147.5"
     r="13"
     fill="#3f3d56"
     id="circle5" />
  <circle
     cx="253"
     cy="147.5"
     r="13"
     fill="#3f3d56"
     id="circle6" />
  <rect
     x="168"
     y="213.5"
     width="337"
     height="386"
     rx="5.33505"
     fill="#606060"
     id="rect6"
     style="fill:#22adda;fill-opacity:0.32365146" />
  <g
     data-v-fde0c5aa=""
     id="070234ad-d668-4b31-b932-ecc6d708c167"
     fill="#f6575e"
     stroke="none"
     transform="matrix(2.2,0,0,2.2,249.7961,276.04787)">
    <path
       d="m 33.999,88 h 8 v 12 h -8 z m 42,0 L 38,0 H 37.999 L 0,88 H 33.999 V 50 h 8 v 38 z"
       id="path2-1" />
  </g>
  <rect
     x="603"
     y="272.5"
     width="284"
     height="22"
     rx="5.47638"
     fill="#2e8555"
     id="rect7"
     style="fill:#5cbbd2;fill-opacity:0.72463769" />
  <rect
     x="530.99469"
     y="312.46454"
     width="67.691483"
     height="15"
     rx="0.89111614"
     fill="#2e8555"
     id="rect8"
     style="fill:#00aad4;fill-opacity:0.413044;stroke-width:0.403386" />
  <rect
     x="584.04169"
     y="348.45746"
     width="218.82535"
     height="15"
     rx="2.8806989"
     fill="#2e8555"
     id="rect9"
     style="fill:#00aad4;fill-opacity:0.417874;stroke-width:0.725274" />
  <rect
     x="584.04169"
     y="384.45038"
     width="117.73582"
     height="15"
     rx="1.5499184"
     fill="#2e8555"
     id="rect10"
     style="fill:#00aad4;fill-opacity:0.415459;stroke-width:0.531995" />
  <rect
     x="532.99646"
     y="455.4743"
     width="195.80496"
     height="15"
     rx="2.5776498"
     fill="#2e8555"
     id="rect11"
     style="fill:#00aad4;fill-opacity:0.417874;stroke-width:0.686065" />
  <rect
     x="865"
     y="552.5"
     width="88"
     height="26"
     rx="7.02756"
     fill="#3ecc5f"
     id="rect12"
     style="fill:#008eb3;fill-opacity:0.884058" />
  <ellipse
     cx="1038.00321"
     cy="460.31783"
     rx="19.08256"
     ry="24.9808"
     fill="#3f3d56"
     id="ellipse12" />
  <ellipse
     cx="1038.0032"
     cy="429.78574"
     rx="19.08256"
     ry="24.980801"
     fill="#3f3d56"
     id="ellipse13"
     inkscape:transform-center-x="-597.52926"
     inkscape:transform-center-y="-3.0026596" />
  <path
     d="m 944.18673,359.4319 a 91.01343,91.01343 0 0 0 19.56129,56.51431 91.40575,91.40575 0 1 0 143.68898,0 C 1119.6881,400.39337 944.18673,349.17278 944.18673,359.4319 Z"
     opacity="0.1"
     id="path14" />
  <g
     id="g1"
     transform="matrix(1,0,0,1.3214435,475.4211,-44.534431)">
    <path
       d="m 578.51627,411.27892 c 18.17787,-1.91648 56.51453,-7.84462 69.65594,-19.22373 0.38194,0.86436 0.64088,1.69311 0.69267,2.63775 0.41431,7.57593 0.78978,67.23872 -0.3172,70.26236 -0.14242,0.38459 -0.35605,0.73228 -0.58263,1.06896 -6.82317,-0.93558 -13.84703,-1.26579 -20.70904,-1.85433 -15.35538,-1.31628 -30.63308,-2.45063 -46.05319,-2.66818 0.16184,-0.29977 0.23952,-0.40078 0.33662,-0.70508 0.47905,-1.48916 -1.78671,-43.02696 -2.26576,-47.17135 -0.0971,-0.82098 -0.41431,-1.60376 -0.75741,-2.34899 z"
       fill="#a8dadc"
       id="path24"
       style="stroke-width:0.64741" />
    <path
       d="m 550.67979,381.59936 c 0.0842,0.0706 0.16832,0.13726 0.246,0.21172 4.33731,4.10036 3.32743,14.30757 8.47394,17.83687 1.22999,-0.20589 1.30767,-0.23891 2.05213,-1.24377 2.32402,-3.11363 12.53289,-30.20789 12.06032,-33.41994 2.69302,4.20525 1.85792,20.29852 2.13629,26.03696 1.08756,22.42866 2.02623,44.83272 3.52811,67.23872 q 1.35946,19.34027 2.3305,38.70451 c 0.20715,4.18583 1.13288,9.70413 0.43373,13.74687 -0.0971,0.53415 -0.29132,0.94982 -0.53084,1.43089 l -41.78709,0.0498 c 0.23953,-0.24927 0.19421,-0.18258 0.42726,-0.53545 0.50494,-0.753 0.64089,-1.53383 0.73152,-2.41826 2.51175,-25.42899 3.91653,-50.9564 6.06576,-76.41323 0.70562,-8.34706 5.01704,-45.39213 3.83237,-51.22639 z"
       fill="#22adda"
       id="path25"
       style="stroke-width:0.64741" />
    <path
       d="m 554.30501,465.74326 c 1.01635,-0.0622 1.43714,-0.10618 2.34344,0.44351 0.31073,0.71415 0.49847,1.40499 0.5891,2.18064 0.45962,4.06735 1.04225,19.60704 -0.10358,22.97059 -0.13594,0.38912 -0.83509,1.08385 -1.11346,1.44125 l -0.45962,0.0894 c -2.02624,-2.16964 -0.78331,-22.32896 -1.25588,-27.12534 z"
       id="path26"
       style="stroke-width:0.64741" />
    <path
       d="m 566.08696,427.69204 1.08756,0.1761 c 0.97104,1.36679 0.99694,2.67919 1.0552,4.33928 0.17479,5.0735 1.37888,29.69964 -0.85451,32.11596 l -0.64736,-0.0906 c -1.25588,-1.86728 -1.4242,-32.24481 -0.64089,-36.5407 z"
       id="path27"
       style="stroke-width:0.64741" />
    <path
       d="m 548.5435,315.35773 c 7.52233,-0.29201 14.89576,2.26999 22.32098,1.95209 l 0.67972,-0.75818 c 6.44771,10.71223 13.40036,18.71807 26.07567,21.88868 8.66167,2.1677 18.55981,2.29007 27.40274,1.38103 1.95503,-0.14114 3.33391,-0.5335 5.10767,0.3464 5.02352,6.50567 17.40752,30.58212 18.0743,38.79386 1.10698,2.60538 0.89335,5.4911 0.3172,8.2059 l -0.56967,0.50826 c -1.00989,2.91163 -4.96526,4.94595 -7.5547,6.22727 -17.25214,8.53806 -42.93291,13.21336 -62.3084,14.87993 0.51789,-0.98414 0.74447,-1.87311 0.77684,-2.97897 0.21363,-7.33183 -0.73152,-14.84367 -1.02283,-22.18198 -0.27837,-6.87343 0.37547,-17.61738 -1.16525,-24.06285 -0.12947,-0.55746 -0.38194,-0.88637 -0.69915,-1.34801 -0.47905,0.0887 -0.87394,0.27323 -1.32061,0.4597 -3.68348,7.41018 -11.06339,33.71907 -15.9639,37.41153 0.0583,-0.67142 0.0906,-1.3901 -0.0906,-2.04727 -2.2075,-8.12886 -5.5673,-16.05183 -7.93664,-24.18846 -0.93867,-3.23406 -1.97444,-9.85304 -3.78058,-12.31986 -0.58262,-0.79509 -1.57308,-1.48075 -2.34344,-2.09195 0.55026,1.37391 0.82862,2.71027 0.89983,4.1936 0.29131,6.29461 -1.24941,43.20954 -3.1138,47.79485 -0.18126,0.43833 -0.39489,0.85659 -0.62147,1.26967 l -0.44668,-0.0978 c -5.02998,-1.07672 -10.29302,-1.27549 -15.38774,-2.09324 -16.91552,-2.71739 -37.65693,-7.25155 -51.87296,-16.95697 0.0971,-0.11784 0.20716,-0.22856 0.29779,-0.35287 1.41124,-1.91001 1.39829,-5.52801 2.5247,-7.85822 5.61908,-11.67694 12.19626,-23.04116 18.2426,-34.51674 0.97752,-1.84979 2.90665,-4.41438 2.62829,-6.4882 5.10119,0.32956 10.1765,0.65588 15.27769,0.20848 12.55879,-1.10197 23.25317,-6.88444 31.35812,-16.53936 2.21397,-2.63581 4.52505,-5.07544 4.21431,-8.64035 z"
       fill="#0e092e"
       id="path33"
       style="stroke-width:0.64741" />
    <path
       d="m 625.06146,339.81876 c 1.95502,-0.14114 3.3339,-0.5335 5.10767,0.3464 5.02351,6.50567 17.40751,30.58212 18.07429,38.79386 1.10698,2.60538 0.89335,5.4911 0.3172,8.2059 l -0.56967,0.50826 c -1.1782,-0.68048 -1.77377,-1.84073 -2.3305,-3.02882 -2.35639,-5.04824 -3.79353,-10.73424 -5.81329,-15.95341 -3.76764,-9.76888 -8.96594,-20.13148 -14.7857,-28.87219 z"
       fill="#f1faee"
       id="path34"
       style="stroke-width:0.64741" />
    <path
       d="m 563.43278,151 c 10.81092,3.98253 24.32779,25.13181 29.02115,35.12989 1.77377,3.77858 2.42113,11.15379 5.07531,14.0078 l 1.0034,-0.35093 0.22011,-0.65911 c 1.70255,1.88864 1.30766,5.70218 1.18466,8.10167 -0.3172,5.96958 -1.77376,12.10556 -3.96831,17.65752 -0.9322,2.36712 -2.22692,4.71675 -2.95196,7.14602 -0.34958,1.16737 -0.68621,1.989 -0.0647,3.07932 2.75775,-1.29751 3.87121,-4.56395 4.81636,-7.25026 0.22657,-0.64875 0.29778,-1.16024 0.32368,-1.84137 11.75606,6.34511 30.17992,34.39242 34.09645,47.53133 0.47905,1.59664 0.62794,3.64132 1.2753,5.11493 -2.41465,2.82487 -11.84022,3.04371 -15.4007,3.32471 -12.68178,0.99968 -25.59014,1.0081 -35.799,-7.78765 -3.46338,-2.98285 -8.19558,-11.35645 -10.71381,-12.85014 -0.57615,2.48042 1.85792,6.51863 3.12675,8.57691 4.24021,6.8825 13.48451,12.28944 21.12335,14.09261 7.75538,1.82972 15.97038,1.31435 23.82933,0.63192 10.33186,13.94435 19.69269,30.95053 23.67395,47.96643 -0.92572,1.12269 -2.84191,1.57009 -4.21431,1.91583 -17.59525,4.43122 -42.73224,6.00843 -56.767,-7.44384 -1.78671,-1.71513 -7.48996,-10.33541 -8.37684,-10.7718 -0.79625,-0.393 -1.57956,0.0214 -2.41465,0.22597 l -0.67973,0.75817 c -7.42522,0.31791 -14.79865,-2.24409 -22.32097,-1.95209 l -0.8092,-0.0725 c -9.66509,12.59374 -16.41058,20.20981 -33.52678,22.44614 -9.14072,1.19456 -27.00786,-0.0958 -34.68555,-5.21464 0.47258,-0.30561 0.94515,-0.68437 1.24941,-1.17191 1.6184,-2.62027 2.73833,-6.20979 4.18842,-9.02429 2.90017,-5.6219 18.34618,-32.08683 19.10359,-36.21892 0.0453,-0.23891 -0.30426,-1.15442 -0.38194,-1.44189 7.26338,0.69472 14.76628,0.9809 21.95845,-0.45257 10.26066,-2.04533 19.22012,-7.45421 25.03988,-16.26873 1.18467,-1.798 3.21091,-4.44676 2.75776,-6.63776 -3.08144,0.46164 -8.53868,9.87247 -11.30291,12.46943 -1.97445,1.85562 -4.84872,3.40434 -7.2569,4.58402 -13.12846,6.41309 -30.05045,4.69538 -43.50259,0.18064 l 0.9063,-0.48365 c 3.56695,-23.20368 32.63342,-46.86316 33.62388,-52.03377 2.62828,2.26481 2.67359,6.57625 5.67087,8.69603 l 0.92573,-0.45257 0.2201,-1.22629 c -3.91653,-7.16026 -4.31142,-14.4034 -6.77786,-21.92365 2.88075,-2.95306 2.70596,-10.89999 3.89711,-15.0761 0.8092,-2.84883 2.11686,-5.54679 3.431,-8.19167 8.95299,-18.0201 14.4685,-21.88285 27.16323,-36.26941 3.26269,6.13339 -1.66372,53.45041 1.89676,61.79229 l 1.26236,-0.75041 -0.13595,0.25704 c 1.06815,-2.32697 1.12641,-58.79325 -0.013,-61.86869 z"
       fill="#1d3557"
       id="path37"
       style="stroke-width:0.64741" />
  </g>
  <metadata
     id="metadata5">
    <rdf:RDF>
      <cc:Work
         rdf:about="">
        <dc:title>Focus on What Matters</dc:title>
      </cc:Work>
    </rdf:RDF>
  </metadata>
  <rect
     x="-463.64969"
     y="533.27905"
     width="191.85939"
     height="14.998914"
     rx="2.5257092"
     fill="#2e8555"
     id="rect13"
     style="fill:#00aad4;fill-opacity:0.413044;stroke-width:0.679093"
     transform="matrix(0.00515996,-0.99998669,0.99988224,0.01534652,0,0)" />
  <rect
     x="-428.60278"
     y="587.92175"
     width="121.73936"
     height="15"
     rx="1.6026226"
     fill="#2e8555"
     id="rect14"
     style="fill:#00aad4;fill-opacity:0.413044;stroke-width:0.540965"
     transform="rotate(-89.296764)" />
  <rect
     x="583.04077"
     y="420.48227"
     width="117.73582"
     height="15"
     rx="1.5499184"
     fill="#2e8555"
     id="rect15"
     style="fill:#00aad4;fill-opacity:0.415459;stroke-width:0.531995" />
  <rect
     x="-537.56885"
     y="621.92603"
     width="86.753708"
     height="14.999444"
     rx="1.1420584"
     fill="#2e8555"
     id="rect16"
     style="fill:#00aad4;fill-opacity:0.413044;stroke-width:0.456657"
     transform="matrix(0.01722307,-0.99985167,0.99996175,0.00874599,0,0)" />
  <rect
     x="615.06915"
     y="490.58334"
     width="115.73404"
     height="15"
     rx="1.5235662"
     fill="#2e8555"
     id="rect17"
     style="fill:#00aad4;fill-opacity:0.417874;stroke-width:0.527453" />
  <rect
     x="615.06915"
     y="526.57629"
     width="117.73582"
     height="15"
     rx="1.5499184"
     fill="#2e8555"
     id="rect18"
     style="fill:#00aad4;fill-opacity:0.415459;stroke-width:0.531995" />
  <rect
     x="-456.44611"
     y="792.64612"
     width="117.74088"
     height="14.999927"
     rx="1.5499853"
     fill="#2e8555"
     id="rect19"
     style="fill:#00aad4;fill-opacity:0.413044;stroke-width:0.532006"
     transform="matrix(0.01269028,-0.99991948,0.99992954,0.01187036,0,0)" />
  <rect
     x="789.22339"
     y="382.44861"
     width="117.73582"
     height="15"
     rx="1.5499184"
     fill="#2e8555"
     id="rect20"
     style="fill:#00aad4;fill-opacity:0.415459;stroke-width:0.531995" />
  <rect
     x="789.22339"
     y="417.47964"
     width="117.73582"
     height="15"
     rx="1.5499184"
     fill="#2e8555"
     id="rect21"
     style="fill:#00aad4;fill-opacity:0.415459;stroke-width:0.531995" />
  <rect
     x="787.22162"
     y="450.50891"
     width="117.73582"
     height="15"
     rx="1.5499184"
     fill="#2e8555"
     id="rect22"
     style="fill:#00aad4;fill-opacity:0.415459;stroke-width:0.531995" />
</svg>
