<?xml version="1.0" encoding="UTF-8"?>
<svg version="1.1" viewBox="0 0 1129 663" xmlns="http://www.w3.org/2000/svg">
 <path transform="scale(.64736 .64746)" d="m0 0h1742.5c0.78 1.2306 1.22 2.3274 1.33 3.7815 0.65 8.4544 0.15 17.297 0.15 25.788v50.126l0.02 158.08-0.01 474.04 0.02 155.14c0 26.903 1.11 54.339-0.24 81.194 0.25 3.514 0.4 5.994-0.98 9.31 1.66 3.702 2.3 60.253 0.67 64.593-0.26 0.71-0.56 1.31-0.96 1.95h-785.3-11.267-158.96-13.834-30.411-742.74v-66.637-8.042-949.32z" fill="#020202"/>
 <path transform="scale(.64736 .64746)" d="m945.77 1023.1 11.581 0.05-0.139 0.82h-11.267l-0.175-0.87z" fill="#9C9E9F"/>
 <path transform="scale(.64736 .64746)" d="m772.99 1023.2 14.167-0.05-0.176 0.89h-13.834l-0.157-0.84z" fill="#9C9E9F"/>
 <path transform="scale(.64736 .64746)" d="m1743 948.15h0.73c0.25 3.514 0.4 5.994-0.98 9.31-4 4.306-12.68 8.334-18.54 8.738 2.51-2.343 6.88-3.51 9.95-5.276-6.33 1.787-11.95 5.364-18.67 4.23 6.61-1.85 18.01-4.598 22.9-9.522 1.64-1.654 1.72-2.272 1.73-4.452l-2.47-2.072c1.34 0.271 2.66 0.357 4.02 0.449l1.33-1.405z" fill="#0F1118"/>
 <path transform="scale(.64736 .64746)" d="m787.16 1023.1c28.458-0.76 57.053 0.24 85.535 0.11 24.11-0.12 49.05-1.61 73.078-0.09l0.175 0.87h-158.96l0.176-0.89z" fill="#5C5F64"/>
 <path transform="scale(.64736 .64746)" d="m1059.6 238.96q20-0.281 40.01-0.219c0.61 0.983 1.05 1.761 1.2 2.931 0.89 6.925 1.53 53.82-1.16 57.185-1.08-8.691-39.04-50.918-40.05-59.897z" fill="#638F8A"/>
 <path transform="scale(.64736 .64746)" d="m346.53 346.93q62.305-0.436 124.61 0.04c-0.012 0.208-0.021 0.415-0.035 0.623-0.899 13.462-5.559 22.686-15.674 31.454-9.77 7.829-22.849 12.283-35.169 13.946-19.003 2.566-41.834-0.768-57.245-12.815-11.153-8.718-14.869-19.73-16.485-33.248z" fill="#FAFBFA"/>
 <path transform="scale(.64736 .64746)" d="m884.38 347.13q55.065-0.507 110.13 0.147c-0.397 3.665-0.916 7.352-1.706 10.955-2.641 12.048-10.602 19.068-20.573 25.347q-2.885 1.536-5.874 2.856-2.99 1.32-6.068 2.417t-6.229 1.965q-3.15 0.868-6.356 1.502c-19.605 3.783-43.267 0.682-59.948-10.777-12.834-8.816-16.127-19.593-18.907-34.09l15.533-0.322z" fill="#FAFBFA"/>
 <path transform="scale(.64736 .64746)" d="m214.55 347.61 126.76 0.026c-2.285 13.822-6.453 22.613-16.998 32.037-11.488 8.571-26.693 13.467-40.921 14.631-18.507 1.515-39.859-3.239-54.118-15.615-9.492-8.238-13.914-18.694-14.725-31.079z" fill="#61BFF8"/>
 <path transform="scale(.64736 .64746)" d="m636.52 347.16q48.125-0.637 96.244 0.306c-1.357 5.981-2.553 12.34-5.006 17.965-5.585 12.806-16.763 19.31-29.259 24.117q-5.057 1.758-10.285 2.909-5.229 1.152-10.556 1.681c-19.007 1.805-40.501-2.645-55.306-15.173-10.358-8.765-13.775-18.451-14.771-31.547l28.939-0.258z" fill="#FAFBFA"/>
 <g fill="#61BFF8">
  <path transform="scale(.64736 .64746)" d="m736.3 347.5 128.9 0.071c-2.846 12.693-6.519 22.086-16.015 31.25-10.054 8.387-22.949 12.587-35.772 14.353-20.433 2.815-44.46-0.993-61.108-13.842-10.852-8.375-14.428-18.726-16.01-31.832z"/>
  <path transform="scale(.64736 .64746)" d="m475.69 347.38 127.76 0.062c-2.337 13.31-5.196 22.474-15.569 31.785-10.498 7.772-23.448 12.395-36.328 14.121-19.532 2.619-43.959-0.628-59.851-13.016-10.995-8.57-14.485-19.675-16.008-32.952z"/>
  <path transform="scale(.64736 .64746)" d="m998.91 347.03c42.323 1.047 84.793 0.383 127.12 0.41 2.02 3.948 1.07 8.475-0.21 12.53-2.41 7.628-7.91 15.533-15.13 19.228-0.15 0.506-0.13 0.594-0.5 1.084-5.96 7.983-26.15 12.718-36.05 13.775-20.61 2.203-44.03-1.942-60.4-15.398-10.47-8.604-13.53-18.692-14.833-31.629z"/>
 </g>
 <path transform="scale(.64736 .64746)" d="m1487.2 789.3c3.25 0.265 5.99 2.302 8.78 3.862 12.05 6.723 23.69 9.718 37.25 11.909 0.58 0.903 1.07 1.881 1.27 2.947 1.04 5.718 0.63 94.686-0.2 96.706-0.27 0.672-1.07 1.525-1.51 2.143-15.34-0.384-30.99-2.635-46.36-3.669 0.15-0.248 0.31-0.49 0.45-0.744 1.72-3.153 1.71-108.92 0.32-113.15z" fill="#FAFBFA"/>
 <path transform="scale(.64736 .64746)" d="m1487.1 645.32 1.56 0.271c4.5 3.296 48.8 52.005 49.84 56.176 0.28 0.658 0.51 1.319 0.68 2.013 1.24 4.861-1.31 21.133-1.75 26.955-1.52 20.23-0.83 40.892-2.86 60.996-0.14 1.335-0.64 2.408-1.36 3.535 0.31 0.537 0.67 1.111 0.85 1.706 0.51 1.642 0.47 2.218-0.32 3.699-11.49 3.352-36.94-11.887-46.99-17.397 0.99-1.781 1.04-3.172 1.1-5.155 0.89-28.152-0.01-56.596-0.05-84.788-0.02-13.462 1.51-35.632-0.7-48.011z" fill="#B3D9D0"/>
 <g fill="#FAFBFA">
  <path transform="scale(.64736 .64746)" d="m838.11 238.83q52.564 0.452 105.13 0.016l50.692 104.04c-41.497 1.114-83.31 0.183-124.85 0.331-10.415-34.748-21.367-69.406-30.97-104.39z"/>
  <path transform="scale(.64736 .64746)" d="m615.42 238.78c35.229-0.383 70.493-0.065 105.73-0.071 3.59 34.328 8.097 68.803 10.756 103.2-1.739 1.588-3.062 1.171-5.303 1.196l-118.75 0.19c0.21-12.309 1.525-24.781 2.394-37.067q2.414-33.735 5.18-67.444z"/>
  <path transform="scale(.64736 .64746)" d="m395.48 238.81 107.28-0.017c-10.857 34.527-20.886 69.32-31.435 103.94-5.454 0.194-10.927 0.216-16.385 0.319l-107.57-0.15c8.651-19.961 18.225-39.604 27.147-59.458 6.568-14.617 12.513-31.06 20.957-44.639z"/>
 </g>
 <g fill="#61BFF8">
  <path transform="scale(.64736 .64746)" d="m507.1 238.66 104.19 0.154c-2.921 34.631-4.654 69.367-7.575 103.98l-22.328 0.093-106.09 0.105 31.803-104.34z"/>
  <path transform="scale(.64736 .64746)" d="m947.98 238.78c34.713-0.404 69.458-0.084 104.18-0.076 6.89 4.874 58.71 81.736 68.55 95.899 2 2.879 3.61 4.77 2.98 8.292-9.02 1.872-26.11 0.363-36.09 0.35l-88.781-0.033c-6.947-12.3-12.665-25.639-18.879-38.343q-16.377-32.852-31.958-66.089z"/>
  <path transform="scale(.64736 .64746)" d="m282.92 238.22c13.201 1.521 27.184 0.603 40.482 0.547l66.918-0.044q-23.247 52.612-47.889 104.58l-17.564 0.013-108.43-0.058c12.94-22.673 27.981-44.392 42.052-66.375 8.161-12.75 15.398-26.559 24.433-38.667z"/>
  <path transform="scale(.64736 .64746)" d="m725.57 238.74 107.96 0.039c10.212 34.728 22.439 69.347 31.165 104.44l-128.46-9e-3 -10.666-104.47z"/>
 </g>
 <path transform="scale(.64736 .64746)" d="m0 957.36c7.1557 5.866 14.822 9.242 23.559 12.002 29.904 9.446 62.601 13.122 93.622 16.919q56.529 7.173 113.34 11.627 126.58 10.229 253.43 16.369t253.82 8.17q17.615 0.21 35.225 0.71l0.157 0.84h-30.411-742.74v-66.637z" fill="#FAFBFA"/>
 <path transform="scale(.64736 .64746)" d="m1724.3 966.2c5.86-0.404 14.54-4.432 18.54-8.738 1.66 3.702 2.3 60.253 0.67 64.593-0.26 0.71-0.56 1.31-0.96 1.95h-785.3l0.139-0.82q103.19-2.24 206.31-6.61 90.54-3.44 181.03-8.16 97.31-4.8 194.39-13.053c51.93-4.624 104.09-9.994 155.13-20.855 6.93-1.476 24.94-3.934 30.05-8.307z" fill="#FAFBFA"/>
 <path transform="scale(.64736 .64746)" d="m1559.7 509.02q2.57-0.346 5.16-0.448c9.16-0.438 16.88 3.773 23.46 9.899 29.23 27.214 40.73 82.384 42.23 120.56 1.77 45.199-6.86 103.72-38.92 138.21-15.09 16.247-32.26 23.23-54.35 24.007 0.08-0.144 0.15-0.288 0.22-0.43 2.5-4.798 1.8-30.776 2.07-37.899 0.48-13.078 7.26-91.39 6.03-95.873 4.02-1.593 11.58-6.414 13.93-10.035 0.38-0.149 0.95-0.356 1.34-0.547 4.97-2.46 36.97-25.123 38.45-29.226l-1.08-1.357c-6.04-0.178-41.38 31.146-51.94 35.625-0.23 0.097-0.46 0.188-0.68 0.282 0.29-0.508 0.34-0.564 0.62-1.164 1.55-3.232 5.99-40.164 6.24-45.681 0.08-1.827-0.31-3.464-0.87-5.191l-2.02 1.663 0.1-0.282c-5.96 16.284-6.01 76.837-11.32 84.273-0.04-0.266-0.06-0.534-0.1-0.799-0.48-2.733-47.19-54.074-51.15-56.641 1.87-4.483 1.92-48.856 0.34-53.969 5.39-5.876 9.36-14.707 13.66-21.517 14.36-22.769 32.61-44.21 58.58-53.463z" fill="#B3D9D0"/>
 <path transform="scale(.64736 .64746)" d="m414.2 185.29 670.92-0.024 251.22-0.184 79.06-0.044c14.5-0.054 29.46-0.831 43.92-0.032 6.61 0.365 13.3 1.422 18.23 6.187 4.95 4.782 7.49 10.89 7.6 17.751 0.12 7.166-2.64 13.765-7.72 18.835-3.04 3.035-6.73 5.263-10.98 6.023-12.49 2.237-27.85 0.61-40.65 0.604l-87.36-0.051-712.04-0.095-228.62 0.052-70.535 0.109c-11.775 0.024-23.955 0.727-35.679-0.068-6.543-0.443-12.42-3.161-17.1-7.76-4.696-4.613-7.183-10.097-7.251-16.683-0.07-6.927 1.987-12.955 6.976-17.87 3.241-3.193 7.231-5.306 11.731-6.036 12.514-2.03 29.077-0.411 42.017-0.402l86.267-0.312z" fill="#638F8A"/>
 <path transform="scale(.64736 .64746)" d="m1486.4 907.27c15.42 1.26 31.38 1.852 46.63 4.432 4.48 6.861-0.68 22.632 2.98 31.434l0.71-0.178c0.51-1.057 0.94-2.151 1.2-3.295 1.38-6.007 2.45-22.063-0.83-27.558 21.41 0.766 42.9 3.992 64.15 6.607 35.76 4.398 86.27 9.457 119.46 21.87 5.29 1.822 13.48 3.933 16.96 8.517l2.47 2.072c-0.01 2.18-0.09 2.798-1.73 4.452-4.89 4.924-16.29 7.672-22.9 9.522-23.47 6.559-47.87 10.737-71.95 14.331-60.26 8.992-121.22 13.209-181.94 17.499q-139.81 9.841-279.89 14.481c-67.55 2.39-135.01 5.61-202.61 6.78q-167.79 2.66-335.52-2.68-115.53-2.52-230.9-9.12-115.37-6.598-230.43-17.258c-31.932-3.199-153.83-13.945-176.06-31.585-1.953-1.549-2.2482-2.294-2.4986-4.636 0.46929-0.891 0.99595-1.775 1.7018-2.504 24.084-24.854 211.28-37.283 254.08-40.682 0.102 5.314 0.057 10.402 2.206 15.363 1.907 4.401 5.856 8.596 10.497 10.152 7.913 2.652 49.853 0.962 61.288 0.962l136.76 3e-3 684.67-0.083 208.13 1e-3c33.39-3e-3 69.91 1.475 102.83-0.107 3.46-0.166 6.52-0.518 9.66-2.042q0.5-0.244 0.99-0.513t0.96-0.562q0.48-0.293 0.94-0.608 0.46-0.316 0.9-0.654t0.87-0.697q0.43-0.36 0.83-0.74 0.41-0.38 0.8-0.78t0.76-0.818q0.37-0.419 0.71-0.855 0.35-0.436 0.68-0.889 0.32-0.452 0.63-0.921 0.3-0.468 0.58-0.951 0.28-0.482 0.53-0.978 0.26-0.496 0.49-1.004t0.44-1.026q0.2-0.519 0.38-1.047c1.44-4.381 1.45-9.545-0.6-13.707z" fill="#B3D9D0"/>
 <g fill="#020202">
  <path transform="scale(.64736 .64746)" d="m320.78 969.11c0.665 0.421 1.267 1.163 1.833 1.719 0.449 5.229-7.504 16.545-10.333 21.294-1.066-0.565-1.427-1.25-2.07-2.232 0.556-6.771 7.045-15.113 10.57-20.781z"/>
  <path transform="scale(.64736 .64746)" d="m1365.9 965.64c1.82-0.121 2.24-0.444 3.7 0.733-0.01 0.312-0.01 0.626-0.04 0.937-0.46 4.869-8.87 16.138-12.7 19.064l-0.12 0.405-2.22-0.291c0.54-7.577 10.18-13.476 11.38-20.848z"/>
  <path transform="scale(.64736 .64746)" d="m284.93 963.12 2.545 1.042c5.376 5.904 10.128 18.39 10.853 26.304-1.022-0.268-1.769-0.321-2.604-1.007-2.496-2.053-10.356-22.527-10.794-26.339z"/>
  <path transform="scale(.64736 .64746)" d="m1558.9 945.2c1.04 0.091 1.41 0.02 2.33 0.595 3.85 2.417 11.08 16.099 11.91 20.539l-1.55 1.878c-0.56 0.109-1.2-0.426-1.7-0.688-3.23-5.31-11.62-16.446-10.99-22.324z"/>
  <path transform="scale(.64736 .64746)" d="m209.2 937.27c1.929 0.437 2.242 0.627 3.68 1.992 3.148 8.322 2.149 18.111 0.281 26.64l-2.211-0.059c-1.43-2.383-1.25-23.618-1.75-28.573z"/>
  <path transform="scale(.64736 .64746)" d="m1597.8 944.34 2.43 0.068 1.04 1.244c-0.01 0.451-0.01 0.607-0.08 1.097-0.8 5.678-9.19 18.56-13.56 22.02l-0.8 0.333-0.88-0.789c-0.43-5.458 9.15-17.802 11.57-23.333l0.28-0.64z"/>
  <path transform="scale(.64736 .64746)" d="m242.48 944.49c0.687 0.495 1.144 1.281 1.646 1.96-0.88 3.685-13.604 16.671-17.083 21.576l-1.593-1.486c-0.156-0.762-0.287-1.374-0.113-2.151 1.618-7.217 11.4-15.573 17.143-19.899z"/>
  <path transform="scale(.64736 .64746)" d="m1339.3 957.11c1.4-0.164 2.12-0.284 3.46 0.297 0.41 0.851 0.72 1.683 0.89 2.621 1.11 6.141 1.58 22.187-1.97 26.919l-0.54 0.022c-3.28-3.644-1.35-23.915-1.84-29.859z"/>
  <path transform="scale(.64736 .64746)" d="m1311 959.67 1.93 0.223c5.25 4.17 13.44 18.295 14.67 24.868l-1.69 2.191c-0.5-0.256-0.69-0.314-1.12-0.776-3.52-3.772-14.08-21.934-13.79-26.506z"/>
  <path transform="scale(.64736 .64746)" d="m179.9 939.43c0.304 0.033 0.609 0.05 0.91 0.099 4.509 0.735 7.787 6.38 10.164 10.011 2.849 4.353 8.232 12.78 7.17 17.994l-2.536-1.123c-2.829-4.527-15.53-23.388-15.708-26.981z"/>
 </g>
 <path transform="scale(.64736 .64746)" d="m1103.9 238.75 242.42-0.083 75.8-6e-3c13.56-0.011 27.42-0.657 40.94 0.19 4.21 0.263 9.89 0.294 13.08 3.441 3.27 3.231 6.52 7.711 7.11 12.375 2.39 18.949 0.6 48.523 0.57 68.625l-0.07 138.89-0.06 304.44c-0.02 48.29 0.82 96.627 0.12 144.91-0.04 3.086 0.03 6.391-1.49 9.168-0.43 2.948-2.53 5.541-4.84 7.341-3.59 2.792-8.9 3.517-13.29 3.712-21.84 0.971-45.63-0.127-67.71-0.047l-162.06 0.173-72.63 0.038c-13.47 0.059-28.75 1.518-42.01-0.762-4.13-0.708-7.33-2.655-9.69-6.158-2.14-3.17-3.41-6.673-5.32-9.928 1.13-2.06 1.2-4.013 1.28-6.305 0.55-16.456 0.11-33.062 0.12-49.539l0.02-93.838-0.01-284.34c0-14.669-1.79-87.026 0.91-94.239 8.67-3.052 16.57-12.64 20.41-20.713 2.7-5.652 5.21-14.655 3.11-20.827-0.19-0.541-0.28-0.727-0.49-1.211-0.09-4.716-20.18-33.583-24.33-37.801-0.53-0.538-1.19-0.989-1.82-1.397 2.34-4.696 2.38-59 0.39-64.965-0.18-0.539-0.25-0.677-0.46-1.149z" fill="#638F8A"/>
 <g fill="#B3D9D0">
  <path transform="scale(.64736 .64746)" d="m1140.4 707.51c50.42-1.805 103.6-0.28 154.32-0.303l106.5 0.073c9.82 0.043 19.71-0.801 29.51-0.518 2.68 0.077 5.69 0.273 8.2 1.299 2.02 0.824 4 2.317 4.66 4.481 0.76 2.443 0.09 4.745-1.15 6.867-1.94 1.658-3.68 2.051-6.09 2.585-0.13 0.027-0.26 0.061-0.39 0.082-9.1 1.441-20.49 0.1-29.81-0.011q-30.87-0.428-61.74-0.397l-141.21 0.504c-18.47-0.047-37.19 0.57-55.64-0.222-3.54-0.151-6.95-0.344-9.87-2.557-1.32-2.251-1.8-3.216-1.5-5.939 0.3-2.736 2.26-4.279 4.21-5.944z"/>
  <path transform="scale(.64736 .64746)" d="m1140.9 613.8c16.45-1.775 295.42-0.43 298.42 0.756 2 0.788 3.8 2.285 4.51 4.357 0.69 2.007 0.25 4.264-0.87 6.028-1.76 2.756-4.14 2.856-7.01 3.336-13.47 1.088-27.91 0.026-41.46 8e-3l-85.84-0.058-111.51 0.213c-16.52-9e-3 -33.39 0.789-49.87-0.055-3.55-0.182-6.6-0.73-9.6-2.709-1.15-1.771-1.61-2.278-1.51-4.471 0.13-3.334 2.5-5.276 4.74-7.405z"/>
  <path transform="scale(.64736 .64746)" d="m1159.2 660.66q100.96-0.652 201.93-0.275c13.73 0.013 68.14-1.787 77.63 1.169 2.96 0.923 4.35 2.218 5.75 4.9 0.01 2.701-1.08 5.423-3.09 7.29-3.96 3.662-18.42 1.876-23.83 1.849l-181.02-0.443-61.91 0.285c-10.19 0.066-20.87 0.77-31.02 0.116-1.98-0.127-3.57-0.737-5.07-2.046-1.63-1.432-2.75-3.58-2.81-5.771-0.05-1.731 0.58-3.366 1.82-4.578 4.19-4.096 16.13-2.546 21.62-2.496z"/>
  <path transform="scale(.64736 .64746)" d="m1141.4 567.8c16-0.518 32.16-0.077 48.18-0.088l95.75-0.044 114.8-0.087c9.84 0.043 19.71-0.44 29.54-0.191 3.14 0.079 6.5 0.315 9.48 1.359 2.73 0.954 3.89 2.26 5.12 4.75 0 2.443-0.74 4.424-2.14 6.401-1.46 2.072-3.97 2.331-6.28 2.752-23.27 0.553-46.69 0.023-69.98 0.024l-138.19 0.021-62.36-0.109c-7.01-0.01-15.05 1.237-21.88 0.158-2.44-0.386-5.12-1.316-6.54-3.489-1.12-1.719-1.31-4.237-0.76-6.184 0.76-2.659 2.93-4.101 5.26-5.273z"/>
  <path transform="scale(.64736 .64746)" d="m1141.4 752.66c14.15-0.945 28.66-0.365 42.85-0.373l77.01-0.139q63.82-0.498 127.65-0.14c13.54 0.136 27.24-0.507 40.76 0.117 3.52 0.163 7.59 0.501 10.83 2.048 2.58 1.229 3.29 2.214 4.24 4.727-0.2 2.374-1.4 4.177-2.85 6.017-1.98 2.527-4.27 2.388-7.17 2.777q-113.21 0.585-226.43-0.025c-10.02-0.041-59.12 1.299-65.96-0.376-2.22-0.545-4.24-1.957-5.4-3.955-0.92-1.59-1.15-3.54-0.68-5.313 0.73-2.835 2.71-4.077 5.15-5.365z"/>
 </g>
 <path transform="scale(.64736 .64746)" d="m1166.3 514.56c1.89-7.22 0.46-23.791 0.46-31.836-0.01-14.2-1.6-135.23 0.78-141.24 1.19-3.006 4.06-5.448 7.03-6.63 2.71-1.078 5.86-0.964 8.74-1.01 17.75-0.281 221.41-1.435 226.64 0.846 3.05 0.458 5.49 1.217 7.48 3.797 1.79 2.32 2.12 5.215 2.31 8.035 0.74 11.318 0.2 22.95 0.18 34.295l-0.24 68.415 0.17 41.487c0.03 8.078 0.76 16.907-0.65 24.872-0.57 3.237-1.51 5.898-4.28 7.899-2.36 1.702-4.59 1.916-7.39 2.071-30.51 1.687-64.74 0.032-95.72 0.037-45.43 7e-3 -91.2 1.206-136.58-0.099-2.92-3.985-6.48-6.361-8.93-10.94z" fill="#020202"/>
 <path transform="scale(.64736 .64746)" d="m1391.2 338.06c6.46-0.059 17.66-1.501 22.73 3.513 1.72 1.701 2.38 4.09 2.55 6.435 0.46 6.155-0.39 12.573-0.44 18.758-0.1 13.507 0.12 27.028 0.14 40.537 0.05 32.681 1.37 69.002-0.23 101.27-0.17 3.376-0.03 8.675-2.75 11.01-1.81 1.562-4.23 1.913-6.54 1.989-17.51 0.574-35.31-0.11-52.85-0.102l-105-0.063q-21.7-0.185-43.4 0.121c-8.32 0.078-17.1 0.712-25.36-0.223-2.83-0.321-5.24-0.958-7.11-3.303-1.4-1.745-2.48-3.904-3.56-5.863 2.96-5.789 1.29-31.343 1.27-39.72l-0.02-79.465c-0.04-15.029-0.86-30.539 0.13-45.521 0.13-1.923 0.29-5.089 1.67-6.573 1.79-1.917 7.88-2.25 10.36-2.419 20.24-1.379 41.28-0.31 61.59-0.326 48.89-0.038 97.94 0.837 146.82-0.059z" fill="#B3D9D0"/>
 <g fill="#265646">
  <path transform="scale(.64736 .64746)" d="m1283.2 405.54c-0.14-0.073-0.29-0.144-0.43-0.218-6.34-3.403-10.88-8.852-12.98-15.761q-0.18-0.594-0.33-1.197-0.15-0.602-0.27-1.211t-0.21-1.224q-0.09-0.614-0.14-1.232-0.06-0.618-0.09-1.238t-0.02-1.241q0-0.621 0.03-1.241 0.04-0.619 0.1-1.237 0.06-0.617 0.16-1.231 0.1-0.613 0.22-1.221 0.13-0.608 0.28-1.209 0.16-0.601 0.34-1.193 0.19-0.593 0.4-1.176 0.21-0.582 0.46-1.153 0.24-0.572 0.51-1.13 0.27-0.559 0.57-1.103c3.26-5.924 9.31-9.896 15.67-11.734 0.81 0.928 1.07 1.035 1.34 2.284-6.78 2.537-12.07 5.856-15.17 12.691-2.41 5.322-2.4 11.382-0.28 16.796 2.81 7.191 7.37 7.876 12.08 12.851l-0.24 1.858-2 0.47z"/>
  <path transform="scale(.64736 .64746)" d="m1287.5 358.59c6.27-1.39 12.88-0.869 18.37 2.752 5.57 3.668 9.17 9.841 10.41 16.316q0.13 0.635 0.22 1.275t0.15 1.284 0.09 1.29 0.02 1.293q0 0.646-0.04 1.292t-0.11 1.289-0.17 1.281q-0.1 0.639-0.23 1.272-0.14 0.632-0.3 1.257-0.17 0.625-0.37 1.241t-0.42 1.221q-0.23 0.605-0.49 1.198t-0.55 1.172q-0.28 0.579-0.6 1.143t-0.66 1.111q-0.35 0.547-0.72 1.076c-3.66 5.182-8.96 8.63-15.26 9.565q-1.71 0.262-3.44 0.306t-3.45-0.13q-1.72-0.175-3.41-0.565t-3.31-0.989l2-0.47 0.24-1.858c2.62 0.5 5.41 0.781 8.08 0.731 5.4-0.102 10.9-2.665 14.56-6.619 4.07-4.395 6-10.291 5.67-16.239-0.33-5.836-2.82-11.584-7.27-15.447-5.27-4.585-10.94-5.235-17.67-4.764-0.27-1.249-0.53-1.356-1.34-2.284z"/>
  <path transform="scale(.64736 .64746)" d="m1248.6 427.23c0.95-0.189 1.9-0.34 2.87-0.405 7.57-0.514 81.91-0.771 83.98 1.004l-0.76 2.057c-4.77 1.153-80.32 1.408-84.88-0.051l-1.21-2.605z"/>
  <path transform="scale(.64736 .64746)" d="m1249 417.01q0.99-0.25 1.99-0.413c12.2-2.044 28.8-0.445 41.36-0.386 12.38 0.059 25.22-0.722 37.53-0.146 2.23 0.104 3.79 0.084 5.64 1.398l-1.16 2.107c-5.52 1.464-81.42 1.206-84.49-0.188l-0.87-2.372z"/>
  <path transform="scale(.64736 .64746)" d="m1210.4 485.16c9.29-1.155 156.74-1.071 160.58-0.128 1.36 0.336 1.27 0.367 1.99 1.559l-1.6 1.981c-0.13 0.046-0.26 0.104-0.4 0.14-6.09 1.626-42.11 0.265-50.77 0.252-33.82-0.052-67.98 1.043-101.76 0.131-2.64-0.071-4.92 0.013-7.31-1.23l-0.73-2.705z"/>
  <path transform="scale(.64736 .64746)" d="m1198 472.38c11.99-1.203 24.83-0.369 36.92-0.379l71.48-0.027 49.79-0.037c8.45-0.016 18-0.895 26.29 0.408l0.71 1.177-1.74 1.934c-8.91 0.949-181 0.615-181.27 0.54-0.41-0.11-0.89-0.344-1.23-0.596-1.03-0.764-0.81-1.812-0.95-3.02z"/>
  <path transform="scale(.64736 .64746)" d="m1198.8 451.08c7.73-1.322 176.96-1.08 183.97 0.256l0.44 0.969-1.73 2.187c-6.58 1.548-36.5 0.217-45.67 0.207-42.83-0.045-85.84 0.595-128.65-0.308-2.64-0.056-5.1 0.054-7.57-1.026l-0.79-2.285z"/>
  <path transform="scale(.64736 .64746)" d="m1198.4 440.01c7.34-1.434 179.56-1.376 183.76-0.039 0.76 0.243 0.75 0.701 1.1 1.38l-1.82 1.785c-16.64 0.542-179.35 0.652-181.81-0.265l-1.23-2.861z"/>
 </g>
 <defs>
  <linearGradient id="gradient_0" x1="1292" x2="1292.5" y1="362.03" y2="402.13" gradientUnits="userSpaceOnUse">
   <stop stop-color="#7EB4A4" offset="0"/>
   <stop stop-color="#B5DBD3" offset="1"/>
  </linearGradient>
 </defs>
 <path transform="scale(.64736 .64746)" d="m1288.8 360.87c6.73-0.471 12.4 0.179 17.67 4.764 4.45 3.863 6.94 9.611 7.27 15.447 0.33 5.948-1.6 11.844-5.67 16.239-3.66 3.954-9.16 6.517-14.56 6.619-2.67 0.05-5.46-0.231-8.08-0.731-4.71-4.975-9.27-5.66-12.08-12.851-2.12-5.414-2.13-11.474 0.28-16.796 3.1-6.835 8.39-10.154 15.17-12.691z" fill="url(#gradient_0)"/>
 <path transform="scale(.64736 .64746)" d="m1285.8 376.12c1.8-0.376 3.47-0.395 5.3-0.393 2.08 1.362 3.71 2.366 6.21 2.857 1.12-0.386 2.31-0.843 3.48-1.065 2.07-0.393 4.29 0.336 5.9 1.693 1.69 1.42 2.68 3.13 2.73 5.368 0.05 1.988-0.93 3.593-2.24 4.979-2.04 0.504-1.96 0.321-3.68-0.681l-0.26-1.743c1.51-1.149 2.53-1.918 3.33-3.661l-1.1-1.718c-2.84-1.219-4.56-0.544-7.57-0.095-2.78 0.219-7.09-2.625-9.76-3.774-2.21 2.292-5.4 3.483-7.76 5.812l0.04 1.369 3.11 1.557 0.31 1.631-1.39 1.124c-2.41 0.166-2.72 0.392-4.65-1.004-0.77-1.558-1.34-2.728-1.2-4.511 0.33-3.97 6.15-5.155 8.87-7.45 0.11-0.096 0.22-0.196 0.33-0.295z" fill="#265646"/>
 <path transform="scale(.64736 .64746)" d="m262.62 397.51c17.885 2.155 35.609 0.566 52.071-7.253 14.907-7.08 23.726-17.482 29.181-32.809 1.326 4.139 2.727 8.194 4.863 11.997 7.614 13.556 21.3 21.407 35.922 25.335 21.691 5.826 46.881 3.566 66.416-7.937 11.102-6.537 18.757-15.706 22.043-28.208q0.653 1.928 1.365 3.834c4.989 13.532 14.214 22.511 27.309 28.393 21.065 9.463 48.252 9.932 69.757 1.667 16.251-6.246 26.942-15.984 34.005-31.891q1.257 3.925 3.17 7.575c6.65 12.978 20.035 21.598 33.561 25.994 20.957 6.811 46.797 5.506 66.487-4.673 13.395-6.924 20.769-15.812 25.359-29.999 0.962 2.634 1.927 5.301 3.146 7.829 6.469 13.423 20.541 21.573 34.186 26.196 21.58 7.312 48.351 6.164 68.787-4.185 14.269-7.226 21.812-17.352 26.586-32.261 1.055 3.937 2.204 7.801 4.026 11.462 6.107 12.272 18.206 19.925 30.815 24.259 22.003 7.563 48.078 6.629 69.015-3.841 13.071-6.537 21.456-15.203 26.095-29.026 0.774 2.366 1.549 4.772 2.559 7.049 5.888 13.268 20.438 21.88 33.578 26.721 21.46 7.904 47.24 6.891 67.94-2.741 2.97 5.421 1.25 128.43 1.24 144l0.04 282.82-0.08 70.232c-0.01 9.088 1.4 20.727-0.52 29.499 2.35 4.655 6.71 9.593 8.17 14.391l-577.42-0.182-172.86 0.092-53.042 0.011c-9.21 0.031-18.721 0.636-27.89-8e-3 -4.494-0.315-8.274-1.831-11.443-5.084-3.302-3.388-3.181-10.247-3.412-14.753-0.961-18.774-0.268-37.949-0.314-56.756l-0.213-107.42-0.497-350.34z" fill="#638F8A"/>
 <path transform="scale(.64736 .64746)" d="m375.22 460.15c47.747-0.756 95.594-7e-3 143.35-0.016l302.03 0.055 123.04-0.048c12.764-9e-3 40.75-1.66 52.266 0.611 1.649 0.603 3.353 1.22 4.779 2.263 3.51 2.559 5.07 5.935 5.64 10.16 1.29 9.408 0.46 19.688 0.44 29.227l-0.11 57.068 0.15 193.95c0 18.388 1.93 132.28-2.11 136.88-3.58 4.072-8.842 3.937-13.86 4.165-16.698 0.756-33.71 0.064-50.436 0.057l-99.749-0.024-305.79-0.018-118.36 0.102c-11.994 0.047-42.653 1.735-51.793-0.46-1.988-0.478-4.214-1.834-5.671-3.297-3.816-3.833-3.768-7.934-3.865-12.953-0.67-34.915 0.288-70.018 0.409-104.95l-6e-3 -161.14 0.247-93.849c6e-3 -15.159-1.274-31.438 0.123-46.487 0.285-3.068 1.635-5.421 3.863-7.562 4.33-4.159 9.811-4.024 15.406-3.739z" fill="#020202"/>
 <path transform="scale(.64736 .64746)" d="m389.13 464.2c45.77 0.834 91.669 0.19 137.45 0.183l251.64-0.029 134.3-6e-3 42.525 0.072c7.571 0.012 15.603 0.512 23.122-0.214 6.145 0.348 14.188-1.333 19.702 1.813 2.237 1.276 3.967 3.498 4.467 6.041 2.33 11.702 0.77 26.606 0.78 38.627l0.02 81.202-0.04 192.04c-0.01 30.027 0.79 60.223 0.09 90.23-0.1 4.572-0.04 10.906-2.56 14.864q-2.429 0.564-4.909 0.814c-9.903 1.089-20.098 0.658-30.053 0.647l-46.215-0.023-157.93 2e-3 -259.1 0.116-92.09-0.051c-12.164-7e-3 -24.459 0.62-36.598 0.297-4.619-0.122-8.977-0.562-12.686-3.551-1.279-4.123-1.648-8.391-1.767-12.687-0.827-29.78 0.07-59.851 0.111-89.654l0.105-178.45 0.047-93.23c0.055-13.474-1.65-30.24 1.303-43.372 0.284-1.261 0.607-1.769 1.549-2.675 5.147-4.949 19.749-2.87 26.735-3.005z" fill="#FAFBFA"/>
 <g fill="#020202">
  <path transform="scale(.64736 .64746)" d="m480.31 719.15c4.541-0.585 70.464-0.859 72.89 0.2 1.402 0.612 1.453 2.443 1.824 3.785-8.128 0.419-68.673 1.339-72.816-0.439-1.516-0.651-1.494-2.112-1.898-3.546z"/>
  <path transform="scale(.64736 .64746)" d="m768.58 720.02c7.8-0.485 69.132-1.477 71.988 0.371 0.989 0.64 1.007 2.445 1.25 3.582-7.598 0.524-68.837 1.314-71.749-0.474-1.03-0.633-1.159-2.334-1.489-3.479z"/>
  <path transform="scale(.64736 .64746)" d="m455.26 706.39c12.747-0.703 122.19-0.72 125.28 0.451 1.692 0.642 1.661 1.883 2.142 3.422-14.795 1.545-30.756 0.356-45.648 0.311-26.47-0.078-52.961 0.159-79.428-0.189-1.993-1.315-1.775-1.76-2.349-3.995z"/>
  <path transform="scale(.64736 .64746)" d="m740.85 707.35c30.744-0.67 61.666 0.337 92.437 0.381 6.888 9e-3 29.691-1.16 34.977-0.315 0.45 0.072 1.398 0.769 1.841 1.013l0.838 3.061c-8.829 1.024-126.09 0.581-128.06-0.152-0.619-0.23-1.11-0.716-1.665-1.075l-0.366-2.913z"/>
  <path transform="scale(.64736 .64746)" d="m409.51 775.58c46.552-1.29 93.423-0.25 140.01-0.173l243.27 0.053 118.64 0.127c5.621 0.028 26.865-0.94 31.268 0.363 0.603 0.178 1.066 0.667 1.598 1.001l-0.057 2.636c-37.771 0.611-75.625 0.087-113.4 0.081l-210.06 0.022-143.94-0.016c-20.532-0.031-41.504 0.989-61.966 0.142-2.494-0.104-4.234-0.14-5.973-2.018l0.617-2.218z"/>
 </g>
 <path transform="scale(.64736 .64746)" d="m410.09 832.26c21.07-0.503 42.252-0.062 63.331-0.064l124.35 0.056 346.03 0.075c0.074 4.765 1.229 14.978-1.272 18.723l-356.97-0.197-115.94-0.046c-16.992-3e-3 -34.234 0.694-51.193 0.192-2.661-0.079-5.519-0.488-7.866-1.824-1.824-1.038-3.177-2.663-3.522-4.776-0.606-3.72 0.996-9.03 3.041-12.139z" fill="#61BFF8"/>
 <path transform="scale(.64736 .64746)" d="m410.93 796.52 532.56 0.873c0.069 5.713 0.869 12.849-0.487 18.353l-1.819 0.656c-112.24 1.351-224.62 0.293-336.88 0.017l-123.34 0.073c-20.65 0.034-41.415 0.525-62.054 0.039-2.999-0.07-6.263 0.036-8.967-1.409-1.861-2.143-2.467-4.145-2.438-6.96 0.044-4.391 0.141-8.403 3.415-11.642z" fill="#61BFF8"/>
 <path transform="scale(.64736 .64746)" d="m413.23 529.17c41.105-1.123 82.518-0.118 123.66-0.089l47.426-0.036c9.113-0.036 18.513-0.547 27.585 0.114 4.143 0.303 8.368 0.852 11.86 3.25 1.184 2.501 1.391 5.462 1.475 8.195 0.999 32.346-0.151 65.138-0.11 97.54 0.014 11.719 1.5 42.88-0.415 52.151-0.345 1.67-0.737 1.603-2.111 2.479l-133.22-0.07c-23.169 0.02-46.79 1.055-69.89-0.081-2.793-0.137-5.842-0.125-8.225-1.723-1.412-1.635-1.598-3.227-1.754-5.307-1.412-18.788 0.03-38.797 0.041-57.691 0.017-28.583-0.916-57.329-0.22-85.891 0.132-5.42-0.267-8.878 3.898-12.841z" fill="#020202"/>
 <g fill="#FADC90">
  <path transform="scale(.64736 .64746)" d="m584.29 613.84c2.632 0.518 5.35 0.44 7.167 2.469l-0.86 1.974c-1.267 0.878-2.451 1.512-3.866 2.118-1.993-1.438-1.934-4.192-2.441-6.561z"/>
  <path transform="scale(.64736 .64746)" d="m583.38 671.06c2.339 1.311 4.276 2.461 6.125 4.464l-0.285 1.354c-2.333 0.387-4.312 0.771-6.678 0.339-0.895-2.201 0.165-3.932 0.838-6.157z"/>
  <path transform="scale(.64736 .64746)" d="m587.24 632.53c2.062 0.432 4.762 0.743 6.499 1.974 1.166 0.826 0.889 1.246 1.105 2.576-1.939 0.949-3.506 1.514-5.655 1.762-1.776-2.01-1.59-3.721-1.949-6.312z"/>
  <path transform="scale(.64736 .64746)" d="m556.23 562.91 1.119 0.444c0.312 2.586-0.252 4.905-0.748 7.427l-1.134 0.663c-1.765-1.157-3.052-2.095-4.224-3.87 0.933-2.296 3.005-3.233 4.987-4.664z"/>
  <path transform="scale(.64736 .64746)" d="m583.78 593.86 1.007 0.33c0.197 2.693-2.783 6.515-4.177 8.833-1.148-2.325-2.335-4.469-2.698-7.07 1.867-1.744 3.444-1.67 5.868-2.093z"/>
  <path transform="scale(.64736 .64746)" d="m572.4 575.83 1.274 0.56c-0.082 0.987-0.223 1.941-0.51 2.893-0.628 2.092-1.461 4.618-3.362 5.674-1.661-1.614-3.359-2.924-3.958-5.243 1.597-2.128 4.157-2.789 6.556-3.884z"/>
  <path transform="scale(.64736 .64746)" d="m537.08 551.01c0.23 0.247 0.503 0.461 0.691 0.743 1.558 2.332 1.51 6.841 0.626 9.389l-2.468 1.105c-1.451-0.794-2.33-1.317-3.242-2.717-0.016-3.068 2.682-6.046 4.393-8.52z"/>
  <path transform="scale(.64736 .64746)" d="m512.67 548.44c1.517 2.392 3.467 4.966 4.025 7.781 0.326 1.646-0.245 1.903-1.173 3.197-1.394-0.188-2.77-0.51-4.147-0.798l-1.085-1.797c-0.104-3.016 1.259-5.641 2.38-8.383z"/>
 </g>
 <path transform="scale(.64736 .64746)" d="m541.64 637.23c1.343 0.049 1.293 0.147 2.28 1.087 1.022 2.748 0.662 5.462 0.373 8.317-1.572 15.511-9.59 31.811-21.678 41.698l-39.993 0.02-1.56-0.271c1.558-5.895 17.353-13.659 20.843-36.211 13.088-5.257 26.64-9.307 39.735-14.64z" fill="#61BFF8"/>
 <path transform="scale(.64736 .64746)" d="m517.47 562.62c6.165-0.314 13.691 1.086 19.491 3.056 16.614 5.641 31.196 20.277 38.709 35.983 14.515 30.345 8.439 56.849-2.238 86.793l-44.374-0.051c13.818-14.369 18.804-30.729 18.598-50.277-0.24-1.937-0.709-3.545-1.42-5.361-4.884-1.66-66.681 24.324-80.372 25.535-6.274 0.555-12.821-0.671-17.692-4.895-6.028-5.227-9.062-15.829-9.511-23.517-0.761-13.036 4.037-24.553 12.631-34.188 15.871-17.793 42.384-31.607 66.178-33.078z" fill="#638F8A"/>
 <g fill="#020202">
  <path transform="scale(.64736 .64746)" d="m480.62 616.41c1.53 0.185 2.527 0.748 3.837 1.488-0.272 2.635-3.792 3.605-5.271 5.836-2.279 3.438 1.495 10.755 2.282 14.639-2.18-0.507-2.96-0.538-4.493-2.277-2.213-2.51-2.978-5.951-2.633-9.209 0.552-5.207 2.323-7.297 6.278-10.477z"/>
  <path transform="scale(.64736 .64746)" d="m455.3 616.17 2.835 1.48c1.464 3.331-3.493 5.118-3.661 8.73-0.27 5.835 2.729 11.263 2.857 17.178l-2.612-0.886c-2.765-3.304-3.924-7.366-4.124-11.628-0.292-6.21 0.576-10.206 4.705-14.874z"/>
  <path transform="scale(.64736 .64746)" d="m508.64 572.53c3.937-0.249 7.39-0.21 11.056 1.427q0.471 0.207 0.93 0.438t0.906 0.485 0.881 0.531q0.433 0.277 0.852 0.575 0.419 0.299 0.822 0.618 0.403 0.32 0.789 0.659 0.386 0.34 0.754 0.699t0.718 0.736q0.349 0.377 0.679 0.772t0.639 0.806 0.597 0.837q0.287 0.426 0.553 0.867 0.266 0.44 0.508 0.893 0.243 0.454 0.462 0.919 0.22 0.465 0.415 0.941t0.366 0.961q0.169 0.474 0.314 0.956 0.144 0.482 0.265 0.971t0.218 0.983q0.096 0.494 0.168 0.992t0.119 0.999q0.047 0.502 0.069 1.005 0.022 0.502 0.02 1.006-3e-3 0.503-0.031 1.006t-0.08 1.003q-0.053 0.501-0.13 0.998-0.078 0.498-0.179 0.991-0.102 0.493-0.229 0.98-0.126 0.487-0.276 0.968-0.15 0.48-0.324 0.952-0.174 0.473-0.371 0.936t-0.417 0.916c-2.998 6.09-7.827 9.004-14.054 11.096-2.814 0.07-5.61 0.157-8.304-0.774-5.314-1.836-9.816-5.493-12.273-10.583-2.188-4.535-2.695-9.925-1.016-14.707 2.524-7.186 7.96-10.769 14.584-13.858z"/>
 </g>
 <path transform="scale(.64736 .64746)" d="m508.6 576.73c2.725-0.205 5.425-0.312 8.067 0.555q0.773 0.257 1.517 0.589 0.745 0.331 1.452 0.735 0.708 0.404 1.373 0.875t1.28 1.006q0.615 0.534 1.174 1.127t1.058 1.237q0.498 0.645 0.93 1.336 0.433 0.691 0.795 1.421c1.986 4.085 2.095 8.678 0.471 12.898-1.991 5.173-5.91 7.609-10.752 9.795-2.314 0.219-4.802 0.236-7.072-0.357-3.907-1.021-7.879-3.667-9.973-7.162-2.173-3.627-2.641-7.892-1.565-11.951 1.645-6.207 5.975-9.025 11.245-12.104z" fill="#FAFBFA"/>
 <path transform="scale(.64736 .64746)" d="m509.1 586c2.327-0.202 4.955-0.503 6.98 0.943 1.749 1.25 2.738 2.86 2.855 5.024 0.145 2.664-1.246 4.625-2.794 6.599-2.022 0.185-4.634 0.49-6.479-0.586-1.459-0.851-2.481-2.049-2.901-3.674-0.785-3.036 0.847-5.814 2.339-8.306z" fill="#020202"/>
 <path transform="scale(.64736 .64746)" d="m413.59 533.42 132.1-0.133c24.904-0.016 50.045-0.733 74.924 0.258 1.3 18.231 0.224 37.092 0.181 55.379l3e-3 99.885c-9.529 0.091-33.79 1.189-42.187-0.767l-0.486-1.521c2.562-5.312 9.211-4.698 14.044-6.911 2.031-0.929 2.262-1.405 2.943-3.363-1.568-4.735-7.151-7.554-11.121-10.155 4.113-2.449 11.239-3.883 14.098-7.641 1.122-1.474 0.894-1.938 0.653-3.653-2.467-3.453-7.281-5.039-10.676-7.575 0.852-6.229 10.159-5.704 13.043-11.333l-0.666-1.555c-4.428-3.245-10.081-4.93-15.174-6.891 4.727-4.606 9.997-8.765 14.803-13.341-5.921-2.3-11.833-3.681-18.061-4.805 2.539-5.001 6.369-10.408 7.378-15.919-0.205-0.733-0.253-1.765-0.887-2.219-3.847-2.754-11.65-0.326-16.041 0.445 2.154-5.609 6.193-13.362 5.259-19.466-3.571-4.145-11.62 3.604-16.808 2.721l-0.699-1.542c0.661-4.021 2.176-9.741 1.038-13.69-0.489-1.697-0.775-1.793-2.291-2.665-4.471 1.044-8.259 5.712-12.54 7.752-4.741-0.739-3.549-14.962-7.636-19.191-6.827 1.047-6.692 11.442-12.978 13.74-7.433-1.87-6.357-9.467-10.632-14.208-1.205-1.336-1.96-1.205-3.638-1.362-3.971 3.107-4.719 11.309-5.686 16.048l-9.22 2.174q-0.761-0.934-1.542-1.851c-2.756-3.251-5.059-6.64-9.567-7.006l-1.3 1.484c-1.072 3.689 0.206 8.013 0.89 11.729-15.772 8.084-36.607 21.648-44.895 38.018-5.937 11.726-6.793 27.169-2.466 39.55 2.482 7.102 6.921 13.351 13.911 16.543 14.645 6.688 32.876-2.558 46.704-7.903-4.181 15.425-13.559 26.416-25.849 36.12-19.678 0.489-39.403 0.29-59.087 0.355-0.405-26.763-0.063-53.589-0.09-80.359-0.025-25.035-0.474-50.152 0.249-75.176z" fill="#FADC90"/>
 <path transform="scale(.64736 .64746)" d="m690.24 528.4c57.961 0.663 115.99 0.072 173.96 0.02l44.627-0.203c8.241-0.055 17.377-0.846 25.498 0.394 3.032 0.463 5.243 1.118 6.993 3.857 1.414 2.215 1.34 5.485 1.433 8.019 0.577 15.633 1.132 141.1-0.616 147.16-0.902 3.131-3.136 4.415-5.85 5.743-83.852-1.4-167.86 1.881-251.7-0.627-0.871-12.306-0.342-24.911-0.303-37.253l0.106-61.089 0.05-39.198c0.012-6.539-0.56-13.853 0.402-20.313 0.498-3.339 2.85-4.702 5.401-6.514z" fill="#020202"/>
 <path transform="scale(.64736 .64746)" d="m854.2 637.71q0.601 0.87 1.091 1.808c6.896 13.075 6.337 35.94 1.778 49.705l-20.2 0.015c-0.214 0-0.427 0.01-0.641 1e-3 -1.653-0.067-2.993 0.147-4.092-1.12 7.578-16.706 14.456-33.718 22.064-50.409z" fill="#B3D9D0"/>
 <path transform="scale(.64736 .64746)" d="m859.48 569.3q2.001-0.132 4.007-0.109c16.023 0.131 36.904 4.871 48.319 16.652 3.687 3.805 6.724 8.919 6.505 14.385-0.188 4.703-2.738 8.652-6.189 11.687-13.162 11.573-37.929 14.761-54.787 13.461-11.09 13.439-21.715 46.459-30.362 63.911l-25.36-0.029c-2.526-13.073-6.483-24.922-14.931-35.496-10.352-12.955-24.302-20.004-40.59-21.856-3.999-0.455-7.973-1.642-11.286 0.996 0.288 2.3 2.279 2.139 4.295 2.452 15.266 2.377 25.792 4.407 38.208 14.167 11.879 11.133 16.967 24.134 20.31 39.715l-109.62-0.041c0.056-18.699-0.347-37.536 0.597-56.21 5.598-3.673 11.228-6.933 17.436-9.475 31.831-13.037 65.597-7.692 96.528 5.26 9.651-13.389 17.72-27.985 27.589-41.135 7.851-10.461 16.33-16.459 29.326-18.335z" fill="#638F8A"/>
 <g fill="#020202">
  <path transform="scale(.64736 .64746)" d="m863.34 585.7c0.731 0.589 1.243 1.047 1.628 1.927 1.464 3.348 0.628 6.729-0.636 9.939l-1.974-1.404c-1.513-3.812-0.528-6.905 0.982-10.462z"/>
  <path transform="scale(.64736 .64746)" d="m874.27 585.44c1.77 0.395 2.263 0.701 3.476 2.049 1.213 3.022 0.302 6.409-0.153 9.53-1.492-0.427-2.08-0.926-3.184-1.95-1.417-3.03-0.553-6.434-0.139-9.629z"/>
  <path transform="scale(.64736 .64746)" d="m869.7 607.13c5.568 0.687 10.175 4.476 15.727 5.341 4.346 0.677 9.501-1.902 13.401 0.045l0.589 2.883c-1.338 0.419-2.693 0.799-4.08 1.019-6.567 1.044-17.558 0.537-23-3.896-2.179-1.775-2.27-2.78-2.637-5.392z"/>
 </g>
 <path transform="scale(.64736 .64746)" d="m690.07 532.49c57.505 1.202 115.23 0.151 172.75 0.123 22.597-0.011 45.91-1.261 68.432 0.069 2.91 0.172 4.426 0.073 6.768 1.773 2.245 6.982 1.095 146.58-0.418 153.46-6.071 2.975-64.495 1.294-75.949 1.289 5.624-21.288 0.833-38.281-4.172-59.071 20.362 0.033 40.335-2.734 57.298-14.752 4.322-4.017 7.574-8.531 8.035-14.58 0.452-5.934-2.529-11.367-6.356-15.683-10.739-12.11-37.97-22.271-54.328-20.436-5.955 0.668-12.769 4.209-18.587 3.902-0.81-1.19-1.648-2.225-2.606-3.3l-1.707 0.272c-0.208 1.574-0.382 3.163-0.637 4.729-0.536 3.285-1.792 5.224-4.52 7.187-2.615 0.243-3.58-2.993-5.965-4.345-1.547 0.678-1.418 0.735-2.095 2.308 1.027 2.087 2.336 3.768 3.775 5.571-0.405 1.906-1.17 3.272-2.776 4.515-2.13 1.649-4.893 0.618-7.29 0.238-1.956 0.703-1.937 0.827-2.988 2.483 1.404 1.887 3.076 2.078 5.229 2.824-0.102 2.065-1.617 4.545-3.13 5.943-2.11 1.95-3.767 1.637-6.478 1.51l-1.331 1.316c0.735 2.437 1.516 2.552 3.561 3.959-2.74 6.952-8.813 13.982-13.097 20.174-2.602-0.928-5.031-1.782-7.361-3.312-0.161-0.8-0.306-1.66-0.598-2.423-0.66-1.72-1.262-2.043-2.885-2.796-2.068 1.316-4.274 2.865-6.845 2.512-6.394-0.878-2.981-3.67-5.565-7.028-3.049 0.107-3.656 3.701-7.116 3.841-1.746 0.071-3.565-0.45-4.768-1.72 0.204-1.862 0.285-3.223-0.203-5.042-1.492-0.616-1.589-0.644-3.159-0.284-0.549 1.432-1.152 2.706-1.889 4.051-1.118 0.516-1.734 0.777-2.994 0.647-5.684-0.586-2.887-3.286-5.49-6.348l-1.777 0.187q-0.756 1.462-1.554 2.902c-0.878 1.576-1.381 2.375-3.331 2.7-6.813 1.133-3.982-3.878-7.357-6.741l-1.56 0.532c-0.222 1.022-0.42 2.112-0.79 3.089-0.738 1.95-1.728 2.925-3.734 3.566-1.856 0.593-3.895 0.532-5.605-0.253-0.317-1.877-0.412-3.565-1.667-5.06l-2.124 0.126c-0.856 1.733-1.115 3.398-1.431 5.293-1.396 1.796-2.543 2.227-4.704 2.817-2.936-0.923-2.188-2.981-4.544-4.691l-1.761 0.957-0.527 4.324c-1.467 2.266-3.09 2.812-5.488 3.719-2.667-0.619-3.184-2.695-4.759-4.834l-1.587 0.333c-1.193 1.698-1.235 1.843-1.177 3.918l1.868 1.505-0.101 1.072c-2.916 2.604-6.927 4.513-10.295 6.518-0.356-14.364-2.35-86.963 1.457-95.558z" fill="#61BFF8"/>
 <path transform="scale(.64736 .64746)" d="m0 0h1742.5c0.78 1.2306 1.22 2.3274 1.33 3.7815 0.65 8.4544 0.15 17.297 0.15 25.788v50.126l0.02 158.08-0.01 474.04 0.02 155.14c0 26.903 1.11 54.339-0.24 81.194h-0.73c-0.08-0.13-0.14-0.266-0.23-0.389-5.21-7.633-24.36-13.301-33.34-14.657-7.53-3.54-18.18-4.787-26.43-6.395q-48.44-9.128-97.48-14.156c-16.03-1.788-32.15-3.896-48.26-4.818 0.71-1.28 1.1-2.411 1.21-3.873 1.47-20.875 0.18-42.78 0.15-63.748-0.02-8.485 1.4-24.883-0.37-32.448-0.21-0.921-0.58-1.672-1.1-2.449 21.54-0.053 39.18-6.83 54.45-22.111 33.23-33.279 43.21-89.253 43.04-134.41-0.17-42.195-10.96-100.81-42.16-131.88-7.16-7.127-15.9-12.671-26.3-12.659-16.32 0.019-33.22 13.241-44.19 24.489q-8.86 9.173-16.22 19.595c-5.27 7.458-12.9 23.251-19.85 28.289 1.29-2.261 1.68-4.244 1.76-6.827 0.79-24.526 0.1-49.317 0.1-73.869l-0.01-144.49-0.04-63.16c0-11.03 1.81-25.696-1.01-36.251-1.75-6.54-6.5-12.073-12.42-15.253-0.5-0.27-0.85-0.399-1.4-0.631 8.42-4.32 12.41-10.208 15.27-19.193 2.24-7.072 1.11-14.975-2.27-21.504-3.01-5.805-8.19-11.132-14.55-13.116-12.01-3.745-90.78-1.606-110.44-1.579l-227.99-0.01-559.5 0.064-211.28 0.011c-22.65 0.088-45.382-0.366-68.016 0.045-5.906 0.107-11.803 0.968-17.053 3.825-6.46 3.515-10.839 9.401-12.801 16.444-2.281 8.186-1.1 16.38 3.148 23.697 2.854 4.915 6.842 8.198 11.456 11.379-22.228 36.025-44.497 72.529-67.946 107.75-0.054 14.003 2.355 24.664 12.654 34.927 9.569 9.537 22.082 15.06 35.04 18.251l0.948 508.46c-50.544 2.335-226.04 14.856-259.61 43.816v-949.32z" fill="#FAFBFA"/>
</svg>
