<?xml version="1.0" encoding="UTF-8"?>
<svg version="1.1" viewBox="0 0 1088 688" xmlns="http://www.w3.org/2000/svg">
 <path transform="scale(.67202 .67188)" d="m0 0h417.16 853.14 347.32c1.43 2.2162 1.31 4.3033 1.35 6.8482 0.7 41.016 0.05 82.16 0.05 123.19l0.01 245.16-0.01 94.365c0 9.335 1.29 29.048-0.27 37.136-0.17 0.895-0.54 1.755-0.87 2.597 0.67 1.426 0.99 2.641 1.05 4.207 0.67 17.046 0.99 173.3-0.64 178.04-0.04 0.14-0.1 0.276-0.15 0.414 0.94 2.734 0.86 4.295 0.03 7.028 1.66 5.283 1.6 76.022 0 78.978-0.16 0.29-0.35 0.564-0.52 0.845 0.7 1.173 1.11 2.243 1.22 3.606 1.5 18.818 0.19 43.595 0.17 62.981-0.01 7.747 1.28 25.263-0.25 31.894-0.24 1.033-0.62 1.912-1.17 2.806 2.28 3.64 1.91 12.905 1.07 17.007-0.15 0.761-0.39 1.3-0.72 2 1.96 4.559 1.92 31.015 0.18 35.135-0.06 0.136-0.12 0.267-0.19 0.401 1.52 3.543 2 83.736 0.49 87.836-0.23 0.63-0.47 0.94-0.83 1.53h-1617.6v-101.98-21.332-63.127-837.56z" fill="none"/>
 <path d="m1087.8 453.99c-5.27 45.15-16.22 81.4-31.25 110.31-20 38.52-54.21 54.04-84.77 70.28a193.28 193.28 0 0 1-27.46 11.94c-55.61 19.3-117.85 14.18-166.74 3.99a657.28 657.28 0 0 0-104.09-13.16q-14.97-0.675-29.97-0.67c-15.42 0.02-293.07 5.29-360.67-131.57-16.69-33.76-28.13-75-32.24-125.27-11.63-142.12 52.29-235.46 134.74-296.47 155.97-115.41 369.76-110.57 523.43 7.88 102.36 78.9 198.2 198.31 179.02 362.74z" fill="#3f3d56" data-name="Path 83"/>
 <path transform="scale(.67202 .67188)" d="m1179.9 786.38c2.99-0.383 8.14-1.496 10.8 0.274 0.95 0.632 0.78 0.891 1.02 1.926-2.06 5.038-19.18 16.819-24.55 19.851-1.29 1.483-1.66 1.424-3.5 1.879-2.34-0.627-2.85-0.79-4.55-2.483-0.4-1.357-0.54-2.435-0.06-3.804 2.9-8.336 13.54-13.765 20.84-17.643z" fill="#CCBBC9"/>
 <path transform="scale(.67202 .67188)" d="m1244.5 744.84c21.21-3.481 40.06-11.765 60.34 0.947-0.29 0.119-0.58 0.246-0.87 0.355-3.94 1.459-17.83-0.425-23.47-0.194-4.39 0.18-8.58 0.938-12.88 1.78q-7.45 1.441-14.76 3.469t-14.44 4.63q-7.12 2.602-14.02 5.762t-13.52 6.858c-7.2 4.055-14.12 9.073-21.52 12.704-10.74 5.274-25.54 5.401-31.81 17.877-1.6 3.182-1.92 5.688-2.03 9.194-0.01 0.374-0.03 1.649-0.25 1.892-7.85 8.504-15.77 16.994-21.4 27.198-2.34 4.252-2.84 12.346-5.78 15.536l-0.08-0.679c-0.65-5.067-2.54-9.951-2.88-15.043-1.14-17.272 7.14-34.824 17.37-48.306 9.66-12.719 21.6-22.976 33.83-33.116l1.55 1.031c1.34 5.048 4.2 7.361 7.19 11.177l0.49 0.625q1.59 0.085 3.18 0.153c19.06 0.803 41.87-11.092 55.76-23.85z" fill="#D4CEE3"/>
 <path transform="scale(.67202 .67188)" d="m1160.5 870.72c12.43-0.996 26.26-7.443 37.43-12.627 38.67-17.934 86.87-50.272 129.45-54.55 10.17-1.022 23.03-0.345 31.24 6.589 2.15 1.821 2.97 3.241 3.21 5.987 0.42 2.634 0.28 3.451-1.32 5.748-4.57 6.555-18 13.294-25.95 14.668-1.11 0.193-2.25 0.232-3.38 0.204l-0.72 1.296c-6.22 1.629-13.37 1.378-19.79 1.742-17.61 0.997-33.6 3.069-49.88 10.248-14.64 5.262-45.24 23.095-60.21 19.103-6.59 3.071-31.83 4.802-38.57 2.367-0.58-0.21-0.95-0.461-1.51-0.775z" fill="#D4CEE3"/>
 <path transform="scale(.67202 .67188)" d="m1200.6 869.13q8.71-1.952 17.23-4.65 8.51-2.698 16.76-6.122c10.8-4.611 21.38-10.271 32.52-14.035 12.19-4.124 24.71-5.94 37.5-6.998 8.76-0.725 17.83-1.418 26.59-0.584l-0.72 1.296c-6.22 1.629-13.37 1.378-19.79 1.742-17.61 0.997-33.6 3.069-49.88 10.248-14.64 5.262-45.24 23.095-60.21 19.103z"/>
 <path transform="scale(.67202 .67188)" d="m954.93 437.32c11.639 6.728 81.459 62.517 85.249 71.203 0.34 4.095-49.369 95.346-54.88 106.2-10.787 18.97-20.534 38.545-30.335 58.038-0.98-25.945-0.088-52.152-0.15-78.125q-0.628-78.655 0.116-157.31z" fill="#845933"/>
 <path transform="scale(.67202 .67188)" d="m1391.1 217.05c1.07 0.072 1.77 0.377 2.74 0.828 5.13 7.979 8.81 17.343 12.86 25.922l24.85 53.242q23.02 48.412 45.5 97.078c7.28 15.639 15.39 31.28 21.92 47.228 0.97 2.364 1.22 4.045 0.83 6.588-0.06-0.132-0.13-0.263-0.19-0.396-0.42-0.929-0.8-1.694-1.51-2.456-3.64-3.914-54.81-45.189-58.43-46.952-1.76-3.35-80.76-67.746-86.05-69.971 0.31 0.555 0.57 1.109 0.77 1.712 1.39 4.041 0.68 18.061-1.24 21.988-3.54 3.761-27.79 14.879-33.65 16.621 0.13-0.106 0.26-0.21 0.39-0.318 1.37-1.148 2.25-2.285 3.13-3.834 7.39-13.052 67.59-140.91 68.08-147.28z" fill="#DEF6FB"/>
 <path transform="scale(.67202 .67188)" d="m940.95 245.55c0.19 0.166 0.394 0.316 0.569 0.497 3.868 3.993 15.784 31.091 19.122 37.899 23.473 47.869 46.029 96.247 69.959 143.88 3.78 7.535 24.73 45.473 24.42 51.454 0.05 0.364 0.17 0.999 0.14 1.405-0.35 4.189-10.45 22.713-13.69 25.069-0.03-0.187-0.05-0.38-0.11-0.56-1.34-3.911-11-11.525-14.68-13.862-2.63-6.783-61.304-51.49-71.521-57.987-0.052-19.913 0.325-39.836 0.52-59.749 0.092-9.429 1.026-19.666-0.23-28.967-0.287-2.124-1.066-4.027-2.571-5.583-1.638-1.692-3.664-2.798-5.956-3.302-10.113-2.223-37.263-0.584-48.763-0.57 6.48-12.272 12.048-25.227 18.036-37.756 8.262-17.289 16.872-34.4 24.755-51.869z" fill="#DEF6FB"/>
 <path transform="scale(.67202 .67188)" d="m1277.7 749.22c9.01-0.991 19.32-0.743 28.18 1.196 18.26 4.001 37.18 21.632 47 37.219 3.03 4.826 8.11 13.938 6.76 19.785-0.92-1.499-2.89-2.486-4.45-3.225-30.46-14.454-87.04 13.868-114.16 28.183-13.69 7.225-27.9 16.557-42.46 21.568l-0.74 0.249c-0.22 0.246-0.42 0.518-0.66 0.738-6.54 5.856-33.03 12.841-41.62 13.219-12.14 0.535-16.68-4.423-25.1-12.103 2.36-2.851 2.4-9.04 3.91-12.649 1.88-4.495 4.67-8.797 7.49-12.76 2.26-3.175 12.22-16.673 15.29-17.729 2.16-0.744 6.25 0.743 8.87 0.11 5.1-1.231 28.56-20.213 31.55-24.757-0.97-2.417-3.92-3.717-6.1-4.825 7.92-3.335 15.56-9.151 23.13-13.335q3.66-2.025 7.4-3.878 3.75-1.853 7.58-3.529 3.83-1.677 7.73-3.173t7.87-2.809 7.99-2.44q4.03-1.127 8.1-2.066 4.07-0.938 8.19-1.686 4.11-0.748 8.25-1.303z" fill="#D4CEE3"/>
 <path transform="scale(.67202 .67188)" d="m517.88 803.78c91.846-1.125 183.76-0.304 275.61-0.285l97.55-0.136c19.95-0.038 40.126-0.618 60.04 0.464 8.72 5.889 69.085 52.196 71.755 56.972l-0.53 1.386c-3.77 2.105-8.9 2.141-13.12 2.294-13.504 0.489-27.187-0.125-40.707-0.143l-87.142-0.014-274.61 0.118-349.3 0.607-98.686-0.044c-17.151-1e-3 -34.483 0.558-51.606-0.103-1.502-0.058-3.466-0.263-4.621-1.322-0.781-0.716-0.555-0.984-0.598-1.965 0.384-0.502 0.789-0.973 1.241-1.416 3.401-3.34 33.18-19.424 39.638-23.191 15.725-9.173 31.226-19.35 47.232-27.927 3.208-1.719 6.696-3.192 10.265-3.956 9.66-2.068 21.212-0.931 31.093-0.918l55.43 0.032 231.06-0.453z" fill="#CCBBC9"/>
 <path transform="scale(.67202 .67188)" d="m480.27 808.9 174.35 0.174c12.581 12.541 23.412 28.008 34.454 41.967-14.757-0.534-29.628-0.204-44.399-0.233l-209.39 0.073q22.942-20.507 44.983-41.981z"/>
 <path transform="scale(.67202 .67188)" d="m481.79 812.12 171.14 0.307c10.941 10.284 19.924 23.274 29.154 35.075l-37.413-0.018-201.25 0.241c11.765-12.159 25.182-25.039 38.37-35.605z" fill="#CCBBC9"/>
 <path transform="scale(.67202 .67188)" d="m1356.5 334.42c7.04 2.791 48.36 38.426 57.55 45.984l64.9 53.146c6.6 5.333 18.75 12.958 23.89 19.107 7.34 8.791 25.26 52.627 31.57 66.244l83.72 180.08c1.66 5.283 1.6 76.022 0 78.978-0.16 0.29-0.35 0.564-0.52 0.845-36.14-0.933-72.44 0.398-108.61-1e-3l1.04-1.635c-2.92-10.159-9.26-20.954-13.76-30.677q-19.93-42.419-40.52-84.526l-109.62-229c-4.84-10.004-24.1-53.715-28.92-59.04 6.55-2.131 35.56-16.285 39.37-20.211 1.8-4.577 1.73-14.75-0.09-19.299z" fill="#A48E83"/>
 <path transform="scale(.67202 .67188)" d="m1216.8 180.68c0.24 5e-3 0.47-0.016 0.71 0.014 0.91 0.116 1.52 0.151 2.06 0.895 3.73 5.161 6.48 11.549 9.36 17.231 6.44 12.68 12.56 25.523 18.9 38.253q36.13 71.431 69.99 143.97l129.87 271.58c11.05 23.197 22.68 46.159 33.5 69.455 1.38 2.972 2.71 5.495 2.14 8.857l-0.28-0.871c-1.72-5.397-56.34-56.753-65.08-65.253l-128.66-126.99c-8.03-7.915-35.43-37.12-42.44-41.315-1.42-3.824-39.88-41.27-44.42-43.507-3.31 8.162-39.38 52.185-46.87 61.975-16.66 21.804-32.42 44.564-49.7 65.85-1.6 1.97-3.18 3.63-5.26 5.106 0.69-1.052 1.33-1.972 1.69-3.196 2.3-7.733 16.12-97.306 15.68-105.57-0.09-1.523 0.03-1.822-1.09-2.82-3.55 0.314-100.06 98.787-111.83 110.66 2.67-6.588 6.68-13.051 9.98-19.367l21.39-40.82c12.85-24.523 25.17-49.318 38.14-73.771 15.81-29.796 141.85-262.2 142.22-270.36z" fill="#DEF6FB"/>
 <path transform="scale(.67202 .67188)" d="m1202.9 458.06c7.83 3.948 52.92 51.042 63.07 61.136l129.2 127.77 60.47 59.272c10.35 10.08 22.33 19.954 31.57 31.002 5.67 6.783 16.62 30.837 19.54 39.927 0.21 0.681 0.22 0.844 0.3 1.467l2.02 0.173c36.17 0.399 72.47-0.932 108.61 1e-3 0.7 1.173 1.11 2.243 1.22 3.606 1.5 18.818 0.19 43.595 0.17 62.981-0.01 7.747 1.28 25.263-0.25 31.894-0.24 1.033-0.62 1.912-1.17 2.806-25.04 0.131-50.22-1.454-75.23-2.537q-49.44-2.119-98.9-3.659c-18.6-0.61-37.7-2.246-56.26-1.563-12.41 0.456-24.92 5.465-36.91 8.525-25.71 6.561-64.85 6.641-89.74-2.751-3.77-1.424-8.78-3.868-10.31-7.899-3.09-8.116 8.11-13.461 10.29-19.554 0.07-0.206 0.14-0.417 0.21-0.625 16.28-7.179 32.27-9.251 49.88-10.248 6.42-0.364 13.57-0.113 19.79-1.742l0.72-1.296c1.13 0.028 2.27-0.011 3.38-0.204 7.95-1.374 21.38-8.113 25.95-14.668 1.6-2.297 1.74-3.114 1.32-5.748 0.9-0.662 1.61-1.136 2.13-2.161 2.07-4.058-1.9-14.658-3.53-18.543-9.31-22.247-32.88-41.473-54.75-50.584l-0.86 0.949c-20.28-12.712-39.13-4.428-60.34-0.947-13.89 12.758-36.7 24.653-55.76 23.85q-1.59-0.068-3.18-0.153l-0.49-0.625c-2.99-3.816-5.85-6.129-7.19-11.177l-1.55-1.031c0.62-0.729 0.91-1.347 1.31-2.21-12.56 4.948-24.2 17.864-32.79 27.928-2.4 2.807-5.11 7.313-8.21 9.221-60.55 0.215-121.19-0.601-181.72 0.429 0.012-16.675-1.657-104.34 1.42-113.57 2.609-7.824 8.078-15.539 12.017-22.822 4.8-8.874 9.202-17.981 13.862-26.931 5.98-11.484 12.544-28.422 21.515-37.485 5.55-5.605 11.71-10.676 17.35-16.211 9.75-9.56 92.2-92.181 92.81-93.847 1.28 7.181-13.4 97.553-16.49 111.36-0.5 2.232-1.21 4-2.42 5.962 2.11-1.068 3.96-2.203 5.53-4.018 8.39-9.724 101.89-133.42 102.14-134.31 0.1-0.374 0.2-0.753 0.26-1.138z" fill="#A48E83"/>
 <path transform="scale(.67202 .67188)" d="m1299.4 680.01c4.33-2.732 10.85-4.861 15.94-3.719 8.01 1.796 36.79 30.21 44.58 37.847l0.21 1.478c-6.09-5.969-50.7-31.019-60.73-35.606z" fill="#7E695E"/>
 <path transform="scale(.67202 .67188)" d="m1207.8 721.49c-4.93 0.473-8.96 0.355-13.73-1.217-2.18-0.716-4.58-1.935-5.53-4.154-0.87-2.031-0.48-4.265 0.33-6.249 5.44-13.319 50.65-36.988 64.69-42.614 2.59-1.035 4.96-1.945 7.61-0.789q1.11 2.528 2.05 5.128c2.7-1.542 5.01-2.869 7.08-5.24 7.46 2.108 23.76 8.675 29.1 13.654 10.03 4.587 54.64 29.637 60.73 35.606 13.27 7.286 85.34 55.179 90.55 63.269 18.75-2e-3 37.62 0.447 56.35-0.254l2.02 0.173c36.17 0.399 72.47-0.932 108.61 1e-3 0.7 1.173 1.11 2.243 1.22 3.606 1.5 18.818 0.19 43.595 0.17 62.981-0.01 7.747 1.28 25.263-0.25 31.894-0.24 1.033-0.62 1.912-1.17 2.806-25.04 0.131-50.22-1.454-75.23-2.537q-49.44-2.119-98.9-3.659c-18.6-0.61-37.7-2.246-56.26-1.563-12.41 0.456-24.92 5.465-36.91 8.525-25.71 6.561-64.85 6.641-89.74-2.751-3.77-1.424-8.78-3.868-10.31-7.899-3.09-8.116 8.11-13.461 10.29-19.554 0.07-0.206 0.14-0.417 0.21-0.625 16.28-7.179 32.27-9.251 49.88-10.248 6.42-0.364 13.57-0.113 19.79-1.742l0.72-1.296c1.13 0.028 2.27-0.011 3.38-0.204 7.95-1.374 21.38-8.113 25.95-14.668 1.6-2.297 1.74-3.114 1.32-5.748 0.9-0.662 1.61-1.136 2.13-2.161 2.07-4.058-1.9-14.658-3.53-18.543-9.31-22.247-32.88-41.473-54.75-50.584l-0.86 0.949c-20.28-12.712-39.13-4.428-60.34-0.947-13.89 12.758-36.7 24.653-55.76 23.85q-1.59-0.068-3.18-0.153l-0.49-0.625c-2.99-3.816-5.85-6.129-7.19-11.177l-1.55-1.031c0.62-0.729 0.91-1.347 1.31-2.21 0.42-0.376 0.81-0.751 1.16-1.191 4.59-5.666 27.69-26.623 29.03-30.809z" fill="#F88D9B"/>
 <path transform="scale(.67202 .67188)" d="m1244.5 744.84c4.13-3.075 24.9-16.799 26.19-20.334 6.7 2.011 31.44 14.956 35.01 20.332l-0.86 0.949c-20.28-12.712-39.13-4.428-60.34-0.947z" fill="#7E695E"/>
 <path transform="scale(.67202 .67188)" d="m191.34 773.94c-0.152 9.369-2.208 21.494 4.298 29.09l-65.884 38.637c-9.074 5.325-18.97 10.126-27.631 16.049-1.689 1.155-2.5951 2.279-3.3681 4.153 0.1094 1.362-0.1394 1.845 0.9429 2.711 1.4632 1.171 3.2262 1.646 5.0212 2.045 11.069 2.456 24.971 0.911 36.425 0.975l85.265 0.092 321.68-0.68 337.09-0.116 89.179 0.07c13.194 0.046 28.044 1.703 41.004-0.144 3.58-0.51 6.82-1.172 10.02-2.885 0.53-1.243 0.69-1.285 0.17-2.548-3.9-9.394-58.928-49.748-70.706-58.698l0.044-9.019q89.742 0.525 179.49-0.287c-0.02 0.291-0.03 0.582-0.06 0.872-0.34 3.47-3.85 8.56-5.33 11.861-7.22 16.117-11.53 36.94 0.03 52.218 5.5 7.265 13.18 11.567 22.19 12.684q2.31 0.308 4.65 0.232 2.33-0.075 4.62-0.532c0.56 0.314 0.93 0.565 1.51 0.775 6.74 2.435 31.98 0.704 38.57-2.367 14.97 3.992 45.57-13.841 60.21-19.103-0.07 0.208-0.14 0.419-0.21 0.625-2.18 6.093-13.38 11.438-10.29 19.554 1.53 4.031 6.54 6.475 10.31 7.899 24.89 9.392 64.03 9.312 89.74 2.751 11.99-3.06 24.5-8.069 36.91-8.525 18.56-0.683 37.66 0.953 56.26 1.563q49.46 1.54 98.9 3.659c25.01 1.083 50.19 2.668 75.23 2.537 2.28 3.64 1.91 12.905 1.07 17.007-0.15 0.761-0.39 1.3-0.72 2 1.96 4.559 1.92 31.015 0.18 35.135-0.06 0.136-0.12 0.267-0.19 0.401 1.52 3.543 2 83.736 0.49 87.836-0.23 0.63-0.47 0.94-0.83 1.53h-1617.6v-101.98-21.332-63.127c9.605-6.543 19.784-11.913 30.179-17.079 49.37-24.77 106.72-38.438 161.16-46.54z" fill="#845933"/>
 <path transform="scale(.67202 .67188)" d="m1618 899.1c1.96 4.559 1.92 31.015 0.18 35.135-0.06 0.136-0.12 0.267-0.19 0.401 1.52 3.543 2 83.736 0.49 87.836-0.23 0.63-0.47 0.94-0.83 1.53h-1617.6v-101.98-21.332q10.315 6.168 21.307 11.025c22.487 10.127 46.2 16.906 70.022 23.065 94.227 24.361 197.71 33.713 294.55 40.919q128.29 9.425 256.88 12.607 128.59 3.181 257.19 0.11 99.44-1.691 198.66-8.444 49.72-3.438 99.31-8.445t98.99-11.578q49.4-6.57 98.58-14.698 49.17-8.128 98.06-17.804 45.7-8.771 90.88-19.931c10.84-2.621 23.15-4.49 33.53-8.417z" fill="#1d3557"/>
 <path transform="scale(.67202 .67188)" d="m1618 899.1c1.96 4.559 1.92 31.015 0.18 35.135-0.06 0.136-0.12 0.267-0.19 0.401-8.09 5.178-36.65 12.127-47.1 15.048-86.87 24.283-181.14 36.382-270.89 44.893q-165.48 14.505-331.58 17.185-211.03 5.5-421.96-2.77c-107.55-4.25-214.92-10.569-321.57-25.755-57.393-8.173-115.72-18.15-170.76-36.863-19.053-6.477-36.573-14.489-54.091-24.351v-21.332q10.315 6.168 21.307 11.025c22.487 10.127 46.2 16.906 70.022 23.065 94.227 24.361 197.71 33.713 294.55 40.919q128.29 9.425 256.88 12.607 128.59 3.181 257.19 0.11 99.44-1.691 198.66-8.444 49.72-3.438 99.31-8.445t98.99-11.578q49.4-6.57 98.58-14.698 49.17-8.128 98.06-17.804 45.7-8.771 90.88-19.931c10.84-2.621 23.15-4.49 33.53-8.417z"/>
 <path transform="scale(.67202 .67188)" d="m197.69 338.02 505.6-0.227 149.9-0.017c28.69-0.02 57.865-0.848 86.507 0.499 3.717 0.175 8.217 0.346 11.256 2.728 1.02 4.032 1.338 8.219 1.376 12.369 0.359 39.261-0.76 78.635-1.044 117.91l0.144 168.14 0.195 121.42c-0.038 8.648 1.277 30.722-0.585 38.155-1.961 1.638-2.958 1.286-5.361 1.307l-539.41 0.919-135 0.194c-23.112 0.127-46.526 1.181-69.587 0.669-2.135-0.047-3.728-8e-3 -5.253-1.583-3.675-13.009-2.142-28.609-2.424-42.138-0.696-33.477-0.619-66.988-0.962-100.47l-1.89-219.37q-0.566-37.43-0.601-74.864c-0.049-5.353-0.794-10.711-0.766-16.042 0.015-2.762 0.485-5.134 1.573-7.68 2.24-1.792 3.554-1.643 6.335-1.914z" fill="#3f3d56"/>
 <path transform="scale(.67202 .67188)" d="m203.95 392.37 497.03-0.015 148.2 0.103c25.169-0.022 50.903-1.41 75.987 0.045 3.074 0.178 6.941 1.029 9.192 3.281 2.936 2.938 2.176 17.577 2.211 22.063l0.421 255.02 0.239 74.899c0.094 11.809 1.394 25.002 0.153 36.651-0.24 2.251-2.515 3.401-4.157 4.704-1.016 0.366-1.887 0.622-2.971 0.709-13.642 1.096-28.046 0.176-41.758 0.133l-78.544-0.136-247.22 0.053q-119.62 0.333-239.23-0.605l-77.017-0.139c-10.853-0.014-22.426 1.158-33.159 0.149-2.46-0.231-4.576-0.649-6.494-2.311-1.277-4.35-1.969-8.593-2.109-13.128-0.824-26.788-0.534-53.74-0.696-80.549l-1.119-144.64-0.649-100.61c-0.125-16.672-1.543-34.199-0.288-50.757 0.161-2.124 0.505-3.352 1.983-4.915z"/>
 <path transform="scale(.67202 .67188)" d="m877.14 395.71c10.268-0.06 49.757-2.646 56.209 3.134 2.67 9.638 1.007 30.092 0.98 41.056l-0.119 74.502-0.087 168.58c0.105 33.642 1.535 67.911 0.039 101.49-1.325 1.676-2.956 1.905-5.031 2.137-12.997 1.454-27.426 0.086-40.564 0.063l-86.118-7e-3 -295.17-0.026c-1.512-0.401-2.391-0.702-3.579-1.805 5.93-6.837 13.744-12.836 20.335-19.123 9.306-8.877 18.016-18.347 26.878-27.663 14.977-0.411 30.075-0.26 45.06-0.178 7.47 0.042 15.43 0.686 22.839-0.056 2.082-0.209 4.608-0.657 6.244-2.039 1.542-1.303 2.213-3.279 2.443-5.231 0.76-6.441-0.405-14.157-0.482-20.714-0.206-17.569-0.404-35.322 0.282-52.875 17.932-17.735 35.892-36.112 53.217-54.461 10.692-11.324 21.411-25.144 33.718-34.596 12.599-0.507 95.497 1.777 101.18-2.666 2.101-17.721 0.686-38.797 0.773-56.823 0.052-11.015 1.351-23.181 0.405-34.051-0.202-2.319-0.764-4.179-2.109-6.099-1.167-0.68-2.712-1.396-3.58-2.441-1.137-1.369-0.41-4.267-0.284-5.99 10.435-5.067 47.192-49.974 59.15-61.128 2.432-2.269 4.182-2.622 7.374-2.991z" fill="#457b9d"/>
 <path transform="scale(.67202 .67188)" d="m726.34 625.08c27.633 0.123 55.302-0.63 82.921-0.2-0.309 2.744-1.5 8.399 0.022 10.709 1.496 2.272 3.678 2.283 6.124 2.87 2.72 4.226 1.313 86.012 1.317 98.178-11.969 0.731-24.091 0.341-36.082 0.325-11.197-5e-3 -84.696 1.356-88.819-1.957-2.572-10.853-1.461-24.347-1.641-35.489-0.26-16.159-0.96-32.417-0.4-48.565 5.8-0.481 11.878-0.176 17.709-0.193l0.186-25.546 18.663-0.132z"/>
 <path transform="scale(.67202 .67188)" d="m710.21 627.05 96.05-0.039-0.016 10.718-12.359-0.293q-31.843-0.42-63.687-0.103c-2.47 4.313-4.356 9.051-6.683 13.465l-13.558 0.023 0.253-23.771z" fill="#DEF6FB"/>
 <path transform="scale(.67202 .67188)" d="m731.68 639.59 82.889 1e-3c0.258 31.687 0.741 63.493 0.026 95.169-13.358 0.628-26.896 0.227-40.275 0.238l-80.97-0.039c-2.557-27.001-1.481-55.098-1.646-82.26 10.782-0.328 21.648 0.064 32.436 0.173 2.645-4.353 5.08-8.823 7.54-13.282z" fill="#d4aa00"/>
 <path transform="scale(.67202 .67188)" d="m204.62 395.33 281.83-0.022c81.162 0.012 162.4-0.705 243.55 0.222 49.026 0.041 98.126 0.723 147.14 0.18-3.192 0.369-4.942 0.722-7.374 2.991-11.958 11.154-48.715 56.061-59.15 61.128-0.126 1.723-0.853 4.621 0.284 5.99 0.868 1.045 2.413 1.761 3.58 2.441 1.345 1.92 1.907 3.78 2.109 6.099 0.946 10.87-0.353 23.036-0.405 34.051-0.087 18.026 1.328 39.102-0.773 56.823-5.681 4.443-88.579 2.159-101.18 2.666-12.307 9.452-23.026 23.272-33.718 34.596-17.325 18.349-35.285 36.726-53.217 54.461-0.686 17.553-0.488 35.306-0.282 52.875 0.077 6.557 1.242 14.273 0.482 20.714-0.23 1.952-0.901 3.928-2.443 5.231-1.636 1.382-4.162 1.83-6.244 2.039-7.409 0.742-15.369 0.098-22.839 0.056-14.985-0.082-30.083-0.233-45.06 0.178-8.862 9.316-17.572 18.786-26.878 27.663-6.591 6.287-14.405 12.286-20.335 19.123 1.188 1.103 2.067 1.404 3.579 1.805l-118.78 2e-3c-18.742 0.033-176.99 0.497-179.01-1.303-3.738-3.331-2.336-20.699-2.365-25.94l-2.51-364.07z" fill="#457b9d"/>
 <path transform="scale(.67202 .67188)" d="m448.32 714.44c8.637-5.149 39.396-41.748 47.635-51.416 2.172 24.763 2.714 49.915 5.634 74.56 16.372 0.896 32.92 0.465 49.318 0.47-8.862 9.316-17.572 18.786-26.878 27.663-6.591 6.287-14.405 12.286-20.335 19.123 1.188 1.103 2.067 1.404 3.579 1.805l-118.78 2e-3c14.835-17.502 31.038-33.708 45.661-51.461 3.74 0.087 9.615 0.973 12.487-1.835 3.165-3.095 1.716-14.391 1.679-18.911z" fill="#22adda" fill-opacity=".32549"/>
 <path transform="scale(.67202 .67188)" d="m339.52 442.41c14.158 0.16 31.142-3.626 42.256 7.415 3.365 3.343 5.137 6.68 9.911 8.122 10.388 3.137 34.071 0.827 46.049 0.973 2.207 0.027 5.262-0.351 6.85 1.164-0.788 1.016-1.386 1.811-1.541 3.127-0.037 0.316-0.06 0.633-0.09 0.95-3.827 1.405-9.458 0.559-13.576 0.521-8.446-0.079-46.545-1.691-51.425 0.408-0.674 0.29-1.554 1.176-2.166 1.639 23.47 0.5 46.992 0.201 70.469 0.193v97.276c-12.295 3e-3 -108.54 1.124-111.62-0.312-0.588-0.273-1.069-0.734-1.603-1.101-2.056-5.454-14.37-80.642-13.795-83.145 7.933-3.476 33.631 2.322 38.824-2.066 0.899-0.76 1.776-1.993 2.571-2.886-5.299 2.462-14.185 2.932-20.042 2.407l0.313-1.069-0.792 0.549c-2.153-8.674-0.623-24.79-0.592-34.165z" fill="#F9DAC5"/>
 <path transform="scale(.67202 .67188)" d="m337.66 611.17q18.592-0.195 37.184-0.092 9.069 7.505 18.388 14.698c14.63 1.039 39.101-1.683 51.604 0.873 5.546 6.106 3.501 74.31 3.486 87.788 0.037 4.52 1.486 15.816-1.679 18.911-2.872 2.808-8.747 1.922-12.487 1.835l-101.01 0.203c-1.904-15.328-17.952-78.277-16.181-85.798 5.018-3.367 14.709-2.049 20.525-1.945l0.174-36.473z" fill="#342E1F"/>
 <path transform="scale(.67202 .67188)" d="m339.96 613.16c11.411-0.147 22.836-0.066 34.249-0.096 6.41 4.517 12.446 9.768 18.563 14.683 12.801 0.212 25.584 0.092 38.385 0.065 3.889-8e-3 7.904 0.558 11.743 0.394 0.202-8e-3 0.403-0.03 0.605-0.045l0.652 0.834c-0.755 1.554-1.529 3.056-2.412 4.541-2.996 0.508-6.098 0.199-9.124 0.08-19.435-0.087-38.924-0.378-58.352 0.165-5.64 4.577-11.04 9.519-16.521 14.289-5.985-0.34-12.06-0.19-18.057-0.218l0.269-34.692z" fill="#F9DAC5"/>
 <path transform="scale(.67202 .67188)" d="m374.61 635.76c23.915-0.31 47.858-0.132 71.776-0.169q-0.411 48.659-0.204 97.316c-18.794 0.966-37.831 0.674-56.654 0.753l-54.71 0.031c-7.049-27.244-11.595-56.008-16.668-83.719q20.096-0.25 40.19 0.096l16.27-14.308z" fill="#F9DAC5"/>
 <path transform="scale(.67202 .67188)" d="m532.86 626.48 55.172-0.281c8.942-0.041 20.051-1.399 28.668 0.601 2.737 3.022 1.741 8.431 1.569 12.228l9.388 1.243c-0.156 5.548-0.469 11.138-0.354 16.686-0.686 17.553-0.488 35.306-0.282 52.875 0.077 6.557 1.242 14.273 0.482 20.714-0.23 1.952-0.901 3.928-2.443 5.231-1.636 1.382-4.162 1.83-6.244 2.039-7.409 0.742-15.369 0.098-22.839 0.056-14.985-0.082-30.083-0.233-45.06 0.178-16.398-5e-3 -32.946 0.426-49.318-0.47-2.92-24.645-3.462-49.797-5.634-74.56-0.179-1.651-0.371-3.316-0.447-4.975-0.118-2.6 0.646-3.392 2.277-5.171 3.481-1.685 8.192-1.289 12.02-1.383-0.044-5.445-1.564-17.931 2.382-22.094 4.132-4.36 15.148-2.953 20.663-2.917z"/>
 <path transform="scale(.67202 .67188)" d="m514.9 630.31 0.93-0.058c15.955-0.924 32.355-0.207 48.368-0.273 14.478-0.059 29.605-0.981 44.012-0.053 2.433 0.156 4.453 2e-3 6.313 1.654 0.086 0.745 0.234 1.641 0.131 2.383-0.192 1.376-1.039 2.538-2.071 3.429-3.26 2.813-10.92 1.57-15.139 1.467-20.399-0.012-40.781-0.537-61.177-0.757-3.066 4.719-5.831 9.669-8.867 14.422l-13.978-0.898c0.243-6.896-0.331-14.658 1.478-21.316z" fill="#DEF6FB"/>
 <path transform="scale(.67202 .67188)" d="m538.63 642.08q42.933 0.869 85.874 0.689 0.234 11.927 0.783 23.844c-0.166 10.517 1.614 63.43-1.227 69.104-13.108 1.516-27.547 0.434-40.783 0.426q-39.363 0.083-78.721-0.513c-0.033-12.071-6.648-71.838-4.259-78.535 5.105-4.123 22.773-0.805 29.568-0.131 2.82-5.036 5.683-10.003 8.765-14.884z" fill="#d4aa00"/>
 <path transform="scale(.67202 .67188)" d="m552.87 735.66c18.951-16.842 37.678-40.464 55.864-59.136 4.707-4.833 9.788-11.187 15.367-14.938l1.185 5.021c-0.166 10.517 1.614 63.43-1.227 69.104-8.394-0.798-17.276-0.298-25.721-0.266l-45.468 0.215z" fill="#d4aa00"/>
 <path transform="scale(.67202 .67188)" d="m730 395.53c49.026 0.041 98.126 0.723 147.14 0.18-3.192 0.369-4.942 0.722-7.374 2.991-11.958 11.154-48.715 56.061-59.15 61.128-0.126 1.723-0.853 4.621 0.284 5.99 0.868 1.045 2.413 1.761 3.58 2.441 1.345 1.92 1.907 3.78 2.109 6.099 0.946 10.87-0.353 23.036-0.405 34.051-0.087 18.026 1.328 39.102-0.773 56.823-5.681 4.443-88.579 2.159-101.18 2.666-12.307 9.452-23.026 23.272-33.718 34.596-17.325 18.349-35.285 36.726-53.217 54.461-0.115-5.548 0.198-11.138 0.354-16.686l-9.388-1.243c0.172-3.797 1.168-9.206-1.569-12.228-8.617-2-19.726-0.642-28.668-0.601l-55.172 0.281c7.804-13.212 20.611-25.094 30.925-36.517q24.773-27.796 49.952-55.226 61.895-67.662 121.59-137.27c-1.492-1.436-3.343-1.497-5.329-1.935z" fill="#22adda" fill-opacity=".32549"/>
 <path transform="scale(.67202 .67188)" d="m708.07 455.33c10.125-0.843 95.323-1.734 100.88-0.348 1.538 1.671 1.369 2.641 1.675 4.851-0.126 1.723-0.853 4.621 0.284 5.99 0.868 1.045 2.413 1.761 3.58 2.441 1.345 1.92 1.907 3.78 2.109 6.099 0.946 10.87-0.353 23.036-0.405 34.051-0.087 18.026 1.328 39.102-0.773 56.823-5.681 4.443-88.579 2.159-101.18 2.666q-11.563 0.128-23.127 0.093c-0.453-8.387-0.58-86.365 1.051-88.002 2.705-2.712 11.485-1.71 15.179-1.671 0.074-7.664 0.45-15.334 0.73-22.993z"/>
 <path transform="scale(.67202 .67188)" d="m713.17 458.2c30.886-1.107 62.083-0.054 93.027-0.413l-0.615 8.739-14.655-0.019-58.978-0.144c-3.009 4.43-6.13 8.794-9.198 13.183-4.028-0.836-8.029-1.138-12.121-1.434 0.767-5.054-0.727-16.517 2.54-19.912z" fill="#DEF6FB"/>
 <path transform="scale(.67202 .67188)" d="m808.76 469.74c2.082 0.081 3.821-0.332 5.316 1.223 0.809 11.584 0.232 23.467 0.163 35.082l-0.327 59.266c-31.539 0.045-63.147 0.552-94.678 0.106 14.577-16.417 30.422-31.93 45.211-48.206 12.334-13.575 30.912-36.685 44.315-47.471z" fill="#d4aa00"/>
 <path transform="scale(.67202 .67188)" d="m734.94 469.81c24.574-0.026 49.257 0.626 73.817-0.074-13.403 10.786-31.981 33.896-44.315 47.471-14.789 16.276-30.634 31.789-45.211 48.206l-24.603-0.132 0.241-83.538c10.782-0.273 20.308 0.25 30.936 2.195 2.497-4.98 5.397-9.981 9.135-14.128z" fill="#d4aa00"/>
 <path transform="scale(.67202 .67188)" d="m0 0h417.16 853.14 347.32c1.43 2.2162 1.31 4.3033 1.35 6.8482 0.7 41.016 0.05 82.16 0.05 123.19l0.01 245.16-0.01 94.365c0 9.335 1.29 29.048-0.27 37.136-0.17 0.895-0.54 1.755-0.87 2.597 0.67 1.426 0.99 2.641 1.05 4.207 0.67 17.046 0.99 173.3-0.64 178.04-0.04 0.14-0.1 0.276-0.15 0.414-2.36-8.961-15.77-34.155-20.45-44.252l-54.11-116.41q-24.99-53.844-49.32-107.99l-53.89-115.1c-13.48-28.696-26.61-57.607-40.5-86.111-2.19-4.508-4.7-10.692-8.91-13.597 0.02 0.504 0.07 1.105-0.01 1.619-0.85 6.059-14.36 32.151-17.73 39.478-17.62 38.268-34.22 77.728-53.82 115-1.24 2.345-2.39 4.262-4.42 6.008 0.16-1.464 0.08-2.395-0.45-3.772-8.13-21.186-19.82-41.74-29.63-62.24-10.91-22.772-22.35-45.258-33.45-67.932-9.29-18.991-18.24-38.486-28.43-56.997-1.21-2.201-1.9-4.377-4.38-5.105l1.13-0.175c-0.55-0.513-0.23-0.344-0.97-0.501-2.24 1.654-3.57 4.094-4.89 6.481-4.6 8.248-8.47 16.984-12.78 25.391-7.04 13.719-14.45 27.272-21.65 40.908l-94.96 179.13c-5.12 9.551-21.71 44.026-27.35 48.955-0.14 0.123-0.29 0.236-0.43 0.354 0.07-1.256-0.08-2.254-0.54-3.421-5.23-13.113-12.84-25.993-19.13-38.707l-35.36-72.257-3.911-8.097-39.749-81.728c-4.302-8.681-7.969-18.623-12.882-26.836-0.984-1.646-1.916-2.823-3.649-3.69-1.904 0.426-2.192 0.911-3.238 2.596-4.795 7.724-8.163 17.349-12.052 25.643-10.346 22.067-20.376 44.845-31.786 66.362l-478.74 0.393-152.31 0.042-46.238 0.037c-6.4-7e-3 -12.9-0.5-19.279-0.249-3.053 0.119-6.854 0.632-9.096 2.875-2.518 2.52-0.666 87.043-0.586 97.537l1.646 218.81c0.407 39.822 1.553 79.732 1.501 119.54-54.435 8.102-111.79 21.77-161.16 46.54-10.395 5.166-20.574 10.536-30.179 17.079v-837.56z" fill="none"/>
 <g fill="#DEF6FB">
  <path transform="scale(.67202 .67188)" d="m997.8 352.61c4.991 0.035 8.361 0.101 12.671 2.853l1.06 1.733c-0.86 1.655-1.32 2.216-3.17 2.822-1.98 0.652-4.56 0.582-6.65 0.689l-3.911-8.097z"/>
  <path transform="scale(.67202 .67188)" d="m363.18 173.52c2.155-0.25 4.701-0.706 6.845-0.364 1.672 0.266 3.795 1.306 4.769 2.733 0.743 1.087 0.374 1.374 0.144 2.59-1.661 1.764-3.275 2.357-5.509 3.119-1.361 0.284-2.725 0.563-4.105 0.744-2.874 0.377-4.418-0.627-6.653-2.313-0.916-1.875-1.116-1.843-0.491-3.956 1.572-1.57 2.868-2.017 5-2.553z"/>
  <path transform="scale(.67202 .67188)" d="m1134.8 187.01c4.76-0.222 9.83-0.68 13.6 2.853 0.96 0.905 0.81 1.067 0.86 2.387-2.9 2.41-5.64 2.59-9.24 2.852-2.03 0.082-4.17 0.112-6.17-0.283-2.46-0.485-4.55-1.924-5.85-4.051l0.39-1.634c2.04-1.728 3.87-1.807 6.41-2.124z"/>
  <path transform="scale(.67202 .67188)" d="m1194.5 39.139c5.32-0.6484 11.77-1.3366 16.86 0.6814 1.36 1.4998 1.49 1.5047 1.63 3.6408-1.18 2.3634-1.57 2.2412-4.07 3.2455-2.29 1.0332-6.58 0.9343-9.12 0.8497-2.74-0.0915-4.43-0.9005-6.28-2.8922-0.51-2.5962-0.11-3.0598 0.98-5.5252z"/>
  <path transform="scale(.67202 .67188)" d="m647.61 226.24c4.892-0.273 13.053-1.38 17.483 0.921 1.499 0.779 1.491 1.155 1.961 2.749-0.742 2.035-1.645 3.022-3.204 4.504-4.586 0.284-10.383 1.167-14.827-0.066-2.181-0.605-2.673-1.1-3.782-2.998 0.107-2.349 0.92-3.313 2.369-5.11z"/>
  <path transform="scale(.67202 .67188)" d="m600.24 34.919c4.64-0.1607 12.62-0.8807 16.34 2.3573 1.155 1.0052 1.125 1.331 1.145 2.8101-1.231 1.7438-2.412 2.8286-4.166 4.0392-4.535 0.4293-11.551 1.3241-15.638-1.3208-1.464-0.9472-1.439-1.372-1.777-3.0457 0.943-2.1995 2.303-3.3465 4.096-4.8401z"/>
 </g>
 <path transform="scale(.67202 .67188)" d="m1270.3 0h347.32c1.43 2.2162 1.31 4.3033 1.35 6.8482 0.7 41.016 0.05 82.16 0.05 123.19l0.01 245.16-0.01 94.365c0 9.335 1.29 29.048-0.27 37.136-0.17 0.895-0.54 1.755-0.87 2.597 0.18-1.51-0.13-2.766-0.44-4.233-7.48-34.87-22.13-71.869-35.79-104.75-53.81-129.49-133.75-251.47-239.27-344.52-22.88-20.17-46.47-39.174-72.08-55.785z" fill="none"/>
 <path transform="scale(.67202 .67188)" d="m0 0h417.16c-34.205 33.374-70.649 64.038-103.01 99.397-162.95 178.06-283.9 403.97-286.95 649.88-0.2935 23.641 0.4507 47.696 2.9831 71.211-10.395 5.166-20.574 10.536-30.179 17.079v-837.56z" fill="none"/>
</svg>
