<?xml version="1.0" encoding="UTF-8"?>
<svg version="1.1" viewBox="0 0 1129 663" xmlns="http://www.w3.org/2000/svg">
 <circle cx="330.82" cy="332.04" r="321" fill="#f2f2f2"/>
 <path transform="scale(.64736 .64746)" d="m0 0h1742.5c0.99 1.6123 1.33 2.8591 1.41 4.7382 1 24.25 0.08 48.957 0.08 73.25l0.01 145.96 0.01 443.25-0.02 182.9c0 9.832 1.41 52.84-0.37 59.176-0.23 0.804-0.64 1.538-1.1 2.228 0.75 1.233 1.21 2.378 1.33 3.82 1.48 17.092 0.2 35.368 0.19 52.564-0.01 18.123 1.2 37.202-0.28 55.222v0.89h-1743.8v-1.07-110.94-911.99z" fill="none"/>
 <path transform="scale(.64736 .64746)" d="m1337.4 40.466c14.74-0.2605 29.54-0.0228 44.29-0.0035 8.16 0.0106 17.22-0.7908 25.25 0.5227 0.62 0.1023 3.17 0.5879 3.46 0.9847 2.4 3.3719 1.58 17.01 1.58 21.402l-0.02 150.98 0.11 46.696c-0.04 7.138-0.71 14.392-0.35 21.513 0.14 2.575 0.53 4.731 2.03 6.903 1.98 0.824 2.03 0.693 3.98 0.125 2.27-3.219 0.99-170.48 0.98-189.24-0.01-12.542-1.92-49.165 1.82-58.425 0.16-0.0637 0.3-0.1319 0.46-0.1909 5.19-2.0055 67.8-1.7841 71.8 0.0714 1.14 0.5277 1.8 0.8839 2.19 2.1214 2.25 7.0889 0.55 59.136 0.6 70.426q0.56 58.01 0.51 116.02c0.01 17.725 0.5 35.614-0.12 53.323-0.08 2.21-0.3 3.932-1.29 5.953l32.15 0.034c4.05-6.349 0.86-209.64 1.53-236.81 0.1-3.9419 0.19-9.035 3.19-11.846 5.97-1.2022 54.04-0.8102 62.18-0.0963 2.75 0.2409 5.31 0.3844 7.1 2.5611 2 10.422 1.03 22.004 1.03 32.613l-0.06 53.138-0.03 99.448c0.02 18.334 0.51 36.817-0.05 55.136-0.07 2.322-0.25 4.017-1.43 6.068l24.26-0.12 17.12-2e-3c0.44 0.988 0.87 1.936 1.18 2.975 1.63 5.56 1.46 33.791-1.42 38.53-5.15 0.707-11.06 0.154-16.32 0.153l-34.8-6e-3 -119.54 8e-3 -206.97-0.01c-37.45 9e-3 -75.69 1.536-113.03-0.532-5.97-9.085 2.69-31.039-2.43-40.786-0.08-0.145-0.17-0.284-0.25-0.426l21.53-0.04c0.97-1.597 1.26-2.764 1.41-4.623 1.45-17.983 0.1-37.208 0.1-55.307l0.06-113.32c-0.06-20.669-1.17-41.858-0.14-62.481 0.2-3.9514 0.69-9.7519 3.81-12.563 6.34-1.444 141.05-1.7749 147.79-0.1824 2.25 3.3625 2.61 8.1559 2.92 12.101 1.33 16.994 0.18 34.945 0.15 52.068l0.1 121.37c-0.01 20.359-1.37 41.729 0.18 61.985l1.08 0.888c2.21 0.09 3.82 0.245 5.82-0.818 2.2-10.78 0.54-33.21 0.59-45.432l-0.06-143.44-0.09-37.92c-0.01-5.4113-0.69-11.908 0.26-17.191 0.39-2.1782 2.18-3.0733 3.8-4.3037z" fill="#2F1A10"/>
 <path transform="scale(.64736 .64746)" d="m1153 295.47c38.66-0.374 77.38 0.137 116.05 0.156l239.64 0.049c14.54 6e-3 123.6-1.271 128.83 0.68 0.76 2.319 0.23 2.843-0.59 5.08 0.35 2.172 0.93 3.512-0.11 5.55-6.23 2.009-94.03 0.556-107.44 0.551l-354.02-0.05c-2.85 3.723-16.26 15.412-20.23 17.164-4.25-5.891 2.36-21.744-2.13-29.18z" fill="#FDFDFC"/>
 <path d="m761.77 32.583a91.013 91.013 0 0 0 19.561 56.514 91.406 91.406 0 1 0 143.69 0c12.251-15.553-163.25-66.773-163.25-56.514z" opacity=".1"/>
 <path transform="scale(.64736 .64746)" d="m1175.4 307.48 354.02 0.05c13.41 5e-3 101.21 1.458 107.44-0.551 1.04-2.038 0.46-3.378 0.11-5.55 1.96 4.005 1.84 18.194 0.24 22.398-0.21 0.569-0.57 1.117-0.91 1.617l-362.19-0.024-79.11 0.083c-9.88 9e-3 -31.48 1.567-39.83-0.859 3.97-1.752 17.38-13.441 20.23-17.164z" fill="#87C1EC"/>
 <path transform="scale(.64736 .64746)" d="m1533.5 46.429c20.09-1.4319 40.91-0.3251 61.07-0.1474 1.21 2.1611 1.2 4.2363 1.28 6.6384 1.52 46.164 0.14 95.014 0.12 141.44l-0.05 60.248c-0.01 10.891 0.57 22.175-0.4 33.018l-0.5 0.113-0.72 1.558c-7.82 1.829-51.43 0.373-61.75 0.374 0.84-1.384 1.14-2.66 1.23-4.263 0.96-15.956 0.18-32.398 0.17-48.412l-0.06-92.411 0.02-64.825c0.01-10.828 0.93-22.603-0.41-33.326z" fill="#559BCE"/>
 <path transform="scale(.64736 .64746)" d="m1563.4 82.209c4.55-0.1569 8.86 0.7899 12.52 3.5919 4.22 3.2249 6.71 8.2004 7.3 13.429 0.59 5.296-0.72 10.853-4.12 15.026-3.71 4.558-8.1 5.899-13.76 6.507-3.06-0.104-5.56-0.835-8.26-2.261-4.48-2.366-7.57-6.197-9-11.058-1.5-5.088-0.73-10.723 1.82-15.339 3.09-5.5717 7.51-8.2529 13.5-9.8958z" fill="#2F1A10"/>
 <path transform="scale(.64736 .64746)" d="m1560.1 89.024c2.9-0.6931 6.18-1.2285 9.07-0.1957 3.57 1.2772 6.53 4.3961 7.91 7.8898q0.26 0.638 0.45 1.2996 0.19 0.6615 0.32 1.3395 0.12 0.6777 0.17 1.3647t0.03 1.376q-0.02 0.688-0.11 1.371t-0.25 1.353q-0.16 0.669-0.39 1.319-0.23 0.649-0.53 1.271c-1.7 3.485-4.41 5.432-7.99 6.63-0.94 0.461-2.09 0.777-3.13 0.819-2.94 0.119-6.17-0.911-8.33-2.902-2.89-2.66-3.79-6.196-3.83-9.973-0.06-5.8417 2.7-9.0004 6.61-12.962z" fill="#559BCE"/>
 <path transform="scale(.64736 .64746)" d="m1424.6 46.429c21.08-1.2156 42.95-0.3481 64.09-0.0333 1.17 1.8749 1.22 3.3333 1.3 5.4793 0.58 14.538 0.16 29.275 0.19 43.832q0.14 45.507-0.24 91.012c-0.2 33.465 1.14 67.136 0 100.56l-0.64-0.135-0.05 1.623-0.63 0.461c-6.45 2.047-54.14 0.434-65.42 0.419 1.08-1.61 1.3-3.065 1.39-4.942 1.29-26.787 0.04-54.131-0.06-80.98q-0.49-78.649 0.07-157.29z" fill="#4FA485"/>
 <path transform="scale(.64736 .64746)" d="m1454.8 83.912c4.8-0.6985 9.26 0.3096 13.29 3.0669q0.41 0.279 0.8 0.5776t0.76 0.6161q0.38 0.3175 0.74 0.6531t0.71 0.6886q0.34 0.3529 0.66 0.7223 0.33 0.3693 0.64 0.7543 0.3 0.3849 0.59 0.7845 0.29 0.3995 0.56 0.8128 0.27 0.4132 0.51 0.8391 0.25 0.4259 0.48 0.8635 0.22 0.4375 0.43 0.8856 0.2 0.4482 0.38 0.9058t0.34 0.9236q0.16 0.4661 0.3 0.9393 0.14 0.4733 0.25 0.9527t0.2 0.9638c0.89 4.8101-0.04 10.092-2.98 14.07-3.3 4.487-7.6 6.33-12.97 7.083-2.64 0.386-5.65-0.053-8.17-0.909-4.17-1.414-7.53-3.855-9.49-7.878q-0.22-0.45-0.41-0.911-0.2-0.46-0.37-0.93t-0.32-0.947q-0.15-0.478-0.28-0.962-0.12-0.485-0.22-0.975t-0.18-0.985q-0.07-0.494-0.12-0.992t-0.08-0.998q-0.03-0.499-0.03-1 0-0.5 0.03-1 0.02-0.499 0.07-0.997t0.12-0.993 0.17-0.9855 0.22-0.9756q0.13-0.4851 0.27-0.9634 0.15-0.4783 0.32-0.9487c2.38-6.6141 6.64-9.8096 12.78-12.752z" fill="#2F1A10"/>
 <path transform="scale(.64736 .64746)" d="m1454.1 90.728c4.04-0.6213 7.04-0.969 10.7 1.3883q0.54 0.3534 1.05 0.7578 0.5 0.4044 0.97 0.8558 0.46 0.4515 0.88 0.9459 0.41 0.4943 0.78 1.0268 0.37 0.5326 0.68 1.0983 0.32 0.5657 0.58 1.1592 0.25 0.5936 0.45 1.2094 0.2 0.6157 0.34 1.2479 0.13 0.572 0.2 1.154 0.06 0.582 0.07 1.168t-0.04 1.17-0.15 1.16q-0.11 0.576-0.28 1.139-0.16 0.562-0.38 1.105-0.23 0.542-0.5 1.06t-0.6 1.005c-2.15 3.224-4.64 4.28-8.21 5.111-1.14 0.386-1.95 0.598-3.16 0.461-3.32-0.374-6.15-1.77-8.22-4.422-2.08-2.658-2.66-5.978-2.31-9.265 0.56-5.1414 3.37-7.4787 7.15-10.535z" fill="#559BCE"/>
 <path transform="scale(.64736 .64746)" d="m1338.8 46.429c21.53-1.3525 44.14-0.4142 65.74 0.1287 0.58 0.9777 1 1.7991 1.17 2.9393 1.22 8.0362 0.27 17.61 0.27 25.825l0.02 55.084 0.17 94.877c0.1 19.169 0.78 38.574 0.1 57.716-0.09 2.423-0.27 4.162-1.66 6.229-3.89 1.776-57.89 0.431-66.97 0.408 1.17-2.057 1.27-3.823 1.35-6.14 1.43-39.744-0.08-79.916 0.17-119.72q0.28-38.234 0.09-76.468c-0.04-13.511 0.56-27.426-0.45-40.879z" fill="#4FA485"/>
 <path transform="scale(.64736 .64746)" d="m1368.6 84.764c4.67-0.8474 9.08-0.8119 13.36 1.4317q0.42 0.2169 0.83 0.455t0.81 0.4967q0.39 0.2586 0.78 0.5371 0.38 0.2784 0.75 0.576t0.72 0.6136q0.36 0.316 0.69 0.6495 0.34 0.3335 0.66 0.6837t0.62 0.7161q0.3 0.366 0.58 0.7468 0.28 0.3809 0.55 0.7755 0.26 0.3947 0.5 0.8022t0.46 0.8268q0.23 0.4192 0.42 0.8492 0.2 0.43 0.38 0.8695 0.18 0.4396 0.33 0.8876 0.16 0.448 0.29 0.9033 0.26 0.8824 0.44 1.7866 0.17 0.9046 0.26 1.8216 0.08 0.917 0.08 1.838-0.01 0.921-0.11 1.837-0.1 0.915-0.29 1.817-0.19 0.901-0.46 1.78-0.28 0.878-0.64 1.724-0.37 0.847-0.81 1.653c-2.81 4.976-7.31 7.678-12.69 9.092-2.59 1.019-5.76 0.688-8.42 0.031-4.27-1.052-7.66-3.44-9.93-7.219-2.7-4.477-3.66-9.826-2.32-14.907 1.85-7.0478 6.13-10.467 12.16-14.075z" fill="#2F1A10"/>
 <path transform="scale(.64736 .64746)" d="m1369 90.727c2.89-0.4082 5.67-0.9186 8.47 0.2647 3.55 1.5016 6.45 4.3083 7.72 7.9979 1.07 3.117 1.03 6.415-0.47 9.39-1.88 3.719-4.66 5.346-8.47 6.48-0.77 0.186-1.48 0.361-2.29 0.357-3.3-0.014-7.56-1.264-9.71-3.844-2.15-2.586-2.49-5.757-2.28-8.986 0.37-5.555 3.08-8.1252 7.03-11.66z" fill="#559BCE"/>
 <path transform="scale(.64736 .64746)" d="m1251.8 46.429c22.08-0.8738 44.57-0.0179 66.69 0.1184 0.52 0.8799 0.98 1.678 1.17 2.6986 1.24 6.5833 0.3 15.066 0.3 21.806l0.09 48.21 0.14 106.69c0.01 19.501 0.59 39.242-0.27 58.719-0.1 2.302-0.38 3.092-1.71 4.985-7 1.047-15.32 0.236-22.43 0.213l-45.65-0.037c0.91-1.466 1.37-2.837 1.49-4.55 0.62-8.905 0.16-18.17 0.15-27.111l-0.01-51.006 0.04-160.73z" fill="#F79836"/>
 <path d="m884.1 394.66a91.013 91.013 0 0 0 19.561 56.514 91.406 91.406 0 1 0 143.69 0c12.251-15.553-163.25-66.773-163.25-56.514z" opacity=".1"/>
 <path transform="scale(.64736 .64746)" d="m1281.3 84.764c4.85-0.8893 9.14-1.2605 13.64 1.1651q0.44 0.2402 0.86 0.5022 0.43 0.2619 0.84 0.5449t0.8 0.5863q0.4 0.3033 0.78 0.6261 0.38 0.3229 0.74 0.6644 0.37 0.3416 0.71 0.7011 0.35 0.3594 0.68 0.7358 0.32 0.3765 0.63 0.7689t0.6 0.7998 0.55 0.8289q0.27 0.4213 0.52 0.8557 0.24 0.4343 0.46 0.8804 0.23 0.4461 0.43 0.9029t0.38 0.9232q0.17 0.4663 0.33 0.9409 0.15 0.4747 0.28 0.9565c1.31 4.7717 0.89 9.9997-1.68 14.284-2.64 4.408-6.79 6.965-11.69 8.168-1.91 0.79-4.27 0.978-6.32 0.72-4.21-0.531-8.21-2.555-10.75-6.012-3.26-4.444-4.59-10.376-3.6-15.793 1.29-7.0847 5.07-10.815 10.81-14.75z" fill="#2F1A10"/>
 <path transform="scale(.64736 .64746)" d="m1282.3 90.728c0.13-0.0227 0.26-0.0472 0.39-0.068l0.64-0.0984c2.93-0.4745 5.55-0.9832 8.39 0.2888 3.5 1.5609 6.3 4.8504 7.45 8.4823 1.1 3.4458 0.79 7.1598-1.06 10.282-1.93 3.241-4.35 4.484-7.8 5.472-0.92 0.528-2.09 0.704-3.14 0.665-3.24-0.122-5.71-0.807-7.93-3.333-2.59-2.947-3.46-7.209-3.25-11.051 0.26-4.8714 2.97-7.5432 6.31-10.64z" fill="#AAD1D4"/>
 <path transform="scale(.64736 .64746)" d="m1194.9 46.429q24.69-0.2744 49.39-0.233c0.43 0.6839 0.78 1.2638 0.98 2.0568 1.96 7.8631 0.52 54.326 0.51 67.383l-0.17 106.71c0 20.596 0.47 41.318-0.08 61.9-0.06 2.141-0.15 3.658-1.29 5.524l-18.23-0.061-50.8 0.037c0.45-0.738 0.85-1.396 1.08-2.236 1.83-6.73 0.48-53.333 0.48-63.848 0.03-56.859 1.2-113.93 0.06-170.77-0.05-2.3559-0.16-4.0464-1.35-6.1302l19.42-0.3405z" fill="#4FA485"/>
 <path transform="scale(.64736 .64746)" d="m1209.5 83.911c4.74-0.5209 9.1 0.4758 12.98 3.2909q0.74 0.5472 1.42 1.164 0.68 0.6167 1.3 1.2972 0.62 0.6804 1.17 1.418 0.55 0.7377 1.02 1.5254 0.48 0.7878 0.87 1.6181 0.4 0.8303 0.71 1.6953t0.54 1.7563q0.22 0.8913 0.36 1.8005 0.08 0.4653 0.13 0.9343 0.05 0.468 0.08 0.939 0.03 0.47 0.04 0.942 0 0.471-0.02 0.942-0.01 0.471-0.05 0.941-0.05 0.47-0.11 0.937t-0.15 0.93-0.2 0.922q-0.11 0.458-0.25 0.91-0.13 0.452-0.28 0.897-0.16 0.445-0.34 0.882-0.18 0.436-0.38 0.864-0.2 0.427-0.42 0.843-0.22 0.417-0.46 0.822-0.24 0.406-0.5 0.798-0.26 0.393-0.54 0.772c-3.26 4.368-7.46 6.324-12.72 7.119q-0.97 0.062-1.95 0.016-0.97-0.045-1.94-0.197-0.96-0.151-1.9-0.407t-1.85-0.614c-4.42-1.701-7.95-4.513-9.84-8.935q-0.19-0.457-0.36-0.923-0.16-0.466-0.31-0.94-0.14-0.473-0.26-0.954-0.12-0.48-0.22-0.966-0.09-0.485-0.16-0.975-0.08-0.49-0.12-0.983-0.05-0.493-0.07-0.988-0.02-0.494-0.02-0.989t0.03-0.989q0.03-0.495 0.08-0.987t0.13-0.981q0.08-0.4895 0.18-0.974 0.1-0.4846 0.22-0.9635 0.13-0.4789 0.28-0.9509t0.32-0.936q0.17-0.4639 0.37-0.9186c2.76-6.4341 6.93-8.8469 13.19-11.405z" fill="#2F1A10"/>
 <path transform="scale(.64736 .64746)" d="m1208 89.874c2.78-0.4299 5.34-0.8936 8.02 0.301 3.41 1.5211 6.09 4.1599 7.5 7.645q0.25 0.6183 0.44 1.2599t0.31 1.2991q0.12 0.658 0.17 1.325 0.04 0.666 0.02 1.334t-0.11 1.331q-0.09 0.662-0.25 1.311-0.16 0.648-0.39 1.277-0.23 0.628-0.52 1.229c-1.82 3.649-4.71 5.315-8.44 6.399-0.85 0.313-1.65 0.508-2.55 0.54-2.94 0.105-6.35-1.068-8.3-3.258-2.86-3.192-3.43-7.686-3-11.802 0.52-4.8979 3.5-7.3594 7.1-10.191z" fill="#559BCE"/>
 <path transform="scale(.64736 .64746)" d="m538.68 816.99-216.52-0.131-64.12 0.169c-11.582 0.043-23.789 0.825-35.306-0.343-5.3-0.538-9.953-2.495-13.988-5.997-5.995-5.204-8.69-11.973-9.203-19.778-1.786-27.15-0.077-55.31-0.123-82.606l-0.119-178.41 0.033-178.12-0.149-55.768c-0.038-10.918-0.499-22.059 0.201-32.949 0.427-6.643 1.975-13.08 6.541-18.143 5.492-6.091 13.093-7.757 20.981-8.058 16.159-0.617 32.605 0.188 48.788 0.247l92.523 0.018 314.27 1e-3 225.17 0.043 81.873-0.244c13.432-0.01 27.432-0.772 40.822 0.211 5.05 0.371 10.52 3.537 14.13 6.989 6.22 5.947 7.75 13.412 7.84 21.701 1.3 116.01 0.03 232.16 0.08 348.18v118.07c0.02 19.477 1.56 40.339-0.22 59.695-0.61 6.605-3.3 12.965-8.04 17.674-3.41 3.386-8.25 6.289-13.06 6.968-10.83 1.529-22.8 0.58-33.779 0.585l-64.762-0.015-219.65 0.074c3.066 19.746 7.273 39.401 11.184 58.997 12.538-0.304 24.81-0.662 36.397 5.046 12.14 5.98 18.262 16.201 22.536 28.538l303.79 0.185c4.72-6.339 8.88-29.388 11.46-38.073 16.05-53.989 30.93-108.37 46.41-162.53 6.69-23.419 11.9-48.428 20.5-71.175 1.05-2.799 2.6-5.36 4.93-7.282 2.52-2.076 5.56-2.714 8.75-2.155 3.4 0.596 7.07 2.674 8.96 5.603 4.72 7.335 21.12 70.636 24.95 84.054l33.66 113.81c2.89 9.62 23.29 72.547 22.35 77.749l183.25 0.018c-0.05-3.742-4.76-9.089-4.98-14.489-0.49-12.612 2.2-77.526-1.66-83.449l-13.77-0.114c0.26-0.591 0.33-0.701 0.51-1.266 1.55-4.9 1.69-28.564-0.73-33.003 24.48-0.881 49.29-0.114 73.8-0.164-1.35-2.707-21.08-14.032-25.11-17.222-64.57-51.167-96.34-146.48-104.99-226.05-1.78-16.359-5.37-46.443 5.89-60.054 2.72-3.282 7.1-6.358 11.45-6.64 11.6-0.752 25.84 10.985 34.37 18.019 8.08 6.674 54.28 50.762 54.87 60.563 0.01 0.149 0.01 0.299 0.01 0.448 0.84-0.916 1.51-1.839 1.89-3.04 2.41-7.478 3.89-15.386 6.08-22.956 2.4-8.319 5.66-16.517 8.86-24.565 7.32-18.406 17.13-36.234 27.75-52.953 9.87-15.533 34.22-49.407 52.88-53.272 3.73-0.773 7.15-0.41 10.37 1.784 12.23 8.355 18.1 36.164 20.84 49.81 2.86 14.25 4.53 28.959 5.7 43.448 1.35 16.579 4.75 92.028-2.59 103.1 0.17-0.079 0.34-0.154 0.5-0.236 0.28-0.137 0.55-0.284 0.83-0.422 11.48-5.737 19.68-17.096 31.7-22.522 4.69-2.117 10.26-3.11 15.16-1.092 3.78 1.554 6.27 4.712 7.73 8.421 8.83 22.374-7.03 66.989-16.22 87.749-17.2 38.822-40.93 74.458-74.33 101.23-7.86 6.307-16.93 13.001-26.38 16.651 13.31 0.475 58.4-2.359 67.32 1.549 3.66 5.73 2.97 22.045 1.83 28.813-1.15 6.813-5.16 2.646-8.58 5.34-2.13 1.675 0.14 73.354-0.79 82.732-0.54 5.526-1.65 10.092-6.1 13.721 12.18-0.01 96.82-1.568 101.09 0.885 11.79 0.715 23.51 0.874 35.31 0.907 0.75 1.233 1.21 2.378 1.33 3.82 1.48 17.092 0.2 35.368 0.19 52.564-0.01 18.123 1.2 37.202-0.28 55.222v0.89h-1743.8v-1.07-110.94c4.9208-0.015 16.096 1.643 20.134-0.441 5.486-4.028 52.784-1.957 62.414-1.903l-0.1668-144.91c-0.0026-22.137-1.7294-46.345 0.412-68.274 1.574-1.95 3.5481-2.395 5.989-2.698 8.8962-1.102 18.545 0.04 27.526 0.07 9.501 0.031 19.313-0.863 28.77-0.049 2.19 0.189 5.538 0.511 7.194 2.095 0.838 0.8 0.629 0.509 0.741 1.643 0.839 8.431 0.414 17.2 0.418 25.682l4e-3 44.56-0.072 141.6 313.67-0.242c3.575-7.08 7.841-13.471 13.647-18.935 13.856-13.042 28.091-14.789 46.216-14.224 5.406-19.026 8.174-39.479 11.781-58.964z" fill="#2F1A10"/>
 <g fill="#FDFDFC">
  <path transform="scale(.64736 .64746)" d="m1381.2 484.51c2.33-3.835 4.96-9.461 9.55-10.859 5.39-1.643 13.16 2.951 17.55 5.657 9.94 6.123 32.48 22.997 37.84 32.67-5.55-1.613-32.6-28.225-46.73-32.867-9.06-2.974-10.69 1.68-17.79 5.205-0.14 0.067-0.28 0.129-0.42 0.194z"/>
  <path transform="scale(.64736 .64746)" d="m541.45 876.1c-2.623 0.058-4.802-0.038-7.374-0.723-0.613-6.922 8.71-49.262 11.044-57.563 2.327-1.101 5.962-0.598 8.529-0.575-2.008 19.256-7.339 40.07-12.199 58.861z"/>
  <path transform="scale(.64736 .64746)" d="m1436.8 783.46 115.25-0.039c20.76-0.088 41.87-1.023 62.59-0.153 2.86 4.755 1.63 14.965 1.13 20.425l-1.52 2.293c-2.97-1.668-0.77-12.363-4.3-16.064-1.54-1.609-3.47-1.999-5.57-2.324-16.69-2.584-35.11-1.505-51.99-1.708q-56.62-0.7-113.23 0.049c2.1 3.633 1.47 13.312 0.43 17.392-0.22 0.859-1.3 1.191-2.05 1.632 1.09-4.763 1.97-17.014-0.51-21.154-0.07-0.12-0.16-0.233-0.23-0.349z"/>
  <path transform="scale(.64736 .64746)" d="m1643.5 572.28c4.63-2.363 9.35-5.44 14.75-3.818 2.85 0.853 4.77 2.797 5.99 5.457 7.77 16.965-6.1 58.966-12.52 75.29-9.69 24.643-23.04 49.535-39.92 70.02-2.23 2.706-5.04 6.823-8.25 8.277 25.25-30.868 57.64-97.029 58.88-137.15 0.17-5.414-0.67-11.382-4.77-15.325-3.66-3.525-9.45-2.762-14.16-2.753z"/>
  <path transform="scale(.64736 .64746)" d="m1101.9 907.23c21.55-18.894 45.8-31.789 74.89-32.684 12.46-0.384 41.7 2.983 50.89 11.67-4.9 0.927-14.85-3.416-20.36-4.017-13.9-1.514-28.78-1.067-42.51 1.584-14.78 2.856-30.44 7.896-44.23 13.901-5.28 2.3-13.35 9.29-18.68 9.546z"/>
  <path transform="scale(.64736 .64746)" d="m1570.9 398.81c4.04-2.007 9.16-5.34 13.77-3.815 4.98 1.646 7.89 7.827 9.85 12.255 18.7 42.307 19.17 110.67 17.17 156.89-0.37 8.583 0.34 21.278-2.8 29.322-0.57 1.454-1.82 1.938-3.07 2.801 4.44-52.339 5.85-114.07-7.51-165.15-2.31-8.85-5.1-19.28-10.92-26.501-4.78-5.943-9.63-5.048-16.49-5.797z"/>
 </g>
 <path transform="scale(.64736 .64746)" d="m1544.2 688.9c4.55-4.858 9.56-16.485 12.24-22.77 6.84 9.906 5.04 64.959 2.69 78.012-1.67 9.26-6.17 17.857-7.92 26.938l-0.71 0.707c-1.46-2.855 1.02-19.371 1.1-23.619 0.19-10.293-1.4-53.088-7.4-59.268z" fill="#065847"/>
 <path transform="scale(.64736 .64746)" d="m481.73 909.17c-2.467-0.042-4.717 0.364-6.833-0.967 0.056-0.438 0.108-1.07 0.256-1.516 2.821-8.46 15.898-17.693 23.825-20.924q1.739-0.706 3.53-1.263 1.792-0.557 3.624-0.961 1.832-0.405 3.692-0.653 1.86-0.249 3.734-0.341c12.695-0.743 25.879 0.138 38.618 0.19l74.137-0.012 74.522-0.107c13.841-0.029 27.974-0.7 41.765 0.302 5.269 0.382 9.337 1.645 14.2 3.682-6.929 2.335-32.561 0.679-41.182 0.673l-133.78-0.224c-15.172-0.02-65.748-2.028-77.398 1.699-10.073 3.223-17.708 11.402-22.705 20.422z" fill="#FDFDFC"/>
 <path transform="scale(.64736 .64746)" d="m1093.6 905.95c4.53-7.074 13.51-45.714 16.46-56.256l37.06-130.22q7.82-28.249 16.02-56.392c1.91-6.647 3.22-13.661 5.42-20.187 0.75-2.244 1.79-5.021 3.52-6.712 2-1.947 3.84-1.574 6.37-1.401-0.44 1.024-0.87 2.006-1.4 2.988-5.73 10.708-11.99 40.788-15.51 53.771-5.99 22.027-55.45 201.02-58.8 205.64-0.05 0.195-0.07 0.398-0.14 0.584-1.02 2.602-6.59 6.991-9 8.182z" fill="#FDFDFC"/>
 <path transform="scale(.64736 .64746)" d="m1491.7 529.58c5.17 3.175 9.63 12.782 13 18.035 19.51 30.346 42.03 65.264 50.59 100.54 0.55 2.242 1.05 4.689 0.84 7.004-0.02 0.363-0.02 0.97-0.12 1.355-1.01 4.293-10.5 19.087-13.93 21.448 0.32-1.161 0.56-2.178 0.43-3.4-2.52-24.118-37.07-107.8-55.74-122.13 3.15-4.702 4.07-17.007 4.93-22.854z" fill="#065847"/>
 <path transform="scale(.64736 .64746)" d="m1101.9 907.23c5.33-0.256 13.4-7.246 18.68-9.546 13.79-6.005 29.45-11.045 44.23-13.901 13.73-2.651 28.61-3.098 42.51-1.584 5.51 0.601 15.46 4.944 20.36 4.017 7.84 1.898 25.17 14.414 28.76 21.586 0.38 0.759 0.4 1.271 0.46 2.105-17.18-0.229-151.89 1.095-155.58-0.927l0.58-1.75z" fill="#87C1EC"/>
 <path transform="scale(.64736 .64746)" d="m1439.2 785.94q56.61-0.75 113.23-0.049c16.88 0.203 35.3-0.876 51.99 1.708 2.1 0.325 4.03 0.715 5.57 2.324 3.53 3.701 1.33 14.396 4.3 16.064-0.29 0.131-0.58 0.293-0.88 0.393-3.66 1.191-152.55 0.711-168.46 0.153-2.75-0.097-4.93-0.156-7.37-1.569 0.75-0.441 1.83-0.773 2.05-1.632 1.04-4.08 1.67-13.759-0.43-17.392z" fill="#F79836"/>
 <path transform="scale(.64736 .64746)" d="m1451.1 812.06 154.21 0.379c2.05 3.284 2.58 59.823 1.18 65.619-0.19 0.787-0.53 1.526-0.91 2.234 1.47-4.661 1.31-30.141-0.85-34.939-50.94-0.655-101.94 0.281-152.89 0.375 0.48 0.86 0.8 1.417 1.01 2.393 1.15 5.528 1.6 22.105-1.25 26.865 1.81-5.349 1.73-57.758-0.5-62.926z" fill="#E07F0E"/>
 <path transform="scale(.64736 .64746)" d="m756.8 886.6c9.995 5.068 15.315 12.793 19.72 22.884q-67.25-0.829-134.5-0.502l-160.28 0.188c4.997-9.02 12.632-17.199 22.705-20.422 11.65-3.727 62.226-1.719 77.398-1.699l133.78 0.224c8.621 6e-3 34.253 1.662 41.182-0.673z" fill="#2B6091"/>
 <path transform="scale(.64736 .64746)" d="m553.65 817.24q76.351 0.745 152.7-0.031c3.656 19.573 7.936 39.112 10.993 58.781-58.598-0.334-117.33 1.165-175.9 0.111 4.86-18.791 10.191-39.605 12.199-58.861z" fill="#2B6091"/>
 <path transform="scale(.64736 .64746)" d="m1451.8 845.73c50.95-0.094 101.95-1.03 152.89-0.375 2.16 4.798 2.32 30.278 0.85 34.939 0.15 0.286 0.32 0.568 0.47 0.859 2.1 4.16 1.44 13.941-0.03 18.396-1.76 5.301-4.71 7.786-9.56 10.238-25.87 1.304-52.44-0.023-78.39-8e-3 -11.77 7e-3 -45.6 1.668-55.51-0.59-4.81-1.098-6.74-5.705-10.26-8.652-0.12-0.099-0.24-0.195-0.36-0.292 1.93-5.07 1.28-20.102-0.34-25.257 2.85-4.76 2.4-21.337 1.25-26.865-0.21-0.976-0.53-1.533-1.01-2.393z" fill="#F79836"/>
 <path transform="scale(.64736 .64746)" d="m1556.4 666.13c5.74-6.835 10.29-15.251 15.83-22.391 19.78-25.492 44.6-53.283 71.28-71.454 4.71-9e-3 10.5-0.772 14.16 2.753 4.1 3.943 4.94 9.911 4.77 15.325-1.24 40.119-33.63 106.28-58.88 137.15-1.28 7.877-25.84 26.987-32.9 32.089-5.38 3.891-12.97 9.985-19.49 11.48 1.75-9.081 6.25-17.678 7.92-26.938 2.35-13.053 4.15-68.106-2.69-78.012z" fill="#147B6D"/>
 <path transform="scale(.64736 .64746)" d="m95.344 699.53q16.859 0.469 33.724 0.474l18.383-0.022 5e-3 209.52-39.727 0.037c-6.269-4e-3 -13.574 0.686-19.727-0.369l-0.1051-18.329c-1.3151-40.385-0.1628-81.22-0.1911-121.66l-0.0707-43.785c-0.0163-8.169-0.5528-16.748 0.4186-24.855 2.0573-1.559 4.8209-1.072 7.291-1.013z" fill="#2b6091"/>
 <g fill="#2F1A10">
  <path transform="scale(.64736 .64746)" d="m94.951 769.36c4.2861-0.213 14.584-1.725 17.919 1.303 0.198 0.18 0.373 0.383 0.56 0.575-1.433 1.818-3.987 2.422-6.301 2.628-4.055 0.362-8.4552-0.064-12.536-0.188-0.478-1.663-0.1054-2.725 0.3574-4.318z"/>
  <path transform="scale(.64736 .64746)" d="m94.555 737.67c6.5277-0.022 15.665-0.977 21.526 2.324-1.228 1.68-4.36 2.12-6.414 2.456-4.916 0.803-10.112 0.529-15.081 0.501-1.3855-1.39-1.4568-1.363-1.666-3.448l1.6354-1.833z"/>
  <path transform="scale(.64736 .64746)" d="m94.349 723.24c5.6065-0.032 16.358-1.076 20.913 2.68-2.196 2.302-7.446 2.889-10.492 2.982-3.459 0.105-6.9082 0.139-10.368 0.285-0.6673-0.545-1.2178-1.41-1.7609-2.086 0.1088-2.177 0.2344-2.23 1.7076-3.861z"/>
  <path transform="scale(.64736 .64746)" d="m94.899 752.93c5.653 0.208 16.861-0.7 21.11 3.113-6.228 3.949-13.93 2.498-20.852 3.027-0.906-0.771-1.5153-1.659-2.224-2.605 0.2432-2.216 0.4008-2.123 1.9664-3.535z"/>
 </g>
 <path transform="scale(.64736 .64746)" d="m87.897 890.84c-1.3151-40.385-0.1628-81.22-0.1911-121.66l-0.0707-43.785c-0.0163-8.169-0.5528-16.748 0.4186-24.855 2.0573-1.559 4.8209-1.072 7.291-1.013 0.1788 6.424 1.6695 18.031-0.9957 23.71-1.4732 1.631-1.5988 1.684-1.7076 3.861 0.5431 0.676 1.0936 1.541 1.7609 2.086 1.0643 2.228 1.8672 4.615 0.9102 7.053-0.2201 0.561-0.4406 0.88-0.7569 1.427l-1.6354 1.833c0.2092 2.085 0.2805 2.058 1.666 3.448 1.4967 3.297 1.3777 6.565 0.3131 9.98-1.5656 1.412-1.7232 1.319-1.9664 3.535 0.7087 0.946 1.318 1.834 2.224 2.605 0.5014 3.674 0.6205 6.658-0.2057 10.295-0.4628 1.593-0.8354 2.655-0.3574 4.318 2.5454 8.535 0.7391 38.018 0.6807 49.159l0.0144 66.344-7.392 1.656z" fill="#FDFDFC"/>
 <path transform="scale(.64736 .64746)" d="m129.07 700.01 18.383-0.022 5e-3 209.52-39.727 0.037c-6.269-4e-3 -13.574 0.686-19.727-0.369 12.942-1.884 28.184-0.445 41.377-0.396-0.06-10.58 1.305-23.832-0.575-34.139l-29.24 0.302c0.0477-7.804-2.0768-30.608 1.622-36.381 8.831-1.23 18.546-0.45 27.485-0.453q-0.267-69.05 0.397-138.1z" fill="#2b6091"/>
 <path transform="scale(.64736 .64746)" d="m101.19 838.56c10.38 0.753 20.773-0.198 31.127 0.403 0.57 7.816 2.642 27.668-0.476 34.188-0.983 0.675-1.808 1.367-3.033 1.488l-29.24 0.302c0.0477-7.804-2.0768-30.608 1.622-36.381z" fill="#2F1A10"/>
 <g fill="#D04332">
  <path transform="scale(.64736 .64746)" d="m124.8 843.4c1.121 0.332 2.303 0.353 2.91 1.402 2.174 3.754 1.656 18.162 0.137 22.487-0.169 0.479-0.475 0.991-0.71 1.424-1.238 0.29-2.442 0.603-3.708 0.74 0.828-8.661 0.591-17.379 1.371-26.053z"/>
  <path transform="scale(.64736 .64746)" d="m104.23 843.89c6.814 0.049 13.817 0.413 20.576-0.495-0.78 8.674-0.543 17.392-1.371 26.053-6.088-0.91-12.91-0.354-19.089-0.324l-0.116-25.234z"/>
  <path transform="scale(.64736 .64746)" d="m1178.5 634.78c3.2 1.022 4.41 1.551 6.06 4.606 3.18 5.895 4.48 14.8 6.25 21.357q5.13 18.994 10.5 37.925c12.31 43.287 25.67 86.236 38.32 129.42 3.75 12.805 22.09 67.986 21.64 76.734l-0.02 0.512c-1.32-6.326-14.95-15.127-20.39-18.673-25.17-16.396-54.28-21.554-83.57-15.255-11.49 2.472-23.58 6.919-33.86 12.588-6.32 3.489-13.83 11.916-20.64 13.191 3.35-4.626 52.81-183.62 58.8-205.64 3.52-12.983 9.78-43.063 15.51-53.771 0.53-0.982 0.96-1.964 1.4-2.988z"/>
 </g>
 <path transform="scale(.64736 .64746)" d="m1491.7 529.58c4.29-5.865 9.9-26.632 13.39-35.055 11.83-28.542 28.69-56.756 49.49-79.675 5.12-5.638 10.94-10.607 16.27-16.036 6.86 0.749 11.71-0.146 16.49 5.797 5.82 7.221 8.61 17.651 10.92 26.501 13.36 51.08 11.95 112.82 7.51 165.15-1.54 5.393-11.34 12.285-15.27 16.654-5.48 6.082-32.6 41.175-34.37 42.241 0.21-2.315-0.29-4.762-0.84-7.004-8.56-35.278-31.08-70.196-50.59-100.54-3.37-5.253-7.83-14.86-13-18.035z" fill="#147B6D"/>
 <path transform="scale(.64736 .64746)" d="m1381.2 484.51c0.14-0.065 0.28-0.127 0.42-0.194 7.1-3.525 8.73-8.179 17.79-5.205 14.13 4.642 41.18 31.254 46.73 32.867 0.74 0.344 1.35 0.617 1.97 1.161 8.93 7.838 17.27 19.096 24.54 28.473q1.87 2.38 3.71 4.793 1.83 2.412 3.62 4.857 1.78 2.444 3.53 4.919 1.75 2.476 3.45 4.981 1.7 2.506 3.36 5.041 1.66 2.536 3.27 5.099 1.61 2.564 3.18 5.156t3.09 5.211 3 5.265q1.47 2.645 2.9 5.316t2.81 5.366q1.39 2.696 2.72 5.415 1.34 2.72 2.62 5.462 1.29 2.742 2.53 5.507t2.43 5.551q1.19 2.785 2.33 5.592 1.14 2.806 2.23 5.632t2.13 5.671 2.03 5.707q0.99 2.863 1.94 5.742 0.94 2.88 1.83 5.776 0.89 2.895 1.73 5.806t1.62 5.836q0.79 2.925 1.53 5.864 0.73 2.938 1.42 5.889 0.68 2.951 1.32 5.914 0.63 2.962 1.21 5.936 0.58 2.973 1.11 5.956t1.01 5.975q0.47 2.991 0.9 5.991 0.42 3 0.79 6.007 0.37 3.006 0.69 6.019c1.14 11.688 4.05 48.096-3.45 57.196-5.42 0.534-11.9 0.891-17.29 0.094-28.59-4.225-60.38-36.416-76.91-58.524-41.45-55.434-75.71-163.71-65.84-233.12z" fill="#147B6D"/>
 <path transform="scale(.64736 .64746)" d="m1707.2 910.6c11.79 0.715 23.51 0.874 35.31 0.907 0.75 1.233 1.21 2.378 1.33 3.82 1.48 17.092 0.2 35.368 0.19 52.564-0.01 18.123 1.2 37.202-0.28 55.222v0.89h-1743.8v-1.07-110.94c4.9208-0.015 16.096 1.643 20.134-0.441 0.8745 1.541 1.0147 2.636 2.7898 3.112 9.8155 2.629 26.397 0.38 37.056 0.384l101.65 0.04 434.34 0.104 121.89-0.021c16.799-0.02 42.966-1.659 58.863 0.499l757.65 0.142c17.6-8e-3 168.44 1.223 172.98-0.734l0.71-1.798-0.85-2.681z" fill="#3f3d56"/>
 <path transform="scale(.64736 .64746)" d="m0 1022.9 1743.8 0.18v0.89h-1743.8v-1.07z" fill="#EBD5C7"/>
 <path transform="scale(.64736 .64746)" d="m1708.1 913.28c2.67 0.244 4.61 0.366 6.84 2.031 1.14 1.97 1.16 2.113 0.87 4.375-1.85 2.66-4.39 3.907-7.5 4.511-4.6 0.891-10.64-0.439-15.39-0.531-10.53-0.204-21.08-0.112-31.61-0.128-56.86-0.087-113.76-0.954-170.6-0.485l-850.05 0.128-427.16-0.4q-54.391-0.243-108.78 0.239c-23.752 0.216-47.774 1.12-71.506 0.41-2.9579-0.089-5.644-0.358-8.1677-2.049-1.1025-0.739-1.8676-1.716-2.5943-2.805l-0.2426-2.009c2.6229-1.781 559.33-0.628 613.68-0.611l92.46 0.028c15.949 4e-3 32.558 0.966 48.406-0.314l757.65 0.142c17.6-8e-3 168.44 1.223 172.98-0.734l0.71-1.798z" fill="#FDFDFC"/>
 <path transform="scale(.64736 .64746)" d="m324.73 243.22 459.41 0.285 165.85 0.071c27.259 3e-3 55.256-1.565 82.416 0.062 3.18 1.234 6.2 2.977 8.63 5.387 3.78 3.748 5.15 8.204 5.51 13.41 1.19 16.941-0.02 34.84-0.05 51.867l-0.04 107.49 0.38 358.56c0.06 8.887 0.06 18-6.69 24.65-2.53 2.496-5.55 4.361-9.07 5.031-9.85 1.877-22.21 0.454-32.373 0.446l-71.994-0.06-487.48-0.102-148.27-0.138-44.864 0.15c-8.278 0.053-16.855 0.581-25.09-0.131-3.542-0.307-6.839-2.225-9.347-4.68-5.11-5.001-6.29-10.478-6.398-17.415q-1.284-175.65 0.085-351.3 0.293-53.852-0.033-107.7c-0.199-21.955-1.812-44.938-0.078-66.798 0.428-5.394 2.444-10.466 6.331-14.343 2.924-2.917 7.721-3.717 11.688-4.179 11.017-1.284 22.874-0.366 33.988-0.39l67.487-0.183z" fill="#2B6091"/>
 <path transform="scale(.64736 .64746)" d="m231.2 264.49 525.97 0.128 190.28 0.057c26.446 0.07 53.229-1.164 79.629-0.071 0.6 1.037 1.11 2.142 1.3 3.335 0.96 6.142 0.29 13.24 0.29 19.488l0.05 40.323 0.11 143.04 0.24 190.77 0.46 63.589c0.05 10.611 0.72 21.739-0.16 32.302-0.22 2.707-0.37 4.42-2.05 6.557l-3.74 0.333-579.12-0.047-144.42-0.028c-19.195 0.028-55.375 2.049-72.186-1.263-0.421-0.732-0.739-1.325-1.003-2.129-3.968-12.062-2.092-101.55-2.09-121.21l-0.035-261.02q-0.176-39.76 0.131-79.519c0.073-8.871-1.251-18.253-0.164-27.011 0.193-1.562 0.434-3.509 1.305-4.838 1.342-2.05 2.981-2.164 5.194-2.783z" fill="#2F1A10"/>
 <path transform="scale(.64736 .64746)" d="m274.37 270.48 748.16 0.225c0.58 21.846 0.15 43.835 0.16 65.696l-43.606 0.024-747.92-5e-3 -0.189-65.911 43.396-0.029z" fill="#FDFDFC"/>
 <path transform="scale(.64736 .64746)" d="m231.5 342.64 791.24-0.098 0.21 415.8-791.32-0.158c-1.096-14.872-0.093-30.512-0.095-45.455l-0.069-91.203 0.031-278.88z" fill="#AAD1D4"/>
 <path transform="scale(.64736 .64746)" d="m805.94 413.54c6.502 2.769 25.526 26.174 32.171 32.703 9.211-8.645 16.682-19.157 25.932-27.649 1.867-1.714 3.571-3.025 6.219-2.904 3.453 4.051 1.497 51.432 1.461 60.237q14.686-0.033 29.371-0.219c0.818 13.535 0.164 27.485 0.234 41.063q0.398 46.978-0.148 93.955c8.854-0.086 25.253-1.879 33.103 0.68 2.09 0.682 2.666 0.933 3.628 2.865l-0.962 1.362c-8.213 3.364-25.525 1.512-34.723 1.446l-123.77-0.062c-8.738-0.014-29.007 1.841-36.408-0.118-1.979-0.523-2.313-0.765-3.293-2.512l0.878-1.928c4.072-3.773 27.56-1.679 34.171-1.659l0.252-135.16 30.17 0.329c0.526-10.815-1.665-56.957 1.712-62.431z" fill="#2F1A10"/>
 <path transform="scale(.64736 .64746)" d="m810.49 426.27c6.917 4.783 20.407 24.747 27.162 25.794 6.854-1.207 22.623-20.444 28.284-26.308l1e-3 25.97-0.073 24.427-55.751 0.081c-0.013-16.642-0.268-33.333 0.377-49.964z" fill="#4FA485"/>
 <path transform="scale(.64736 .64746)" d="m779.26 481.98c38.729-0.89 77.735-4e-3 116.49 0.02q0.25 64.41-0.346 128.82l-115.69-0.057c-1.558-42.769-0.036-85.948-0.448-128.78z" fill="#D04332"/>
 <path transform="scale(.64736 .64746)" d="m354.96 414c16.384-0.668 153.64-0.835 155.63 1.125 1.505 1.479 2.03 3.12 2.169 5.198 0.493 7.383-0.089 15.283-0.09 22.714l4e-3 51.331 0.16 158.61c8.551-0.145 17.119-0.046 25.672-0.06l0.117-161.17 0.129-48.767c0.023-7.709-0.618-16.189 0.25-23.825 0.261-2.303 0.733-2.97 2.157-4.668 16.354-2.249 34.768-0.589 51.353-0.572l101.47 0.214c0.66 11.713 0.223 23.69 0.223 35.432l-0.038 63.667-0.041 140.22q19.702-0.3 39.404 0.046c0.125 7.048 0.161 14.055-0.085 21.101-19.369 1.091-39.349 0.226-58.767 0.248l-114.64 0.082-181.55-0.255c-14.486-0.126-29.037 0.644-43.503 0.247-3.324-0.091-6.986-0.426-10.031-1.886-2.572-1.234-4.685-3.103-5.601-5.874-1.337-4.043 0.554-8.317 2.502-11.805 6.751-4.741 23.533-2.409 31.981-2.235 0.786-57.088 0.494-114.24 0.439-171.34-0.013-14.18-2.088-56.474 0.687-67.784z" fill="#2F1A10"/>
 <path transform="scale(.64736 .64746)" d="m326.06 659.34 290.23 0.031 76.251 0.028c10.665-1e-3 23.682-1.463 34.128 0.432 1.342 2.585 0.879 5.855 0.837 8.707l-306.45 0.106c-13.668-5e-3 -87.64 1.522-93.647-0.53-1.907-2.705-1.298-5.507-1.346-8.774z" fill="#FDFDFC"/>
 <g fill="#A39189">
  <path transform="scale(.64736 .64746)" d="m545.06 420.2 143.13 0.013-0.028 32.165-143.15 0.015 0.049-32.193z"/>
  <path transform="scale(.64736 .64746)" d="m544.86 620.15 143.72-0.01 0.183 32.657-143.87-0.039-0.032-32.608z"/>
  <path transform="scale(.64736 .64746)" d="m360.39 420.15 146.24-0.133-0.093 32.262-146.12 0.17-0.031-32.299z"/>
  <path transform="scale(.64736 .64746)" d="m360.39 620.05c48.742-0.647 97.583 0.032 146.33 0.065q0.101 16.335-0.334 32.665-73.005-0.335-146.01 0.546l6e-3 -33.276z"/>
 </g>
 <path transform="scale(.64736 .64746)" d="m544.87 580.02c47.768-0.79 95.673-0.065 143.45-0.089l-0.068 33.693-143.31-0.124-0.077-33.48z" fill="#D04332"/>
 <g fill="#A39189">
  <path transform="scale(.64736 .64746)" d="m545.07 539.47 143.5 0.295-0.239 33.675-143.31-0.108 0.045-33.862z"/>
  <path transform="scale(.64736 .64746)" d="m545.04 499.33 143.61 0.219c0.027 11.299 0.081 22.582-0.365 33.875l-143.23-0.284-0.01-33.81z"/>
  <path transform="scale(.64736 .64746)" d="m360.39 499.42 146.19-0.159 0.014 34.004-145.89-0.716c-0.749-10.96-0.311-22.141-0.311-33.129z"/>
 </g>
 <path transform="scale(.64736 .64746)" d="m360.18 580.16c48.758-0.99 97.684-0.292 146.46-0.195l0.037 33.64-146.38-0.189-0.115-33.256z" fill="#D04332"/>
 <path transform="scale(.64736 .64746)" d="m379.28 539.67c42.356-1.137 84.963 0.126 127.35 0.18l0.017 33.497h-17.426l-129.02 0.012-0.011-33.431 19.089-0.258z" fill="#A39189"/>
 <path transform="scale(.64736 .64746)" d="m545.13 458.73 143.3 0.141q0.193 17.22-0.049 34.44l-143.45-0.102c-0.06-11.448-0.524-23.054 0.198-34.479z" fill="#D04332"/>
 <path transform="scale(.64736 .64746)" d="m360.23 459.12c48.747-0.473 97.508 0.332 146.26-0.317l-0.01 34.476c-48.595 1.208-97.537-0.031-146.17-0.062l-0.079-34.097z" fill="#D04332"/>
</svg>
