<?xml version="1.0" encoding="UTF-8"?>
<svg version="1.1" viewBox="0 0 1129 663" xmlns="http://www.w3.org/2000/svg">
 <defs>
  <linearGradient id="gradient_0" x1="150.38" x2="1599.9" y1="1010.3" y2="-175.31" gradientUnits="userSpaceOnUse">
   <stop stop-color="#D6D5D2" offset="0"/>
   <stop stop-color="#fff" offset="1"/>
  </linearGradient>
 </defs>
 <path transform="scale(.64736 .64746)" d="m0 0h1742.5c0.78 1.2352 1.22 2.3414 1.33 3.7984 1.51 19.652 0.15 40.283 0.15 60.063l0.01 124.02v481.24l0.01 124.97c0 10.779 1.37 38.387-0.24 46.739-0.18 0.924-0.46 1.608-0.85 2.462l-0.36 3.609c0.99 1.596 1.26 2.813 1.35 4.669 0.65 12.737 0.12 25.757 0.12 38.529v75.37l-0.02 38.468c0 5.28 0.69 11.86-0.24 17.02-0.19 1.1-0.68 2.11-1.26 3.05h-238.88-231.86-270.08-1001.7v-13.7-176.86-5.004-828.44z" fill="url(#gradient_0)"/>
 <path transform="scale(.64736 .64746)" d="m189.91 220.78q-0.1-1.717-0.064-3.436c0.154-12.53 7.382-23.231 16.049-31.738 7.522-7.384 16.389-12.631 26.929-14.105 10.67-1.492 21.742-0.495 32.501-0.582 28.128-0.228 56.259 0.46 84.368 0.216q170.51-0.943 341.01 0.254c-5.933 3.636-19.769 3.629-26.937 3.79-15.41 0.347-30.567-2.051-45.925-2.37-11.574-0.241-22.955 2.208-34.492 2.248-11.838 0.041-23.577-1.386-35.378-1.976-11.467-0.573-23.117-0.256-34.607-0.294-8.777-0.029-17.717-0.352-26.471 0.221-9.985 0.654-19.783 2.282-29.826 2.313-14.066 0.043-28.314-2.479-42.237-2.044-10.814 0.338-21.57 2.199-32.408 2.115l-84.848-0.037c-26.962-0.106-57.379-7.113-82.728 5.956-13.072 6.74-16.69 19.041-21.652 31.791-0.925 2.378-1.751 5.673-3.285 7.678z" fill="#2E231E"/>
 <path transform="scale(.64736 .64746)" d="m1505 524.48-0.17-0.833c-0.64-3.105-2.04-6.071-2.02-9.297 0.03-5.268 1.77-11.269 2.88-16.421 6.72-31.29 18.52-61.13 32.96-89.6 2.46-4.848 14.97-25.7 14.84-29.581 9.94 4.441 18.97 13.296 26.92 20.585 45.98 42.143 76.84 99.041 98.94 156.82q13.38 35.769 22.84 72.771c5.47 21.001 33.45 153.41 27.99 165.96 2.67 2.545 4.2 16.738 3.95 20.748-0.05 0.781-0.29 1.27-0.6 1.971 3.12 3.514 4.22 9.937 3.95 14.54-0.14 2.487-0.42 3.029-1.96 4.838-7.8 2.606-25.89-8.646-33.18-12.29-12.64-6.314-25.2-13.475-36.67-21.73-7.45-5.352-15.71-14.364-24-17.941 4.43 4.707 14.52 47.835 14.31 55.328-0.03 0.809-0.3 1.409-0.62 2.134 12.99 7e-3 80.55-1.357 87.52 0.797l-0.36 3.609c0.99 1.596 1.26 2.813 1.35 4.669 0.65 12.737 0.12 25.757 0.12 38.529v75.37l-0.02 38.468c0 5.28 0.69 11.86-0.24 17.02-0.19 1.1-0.68 2.11-1.26 3.05h-238.88-231.86-270.08-1001.7v-13.7-176.86-5.004c20.694 0.72 41.421-0.174 62.115 0.345 11.957 0.299 23.798 2.178 35.777 2.041 12.818-0.147 25.483-2.169 38.314-2.33 18.023-0.226 36.251 0.766 54.232 0.077 1.714 1.963 1.456 5.652 1.642 8.256 0.969 13.555-1.045 27.299 0.067 40.734q0.08 0.973 0.196 1.942 0.115 0.97 0.265 1.934 0.15 0.965 0.335 1.923 0.185 0.959 0.405 1.91 0.219 0.951 0.473 1.894 0.253 0.942 0.541 1.875 0.287 0.933 0.608 1.855t0.675 1.831q0.354 0.91 0.741 1.806 0.386 0.897 0.805 1.778 0.418 0.882 0.869 1.748 0.45 0.866 0.931 1.716 0.481 0.849 0.993 1.68 0.511 0.832 1.052 1.644t1.112 1.604q0.57 0.793 1.168 1.564t1.224 1.52 1.278 1.475q0.653 0.726 1.331 1.428t1.381 1.379 1.43 1.328 1.477 1.275q0.75 0.625 1.522 1.222t1.565 1.165q0.793 0.569 1.606 1.109 0.813 0.539 1.646 1.049 0.832 0.51 1.681 0.99 0.85 0.479 1.717 0.928t1.749 0.866 1.779 0.802q0.897 0.384 1.807 0.737 0.91 0.352 1.832 0.671c7.581 2.54 15.992 3.285 23.932 3.818 11.801 0.793 23.307-1.085 35.067-1.186 16.026-0.139 42.638 2.531 57.491-0.079 16.057-2.821 31.476-9.947 47.34-13.84 4.707-2.71 13.561-4.25 18.943-3.757 15.299-0.912 30.073-1.056 45.379-0.077l7.665 0.135q11.261-1.176 22.582-1.187 11.322-0.01 22.585 1.146c3.268-0.225 6.464-0.359 9.74-0.251 14.623-2.629 34.285-3.274 48.726 0.19 3.806-0.188 7.488-0.369 11.283 0.064 18.025-4.384 45.874-2.613 64.535-1.449 5.447 0.34 11.151 1.49 16.559 1.466 0.915-4e-3 2.008-0.131 2.897 0.038 16.113-1.165 34.666-4.781 50.532-0.129 3.779-0.233 7.456-0.543 11.217 0.026 19.65-3.507 32.857-0.014 51.259-0.706 7.576-0.284 15.12-1.066 22.708-1.117 9.678-0.065 19.362 0.643 29.04 0.525 9.338-0.114 18.651-0.843 28.001-0.777 9.019 0.064 18.028 0.75 27.045 0.808l138.6 0.181 192.88 0.105 59.81-0.13c11.57-0.04 23.78-0.807 35.27 0.462 10.15 1.122 26.52 14.261 37 18.709 0.66 0.277 1.28 0.565 1.97 0.764 9.36 2.706 28.79-0.544 39.21-0.685 15.09-0.204 33.74 2.391 48.03 1.003 4.99-0.485 10-2.395 14.39-4.753 21.27-11.425 30.53-37.135 31.07-60.179 0.17-7.183-0.96-14.371-0.98-21.558l-0.27-54.991c0.04-9.675 0.84-19.363 0.78-29.018-0.06-11.423-0.92-22.809-0.79-34.254 0.05-5.142 1.89-10.174 1.71-15.216-0.56-16.142-4.38-35.133 0.55-50.867 0.07-0.198 0.14-0.394 0.2-0.591 1.68 2.349 1.8 4.629 1.9 7.42 0.55 14.322-0.41 28.484-0.66 42.779-0.14 7.6 0.69 15.186 0.74 22.784 0.06 9-0.67 17.989-0.62 26.984 0.06 10.114 0.72 20.212 0.7 30.336-0.01 11.257-0.74 22.438-0.95 33.678-0.11 5.671 1.04 13.403-0.13 18.808-0.17 0.827-0.55 1.597-0.92 2.348q29.3 0.04 58.6 0.507c2.87-6.417-0.02-18.67-0.47-25.735-2.46-39.091 0.11-91.676 30.2-120.84 4.75-4.596 11.24-6.034 16.41-9.887 0.93-5.024-7.43-22.78-10.35-27.236-0.64-0.985-1.32-1.751-2.24-2.489-1.4 4.089-6.5 7.049-10.19 8.843-7.53 3.661-16.39 3.159-24.11 0.392-16.62-5.955-29.27-20.077-36.5-35.857-15.27-33.318-8.18-71.395 1.33-105.2z" fill="#2E231E"/>
 <path transform="scale(.64736 .64746)" d="m1579.2 651.28c0.9 0.26 1.67 0.595 2.29 1.326 2.74 3.252 15.8 26.486 15.34 30.424l-2.45 0.961-0.85 0.329c-0.67-0.259-1.13-0.246-1.49-0.891-1.58-2.823-13.38-28.269-13.46-29.863-0.03-0.547 0.47-1.71 0.62-2.286z" fill="#C69A85"/>
 <path transform="scale(.64736 .64746)" d="m1508.6 526.05c2.9-0.512 5.11 8e-3 7.82 0.99 23.53 8.513 43.26 30.535 53.77 52.755 8.82 18.659 14.74 45.024 7.39 65.038-2.42 6.582-6.6 11.86-12.99 14.832-0.13 0.202-0.23 0.422-0.38 0.606-1.98 2.44-7.58 3.324-10.56 3.377-12.33 0.22-23.32-6.76-31.84-15.04-25.01-24.31-26.65-64.174-19.77-96.327 1.58-7.368 6.82-18.823 6.59-25.801 0-0.144-0.02-0.287-0.03-0.43z" fill="#785B4D"/>
 <path transform="scale(.64736 .64746)" d="m1597.5 687.07 3.37-0.254c2.84 2.429 4.64 6.401 6.31 9.73 30.79 61.265 44.86 135.67 56.39 202.77 1.29 7.494 6.33 27.652 4.32 33.711l-99.71-3.516c0.26-0.192 0.53-0.375 0.78-0.576 9.45-7.468 14.72-38.273 16.29-49.742 1.76-12.8 5.99-92.219-0.67-100.97 0.33-0.744 0.58-1.316 0.71-2.126 0.72-4.665 0.39-9.429-2.27-13.404l-1.25-0.017c-2.21 4.899 1.73 39.704 2.01 48.686 1.2 39.936 2.11 97.652-27.38 128.52-3.52 3.677-10.75 10.398-16.08 10.499l-1.12-1.3c-2.34-10.137 6.87-38.446 7.59-51.697 3.08-56.044-14.18-122.73 10.62-174.96 8.8-18.545 20.91-28.532 40.09-35.364z" fill="#6E96AC"/>
 <path transform="scale(.64736 .64746)" d="m0 833.44c18.747 0.723 37.649 1.07 56.399 0.31 13.884-0.562 27.814-2.06 41.707-2.062 11.504-2e-3 23.026 1.255 34.524 1.73q28.263 1.051 56.517-0.198c-0.155 28.575-4.374 60.633 17.609 82.934 10.182 10.329 23.304 15.021 37.641 14.993 29.809-0.06 59.793-0.587 89.578 0.269-19.306 6.853-38.872 14.281-58.485 20.114l4.21 25.467q28.807 3.3 57.654 6.229 28.846 2.929 57.728 5.486 28.883 2.557 57.795 4.741 28.913 2.185 57.851 3.997 28.939 1.811 57.898 3.25 28.959 1.44 57.934 2.5 28.976 1.07 57.963 1.76 28.986 0.7 57.98 1.01 28.993 0.32 57.988 0.27 28.995-0.06 57.986-0.49 28.992-0.42 57.976-1.23 28.984-0.8 57.955-1.97 28.972-1.18 57.922-2.726 28.96-1.549 57.89-3.47t57.83-4.215q28.91-2.294 57.78-4.96 63.41-6.05 126.54-14.537c15.96-2.204 33.16-3.547 48.78-7.38 2.04-3.949 1.9-14.62 0.73-18.834-0.15-0.549-0.34-0.92-0.57-1.459-6.7-4.803-22.04-11.392-30.03-14.412 22.33-0.142 44.6 0.815 66.96 0.518 9.14-0.121 18.73 0.632 27.64-1.698 7.24-1.892 13.65-5.905 18.91-11.185 16.59-16.666 19.15-40.379 18.89-62.636-0.03-3.065 0.36-6.524-1.26-9.243 19.32-0.231 39-1.017 58.28 0.256 6.19 9.677 0.91 63.39-1.84 75.914-0.5 2.283-1.11 4.345-2.63 6.169-9.83-0.886-51.74-5.144-57.99 0.032-4.57 3.778-5.85 10.025-6.19 15.62-0.66 11.121 1.33 24.915 8.94 33.587 5.06 5.758 10.42 6.411 17.72 6.796 18.89 0.996 38.22-0.042 57.14-0.534q53.31-1.507 106.6-3.812l41.96-1.747c6.62-0.308 14.42 2e-3 20.83-1.587 1.18-1.347 2-2.716 2.48-4.454 1.17-4.242 5.84-31.238 5.41-34.538-0.09-0.701-0.37-1.163-0.72-1.758-15.52-3.37-44.12-2.472-60.93-2.983 0.62-1.272 0.89-2.338 0.8-3.75-1.25-18.248-5.9-37.438-9.27-55.503-1.43-7.642-2.27-16.394-4.68-23.701-0.47-1.443-1.39-2.693-2.37-3.832l86.6 0.406c0.99 1.596 1.26 2.813 1.35 4.669 0.65 12.737 0.12 25.757 0.12 38.529v75.37l-0.02 38.468c0 5.28 0.69 11.86-0.24 17.02-0.19 1.1-0.68 2.11-1.26 3.05h-238.88-231.86-270.08-1001.7v-13.7-176.86z" fill="#C6C8C5"/>
 <path transform="scale(.64736 .64746)" d="m1271.8 1024c14.96-2.67 225.44-2.77 231.86 0h-231.86z" fill="#FEFEFE"/>
 <path transform="scale(.64736 .64746)" d="m0 1010.3 751.72 10.51 184.89 2.21 42.091 0.22c7.241 0.03 15.961-0.8 22.989 0.76h-1001.7v-13.7z" fill="#FEFEFE"/>
 <path transform="scale(.64736 .64746)" d="m1071 171.38c43.57-1.181 87.35-0.308 130.93-0.08l130.42 0.014 75.9-0.095c11.16-0.048 23.28-1.318 34.33-5e-3 8.95 1.064 16.81 4.71 23.3 10.964 15.51 14.959 16.04 21.404 17.02 42.382 0.35 7.508 1.22 15.02 1.3 22.533 0.08 7.747-0.47 15.477-0.43 23.219 0.05 10.366 3.4 38.518-1.4 46.623 1.83 4.418 1.94 64.386 0.14 68.686-0.06 0.129-0.12 0.255-0.18 0.382 4.52 11.135 1.3 41.504 1.23 54.215l-0.04 49.585c-0.06 14.426 3.36 83.213-0.93 92.269-0.1 0.21-0.21 0.414-0.32 0.622 2.01 5.756 2.01 68.242-0.02 74.154-0.06 0.197-0.13 0.393-0.2 0.591-4.93 15.734-1.11 34.725-0.55 50.867 0.18 5.042-1.66 10.074-1.71 15.216-0.13 11.445 0.73 22.831 0.79 34.254 0.06 9.655-0.74 19.343-0.78 29.018l0.27 54.991c0.02 7.187 1.15 14.375 0.98 21.558-0.54 23.044-9.8 48.754-31.07 60.179-4.39 2.358-9.4 4.268-14.39 4.753-14.29 1.388-32.94-1.207-48.03-1.003-10.42 0.141-29.85 3.391-39.21 0.685-0.69-0.199-1.31-0.487-1.97-0.764-10.48-4.448-26.85-17.587-37-18.709-11.49-1.269-23.7-0.502-35.27-0.462l-59.81 0.13-192.88-0.105-138.6-0.181c-9.017-0.058-18.026-0.744-27.045-0.808-9.35-0.066-18.663 0.663-28.001 0.777-9.678 0.118-19.362-0.59-29.04-0.525-7.588 0.051-15.132 0.833-22.708 1.117-18.402 0.692-31.609-2.801-51.259 0.706-3.761-0.569-7.438-0.259-11.217-0.026-15.866-4.652-34.419-1.036-50.532 0.129-0.889-0.169-1.982-0.042-2.897-0.038-5.408 0.024-11.112-1.126-16.559-1.466-18.661-1.164-46.51-2.935-64.535 1.449-3.795-0.433-7.477-0.252-11.283-0.064-14.441-3.464-34.103-2.819-48.726-0.19-3.276-0.108-6.472 0.026-9.74 0.251q-11.263-1.156-22.585-1.146-11.321 0.011-22.582 1.187l-7.665-0.135c-15.306-0.979-30.08-0.835-45.379 0.077-5.382-0.493-14.236 1.047-18.943 3.757-15.864 3.893-31.283 11.019-47.34 13.84-14.853 2.61-41.465-0.06-57.491 0.079-11.76 0.101-23.266 1.979-35.067 1.186-7.94-0.533-16.351-1.278-23.932-3.818q-0.922-0.319-1.832-0.671-0.91-0.353-1.807-0.737-0.897-0.385-1.779-0.802t-1.749-0.866-1.717-0.928q-0.849-0.48-1.681-0.99-0.833-0.51-1.646-1.049-0.813-0.54-1.606-1.109-0.793-0.568-1.565-1.165t-1.522-1.222q-0.75-0.624-1.477-1.275t-1.43-1.328-1.381-1.379-1.331-1.428q-0.652-0.726-1.278-1.475t-1.224-1.52-1.168-1.564q-0.571-0.792-1.112-1.604t-1.052-1.644q-0.512-0.831-0.993-1.68-0.481-0.85-0.931-1.716-0.451-0.866-0.869-1.748-0.419-0.881-0.805-1.778-0.387-0.896-0.741-1.806-0.354-0.909-0.675-1.831t-0.608-1.855q-0.288-0.933-0.541-1.875-0.254-0.943-0.473-1.894-0.22-0.951-0.405-1.91-0.185-0.958-0.335-1.923-0.15-0.964-0.265-1.934-0.116-0.969-0.196-1.942c-1.112-13.435 0.902-27.179-0.067-40.734-0.186-2.604 0.072-6.293-1.642-8.256-2.31-9.435-0.767-31.55-0.282-42.035-2.394-14.633-0.902-28.84-0.609-43.53 0.162-8.122-0.649-16.253-0.688-24.376-0.037-7.928 0.745-15.812 0.826-23.73 0.072-7.062-0.538-14.124-0.535-21.185 4e-3 -8.003 0.765-15.991 0.741-23.99-0.027-8.905-0.85-17.804-0.91-26.715-0.1-14.572 0.589-29.205 1.037-43.772-0.705-21.96-0.536-44.387 0.048-66.359-2.154-17.335-0.425-34.61-0.388-51.99l-0.055-102.66c0-11.385-0.959-22.784-1-34.183-0.033-9.182 0.88-18.394 0.711-27.55-0.256-13.838-1.618-26.457 0.63-40.263-1.214-11.452-0.195-23.916-0.054-35.454 1.534-2.005 2.36-5.3 3.285-7.678 4.962-12.75 8.58-25.051 21.652-31.791 25.349-13.069 55.766-6.062 82.728-5.956l84.848 0.037c10.838 0.084 21.594-1.777 32.408-2.115 13.923-0.435 28.171 2.087 42.237 2.044 10.043-0.031 19.841-1.659 29.826-2.313 8.754-0.573 17.694-0.25 26.471-0.221 11.49 0.038 23.14-0.279 34.607 0.294 11.801 0.59 23.54 2.017 35.378 1.976 11.537-0.04 22.918-2.489 34.492-2.248 15.358 0.319 30.515 2.717 45.925 2.37 7.168-0.161 21.004-0.154 26.937-3.79 25.776-0.84 51.764-0.161 77.562-0.118 42.17-0.285 84.436-0.967 126.59 0.11 10.882-0.365 22.462-0.886 33.304-0.015q28.521-0.868 57.041 3e-3c6.617-0.14 13.196-0.226 19.808 5e-3 16.02-0.264 32.25-0.868 48.25 9e-3 5.88-0.096 11.93-0.492 17.79 3e-3z" fill="#46342A"/>
 <g fill="#2E231E">
  <path transform="scale(.64736 .64746)" d="m464.62 853.75q17.579-0.701 35.157 0.021l-0.346 1.002c-7.236 2.672-28.213 3.325-35.164 0.125l0.353-1.148z"/>
  <path transform="scale(.64736 .64746)" d="m381.78 853.79q18.982-1.124 37.961 0.044c-0.424 0.351-0.859 0.62-1.364 0.843-6.181 2.732-29.538 2.559-36.028 0.296l-0.569-1.183z"/>
  <path transform="scale(.64736 .64746)" d="m325.37 853.78c15.157-0.859 29.938-0.837 45.098 2e-3l0.019 1.198c-9.177 2.69-34.928 2.332-44.353 0.197l-0.764-1.397z"/>
  <path transform="scale(.64736 .64746)" d="m1005 171.37c16.02-0.264 32.25-0.868 48.25 9e-3l-0.73 1.363c-9.83 3.838-34.11 3.306-44.32 0.564-1.62-0.434-2.33-0.428-3.2-1.936z"/>
  <path transform="scale(.64736 .64746)" d="m508.97 853.76q20.031-0.447 40.063-0.041c11.953 3.214 30.208 0.828 42.829 0.599q15.873-0.423 31.716 0.637c-10.052 0.295-20.097 1.013-30.156 0.993-10.909-0.022-21.824-0.866-32.73-0.765-12.661 0.118-41.781 4-52.213-0.357l0.491-1.066z"/>
  <path transform="scale(.64736 .64746)" d="m928.16 171.36q28.521-0.868 57.041 3e-3c-3.408 2.745-9.65 3.091-13.892 3.44-8.385 0.689-36.867 1.864-43.149-3.443z"/>
  <path transform="scale(.64736 .64746)" d="m1081.2 853.77c21.22-0.942 42.34-1.491 63.56-8e-3l0.66 1.187c-11.13 1.642-56.11 3.533-65.51-0.094l1.29-1.085z"/>
  <path transform="scale(.64736 .64746)" d="m1164.3 853.77c16.56-1.166 32.63-0.534 49.17-0.561 20.02-0.033 39.25-0.247 59.32 0.549-11.75 4.741-46.65 1.497-60.92 1.486-15.98-0.012-30.91 2.225-46.94-0.321l-0.63-1.153z"/>
  <path transform="scale(.64736 .64746)" d="m768.26 171.27c42.17-0.285 84.436-0.967 126.59 0.11-1.523 1.197-3.396 1.481-5.265 1.8-11.27 1.927-119.3 2.743-124.04-0.613l2.714-1.297z"/>
  <path transform="scale(.64736 .64746)" d="m862.84 853.73 110.5-0.138c30.294-0.185 60.584-0.847 90.874 0.179l1.77 0.716-0.32 0.646c-8.76 2.136-19.7 1.363-28.81 1.469-23.69 0.276-47.344-0.292-71.023-0.451-38.518-0.257-77.489 1.416-115.91-1.019 2.89-1.25 9.47-0.992 12.928-1.402z"/>
  <path transform="scale(.64736 .64746)" d="m360.75 196.08c4.783-0.4 10.017-0.624 14.608 0.979 3.303 1.154 8.159 3.841 9.403 7.334 0.714 2.007 0.471 3.816-0.723 5.575-2.511 3.701-8.53 4.695-12.566 5.583-4.363 0.122-8.847 0.32-13.099-0.841-3.609-0.985-8.721-3.79-10.295-7.326-0.857-1.925-0.69-3.648 0.36-5.457 2.063-3.551 8.65-4.994 12.312-5.847z"/>
  <path transform="scale(.64736 .64746)" d="m311.12 196.14c3.591-0.232 7.148-0.369 10.731 0.055 4.54 0.537 11.215 2.806 13.885 6.8 1.317 1.971 0.977 3.077 0.574 5.231-3.02 4.359-7.4 5.603-12.215 7.254-7.157 0.356-13.75 0.633-20.18-3.117-2.726-1.589-4.85-3.53-5.639-6.702-0.26-1.049 0.334-2.813 0.952-3.675 2.267-3.16 8.207-5.153 11.892-5.846z"/>
  <path transform="scale(.64736 .64746)" d="m261.25 196.02c5.459-0.285 10.944-0.678 16.182 1.218 3.174 1.15 7.696 3.374 9.077 6.65 0.646 1.532 0.646 2.874-0.09 4.405-1.92 3.993-8.296 5.693-12.107 6.974-7.208 0.8-14.897 0.725-21.42-2.821-2.308-1.254-5.167-3.32-5.792-5.999-0.364-1.559-0.162-2.687 0.757-4.024 2.558-3.719 9.241-5.51 13.393-6.403z"/>
  <path transform="scale(.64736 .64746)" d="m266.23 855.83c-0.131-18.842-0.284-37.876 0.027-56.707 0.132-7.958 0.884-15.929 0.849-23.883-0.061-13.86-1.069-27.645-0.767-41.538 0.38-17.503 1.823-34.988 2.343-52.498 0.08 6.977-0.067 14.015 1.155 20.908 0.994 50.527-0.274 101.01 0.355 151.53 14.913-0.206 29.792-0.433 44.699 0.144l-0.668 1.248c-15.805 3.811-32.244-1.123-47.993 0.796z"/>
  <path transform="scale(.64736 .64746)" d="m190.02 579.24 1.832 0.792c3.927 18.681 0.553 52.492 0.587 72.039l-0.214 91.167c1e-3 9.465 1.298 18.844 1.008 28.343-0.114 3.75-8e-3 10.56-2.048 13.616-0.547 0.82-0.466 0.691-1.027 1.341-2.394-14.633-0.902-28.84-0.609-43.53 0.162-8.122-0.649-16.253-0.688-24.376-0.037-7.928 0.745-15.812 0.826-23.73 0.072-7.062-0.538-14.124-0.535-21.185 4e-3 -8.003 0.765-15.991 0.741-23.99-0.027-8.905-0.85-17.804-0.91-26.715-0.1-14.572 0.589-29.205 1.037-43.772z"/>
  <path transform="scale(.64736 .64746)" d="m1482.4 386c4.52 11.135 1.3 41.504 1.23 54.215l-0.04 49.585c-0.06 14.426 3.36 83.213-0.93 92.269-0.1 0.21-0.21 0.414-0.32 0.622-5.49-12.859-1.4-71.841-1.38-89.585l-0.11-52.681c-0.16-17.311-3.59-37.674 1.55-54.425z"/>
  <path transform="scale(.64736 .64746)" d="m269.16 394.23c1.807 27.429 1.085 54.307 0.868 81.731l0.104 55.79 0.183 55.218c0.175 16.497 0.846 32.675-0.444 49.171-0.695 1.928-0.921 3.911-1.219 5.928-3.155-18.804-1.483-36.549-1.173-55.444 0.155-9.49-0.943-19.019-0.973-28.527-0.029-9.04 1.05-18.046 1.055-27.075 5e-3 -9.279-1.053-18.526-0.963-27.827 0.09-9.264 1.258-18.551 1.018-27.808-0.68-26.284-4.084-55.305 1.544-81.157z"/>
  <path transform="scale(.64736 .64746)" d="m189.96 256.23c2.755 3.573 2.579 9.519 2.77 13.885 0.433 9.902-0.833 19.714-0.69 29.582 0.124 8.619 1.198 17.209 1.26 25.834 0.07 9.879-1.042 19.688-1.157 29.547-0.113 9.786 1.146 19.598 1.265 29.395 0.136 11.301-0.861 22.57-0.865 33.861-6e-3 15.22-0.36 30.634-0.038 45.829 0.304 14.371 1.809 28.856-0.08 43.174-0.252 1.907-0.537 3.453-1.398 5.195l-0.965 0.345c-2.154-17.335-0.425-34.61-0.388-51.99l-0.055-102.66c0-11.385-0.959-22.784-1-34.183-0.033-9.182 0.88-18.394 0.711-27.55-0.256-13.838-1.618-26.457 0.63-40.263z"/>
  <path transform="scale(.64736 .64746)" d="m1071 171.38c43.57-1.181 87.35-0.308 130.93-0.08l130.42 0.014 75.9-0.095c11.16-0.048 23.28-1.318 34.33-5e-3 8.95 1.064 16.81 4.71 23.3 10.964 15.51 14.959 16.04 21.404 17.02 42.382 0.35 7.508 1.22 15.02 1.3 22.533 0.08 7.747-0.47 15.477-0.43 23.219 0.05 10.366 3.4 38.518-1.4 46.623-3.73-15.211-1.17-31.199-1.21-46.638-0.01-9.313-0.97-18.535-0.71-27.878 0.28-10.14 1.69-21.559-0.4-31.512-2.63-12.48-13.42-27.129-25.4-32.021-19.86-8.111-93.06-6.986-116.8-6.038-11.88 0.475-23.65 2.247-35.57 2.45-11.72 0.2-23.34-1.158-35.04-1.185-11.16-0.025-22.18 1.421-33.37 0.981-9.88-0.388-19.84-2.314-29.69-2.375-8.77-0.053-17.55 2.618-26.35 2.835-14.3 0.352-28.15-2.116-42.33-2.443-14.32-0.331-57.08 6.124-67.57-0.682l3.07-1.049z"/>
 </g>
 <path transform="scale(.64736 .64746)" d="m1055.8 209.99c15.71-1.528 32.75-0.164 48.57-0.114l91.06-0.085 125.74 0.249c19.78 0.045 40.55-1.387 60.2 0.135 2.92 0.226 4.42 0.484 6.34 2.689 0.09 0.73 0.25 1.599 0.09 2.338-0.55 2.57-1.7 3.112-3.76 4.38-7.62 1.896-326.49 0.302-327.14 0.052-2.26-0.871-2.61-1.692-3.53-3.736 0.04-2.587 0.96-3.896 2.43-5.908z" fill="#FEFEFE"/>
 <path transform="scale(.64736 .64746)" d="m269.12 354.78c-1.372-9.555-2.422-18.89-2.613-28.545-0.337-17.036 0.695-34.341 1.174-51.381 0.17-6.034 1.166-13.3 0.327-19.256-0.194-1.379-0.873-2.642-1.637-3.781l0.798-1.271c8.374 0.122 16.712 0.857 25.076 0.991 11.874 0.19 23.731-0.498 35.598-0.457 21.041 0.072 42.074 0.791 63.127 0.731 12.697-0.037 25.367-1.113 38.071-1.117 15.171-6e-3 30.347 0.851 45.515 0.771 12.13-0.064 24.248-0.914 36.38-0.912 10.095 2e-3 20.168 0.869 30.245 0.851 8.701-0.016 17.38-0.991 26.09-0.818 18.763 0.372 37.347 1.519 56.158 1.474 14.411-0.034 28.794-1.344 43.179-1.349l584.98 2.222c9.82 0.032 19.63-1.29 29.45-1.366 8.29-0.063 16.54 0.812 24.83 0.95 7.68 0.127 15.37-0.717 23.06-0.708 7.73 8e-3 15.44 0.948 23.17 0.977 9.81 0.037 19.67-1.101 29.49-1.252 10.47-0.16 20.89 0.63 31.34 0.821 1.37 2.184 1.26 4.096 1.34 6.594 0.53 16.964-0.48 33.75-0.49 50.679l-0.51 120.23 0.47 234.58 0.87 138.62c0.02 11.321 1.41 40.628-0.47 50.411-0.19 1.007-0.67 1.811-1.18 2.68-23.04 0.269-46.15-0.344-69.19-0.484-8.21-0.05-16.45 0.996-24.66 0.754-10.98-0.324-21.81-2.435-32.82-2.555-0.84-9e-3 -0.52-2e-3 -1.52-0.101 12.33 0.164 24.53-1.355 36.84-1.466 7.23-0.066 14.47 0.543 21.7 0.559l65.29-0.173c0.08-0.117 0.16-0.231 0.23-0.351 0.96-1.594 1.07-3.184 1.14-4.986 0.66-16.205 0.09-32.693 0.09-48.927l-0.05-89.589 0.04-203.98c0.07-15.538 1.28-31.084 1.43-46.639 0.21-21.455-1.04-42.803-1.07-64.21-0.05-35.107 0.9-70.052 0.1-105.19-0.22-9.311 2.01-24.698-0.25-32.92-19.23 0.881-38.19-0.07-57.38-0.16l-103.14-0.301-338.25-0.301-80.442-0.322c-16.979-0.233-33.889-1.003-50.879-0.8-11.658 1.749-23.39-0.085-35.084 0.101-40.324 0.639-80.532-0.075-120.85-0.264l-354.17 0.199c0.107 22.482 0.845 45.163 0.524 67.617-0.158 11.049-1.403 22.112-1.454 33.133z" fill="#2E231E"/>
 <path transform="scale(.64736 .64746)" d="m270.05 254.02 354.17-0.199c40.322 0.189 80.53 0.903 120.85 0.264 11.694-0.186 23.426 1.648 35.084-0.101-0.335 0.438-1.164 1.259-1.331 1.736-1.184 3.39 0.148 54.226-0.131 63.782l-338.07 0.863 4.426 438.7c90.239-0.031 180.63 1.049 270.85-0.082q31.366-0.019 62.726-0.676c-0.116 8.164-0.157 93.7 0.649 94.844l8.666 0.593c-8.05 1.033-16.825 0.092-24.942-0.088q-17.085-0.338-34.171-0.08l-179.81 0.133q-20.032-0.406-40.063 0.041l-9.194 0.014q-17.578-0.722-35.157-0.021c-14.839 0.821-30.034 0.941-44.871 0.086q-18.979-1.168-37.961-0.044l-11.313-9e-3c-15.16-0.839-29.941-0.861-45.098-2e-3l-10.48 3e-3c-14.907-0.577-29.786-0.35-44.699-0.144-0.629-50.523 0.639-101-0.355-151.53 1.142-21.729-0.012-44.179 0.029-65.972 1.29-16.496 0.619-32.674 0.444-49.171l-0.183-55.218-0.104-55.79c0.217-27.424 0.939-54.302-0.868-81.731 1.783-8.26 1.135-30.7-0.032-39.451 0.051-11.021 1.296-22.084 1.454-33.133 0.321-22.454-0.417-45.135-0.524-67.617z" fill="#6E96AC"/>
 <path transform="scale(.64736 .64746)" d="m778.7 319.51 65.105-0.303c0.047 26.162-0.65 52.56 0.295 78.692q0.563 30.1 0.499 60.205l0.118 19.897c0.066 23.081-0.272 46.251 0.303 69.32 0.926 14.645 0.404 29.58 0.417 44.26l0.201 75.652 0.063 17.228c0.091 24.602-0.263 49.307 0.43 73.894l-67.499-0.04q-31.36 0.657-62.726 0.676c-90.223 1.131-180.61 0.051-270.85 0.082l-4.426-438.7 338.07-0.863z" fill="#393649"/>
 <path transform="scale(.64736 .64746)" d="m592.2 411.2c6.096 6.131 55.36 106.32 62.324 121.34l-62.045 0.125q-30.421-0.11-60.837 0.44c8.407-14.586 15.222-30.173 22.527-45.342 12.35-25.647 24.752-51.384 38.031-76.562z" fill="#2E231E"/>
 <path transform="scale(.64736 .64746)" d="m594.43 419.82c6.708 7.918 14.767 27.207 19.735 37.093 12.236 24.352 24.79 48.632 36.479 73.248l-56.258 0.189 0.044-110.53z" fill="#D64258"/>
 <path transform="scale(.64736 .64746)" d="m591.42 417.2c1.823 9.349 0.224 21.7 0.198 31.36l-0.417 81.949-54.536 0.283c-0.568-4.113 50.263-104.67 54.755-113.59z" fill="#D64258"/>
 <path transform="scale(.64736 .64746)" d="m592.74 601.26c6.368 9.003 10.974 21.291 15.908 31.224 15.206 30.619 28.988 62.411 45.751 92.195-19.701-0.489-39.44-0.104-59.143 0.169l-64.062 0.106c15.38-29.379 28.991-59.762 43.805-89.446 5.625-11.272 10.865-23.723 17.741-34.248z" fill="#2E231E"/>
 <path transform="scale(.64736 .64746)" d="m591.22 608.86c2.407 10.58-0.615 26.516 1.088 38.473l0.606 0.261c4.753-9.614 1.913-27.118 1.552-37.717 20.632 36.193 36.729 75.452 55.926 112.48l-51.955 0.243-1.06-0.042c-4.487-3.546-0.268-22.987-3.107-29.816l-0.588-0.057c-0.42 0.756-0.683 1.261-0.799 2.137-0.029 0.213-0.037 0.428-0.055 0.642l-1.059-0.936 1.014 1.279c-1.13 8.749-0.773 18.089-0.9 26.906-19.056 0.453-38.183 0.299-57.247 0.463l37.458-76.701c6.16-12.505 11.882-25.71 19.126-37.616z" fill="#D64258"/>
 <g fill="#AC5DA1">
  <path transform="scale(.64736 .64746)" d="m715.92 397.88 128.18 0.011q0.563 30.1 0.499 60.205l-128.7 0.221 0.023-60.437z"/>
  <path transform="scale(.64736 .64746)" d="m845.02 547.32c0.926 14.645 0.404 29.58 0.417 44.26l0.201 75.652-129.75 0.231-0.038-64.008 129.12 0.294c-0.087-18.794-0.462-37.642 0.049-56.429z"/>
  <path transform="scale(.64736 .64746)" d="m715.92 477.94 128.8 0.053c0.066 23.081-0.272 46.251 0.303 69.32l-129.09 0.507-0.011-69.88z"/>
  <path transform="scale(.64736 .64746)" d="m845.7 684.46c0.091 24.602-0.263 49.307 0.43 73.894l-67.499-0.04q-31.36 0.657-62.726 0.676l9e-3 -74.568q64.894 0.376 129.79 0.038z"/>
 </g>
 <path transform="scale(.64736 .64746)" d="m780.16 253.99c16.99-0.203 33.9 0.567 50.879 0.8l80.442 0.322 338.25 0.301 103.14 0.301c19.19 0.09 38.15 1.041 57.38 0.16 2.26 8.222 0.03 23.609 0.25 32.92 0.8 35.137-0.15 70.082-0.1 105.19 0.03 21.407 1.28 42.755 1.07 64.21-0.15 15.555-1.36 31.101-1.43 46.639l-0.04 203.98 0.05 89.589c0 16.234 0.57 32.722-0.09 48.927-0.07 1.802-0.18 3.392-1.14 4.986-0.07 0.12-0.15 0.234-0.23 0.351l-65.29 0.173c-7.23-0.016-14.47-0.625-21.7-0.559-12.31 0.111-24.51 1.63-36.84 1.466-3.89-0.511-8.06-0.103-11.97 6e-3 -20.07-0.796-39.3-0.582-59.32-0.549-16.54 0.027-32.61-0.605-49.17 0.561-6.46-0.386-13.06-0.072-19.53-6e-3 -21.22-1.483-42.34-0.934-63.56 8e-3 -5.44-0.586-11.51-0.045-17.01-1e-3 -30.29-1.026-60.58-0.364-90.874-0.179l-110.5 0.138c-24.949-0.426-49.935 0.172-74.891 0.023l-8.666-0.593c-0.806-1.144-0.765-86.68-0.649-94.844l67.499 0.04c-0.693-24.587-0.339-49.292-0.43-73.894l-0.063-17.228-0.201-75.652c-0.013-14.68 0.509-29.615-0.417-44.26-0.575-23.069-0.237-46.239-0.303-69.32l-0.118-19.897q0.064-30.105-0.499-60.205c-0.945-26.132-0.248-52.53-0.295-78.692l-65.105 0.303c0.279-9.556-1.053-60.392 0.131-63.782 0.167-0.477 0.996-1.298 1.331-1.736z" fill="#C6C8C5"/>
 <path transform="scale(.64736 .64746)" d="m890.1 319.96c10.311-0.341 20.725-1.057 31.032-1.01 9.689 0.044 19.376 0.71 29.066 0.534l175.73-1.828c12.91-0.015 25.81-1.237 38.72-1.414 25.91-0.355 51.81 0.308 77.7 0.671 3.31 10.649 2.9 26.124 1.82 37.155-0.28 2.816-0.16 3.667-2.36 5.499 0.69-2.329-0.31-39.074-1.5-41.736-15.48 3.343-33.19 1.786-48.97 1.696-10.25-0.059-20.5 0.823-30.76 0.814-11.49-9e-3 -23.01-0.903-34.5-0.78-20.47 0.218-40.97 1.35-61.44 1.705-13.3 0.231-26.62-0.272-39.93-0.049-15.31 0.257-30.608 1.278-45.928 1.308-9.29 0.018-18.571-0.64-27.86-0.62-10.171 0.021-20.325 1.083-30.492 1.274-9.351 0.176-18.819-0.609-28.157-1.136l1.124 19.438c-0.05 6.482 1.921 24.158-1.909 28.866-3.581-15.891-1.939-34.158-1.386-50.387z" fill="#2E231E"/>
 <path transform="scale(.64736 .64746)" d="m892.27 322.04c9.338 0.527 18.806 1.312 28.157 1.136 10.167-0.191 20.321-1.253 30.492-1.274 9.289-0.02 18.57 0.638 27.86 0.62 15.32-0.03 30.618-1.051 45.928-1.308 13.31-0.223 26.63 0.28 39.93 0.049 20.47-0.355 40.97-1.487 61.44-1.705 11.49-0.123 23.01 0.771 34.5 0.78 10.26 9e-3 20.51-0.873 30.76-0.814 15.78 0.09 33.49 1.647 48.97-1.696 1.19 2.662 2.19 39.407 1.5 41.736l0.97 3.346-1.39 2.505c-9.82 0.149-19.63 0.929-29.45 0.987-9.7 0.057-19.4-0.636-29.09-0.443-10.8 0.214-21.6 1.019-32.39 1.105-22.68 0.18-44.98-0.744-67.67 1.063-5.23-0.857-11.75 8e-3 -17.1 0.129l-36.98 0.777-134.7 0.721c0.169-9.356 0.745-18.993-0.617-28.276l-1.124-19.438z" fill="#FDCFB1"/>
 <path transform="scale(.64736 .64746)" d="m1061.8 326.58 2.64 0.4c1.09 2.51 0.97 5.263 1.07 7.959 0.17 4.915 1.22 20.996-1.85 24.301l-0.94-0.344c-2.26-5.454-0.9-25.422-0.92-32.316z" fill="#2E231E"/>
 <path transform="scale(.64736 .64746)" d="m1010.7 327.15c1.13 0.34 1.99 0.881 2.99 1.492 1.12 2.935 0.07 4.473-0.25 7.31-0.24 2.093-0.19 2.638 1.06 4.293l0.83-0.319c3.08-1.186 6.64-2.839 9.86-1.395 1.05 0.995 1.74 1.968 2.1 3.395 0.96 3.856 1.29 14.094-0.71 17.415l-1.26 0.274c-1.61-3.071-1-9.352-1.41-12.986 0.22-0.45 0.33-0.595 0.39-1.154 0.23-2.03-0.64-2.662-1.96-3.923-2.11-0.461-3.29-0.429-5.33 0.358-5.26 2.029-2.23 12.914-4.11 17.253l-1.57 0.258c-1.98-2.917-0.79-27.382-0.63-32.271z" fill="#2E231E"/>
 <path transform="scale(.64736 .64746)" d="m1223.2 584.84 22.03-0.317c0.47 0.768 0.78 1.557 1.01 2.422 1.82 6.872 0.53 25.288 0.66 33.146q0.7 42.823 0.74 85.651c0.11 14.52 0.87 29.212 0.5 43.703-0.03 1.369-0.47 2.415-1.16 3.589-9.39 1.475-20.92 0.443-30.54 0.538l-74.45 0.307-224.23 1.156c-6.746 1e-3 -13.509 0.245-20.254 0.379 0.189-56.134-1.646-112.3-1.895-168.45l327.59-2.125z" fill="#AC5DA1"/>
 <g fill="#E990AD">
  <path transform="scale(.64736 .64746)" d="m987.73 615.48c4.305-0.11 17.19-1.524 20.19 1.144 0.15 1.636 0.2 2.787-0.3 4.363-5.93 3.779-43.94 2.275-53.657 2.329-5.751 0.025-16.465 1.769-21.511-0.24-0.76-1.049-1.001-1.516-1.07-2.848-0.093-1.805-0.189-2.645 1.082-4.009 18.187-1.526 36.957-0.215 55.266-0.739z"/>
  <path transform="scale(.64736 .64746)" d="m1005.1 672.57c1.38-0.113 2.92-0.349 4.28-0.057 1.73 0.372 1.78 1.114 2.59 2.517-0.08 2.276 0.1 2.722-1.35 4.574-22.144 2.019-48.617 0.753-71.312 1.002-2.424 0.096-4.87 0.406-7.188-0.424-0.856-2.136-0.416-3.977-0.098-6.18 3.185-2.308 64.589-1.311 73.078-1.432z"/>
  <path transform="scale(.64736 .64746)" d="m1006 642.76c23.76-0.756 47.64-0.608 71.41-0.488 7.59 0.038 15.4-0.873 22.92-0.469 2.28 0.122 4.07 0.507 6.13 1.539 1.43 2.145 1.23 2.569 1.08 5.186-2.99 2.112-66.4 1.323-74.84 1.394-19.17 0.115-38.355 0.024-57.521 0.388-13.388 0.255-27.443 1.375-40.785 0.283-1.768-0.145-1.95 0.046-3.086-1.299-0.116-2.047-0.416-2.734 0.708-4.501 8.6-3.866 60.999-1.88 73.984-2.033z"/>
 </g>
 <path transform="scale(.64736 .64746)" d="m893.4 341.48c1.362 9.283 0.786 18.92 0.617 28.276l134.7-0.721 36.98-0.777c5.35-0.121 11.87-0.986 17.1-0.129 22.69-1.807 44.99-0.883 67.67-1.063 10.79-0.086 21.59-0.891 32.39-1.105 9.69-0.193 19.39 0.5 29.09 0.443 9.82-0.058 19.63-0.838 29.45-0.987l3.48 1.278 0.22 0.98-2 1.187c0.03 0.143 0.07 0.285 0.11 0.428 2.27 9.875 1.04 36.492 1.19 48.376l0.68 74.348c0.1 13.19 0.79 26.711 0.16 39.87-0.1 2.044-0.44 3.444-1.52 5.21l-349.67 2.312c1e-3 -56.333-1.781-112.73-2.55-169.06 3.83-4.708 1.859-22.384 1.909-28.866z" fill="#AC5DA1"/>
 <path transform="scale(.64736 .64746)" d="m1241.4 365.42 3.48 1.278 0.22 0.98-2 1.187c-8.94 2.446-21.79 0.366-31.19 0.474-20.3 0.235-40.63-0.014-60.92 0.305-22.55 0.355-45.81 2.085-68.19-1.512 22.69-1.807 44.99-0.883 67.67-1.063 10.79-0.086 21.59-0.891 32.39-1.105 9.69-0.193 19.39 0.5 29.09 0.443 9.82-0.058 19.63-0.838 29.45-0.987z" fill="#2E231E"/>
 <path transform="scale(.64736 .64746)" d="m929.61 480.87q22.701 0.107 45.401-0.115c9.871-0.098 19.997-0.671 29.831 0.112 1.32 2.303 0.84 4.747 0.65 7.301-24.846-0.096-50.483 2.123-75.191 0.465-1.34-1.789-0.738-5.561-0.691-7.763z" fill="#FDCFB1"/>
 <path transform="scale(.64736 .64746)" d="m1061 428.94c14.76-0.207 30.31-1.423 44.97-0.094l0.85 1.362c-0.04 2.467 0.4 4.121-1.16 6.114-14.04 1.401-29.11 0.474-43.25 0.532q-43.18-0.023-86.347 0.754c-6.491 0.046-41.505 1.441-44.737 0.158-0.489-0.194-1.217-0.943-1.662-1.287-0.584-1.694-1.047-2.728-0.457-4.473 2.359-1.186 4.686-1.562 7.293-1.757 13.65-1.024 27.981-0.268 41.712-0.387l82.788-0.922z" fill="#E990AD"/>
</svg>
