<?xml version="1.0" encoding="UTF-8"?>
<svg version="1.1" viewBox="0 0 1129 663" xmlns="http://www.w3.org/2000/svg">
 <path transform="scale(.64736 .64746)" d="m0 0h1742.5c0.86 1.4396 1.27 2.6157 1.38 4.2848 1.51 22.228 0.11 45.605 0.12 67.945l0.01 137.66v530.85l-0.02 124.05c0 9.481 1.46 36.365-0.36 43.574-0.22 0.851-0.64 1.652-1.1 2.398 0.76 1.199 1.2 2.295 1.32 3.709 1.44 16.511 0.2 34.167 0.19 50.778-0.02 19.091 1.12 38.972-0.22 57.972l-0.03 0.78h-1743.8v-0.92-114.65-908.43z" fill="#E8CFC4"/>
 <path transform="scale(.64736 .64746)" d="m1544.6 104.7c0.35-1.201 0.84-2.321 1.33-3.473l1.7-0.569c4.03 3.223 9.7 16.717 10.7 22.049 0.18 0.967 0.01 1.61-0.2 2.551l0.32 2.172c-1.79 0.981-2.26 0.598-4.21 0.217 0.38-4.827-6.66-18.968-9.64-22.947z" fill="#1D1819"/>
 <defs>
  <linearGradient id="gradient_0" x1="1518.6" x2="1504.3" y1="175.47" y2="170.93" gradientUnits="userSpaceOnUse">
   <stop stop-color="#110200" offset="0"/>
   <stop stop-color="#260304" offset="1"/>
  </linearGradient>
 </defs>
 <path transform="scale(.64736 .64746)" d="m1477.6 247.92c5.06-7.964 8.59-19.061 12.29-27.796l33.82-79.895c5.22-12.382 9.46-25.356 15.49-37.375 1.28-2.552 2.47-4.9526 4.89-6.6042 2.15 0.1285 2.11 0.4368 3.56 1.9178l-0.03 2.4924-1.7 0.569c-0.49 1.152-0.98 2.272-1.33 3.473l-1.08-4e-3c-9.57 19.39-54.22 136.48-61.73 143.64l-0.29 0.285-0.78 0.372 1.61-3.111-0.95-1.178c-0.54 0.995-1.13 1.957-1.72 2.925l-2.05 0.29z" fill="url(#gradient_0)"/>
 <path transform="scale(.64736 .64746)" d="m788.32 746.39c1.522-1.219 2.905-0.961 4.79-1.054 14.558 0.323 98.976-1.275 105.36 0.984l5.064-0.408q12.995 38.91 25.594 77.95l65.084-0.077c11.336-0.01 24.236-1.236 35.326 0.884 6.36 1.215 12.21 3.786 16.88 8.343 5.69 5.555 10.41 16.767 10.43 24.745 0.01 2.001-0.34 4.687-1.95 6.08-0.93 0.809-2.13 0.617-3.32 0.689-28.82 1.756-58.348 0.437-87.251 0.439l-165.36-0.013-111.65-0.012c-17.465-1e-3 -36.569 1.604-53.827-0.425l-0.931-0.116c-2.036-3.993 0.125-10.024 1.424-14.097 3.001-9.407 10.843-18.176 19.604-22.599 4.261-2.152 9.03-3.038 13.75-3.475 11.528-1.066 23.644-0.358 35.254-0.353l66.652-0.03c3.564-15.939 7.867-31.721 11.815-47.569 2.473-9.927 4.477-20.048 7.257-29.886z" fill="#210703"/>
 <path transform="scale(.64736 .64746)" d="m793.11 745.33c14.558 0.323 98.976-1.275 105.36 0.984 2.51 7.102 5.344 14.237 7.402 21.479 6.655 18.51 12.499 37.355 18.618 56.05l-150.8-0.017c5.172-18.555 9.45-37.437 14.089-56.136 2.096-7.315 3.571-14.948 5.332-22.36z" fill="#B2B7C5"/>
 <path transform="scale(.64736 .64746)" d="m793.11 745.33c14.558 0.323 98.976-1.275 105.36 0.984 2.51 7.102 5.344 14.237 7.402 21.479-39.351 0.381-78.742-0.011-118.1-0.103 2.096-7.315 3.571-14.948 5.332-22.36z" fill="#7E7E91"/>
 <path transform="scale(.64736 .64746)" d="m812.07 828.48 139.63 0.329c24.334 0.039 49.488-1.219 73.738 0.343 3.4 0.219 6.37 0.673 9.43 2.197 6.79 3.387 13.16 9.641 15.52 16.994 1.13 3.511 1.63 8.084-0.09 11.452-18.15 0.505-36.45 0.031-54.623 0.077l-116.65 0.256-152.44-0.166c-30.192 0.054-60.639 1.051-90.802 0.045 2.155-7.869 5.193-15.512 10.96-21.463 4.417-4.558 9.663-7.544 15.89-8.741 15.487-2.978 35.433-1.166 51.371-1.161l98.071-0.162z" fill="#B2B7C5"/>
 <path transform="scale(.64736 .64746)" d="m1309.3 249.62c0.13-0.138 0.27-0.271 0.39-0.414 4.24-4.904 12.03-32.598 14.73-40.321q18.29-52.487 38.85-104.13c4.44-11.158 8.05-24.004 13.64-34.522 1.28-2.4033 2.67-4.7083 5.38-5.5999 2.46 0.8538 3.17 2.714 4.31 4.9918 6.52 12.935 72.6 177.74 72.53 180.07 5.58 0.129 11.98 0.915 17.44-0.206l1.06-1.569 2.05-0.29c0.59-0.968 1.18-1.93 1.72-2.925l0.95 1.178-1.61 3.111 0.78-0.372 0.29-0.285c7.51-7.161 52.16-124.25 61.73-143.64l1.08 4e-3c2.98 3.979 10.02 18.12 9.64 22.947 1.95 0.381 2.42 0.764 4.21-0.217l-0.32-2.172c1.32 0.955 2.09 1.851 2.8 3.303 5.77 11.868 49.24 114.85 49.81 120.09 0.04 0.419-0.03 1.092-0.05 1.475 10.05 0.054 21.52-0.861 31.42 0.383 2.69 4.143 2.33 30.646 1.16 36.128-0.23 1.098-0.73 2.111-1.33 3.048-74.8 1.022-149.71 0.066-224.53 0.129l-74.37 0.218c-14.62 0.054-29.69 0.859-44.23-0.577-5.66-8.667 1.71-29.166-2.83-39.084l13.3-0.755z" fill="#261615"/>
 <path transform="scale(.64736 .64746)" d="m1380.1 70.145c0.3 0.2867 0.6 0.5745 0.88 0.8793 3.82 4.1484 21.96 47.615 21.77 52.362-4.56 5.407-7.3 11.844-8.14 18.864l-3.62-0.972c-7.56-1.242-15.8 1.213-22.66 0.086-4.91-3.085-5.98-10.906-7.65-16.056 2.6-11.452 21.18-47.435 19.42-55.164z" fill="#F3F5F6"/>
 <path transform="scale(.64736 .64746)" d="m1360.7 125.31c2.53 0.694 3.39 1.097 4.71 3.554 1.18 2.204 2.19 5.761 1.41 8.173 6.95-0.207 19.69-2.047 25.76 1.005l0.26 1.343-1.83 1.895c-7.56-1.242-15.8 1.213-22.66 0.086-4.91-3.085-5.98-10.906-7.65-16.056z" fill="#210703"/>
 <path transform="scale(.64736 .64746)" d="m1381.1 173.36 2.05 0.853c4.03 7.463 30.63 71.418 30.44 75.459l-27.45 0.035-31.91 0.128c2.36-3.025 26.36-72.309 26.87-76.475z" fill="#E8CFC4"/>
 <path transform="scale(.64736 .64746)" d="m1404.8 146.38 2.08-2.033c1.33-2.858 0.73-5.913 0.44-8.95 3.41 3.496 45.75 109.92 45.65 113-0.02 0.778-0.01 0.595-0.12 1.218l-33.91 0.02c0.1-4.618-32.37-82.112-35.12-84.937-0.19-0.196-0.39-0.386-0.59-0.578 2.34-2.427 7.79-12.934 7.52-16.321-0.01-0.163-0.06-0.319-0.1-0.479 4.11 0.076 9.91 0.924 13.73-0.517l0.42-0.42z" fill="#D63936"/>
 <path transform="scale(.64736 .64746)" d="m1357 134.17c0.58 0.72 0.58 0.506 0.72 1.221 0.69 3.479 1.69 6.806 2.7 10.204 4.3 3.566 19.36 1.731 25.21 1.615 0.03 0.172 0.09 0.341 0.1 0.516 0.06 1.141-35.66 100.68-35.84 100.89-1.08 1.254-3.85 0.881-5.45 0.928l-29.95-0.087c0.91-0.901 1.74-1.862 2.27-3.033 5.15-11.327 8.83-26.268 13.12-38.249 8.84-24.709 18.54-49.225 27.12-74.001z" fill="#F55F46"/>
 <path transform="scale(.64736 .64746)" d="m1481.5 248.62 0.29-0.285c7.51-7.161 52.16-124.25 61.73-143.64l1.08 4e-3c2.98 3.979 10.02 18.12 9.64 22.947 4.15 5.143 50.96 117.18 50.48 120.85-0.07 0.538-0.13 0.699-0.27 1.28l-79.15 0.134c-13.17 0.056-27.18 1.214-40.24 0.108-1.4-0.119-2.45-0.52-3.56-1.396z" fill="#F3F5F6"/>
 <path transform="scale(.64736 .64746)" d="m1301.5 255.15c10.63-1.345 22.37-0.448 33.11-0.351q29.88 0.377 59.76 0.417l242.66 0.098c0.06 0.134 0.13 0.27 0.2 0.403 0.48 0.921 0.91 1.818 1.05 2.859 0.76 5.542 1.79 21.659-1.41 26.242-6.39 1.931-22.16 0.279-29.85 0.261l-85.13-0.269c-73.73-0.354-147.52 0.963-221.25-0.056 3.2-5.283 1.85-23.46 0.86-29.604z" fill="#759D6E"/>
 <path transform="scale(.64736 .64746)" d="m788.32 746.39c-5.158-2.917-46.408-1.212-54.41-1.204l-173.69 0.07-55.453-0.021c-10.46-6e-3 -21.183 0.442-31.604-0.371-4.145-0.323-7.334-1.035-10.872-3.243-6.637-4.141-10.117-9.764-11.872-17.282-3.5-14.995-1.381-38.308-1.387-54.201l-0.136-99.976-0.125-224.67c-0.016-37.033-1.568-74.637-0.043-111.6 0.225-5.456 1.111-9.701 4.114-14.329 3.449-5.316 8.807-8.83 14.994-10.052 8.176-1.615 17.874-0.698 26.225-0.645l46.078 0.345 158.2 0.236 340.84-0.186q62.14-0.214 124.28 0.204c20.63 0.014 42.25-1.516 62.78 0.075 2.98 0.231 5.83 1.347 8.26 3.063 5.46 3.844 9.56 9.774 10.62 16.418 2.51 15.75 0.65 41.745 0.59 58.374l-0.08 117.07-0.2 209.92c0.02 35.158 1.62 71.851-0.01 106.84-0.26 5.665-1.33 10.348-4.73 15.014-3.31 4.544-7.76 7.475-13.29 8.489-13.25 2.426-46.42 0.55-61.42 0.614l-184.21 0.016-49.9-0.126c-8.899-0.022-18.94-0.806-27.716 0.574-0.208 0.033-0.415 0.072-0.622 0.108l-5.064 0.408c-6.386-2.259-90.804-0.661-105.36-0.984-1.885 0.093-3.268-0.165-4.79 1.054z" fill="#261615"/>
 <path transform="scale(.64736 .64746)" d="m910.33 529.36 57.773 0.027c-5e-3 43.435 0.425 87.044-0.425 130.46-19.056-0.587-38.37-0.327-57.419 0.306l0.071-130.79z" fill="#D63936"/>
 <path transform="scale(.64736 .64746)" d="m919.15 553.79c6.592-0.094 35.65-1.75 40.249 0.778 1.598 0.878 1.499 2.583 1.853 4.211-6.24 0.03-37.332 1.515-40.969-1.174-1.095-0.809-0.944-2.509-1.133-3.815z" fill="#1D1819"/>
 <path transform="scale(.64736 .64746)" d="m919.4 567.45c12.954-0.062 27.103-1.328 39.885 0.263 1.691 1.738 1.403 2.337 1.581 4.689-12.83 0.592-27.241 1.112-39.984-0.113-1.636-1.463-1.311-2.757-1.482-4.839z" fill="#1D1819"/>
 <path transform="scale(.64736 .64746)" d="m714.68 529.05 58.87-0.049-0.309 131.05q-29.393-0.123-58.785 0.088l0.224-131.09z" fill="#D63936"/>
 <path transform="scale(.64736 .64746)" d="m722.24 567.61c6.441-0.808 35.676-1.978 40.509 0.345 1.331 0.639 1.35 1.943 1.796 3.284-4.773 1.147-36.593 1.998-40.408-0.071-1.316-0.714-1.423-2.192-1.897-3.558z" fill="#1D1819"/>
 <path transform="scale(.64736 .64746)" d="m721.89 552.83c6.569-0.293 38.674-1.758 42.489 1.488l0.084 2.945c-6.837 0.032-39.187 1.544-42.728-1.616l0.155-2.817z" fill="#1D1819"/>
 <path transform="scale(.64736 .64746)" d="m972.95 529.37 57.998-0.199c0.91 1.533 1.23 2.909 1.33 4.665 0.97 17.208-0.06 35.067-0.09 52.336-0.05 22.471 0.66 45.236-0.18 67.681-0.11 2.957-0.19 3.854-2.39 5.862l-56.872 6e-3 0.204-130.35z" fill="#34698E"/>
 <path transform="scale(.64736 .64746)" d="m981.92 554.73c6.235-0.322 36.944-1.891 40.644 0.745 1.08 0.764 0.87 2.263 1.02 3.521-7.86 0.091-36.399 1.967-41.287-1.323l-0.377-2.943z" fill="#261615"/>
 <path transform="scale(.64736 .64746)" d="m982.29 569.2c13.017-0.751 27.28-1.373 40.23-0.054 1.33 1.619 0.84 2.423 0.66 4.457-6 0.233-36.488 1.541-39.795-1.04-0.983-0.768-0.89-2.173-1.095-3.363z" fill="#261615"/>
 <path transform="scale(.64736 .64746)" d="m778.3 529.08 59.29 0.028q0.687 65.461 0.019 130.92c-19.944-0.251-39.927-6e-3 -59.874 7e-3q-0.121-65.483 0.565-130.96z" fill="#34698E"/>
 <path transform="scale(.64736 .64746)" d="m786.71 553.89c6.607-0.531 37.197-1.847 41.519 0.588 1.273 0.717 1.231 2.118 1.586 3.472-7.491 0.725-37.952 1.891-42.566-1.196l-0.539-2.864z" fill="#261615"/>
 <path transform="scale(.64736 .64746)" d="m791.5 567.81c6.724-0.017 33.178-2.16 37.609 1.885l-0.356 1.176c-1.989 1.381-2.625 1.384-5.074 1.585-11.55 0.098-23.778 0.967-35.231-0.306-1.507-0.969-1.698-0.875-2.196-2.688 1.781-1.489 2.972-1.537 5.248-1.652z" fill="#261615"/>
 <path transform="scale(.64736 .64746)" d="m842.65 529.11 62.996 0.167c0.812 43.472 0.62 87.313-0.109 130.79q-31.512-0.189-63.025-0.043l0.138-130.92z" fill="#34698E"/>
 <path transform="scale(.64736 .64746)" d="m852.87 553.96c13.007-0.165 26.818-1.261 39.749-0.202 2.101 0.173 2.6-0.024 4.026 1.679l-0.321 3.182c-7.238 0-40.049 1.464-43.793-2.002l0.339-2.657z" fill="#261615"/>
 <path transform="scale(.64736 .64746)" d="m853.43 568.6c7.388-0.102 38.899-2.279 43.64 1.628l0.059 2.939c-9.884 0.133-33.347 1.969-41.682-0.213-1.829-0.479-1.948-0.506-2.865-2.142l0.848-2.212z" fill="#261615"/>
 <path transform="scale(.64736 .64746)" d="m473.61 224.3c48.692-1.384 97.792 0.273 146.53 0.295l330.71 0.341 192.06 0.16 47.17 0.188c12.74-0.056 25.65-0.714 38.31 0.861 0.78 0.675 1.03 1.134 1.36 2.116 3.78 11.356 1.85 61.172 1.88 75.294l0.02 160.37 0.04 126.13c0 21.391 0.65 43.016-0.09 64.382-0.08 2.195-0.33 3.781-1.38 5.738l-13.08-0.071c0.52-0.78 0.88-1.545 1.11-2.463 0.6-2.378 1.05-406.58 0.02-410.19-0.22-0.749-1.08-1.831-1.49-2.538-0.01-1.713-0.06-1.889-1-3.32-8.02-2.252-40.06-0.611-51.24-0.568l-105.26 0.105-579.47-0.239c-1.981 44.019 0.331 88.694 0.478 132.78l0.776 285.96-17.042-7e-3c0.833-141.71-1.87-283.48 0.11-425.17 2.576-4.624 4.873-7.454 9.481-10.167z" fill="#34698E"/>
 <path transform="scale(.64736 .64746)" d="m464.2 664.62 238.85 0.167 527.04 3e-3c3 5.955 1.92 43.002 1.44 51.306-0.26 4.452-0.61 6.294-3.99 9.31-0.04 0.11-0.06 0.233-0.13 0.33-1.68 2.441-4.88 2.675-7.58 2.837-19.27 1.157-39.06 0.106-58.38 0.166l-119.48 0.357-377.03 0.02-144.42 0.023c-9.756 0.015-39.537 1.777-46.75-1e-3 -2.026-0.5-3.911-1.44-5.417-2.901-2.159-2.096-3.25-5.274-3.779-8.179-2.173-11.943-0.439-39.875-0.371-53.438z" fill="#B2B7C5"/>
 <path transform="scale(.64736 .64746)" d="m845.8 684.02c1.547-0.042 3.099-0.052 4.611 0.321 3.781 0.934 7.344 3.506 9.341 6.859 2.232 3.75 2.551 8.168 1.356 12.318-1.505 5.224-4.898 7.75-9.503 10.198-1.801 0.038-3.645 0.071-5.402-0.375-3.8-0.967-7.218-3.261-9.179-6.714-2.068-3.64-2.336-7.951-1.157-11.929 1.63-5.496 5.093-8.035 9.933-10.678z" fill="#261615"/>
 <path transform="scale(.64736 .64746)" d="m845.63 689.09c0.356-3e-3 0.713-7e-3 1.069 6e-3 3.284 0.119 6.387 1.165 8.543 3.766 1.587 1.915 2.272 4.134 2.048 6.607-0.409 4.529-2.774 6.735-6.098 9.346-0.155 0.012-0.31 0.026-0.464 0.035-3.233 0.191-6.002-0.494-8.369-2.841-1.931-1.916-2.619-4.464-2.473-7.125 0.252-4.603 2.571-6.893 5.744-9.794z" fill="#F3F5F6"/>
 <path transform="scale(.64736 .64746)" d="m483.56 245.04c73.135 1.351 146.45 0.222 219.6 0.202l508.96 0.316c0.39 0.646 0.76 1.239 0.97 1.969 1.83 6.174 0.6 61.746 0.62 72.338l0.33 240.24c0.02 12.752 1.92 93.683-1.32 99.651-45.76-0.834-91.64 6e-3 -137.41 0.109l-40.04-0.029c0.32-0.497 0.57-0.912 0.74-1.482 1.44-4.768 1.53-117.46 0.8-129.59-0.1-1.634-0.47-2.891-1.21-4.359-11.41-0.943-23.72 0.018-35.22 0.038l-69.149-0.14c-73.638-0.193-147.35-0.818-220.98 0.124l-0.076 135.52-224.94-0.027-1.677-414.88z" fill="#C0D7D9"/>
 <path transform="scale(.64736 .64746)" d="m530.33 298.57c43.367-0.296 86.842-0.813 130.2-0.093 1.296 21.901 0.278 44.466 0.287 66.444 0.014 33.959 0.549 68.016-0.105 101.96l-1.512 1.18q-64.98 0.293-129.96-0.253l0.157-109.38c-0.057-18.409-1.146-37.145-0.331-55.515 0.081-1.82 0.214-2.818 1.261-4.349z" fill="#1D1819"/>
 <path transform="scale(.64736 .64746)" d="m533.78 302.77c40.737-1.179 81.981-0.681 122.74 9e-3 0.018 15.214 1.64 156.35-1 160.75l-122.35 0.175 0.366-109.4c-0.016-13.365-1.691-40.249 0.247-51.535z" fill="#F3F5F6"/>
 <path transform="scale(.64736 .64746)" d="m565.4 341.29c9.026 5.888 17.833 12.17 26.678 18.328l-7.78-0.26-14.792-9.471 0.118 19.603c7.743 5.67 16.234 11.042 23.624 17.108-1.05 0.36-2.712 0.718-3.62 1.295-6.359-1.682-14.6-8.722-20.283-12.419 0.156 6.692 1.682 19.289-1.079 25.244-0.131 0.285-0.28 0.56-0.42 0.84l0.164 2e-3 -1.474-0.844c-3.381-9.825-1.278-46.402-1.136-59.426z" fill="#210703"/>
 <path transform="scale(.64736 .64746)" d="m609.12 350.38 15.577-10.971q-0.406 20.582-0.516 41.167c-0.031 6.94 1.252 15.53-0.373 22.173l-1.486 1.347c-1.539-1.407-1.667-3.782-1.771-5.805-0.433-8.389 0.048-16.848-0.065-25.246-8.4 5.676-17.049 12.415-25.979 17.103-0.03 5.957 1.48 18.808-0.974 23.818l-1.349 0.295c-1.411-1.087-1.263-1.696-1.49-3.384-0.985-7.325 0.863-15.983-1.059-22.989 0.908-0.577 2.57-0.935 3.62-1.295 7.685-6.936 18.204-12.667 26.704-18.702 0.011-4.684 0.588-9.607 0.393-14.234-0.082-1.964-0.331-3.264-1.777-4.572l-3.089 1.728-6.366-0.433z" fill="#261615"/>
 <path transform="scale(.64736 .64746)" d="m615.48 350.82 3.089-1.728c1.446 1.308 1.695 2.608 1.777 4.572 0.195 4.627-0.382 9.55-0.393 14.234-8.5 6.035-19.019 11.766-26.704 18.702-7.39-6.066-15.881-11.438-23.624-17.108l-0.118-19.603 14.792 9.471 7.78 0.26c0.41 0.288 1.327 0.415 1.824 0.542 5.306-2.366 10.392-6.486 15.211-9.775l6.366 0.433z" fill="#F55F46"/>
 <path transform="scale(.64736 .64746)" d="m609.12 350.38 6.366 0.433c-7.009 4.982-14.334 9.804-20.854 15.412l-10.327-6.872 7.78 0.26c0.41 0.288 1.327 0.415 1.824 0.542 5.306-2.366 10.392-6.486 15.211-9.775z" fill="#32070D"/>
 <path transform="scale(.64736 .64746)" d="m716.67 286.25c43.093-1.39 86.74-0.059 129.87 0.038 0.958 46.221 0.053 92.66 0.056 138.9l93.549-0.121 0.093-83.278c22.667-0.654 45.55-0.096 68.233-8e-3 1.15 9.909 0.48 20.474 0.48 30.465l0.11 52.916 41.56 0.043c14.39 0.01 28.9-0.45 43.27 0.189 0.72 1.062 1.17 2.088 1.36 3.356 0.63 4.435 1.6 15.349-0.99 18.984-9.58 1.944-22.09 0.481-31.97 0.482l-72.639-0.01-289.4 0.033 0.358-23.077 15.619-0.162-7e-3 -92.061c-9e-3 -15.243-1.271-31.647 0.45-46.692z" fill="#1D1819"/>
 <path transform="scale(.64736 .64746)" d="m944.52 346.57c19.849-0.413 39.75-0.069 59.602-0.02l0.11 78.494-59.806 0.099 0.094-78.573z" fill="#F4B987"/>
 <path transform="scale(.64736 .64746)" d="m972.75 379.52c5.676-0.073 17.567-1.592 21.85 2.088l-0.525 1.787c-3.64 2.203-15.371 0.925-20.099 0.942-6.351 0.138-17.168 1.408-22.62-2.357 5.56-3.407 15.065-2.469 21.394-2.46z" fill="#1D1819"/>
 <path transform="scale(.64736 .64746)" d="m952.31 366.68c9.485 0.035 34.377-2.006 41.94 0.343 1.698 0.527 1.729 0.829 2.455 2.418l-1.36 2.186c-8.116 0.04-39.348 2.008-44.611-1.342l-0.077-2.046 1.653-1.559z" fill="#1D1819"/>
 <path transform="scale(.64736 .64746)" d="m704.97 430.32c17.848-0.901 35.922-0.352 53.797-0.295l80.888-7e-3 249.81 0.163c0.72 1.136 1.05 2.144 1.34 3.463 0.72 3.311 0.41 6.703-1.45 9.571-5.08 1.717-56.42 0.212-66.08 0.25l-318.31-0.041 9e-3 -13.104z" fill="#397685"/>
 <path transform="scale(.64736 .64746)" d="m785.4 290.82 56.762-0.135 0.09 134.49-57.02-7e-3 0.168-134.35z" fill="#34698E"/>
 <path transform="scale(.64736 .64746)" d="m829.53 332.67c2.472 0.024 3.476 0.236 5.161 1.91l-0.259 1.316c-6.272 3.524-28.04 1.539-35.882 1.479-2.359-0.15-3.206 0.016-5.168-1.385l-0.078-1.72c7.011-3.377 27.826-1.574 36.226-1.6z" fill="#261615"/>
 <path transform="scale(.64736 .64746)" d="m791.51 318.84c6.268-0.965 38.541-1.949 43.384 0.492l0.807 2.548c-4.842 2.017-35.501 2.284-40.897 0.498-2.101-0.694-2.237-1.671-3.294-3.538z" fill="#261615"/>
 <path transform="scale(.64736 .64746)" d="m720.42 290.65 60.826 0.139c0.658 44.675-0.202 89.495-0.25 134.19l-60.539 0.11-0.037-134.44z" fill="#D63936"/>
 <path transform="scale(.64736 .64746)" d="m727.58 333.2c7.253-0.112 37.063-2.209 41.757 0.683 1.156 0.712 1.12 2.163 1.425 3.436-6.84 0.056-38.24 1.729-42.033-0.838-1.019-0.691-0.93-2.111-1.149-3.281z" fill="#1D1819"/>
 <path transform="scale(.64736 .64746)" d="m727.34 318.88c6.477-0.982 37.874-1.96 43.084 0.438l0.936 2.861c-5.777 1.408-37.794 1.954-42.988-0.278l-1.032-3.021z" fill="#1D1819"/>
 <path transform="scale(.64736 .64746)" d="m120.79 847.64c-3.879-6.011-6.279-10.38-6.612-17.679-0.9-19.772-0.269-39.798-0.264-59.595l0.046-107.82 0.071-298.81-0.075-94.911c-0.038-10.515-1.695-34.387 0.605-43.773 0.781-3.188 3.569-7.079 6.384-8.75 3.638-2.16 8.357-2.748 12.504-2.937 18.448-0.841 37.297 0.394 55.808 0.405l109.09 8e-3c10.504 0.018 31.218-2.197 40.562 0.675 3.251 0.999 7.394 4.052 8.938 7.078 2.718 5.323 3.349 12.253 3.453 18.147 1.106 62.816 0.126 125.86 0.052 188.69l0.09 276.71c-0.038 18.799 2.052 123.95-1.075 133.08-1.262 3.685-4.214 6.945-6.77 9.799q36.456-0.583 72.901 0.519c1.902-6.666 3.879-13.425 6.681-19.779l98.538 35.106c11.42 4.103 24.585 6.949 35.381 12.361 12.993 6.514 23.868 17.628 36.747 24.808-5.829 1.829-11.562 3.09-17.574 4.155 26.2 1.413 52.849 0.509 79.094 0.513l140.29-0.025 483.08 6e-3c-0.11-0.211-0.22-0.426-0.33-0.634-1.35-2.388-7.43-5.599-9.8-7.698-16.84-14.891-24.84-36.779-19.71-58.977q0.34-1.407 0.74-2.795 0.4-1.389 0.87-2.756t1.01-2.709q0.54-1.343 1.14-2.657 0.6-1.315 1.27-2.598 0.66-1.284 1.39-2.533 0.73-1.25 1.52-2.462 0.78-1.213 1.63-2.385t1.75-2.302 1.86-2.214q0.95-1.085 1.96-2.121t2.07-2.022q1.05-0.985 2.16-1.918 1.1-0.933 2.25-1.811t2.34-1.698q1.19-0.821 2.42-1.582 1.1-0.673 2.22-1.291 1.13-0.619 2.28-1.181 1.16-0.562 2.34-1.067t2.39-0.951q1.2-0.446 2.43-0.833 1.23-0.386 2.47-0.712t2.5-0.59 2.53-0.466q1.27-0.203 2.54-0.342 1.28-0.14 2.57-0.217 1.28-0.076 2.56-0.09 1.29-0.014 2.57 0.036 1.29 0.049 2.57 0.162 1.28 0.112 2.55 0.287 1.27 0.176 2.54 0.413 1.26 0.238 2.51 0.537c14.3 3.523 26.07 13.259 33.49 25.833q0.75 1.281 1.43 2.597 0.69 1.316 1.31 2.665 0.61 1.349 1.16 2.726 0.56 1.377 1.04 2.78t0.89 2.829q0.42 1.425 0.76 2.868 0.34 1.444 0.61 2.903t0.46 2.93q0.2 1.47 0.33 2.948 0.12 1.479 0.17 2.962 0.05 1.482 0.03 2.966-0.02 1.483-0.12 2.964-0.09 1.48-0.26 2.955-0.17 1.474-0.41 2.938t-0.55 2.914q-0.32 1.45-0.7 2.883c-3.72 14.36-12.91 29.269-26.16 36.689-1.21 0.675-2.49 1.203-3.78 1.696l120.6 8e-3c2.12-3.63 2.02-13.985 0.96-17.973-0.26-0.963-0.62-1.541-1.15-2.372-5.15 0.138-13.06 1.303-17.06-2.546-1.52-1.463-1.72-3.308-1.91-5.307-1.43-15.395-0.36-31.823-0.36-47.318l0.03-89.402c0.02-8.297-0.64-17.892 1.58-25.95 6.43-5.576 17.24-3.204 25.12-3.091-0.06-0.138-0.11-0.278-0.17-0.414-2.77-6.32-16.68-18.13-21.91-24.314-5.14-6.073-9.77-12.732-14.32-19.256-28.91-41.477-70.86-141.94-52.24-192.65 2.34-6.37 6.04-12.586 12.5-15.415 6.63-2.904 13.99-1.807 20.52 0.809 28.16 11.283 53.65 44.567 70.94 68.58 3.77 5.23 9.86 12.482 11.97 18.594 0.34 0.981 0.35 1.793 0.3 2.803-0.01 0.138-0.01 0.277-0.01 0.416 0.1-0.181 0.22-0.358 0.31-0.544 3.22-6.177 3.14-42.555 4.09-52.046 3.72-37.025 23.33-152.38 61.95-165.33 5.81-1.945 11.61-1.366 16.99 1.5 20.26 10.772 33.83 50.868 40.01 72.115 4.2 14.434 19.11 75.924 15.01 87.484-0.06 0.165-0.11 0.334-0.16 0.501 0.19-0.117 0.39-0.231 0.59-0.35 5.68-3.449 10.76-9.78 15.55-14.445 9.51-9.244 29.46-27.53 43.77-24.093 4.62 1.111 8.04 4.452 10.43 8.425 14.38 23.893 6.25 70.26-0.39 95.482-12.56 47.622-35.03 95.102-66.76 132.89-5.41 6.455-12.28 15-19.54 19.307-0.21 0.126-0.42 0.247-0.64 0.371 8.18-0.266 29.76-3.17 35.73 1.905 3.02 2.57 3.85 6.455 3.96 10.212 0.85 30.116 0.02 60.491 0.01 90.634-0.01 19.699 1.39 40.416-0.37 60.007-0.24 2.658-0.63 4.823-2.52 6.878-3.95 4.309-10.57 3.632-15.87 3.61l-1.99-0.013c1.84 4.275 2.41 13.739 0.75 18.142-0.2 0.534-0.46 0.906-0.76 1.403 13.84 0.155 115.54 0.122 117.74 1.405 0.3 1.323 0.33 1.476-0.14 2.738 1.59 0.764 3.09 1.59 4.85 1.869 0.76 1.199 1.2 2.295 1.32 3.709 1.44 16.511 0.2 34.167 0.19 50.778-0.02 19.091 1.12 38.972-0.22 57.972l-0.03 0.78h-1743.8v-0.92-114.65l1.2432-1.072c5.518-4.216 56.753-2.355 66.809-2.266-7.467-7.103-12.662-15.011-12.878-25.639-0.1712-8.44 2.9975-17.002 8.9295-23.045 8.39-8.547 19.278-8.949 30.479-8.919l26.207 0.152z" fill="#261615"/>
 <path transform="scale(.64736 .64746)" d="m562.64 887.45c5.231 2.84 11.918 6.101 16.04 10.427l-0.279 1.043-2.601 0.388-17.299 2.277c1.127-4.77 2.697-9.452 4.139-14.135z" fill="#F3F5F6"/>
 <path transform="scale(.64736 .64746)" d="m426 836.09 13.754 4.734c-2.228 5.822-4.208 11.769-6.303 17.642-3.875 0.05-9.688-2.645-13.518-3.824 2.229-6.096 4.082-12.371 6.067-18.552z" fill="#FE611F"/>
 <path transform="scale(.64736 .64746)" d="m443.74 846.22c37.491 13.79 75.538 28.098 113.75 39.678l-3.682 13.813c-16.825-5.509-33.4-12.767-50.111-18.785-21.37-7.694-43.523-14.32-64.392-23.272l4.437-11.434z" fill="#2D4772"/>
 <path transform="scale(.64736 .64746)" d="m1294.9 799.52c1.38-0.057 2.78 0.05 4.17 0.099 1.91 3.622 1.72 38.773 0.3 43.573-3.57 3.907-36.78 21.238-43.33 23.634l-0.97 0.124c-0.7-0.755-1.03-1.264-1.3-2.283-2.93-11.322-0.8-29.286 5.23-39.344 8.33-13.885 20.51-21.805 35.9-25.803z" fill="#6BB6BE"/>
 <path transform="scale(.64736 .64746)" d="m1451.4 885.56c17.28-1.56 35.87-0.218 53.27-0.227l110.18-0.045c0.51 0.777 0.89 1.53 1.11 2.445 1.07 4.328 1.04 12.845-1.35 16.571-10.02 1.998-35.54 0.274-47.08 0.271l-117.1 0.293c2.65-4.412 1.84-14.325 0.97-19.308z" fill="#D63936"/>
 <path transform="scale(.64736 .64746)" d="m406.77 854.58c2.496-0.22 5.13-0.806 7.419 0.399 0.136 1.044 0.229 2.186 0.532 3.195 0.54 1.802 1.976 2.385 3.541 3.125 3.974 1.879 8.547 2.809 12.71 4.242 9.154 3.152 18.241 6.527 27.374 9.746 27.159 9.575 55.758 17.407 82.045 29.105-8.124 0.53-16.41 0.299-24.557 0.379l-70.242 0.543c-11.855 0.082-24.741 1.136-36.503-0.208-3.234-0.37-6.274-1.358-9.155-2.861-6.366-3.321-11.503-9.151-13.633-16.045q-0.175-0.579-0.321-1.166t-0.263-1.18q-0.117-0.594-0.204-1.192-0.087-0.599-0.145-1.201-0.057-0.602-0.085-1.207-0.027-0.604-0.025-1.209 3e-3 -0.605 0.035-1.209t0.095-1.205q0.062-0.602 0.154-1.2t0.214-1.19q0.122-0.593 0.273-1.179 0.15-0.585 0.33-1.163t0.388-1.145q0.208-0.568 0.444-1.125t0.5-1.102q0.263-0.544 0.553-1.075c3.871-6.986 11.134-10.767 18.526-12.872z" fill="#E8CFC4"/>
 <path transform="scale(.64736 .64746)" d="m1305 799.52c10.52-0.411 21.78 5.106 29.39 12.066 10.64 9.724 16.42 23.508 17.05 37.808 0.65 14.79-4.38 29.866-14.55 40.736-9.56 10.21-21.32 14.503-35.03 14.923q-1.7-3e-3 -3.4-0.129c-15.7-1.179-27.16-9.83-36.27-22.137-2.27-3.063-3.81-6.538-6.34-9.415-0.13-0.139-0.25-0.274-0.38-0.411 6.49-2.073 44.65-22.14 48.03-26.751 3.26-5.145 1.51-37.939 1.5-46.69z" fill="#6BB6BE"/>
 <path transform="scale(.64736 .64746)" d="m80.07 853.84c13.87-0.764 27.988-0.249 41.889-0.23l73.451 0.028c65.706-0.07 131.56-0.915 197.25 0.467-6.999 6.324-12.977 14.171-13.751 23.907-0.743 9.338 5.543 18.906 11.339 25.799l-0.22 0.612-3.208 0.311-197.61 0.012-63.757 0.042c-12.223 0.01-24.638 0.422-36.839-0.293-4.3957-0.257-8.6059-0.903-12.674-2.65q-0.5778-0.252-1.1421-0.532t-1.1138-0.589q-0.5495-0.308-1.0827-0.644-0.5333-0.336-1.0489-0.699-0.5156-0.362-1.0123-0.75t-0.9732-0.8q-0.4766-0.413-0.9317-0.849t-0.8877-0.894q-0.4325-0.458-0.8415-0.938-0.4089-0.48-0.7931-0.979-0.3842-0.5-0.7428-1.018-0.3585-0.519-0.6905-1.054-0.3319-0.536-0.6365-1.088-0.3045-0.552-0.5808-1.118-0.2764-0.567-0.5238-1.147t-0.4653-1.171c-2.3094-6.122-1.788-12.98 0.9035-18.887 3.4216-7.51 9.1583-11.934 16.69-14.848z" fill="#759D6E"/>
 <path transform="scale(.64736 .64746)" d="m1669.6 461.31c2.03-0.291 4.33-0.74 6.33-0.185 3.94 1.087 7.27 4.33 9.26 7.791 12.22 21.229 2.71 72.469-3.63 94.67-13.21 46.259-35.46 92.309-67.28 128.6-6.05 6.895-13.62 15.465-21.67 19.927-13.44-0.448-26.94-0.281-40.38-0.324l-21.14 0.179c2.94-5.693 2.68-20.994 3.75-27.915q2.19-13.997 5.53-27.766 3.33-13.77 7.78-27.219c18.55-57.228 66.47-139.75 121.45-167.76z" fill="#48977D"/>
 <path transform="scale(.64736 .64746)" d="m1379.4 463.01c7.27-0.71 12.29 0.548 18.91 3.726 50.9 24.426 100.82 118.82 119.54 171.84 7.21 20.442 12.1 39.184 9.97 60.942-0.4 4.154-0.23 8.766-2.06 12.582l-13.6-0.061q-25.05 0.087-50.09-0.487c-3.34-3.371-7.15-6.183-10.51-9.572q-10.49-10.481-19.89-21.952-9.4-11.47-17.62-23.817c-25.89-39.602-58.28-125.15-48-172.09 1.96-8.946 5.53-16.122 13.35-21.114z" fill="#11543A"/>
 <path transform="scale(.64736 .64746)" d="m1548.9 336.93c2.43-0.285 4.8-0.546 7.21 0.081 11.19 2.909 18.68 15.391 23.86 24.887 19.14 35.045 29.04 80.341 32.93 119.92 0.48 4.845 2.21 13.244 0.9 17.737-4.35 9.034-12.98 17.431-18.68 25.843-14.21 20.936-27.71 43.524-38.26 66.551q-9.14 20.074-15.42 41.217c-1.42 4.818-2.97 14.589-6.3 18.169 0.25 0.763 0.41 1.288 0.42 2.097 0.09 4.906-2.09 11.74-5.57 15.217 0.57-1.459 0.84-2.648 0.75-4.224-0.93-15.242-34.58-96.622-45.28-106.15 2.9-10.338 2.37-40.529 3.48-53.895q1.26-13.849 3.3-27.604 2.04-13.756 4.85-27.375t6.39-27.058q3.57-13.439 7.89-26.656c6.9-20.564 16.73-48.459 37.53-58.758z" fill="#11543A"/>
 <path transform="scale(.64736 .64746)" d="m1431.1 717.74c9.02-1.374 19.33-0.49 28.46-0.481l53.96-0.025 78.87-0.086c12.15-0.013 25.01-0.913 37.1-0.07 2.12 0.148 3.5 0.975 4.87 2.57 1.56 1.804 0.99 9.59 0.98 12.065q-0.38 46.827 0.03 93.654c0.08 15.787 1.62 32.782-0.13 48.384-0.31 2.793-0.68 3.35-2.8 5.002-0.62 0.257-1.25 0.473-1.9 0.65-6.08 1.643-196.69 0.396-197.18 0.22-0.44-0.159-0.97-0.508-1.35-0.735-3.33-11.141-1.29-51.675-1.27-65.396 0.03-31.858-0.72-63.92 0.36-95.752z" fill="#E8CFC4"/>
 <path transform="scale(.64736 .64746)" d="m1444.5 742.44c1.57 0.039 1.91 0.072 3.26 0.851 2.74 5.735 1.59 18.815 0.84 25.063-0.31 2.58-0.48 2.743-2.44 4.25l-1.85-0.419c-0.19-0.37-0.52-0.934-0.66-1.363-1.36-4.288-1.32-24.613 0.85-28.382z" fill="#261615"/>
 <path transform="scale(.64736 .64746)" d="m1618.4 733.07c2.04-0.162 2.55-0.467 4.31 0.692 3 7.887 1.41 20.774 0.96 29.278-0.16 3.041-0.6 3.825-2.8 5.817l-1.57-0.258c-2.84-4.769-1.24-28.886-0.9-35.529z" fill="#1D1819"/>
 <path transform="scale(.64736 .64746)" d="m1618.3 779.07 3.53 0.012c1.85 1.751 1.84 2.565 1.99 5.09 0.36 6.281 0.78 44.992-0.6 48.68-0.19 0.52-1.28 1.501-1.68 1.972l-0.62 0.497-1.36-0.271c-2.76-5.087-0.98-46.756-1.26-55.98z" fill="#1D1819"/>
 <path transform="scale(.64736 .64746)" d="m127 220.13c39.472-0.916 79.179 0.021 118.67 0.037 27.387 0.01 55.584-1.396 82.89 0.285 4.511 0.278 9.112 0.816 13.322 2.528 2.938 3.614 3.262 6.508 3.401 11.013 0.947 30.854-0.298 62.048-0.212 92.938l0.153 250.97-0.158 171.8-0.088 56.872c-1e-3 7.846 0.802 15.919 0.2 23.72-0.517 6.703-2.353 10.153-7.406 14.537-2.711 1.279-5.467 2.093-8.459 2.34-22.018 1.813-48.75 0.147-71.23 3e-3l-127.73-0.293c-3.481-2.28-6.498-5.077-8.347-8.876-1.955-4.016-2.181-8.804-2.245-13.201-0.509-34.825 0.201-69.815 0.177-104.66l0.036-263.1-0.103-155.79 0.204-49.055c0-6.41-0.747-12.902-0.48-19.288 0.101-2.436 0.364-5.175 1.253-7.467 1.184-3.056 3.379-4.051 6.153-5.32z" fill="#759D6E"/>
 <path transform="scale(.64736 .64746)" d="m161.14 310.18c16.411-0.233 139.51-1.265 143.71 0.632 1.12 0.506 1.25 1.375 1.57 2.471 1.64 5.627 1.994 31.811-0.574 36.469-11.048 1.414-142.43 0.579-143.76-0.079-0.958-0.474-1.095-1.245-1.412-2.24-1.909-5.982-2.206-32.207 0.46-37.253z" fill="#261615"/>
 <path transform="scale(.64736 .64746)" d="m166 316.82 134.71-0.062c0.045 8.917 0.215 17.857-0.216 26.766q-67.243 0.476-134.49-0.019l-7e-3 -26.685z" fill="#F4B987"/>
 <path transform="scale(.64736 .64746)" d="m161.87 389.48 96.832-0.098c13.65-0.056 32.99-1.747 46.109 0.296 2.263 2.566 2.505 6.329 2.688 9.621 0.368 6.61 1.702 25.568-2.438 30.182-14.421-0.015-139.19 1.244-143.04-0.958-2.311-3.253-2.528-7.645-2.69-11.509-0.264-6.324-1.561-23.117 2.544-27.534z" fill="#261615"/>
 <path transform="scale(.64736 .64746)" d="m252.19 395.73q24.294-0.222 48.588-0.191l-0.077 27.803-86.314-0.084-48.459-0.151 0.056-26.996c28.721-0.433 57.478-0.183 86.206-0.381z" fill="#F4B987"/>
 <path transform="scale(.64736 .64746)" d="m162.64 551.48 96.915-0.111c13.15-0.013 32.345-1.663 44.697 0.608 1.442 1.546 1.666 3.879 1.895 5.907 0.794 7.009 2.064 28.828-2.116 33.969-16.538 0.189-138.62 1.224-142.24-0.814-1.213-1.85-1.64-3.622-1.867-5.781-0.502-4.786-1.008-28.239 0.601-31.197 0.468-0.86 1.473-1.803 2.11-2.581z" fill="#1D1819"/>
 <path transform="scale(.64736 .64746)" d="m166.25 558.38 133.63-0.064-0.011 26.811q-66.8-0.404-133.6-0.045-0.119-13.351-0.017-26.702z" fill="#D63936"/>
 <path transform="scale(.64736 .64746)" d="m161.67 472.11c30.807-0.799 61.795-0.209 92.626-0.183 15.869 0.014 36.519-1.743 51.773 1.041 0.499 0.605 0.674 0.681 0.814 1.491 1.036 6.008 1.712 33.98-1.225 38.253-28.756 0.58-57.632-5e-3 -86.401 0.028-18.597 0.021-37.956 1.277-56.433-0.407-1.953-1.652-2.28-3.629-2.642-6.128-0.941-6.503-2.011-29.285 1.488-34.095z" fill="#1D1819"/>
 <path transform="scale(.64736 .64746)" d="m230.5 478.34 70.33 0.219 2e-3 27.628-62.82 0.032-71.958-0.218-0.087-27.27 64.533-0.391z" fill="#F4B987"/>
 <path transform="scale(.64736 .64746)" d="m1.2432 907.36c1.6654 2.265 2.2242 3.567 5.193 3.988 8.6776 1.232 23.198-0.128 32.421-0.108q43.014 0.198 86.026-0.226l257.78-0.083 976.14-0.035 305.83 0.065c10.26-1e-3 66.64 1.782 72.09-0.218 0.29-0.518 0.84-1.276 0.96-1.848 1.59 0.764 3.09 1.59 4.85 1.869 0.76 1.199 1.2 2.295 1.32 3.709 1.44 16.511 0.2 34.167 0.19 50.778-0.02 19.091 1.12 38.972-0.22 57.972l-0.03 0.78h-1743.8v-0.92-114.65l1.2432-1.072z" fill="#C0D7D9"/>
 <path transform="scale(.64736 .64746)" d="m0 1023.1 1113.1 0.05 439.78 0.08c63.61-0.05 127.33 0.89 190.92 0.01l-0.03 0.78h-1743.8v-0.92z" fill="#F3F5F6"/>
</svg>
