<?xml version="1.0" encoding="UTF-8" standalone="no"?>
<svg
   width="1129"
   height="663"
   viewBox="0 0 1129 663"
   version="1.1"
   id="svg29"
   sodipodi:docname="undraw_attributico_tree.svg"
   inkscape:version="1.3.2 (091e20e, 2023-11-25, custom)"
   xmlns:inkscape="http://www.inkscape.org/namespaces/inkscape"
   xmlns:sodipodi="http://sodipodi.sourceforge.net/DTD/sodipodi-0.dtd"
   xmlns="http://www.w3.org/2000/svg"
   xmlns:svg="http://www.w3.org/2000/svg">
  <defs
     id="defs29" />
  <sodipodi:namedview
     id="namedview29"
     pagecolor="#ffffff"
     bordercolor="#000000"
     borderopacity="0.25"
     inkscape:showpageshadow="2"
     inkscape:pageopacity="0.0"
     inkscape:pagecheckerboard="0"
     inkscape:deskcolor="#d1d1d1"
     inkscape:zoom="0.99911426"
     inkscape:cx="562.49823"
     inkscape:cy="331.79388"
     inkscape:window-width="1920"
     inkscape:window-height="1009"
     inkscape:window-x="-8"
     inkscape:window-y="-8"
     inkscape:window-maximized="1"
     inkscape:current-layer="svg29" />
  <title
     id="title1">Focus on What Matters</title>
  <circle
     cx="321"
     cy="321"
     r="321"
     fill="#f2f2f2"
     id="circle1" />
  <ellipse
     cx="559"
     cy="635.49998"
     rx="514"
     ry="27.50002"
     fill="#3f3d56"
     id="ellipse1" />
  <ellipse
     cx="558"
     cy="627"
     rx="460"
     ry="22"
     opacity="0.2"
     id="ellipse2" />
  <rect
     x="131"
     y="152.5"
     width="840"
     height="50"
     fill="#3f3d56"
     id="rect2" />
  <path
     d="M166.5,727.3299A21.67009,21.67009,0,0,0,188.1701,749H984.8299A21.67009,21.67009,0,0,0,1006.5,727.3299V296h-840Z"
     fill="#3f3d56"
     id="path2"
     transform="translate(-35.5 -118.5)"
     style="fill:#3f3d56;fill-opacity:0.89130437" />
  <path
     d="M984.8299,236H188.1701A21.67009,21.67009,0,0,0,166.5,257.6701V296h840V257.6701A21.67009,21.67009,0,0,0,984.8299,236Z"
     transform="translate(-35.5 -118.5)"
     fill="#3f3d56"
     id="path3" />
  <path
     d="M984.8299,236H188.1701A21.67009,21.67009,0,0,0,166.5,257.6701V296h840V257.6701A21.67009,21.67009,0,0,0,984.8299,236Z"
     transform="translate(-35.5 -118.5)"
     opacity="0.2"
     id="path4" />
  <circle
     cx="181"
     cy="147.5"
     r="13"
     fill="#3f3d56"
     id="circle4" />
  <circle
     cx="217"
     cy="147.5"
     r="13"
     fill="#3f3d56"
     id="circle5" />
  <circle
     cx="253"
     cy="147.5"
     r="13"
     fill="#3f3d56"
     id="circle6" />
  <rect
     x="168"
     y="213.5"
     width="337"
     height="386"
     rx="5.33505"
     fill="#606060"
     id="rect6"
     style="fill:#979797;fill-opacity:0.65458935" />
  <g
     data-v-fde0c5aa=""
     id="070234ad-d668-4b31-b932-ecc6d708c167"
     fill="#f6575e"
     stroke="none"
     transform="matrix(2.2,0,0,2.2,249.7961,276.04787)">
    <path
       d="m 33.999,88 h 8 v 12 h -8 z m 42,0 L 38,0 H 37.999 L 0,88 H 33.999 V 50 h 8 v 38 z"
       id="path2-1" />
  </g>
  <rect
     x="603"
     y="272.5"
     width="284"
     height="22"
     rx="5.47638"
     fill="#2e8555"
     id="rect7"
     style="fill:#5cbbd2;fill-opacity:0.72463769" />
  <rect
     x="537"
     y="352.5"
     width="416"
     height="15"
     rx="5.47638"
     fill="#2e8555"
     id="rect8"
     style="fill:#00aad4;fill-opacity:0.41304347" />
  <rect
     x="537"
     y="396.5"
     width="416"
     height="15"
     rx="5.47638"
     fill="#2e8555"
     id="rect9"
     style="fill:#00aad4;fill-opacity:0.4178744" />
  <rect
     x="537"
     y="440.5"
     width="416"
     height="15"
     rx="5.47638"
     fill="#2e8555"
     id="rect10"
     style="fill:#00aad4;fill-opacity:0.41545895" />
  <rect
     x="537"
     y="484.5"
     width="416"
     height="15"
     rx="5.47638"
     fill="#2e8555"
     id="rect11"
     style="fill:#00aad4;fill-opacity:0.4178744" />
  <rect
     x="865"
     y="552.5"
     width="88"
     height="26"
     rx="7.02756"
     fill="#3ecc5f"
     id="rect12"
     style="fill:#008eb3;fill-opacity:0.884058" />
  <path
     d="M1088.60287,624.61594a30.11371,30.11371,0,0,0,3.98291-15.266c0-13.79652-8.54358-24.98081-19.08256-24.98081s-19.08256,11.18429-19.08256,24.98081a30.11411,30.11411,0,0,0,3.98291,15.266,31.248,31.248,0,0,0,0,30.53213,31.248,31.248,0,0,0,0,30.53208,31.248,31.248,0,0,0,0,30.53208,30.11408,30.11408,0,0,0-3.98291,15.266c0,13.79652,8.54353,24.98081,19.08256,24.98081s19.08256-11.18429,19.08256-24.98081a30.11368,30.11368,0,0,0-3.98291-15.266,31.248,31.248,0,0,0,0-30.53208,31.248,31.248,0,0,0,0-30.53208,31.248,31.248,0,0,0,0-30.53213Z"
     transform="translate(-35.5 -118.5)"
     fill="#3f3d56"
     id="path12" />
  <ellipse
     cx="1038.00321"
     cy="460.31783"
     rx="19.08256"
     ry="24.9808"
     fill="#3f3d56"
     id="ellipse12" />
  <ellipse
     cx="1038.00321"
     cy="429.78574"
     rx="19.08256"
     ry="24.9808"
     fill="#3f3d56"
     id="ellipse13" />
  <path
     d="M981.6885,395.8592a91.01343,91.01343,0,0,0,19.56129,56.51431,91.40575,91.40575,0,1,0,143.68892,0C1157.18982,436.82067,981.6885,385.60008,981.6885,395.8592Z"
     transform="translate(-35.5 -118.5)"
     opacity="0.1"
     id="path14" />
  <path
     sodipodi:type="star"
     style="fill:#156eac;fill-opacity:1"
     id="path6"
     inkscape:flatsided="false"
     sodipodi:sides="3"
     sodipodi:cx="748.66315"
     sodipodi:cy="48.042553"
     sodipodi:r1="102.99409"
     sodipodi:r2="51.497044"
     sodipodi:arg1="0.59878386"
     sodipodi:arg2="1.6459814"
     inkscape:rounded="-2.4667768e-15"
     inkscape:randomized="0"
     d="m 833.7385,106.09397 -88.94352,-6.699856 -88.94351,-6.699855 50.274,-73.677413 50.274,-73.677415 38.66951,80.377268 z"
     inkscape:transform-center-x="-0.63229113"
     inkscape:transform-center-y="-24.806389"
     transform="matrix(0.99723901,-0.1074376,0.07425866,1.4428078,287.49558,460.80582)" />
  <path
     sodipodi:type="star"
     style="fill:#156eac;fill-opacity:1"
     id="path7"
     inkscape:flatsided="false"
     sodipodi:sides="3"
     sodipodi:cx="748.66315"
     sodipodi:cy="48.042553"
     sodipodi:r1="102.99409"
     sodipodi:r2="51.497044"
     sodipodi:arg1="0.59878386"
     sodipodi:arg2="1.6459814"
     inkscape:rounded="-2.4667768e-15"
     inkscape:randomized="0"
     d="m 833.7385,106.09397 -88.94352,-6.699856 -88.94351,-6.699855 50.274,-73.677413 50.274,-73.677415 38.66951,80.377268 z"
     inkscape:transform-center-x="-0.63229113"
     inkscape:transform-center-y="-33.466338"
     transform="matrix(0.99723901,-0.14494423,0.07425866,1.9464942,289.49736,321.53473)" />
</svg>
