<svg data-v-fde0c5aa="" xmlns="http://www.w3.org/2000/svg" viewBox="0 0 300 300" class="iconLeftSlogan"><!----><defs data-v-fde0c5aa=""><!----></defs><rect data-v-fde0c5aa="" fill="#156EAC" x="0" y="0" width="300px" height="300px" class="logo-background-square"></rect><defs data-v-fde0c5aa=""><!----></defs><g data-v-fde0c5aa="" id="6a9550db-87bd-43fc-ad87-26f32406a055" fill="#ffffff" transform="matrix(2.0418331483266163,0,0,2.0418331483266163,95.87745650662941,123.16508543890535)"><path d="M7.11 13.45L7.11 12.28L7.97 12.28L7.15 9.93L3.17 9.93L2.37 12.28L3.43 12.28L3.43 13.45L0.07 13.45L0.07 12.28L0.97 12.28L4.20 3.09L6.21 3.09L9.43 12.28L10.47 12.28L10.47 13.45L7.11 13.45ZM5.14 4.16L3.55 8.79L6.75 8.79L5.14 4.16ZM13.28 4.09L13.28 6.37L14.94 6.37L14.94 7.40L13.26 7.40L13.24 11.49L13.24 11.49Q13.24 11.91 13.34 12.17L13.34 12.17L13.34 12.17Q13.43 12.43 13.64 12.53L13.64 12.53L13.64 12.53Q13.86 12.63 14.12 12.63L14.12 12.63L14.12 12.63Q14.41 12.63 14.63 12.57L14.63 12.57L14.63 12.57Q14.85 12.52 15.11 12.40L15.11 12.40L15.40 13.25L15.40 13.25Q15.07 13.43 14.71 13.52L14.71 13.52L14.71 13.52Q14.35 13.62 13.86 13.62L13.86 13.62L13.86 13.62Q13.39 13.62 13.05 13.51L13.05 13.51L13.05 13.51Q12.70 13.40 12.47 13.13L12.47 13.13L12.47 13.13Q12.23 12.87 12.11 12.42L12.11 12.42L12.11 12.42Q12.00 11.97 12.00 11.30L12.00 11.30L12.02 7.40L10.89 7.40L10.89 6.37L12.03 6.37L12.03 4.68L13.28 4.09ZM18.48 4.09L18.48 6.37L20.15 6.37L20.15 7.40L18.47 7.40L18.45 11.49L18.45 11.49Q18.45 11.91 18.55 12.17L18.55 12.17L18.55 12.17Q18.64 12.43 18.85 12.53L18.85 12.53L18.85 12.53Q19.07 12.63 19.33 12.63L19.33 12.63L19.33 12.63Q19.62 12.63 19.84 12.57L19.84 12.57L19.84 12.57Q20.06 12.52 20.32 12.40L20.32 12.40L20.61 13.25L20.61 13.25Q20.28 13.43 19.92 13.52L19.92 13.52L19.92 13.52Q19.56 13.62 19.07 13.62L19.07 13.62L19.07 13.62Q18.60 13.62 18.26 13.51L18.26 13.51L18.26 13.51Q17.91 13.40 17.67 13.13L17.67 13.13L17.67 13.13Q17.44 12.87 17.32 12.42L17.32 12.42L17.32 12.42Q17.21 11.97 17.21 11.30L17.21 11.30L17.23 7.40L16.10 7.40L16.10 6.37L17.24 6.37L17.24 4.68L18.48 4.09ZM26.74 6.33L26.74 7.87L25.44 7.87L25.44 7.43L25.44 7.43Q25.21 7.43 24.98 7.52L24.98 7.52L24.98 7.52Q24.74 7.60 24.53 7.78L24.53 7.78L24.53 7.78Q24.33 7.95 24.18 8.22L24.18 8.22L24.18 8.22Q24.02 8.49 23.95 8.86L23.95 8.86L23.95 12.28L25.16 12.28L25.16 13.45L21.64 13.45L21.64 12.28L22.62 12.28L22.63 7.55L21.64 7.55L21.64 6.37L23.91 6.37L23.91 7.35L23.91 7.35Q24.03 7.13 24.18 6.94L24.18 6.94L24.18 6.94Q24.34 6.75 24.52 6.61L24.52 6.61L24.52 6.61Q24.71 6.47 24.94 6.40L24.94 6.40L24.94 6.40Q25.17 6.32 25.44 6.32L25.44 6.32L25.44 6.32Q25.79 6.32 26.11 6.32L26.11 6.32L26.11 6.32Q26.42 6.32 26.74 6.33L26.74 6.33ZM28.15 7.55L28.15 6.37L30.46 6.37L30.46 12.28L31.53 12.28L31.53 13.45L28.16 13.45L28.16 12.28L29.18 12.28L29.18 7.55L28.15 7.55ZM28.94 3.86L28.94 3.86L28.94 3.86Q28.94 3.68 29.01 3.52L29.01 3.52L29.01 3.52Q29.08 3.36 29.20 3.24L29.20 3.24L29.20 3.24Q29.32 3.12 29.48 3.05L29.48 3.05L29.48 3.05Q29.65 2.98 29.83 2.98L29.83 2.98L29.83 2.98Q30.01 2.98 30.17 3.05L30.17 3.05L30.17 3.05Q30.33 3.12 30.45 3.24L30.45 3.24L30.45 3.24Q30.57 3.36 30.64 3.52L30.64 3.52L30.64 3.52Q30.71 3.68 30.71 3.86L30.71 3.86L30.71 3.86Q30.71 4.05 30.64 4.21L30.64 4.21L30.64 4.21Q30.57 4.38 30.45 4.50L30.45 4.50L30.45 4.50Q30.33 4.63 30.17 4.70L30.17 4.70L30.17 4.70Q30.01 4.77 29.83 4.77L29.83 4.77L29.83 4.77Q29.65 4.77 29.48 4.70L29.48 4.70L29.48 4.70Q29.32 4.63 29.20 4.50L29.20 4.50L29.20 4.50Q29.08 4.38 29.01 4.21L29.01 4.21L29.01 4.21Q28.94 4.05 28.94 3.86ZM32.40 3.99L32.40 2.82L34.70 2.82L34.70 6.96L34.70 6.96Q35.15 6.61 35.68 6.41L35.68 6.41L35.68 6.41Q36.22 6.20 36.78 6.20L36.78 6.20L36.78 6.20Q37.48 6.20 38.06 6.46L38.06 6.46L38.06 6.46Q38.64 6.72 39.06 7.19L39.06 7.19L39.06 7.19Q39.48 7.66 39.72 8.32L39.72 8.32L39.72 8.32Q39.95 8.98 39.95 9.78L39.95 9.78L39.95 9.78Q39.95 10.64 39.69 11.33L39.69 11.33L39.69 11.33Q39.43 12.02 38.97 12.52L38.97 12.52L38.97 12.52Q38.51 13.02 37.87 13.29L37.87 13.29L37.87 13.29Q37.24 13.56 36.48 13.56L36.48 13.56L36.48 13.56Q35.95 13.56 35.49 13.41L35.49 13.41L35.49 13.41Q35.03 13.25 34.70 13.01L34.70 13.01L34.70 13.45L33.43 13.45L33.43 3.99L32.40 3.99ZM36.45 7.32L36.45 7.32L36.45 7.32Q35.95 7.32 35.49 7.53L35.49 7.53L35.49 7.53Q35.03 7.73 34.70 8.08L34.70 8.08L34.70 11.89L34.70 11.89Q34.92 12.11 35.34 12.29L35.34 12.29L35.34 12.29Q35.77 12.46 36.41 12.46L36.41 12.46L36.41 12.46Q36.85 12.46 37.25 12.30L37.25 12.30L37.25 12.30Q37.65 12.13 37.96 11.80L37.96 11.80L37.96 11.80Q38.27 11.47 38.45 10.98L38.45 10.98L38.45 10.98Q38.64 10.49 38.64 9.83L38.64 9.83L38.64 9.83Q38.64 9.23 38.46 8.76L38.46 8.76L38.46 8.76Q38.29 8.30 37.99 7.98L37.99 7.98L37.99 7.98Q37.69 7.66 37.30 7.49L37.30 7.49L37.30 7.49Q36.90 7.32 36.45 7.32ZM45.53 7.55L45.53 6.37L47.81 6.37L47.81 12.28L48.60 12.28L48.60 13.45L46.53 13.45L46.53 12.80L46.53 12.80Q46.05 13.17 45.49 13.37L45.49 13.37L45.49 13.37Q44.93 13.58 44.28 13.58L44.28 13.58L44.28 13.58Q43.75 13.58 43.32 13.42L43.32 13.42L43.32 13.42Q42.88 13.27 42.58 12.94L42.58 12.94L42.58 12.94Q42.27 12.62 42.11 12.12L42.11 12.12L42.11 12.12Q41.95 11.62 41.95 10.93L41.95 10.93L41.95 7.55L40.99 7.55L40.99 6.37L43.27 6.37L43.27 10.78L43.27 10.78Q43.27 11.59 43.65 12.01L43.65 12.01L43.65 12.01Q44.02 12.43 44.73 12.43L44.73 12.43L44.73 12.43Q45.14 12.43 45.61 12.28L45.61 12.28L45.61 12.28Q46.07 12.13 46.48 11.86L46.48 11.86L46.48 7.55L45.53 7.55ZM52.54 4.09L52.54 6.37L54.20 6.37L54.20 7.40L52.53 7.40L52.51 11.49L52.51 11.49Q52.51 11.91 52.60 12.17L52.60 12.17L52.60 12.17Q52.70 12.43 52.91 12.53L52.91 12.53L52.91 12.53Q53.12 12.63 53.39 12.63L53.39 12.63L53.39 12.63Q53.68 12.63 53.89 12.57L53.89 12.57L53.89 12.57Q54.11 12.52 54.37 12.40L54.37 12.40L54.67 13.25L54.67 13.25Q54.34 13.43 53.98 13.52L53.98 13.52L53.98 13.52Q53.61 13.62 53.12 13.62L53.12 13.62L53.12 13.62Q52.66 13.62 52.31 13.51L52.31 13.51L52.31 13.51Q51.97 13.40 51.73 13.13L51.73 13.13L51.73 13.13Q51.50 12.87 51.38 12.42L51.38 12.42L51.38 12.42Q51.26 11.97 51.26 11.30L51.26 11.30L51.28 7.40L50.16 7.40L50.16 6.37L51.30 6.37L51.30 4.68L52.54 4.09ZM64.77 12.67L63.82 13.49L62.21 11.94L62.21 11.94Q61.92 12.29 61.58 12.58L61.58 12.58L61.58 12.58Q61.25 12.88 60.87 13.09L60.87 13.09L60.87 13.09Q60.49 13.31 60.06 13.43L60.06 13.43L60.06 13.43Q59.64 13.55 59.16 13.55L59.16 13.55L59.16 13.55Q58.50 13.55 57.92 13.32L57.92 13.32L57.92 13.32Q57.34 13.08 56.91 12.68L56.91 12.68L56.91 12.68Q56.49 12.28 56.24 11.73L56.24 11.73L56.24 11.73Q55.99 11.18 55.99 10.54L55.99 10.54L55.99 10.54Q55.99 10.12 56.12 9.73L56.12 9.73L56.12 9.73Q56.25 9.34 56.47 9.00L56.47 9.00L56.47 9.00Q56.69 8.65 56.99 8.38L56.99 8.38L56.99 8.38Q57.29 8.11 57.91 7.79L57.91 7.79L57.46 7.35L57.46 7.35Q57.29 7.18 57.12 6.97L57.12 6.97L57.12 6.97Q56.95 6.76 56.82 6.51L56.82 6.51L56.82 6.51Q56.70 6.27 56.62 6.00L56.62 6.00L56.62 6.00Q56.54 5.74 56.54 5.48L56.54 5.48L56.54 5.48Q56.54 4.93 56.75 4.46L56.75 4.46L56.75 4.46Q56.96 3.99 57.33 3.64L57.33 3.64L57.33 3.64Q57.70 3.29 58.19 3.09L58.19 3.09L58.19 3.09Q58.68 2.88 59.24 2.88L59.24 2.88L59.24 2.88Q59.83 2.88 60.34 3.10L60.34 3.10L60.34 3.10Q60.85 3.31 61.22 3.66L61.22 3.66L61.22 3.66Q61.59 4.02 61.80 4.49L61.80 4.49L61.80 4.49Q62.02 4.96 62.02 5.48L62.02 5.48L62.02 5.48Q62.02 5.89 61.93 6.20L61.93 6.20L61.93 6.20Q61.85 6.51 61.70 6.75L61.70 6.75L61.70 6.75Q61.55 7 61.34 7.20L61.34 7.20L61.34 7.20Q61.13 7.40 60.90 7.57L60.90 7.57L60.90 7.57Q60.66 7.75 60.42 7.89L60.42 7.89L60.42 7.89Q60.17 8.03 59.91 8.16L59.91 8.16L62.00 10.10L62.00 10.10Q62.22 9.60 62.35 9.12L62.35 9.12L62.35 9.12Q62.49 8.63 62.56 8.23L62.56 8.23L63.85 8.23L63.85 8.23Q63.73 8.87 63.49 9.56L63.49 9.56L63.49 9.56Q63.25 10.25 62.88 10.92L62.88 10.92L64.77 12.67ZM58.80 8.65L58.25 8.90L58.25 8.90Q58.02 9.00 57.83 9.16L57.83 9.16L57.83 9.16Q57.64 9.33 57.50 9.55L57.50 9.55L57.50 9.55Q57.37 9.76 57.29 10.01L57.29 10.01L57.29 10.01Q57.22 10.26 57.22 10.51L57.22 10.51L57.22 10.51Q57.22 10.91 57.37 11.25L57.37 11.25L57.37 11.25Q57.52 11.59 57.79 11.83L57.79 11.83L57.79 11.83Q58.06 12.08 58.43 12.22L58.43 12.22L58.43 12.22Q58.80 12.36 59.21 12.36L59.21 12.36L59.21 12.36Q59.57 12.36 59.88 12.27L59.88 12.27L59.88 12.27Q60.20 12.18 60.47 12.02L60.47 12.02L60.47 12.02Q60.74 11.86 60.97 11.64L60.97 11.64L60.97 11.64Q61.20 11.42 61.40 11.16L61.40 11.16L58.80 8.65ZM60.38 6.44L60.38 6.44L60.38 6.44Q60.55 6.25 60.68 6.00L60.68 6.00L60.68 6.00Q60.80 5.75 60.80 5.48L60.80 5.48L60.80 5.48Q60.80 5.19 60.67 4.92L60.67 4.92L60.67 4.92Q60.55 4.66 60.33 4.45L60.33 4.45L60.33 4.45Q60.12 4.25 59.84 4.13L59.84 4.13L59.84 4.13Q59.55 4.01 59.24 4.01L59.24 4.01L59.24 4.01Q58.90 4.01 58.62 4.12L58.62 4.12L58.62 4.12Q58.34 4.23 58.15 4.43L58.15 4.43L58.15 4.43Q57.95 4.63 57.84 4.89L57.84 4.89L57.84 4.89Q57.73 5.15 57.73 5.46L57.73 5.46L57.73 5.46Q57.73 5.75 57.87 6.07L57.87 6.07L57.87 6.07Q58.01 6.38 58.38 6.73L58.38 6.73L58.99 7.30L58.99 7.30Q59.39 7.12 59.75 6.92L59.75 6.92L59.75 6.92Q60.10 6.71 60.38 6.44ZM72.13 8.26L70.85 8.26L70.85 8.26Q70.56 7.75 70.12 7.51L70.12 7.51L70.12 7.51Q69.68 7.27 69.10 7.27L69.10 7.27L69.10 7.27Q68.65 7.27 68.26 7.45L68.26 7.45L68.26 7.45Q67.87 7.64 67.58 7.98L67.58 7.98L67.58 7.98Q67.29 8.32 67.13 8.81L67.13 8.81L67.13 8.81Q66.96 9.30 66.96 9.90L66.96 9.90L66.96 9.90Q66.96 10.49 67.13 10.97L67.13 10.97L67.13 10.97Q67.29 11.45 67.59 11.79L67.59 11.79L67.59 11.79Q67.88 12.13 68.27 12.31L68.27 12.31L68.27 12.31Q68.65 12.49 69.10 12.49L69.10 12.49L69.10 12.49Q69.75 12.49 70.24 12.17L70.24 12.17L70.24 12.17Q70.72 11.85 71.01 11.24L71.01 11.24L72.06 11.76L72.06 11.76Q71.86 12.20 71.56 12.54L71.56 12.54L71.56 12.54Q71.26 12.89 70.88 13.14L70.88 13.14L70.88 13.14Q70.50 13.38 70.04 13.52L70.04 13.52L70.04 13.52Q69.59 13.65 69.08 13.65L69.08 13.65L69.08 13.65Q68.35 13.65 67.72 13.37L67.72 13.37L67.72 13.37Q67.09 13.10 66.64 12.60L66.64 12.60L66.64 12.60Q66.19 12.10 65.93 11.41L65.93 11.41L65.93 11.41Q65.68 10.72 65.68 9.90L65.68 9.90L65.68 9.90Q65.68 9.08 65.95 8.39L65.95 8.39L65.95 8.39Q66.21 7.70 66.68 7.20L66.68 7.20L66.68 7.20Q67.14 6.71 67.76 6.43L67.76 6.43L67.76 6.43Q68.39 6.15 69.10 6.15L69.10 6.15L69.10 6.15Q69.77 6.15 70.37 6.38L70.37 6.38L70.37 6.38Q70.96 6.61 71.42 7.08L71.42 7.08L72.13 7.08L72.13 8.26ZM73.28 9.91L73.28 9.91L73.28 9.91Q73.29 9.07 73.55 8.38L73.55 8.38L73.55 8.38Q73.81 7.69 74.29 7.19L74.29 7.19L74.29 7.19Q74.76 6.70 75.41 6.43L75.41 6.43L75.41 6.43Q76.06 6.17 76.84 6.17L76.84 6.17L76.84 6.17Q77.62 6.17 78.27 6.43L78.27 6.43L78.27 6.43Q78.93 6.70 79.39 7.19L79.39 7.19L79.39 7.19Q79.86 7.68 80.12 8.37L80.12 8.37L80.12 8.37Q80.38 9.06 80.38 9.90L80.38 9.90L80.38 9.90Q80.38 10.73 80.12 11.42L80.12 11.42L80.12 11.42Q79.86 12.11 79.39 12.61L79.39 12.61L79.39 12.61Q78.93 13.11 78.27 13.39L78.27 13.39L78.27 13.39Q77.62 13.67 76.84 13.67L76.84 13.67L76.84 13.67Q76.04 13.67 75.39 13.39L75.39 13.39L75.39 13.39Q74.74 13.12 74.27 12.62L74.27 12.62L74.27 12.62Q73.81 12.13 73.55 11.44L73.55 11.44L73.55 11.44Q73.29 10.75 73.28 9.91ZM74.63 9.91L74.63 9.91L74.63 9.91Q74.63 10.52 74.80 11.01L74.80 11.01L74.80 11.01Q74.98 11.50 75.28 11.85L75.28 11.85L75.28 11.85Q75.58 12.20 75.98 12.38L75.98 12.38L75.98 12.38Q76.38 12.57 76.84 12.57L76.84 12.57L76.84 12.57Q77.31 12.57 77.71 12.39L77.71 12.39L77.71 12.39Q78.12 12.20 78.42 11.86L78.42 11.86L78.42 11.86Q78.72 11.51 78.89 11.02L78.89 11.02L78.89 11.02Q79.06 10.53 79.06 9.91L79.06 9.91L79.06 9.91Q79.06 9.27 78.89 8.77L78.89 8.77L78.89 8.77Q78.72 8.27 78.43 7.94L78.43 7.94L78.43 7.94Q78.13 7.60 77.72 7.43L77.72 7.43L77.72 7.43Q77.31 7.26 76.84 7.26L76.84 7.26L76.84 7.26Q76.38 7.26 75.98 7.43L75.98 7.43L75.98 7.43Q75.58 7.60 75.28 7.94L75.28 7.94L75.28 7.94Q74.98 8.27 74.80 8.77L74.80 8.77L74.80 8.77Q74.63 9.27 74.63 9.91Z"></path></g><defs data-v-fde0c5aa=""><!----></defs><g data-v-fde0c5aa="" id="d05aac5b-789b-4193-89d8-f9eb74a27c50" stroke="none" fill="#F6575E" transform="matrix(0.566065139434529,0,0,0.566065139434529,40,121.69674302827354)"><path d="M33.999 88h8v12h-8zM75.999 88L38 0h-.001L0 88h33.999V50h8v38z"></path></g><defs data-v-fde0c5aa=""><!----></defs><g data-v-fde0c5aa="" id="966eefe0-ede9-4ee6-a405-01cbeaa53de2" fill="#ffffff" transform="matrix(1.3678646889732975,0,0,1.3678646889732975,94.39262578468556,157.7256766659112)"><path d="M1.19 2.80L1.19 12.60L1.61 12.60L1.61 2.80ZM10.08 3.21L12.60 3.21L12.60 12.60L13.02 12.60L13.02 3.21L15.54 3.21L15.54 2.80L10.08 2.80ZM35.21 2.80L35.21 12.60L35.63 12.60L35.63 2.80ZM44.76 9.74L44.38 9.90C45.01 11.77 46.06 12.71 47.53 12.71C48.44 12.71 49.14 12.45 49.60 11.93C50.07 11.41 50.30 10.77 50.30 10.01C50.30 9.66 50.24 9.35 50.13 9.06C50.01 8.78 49.88 8.55 49.73 8.37C49.59 8.19 49.39 8.02 49.13 7.86C48.86 7.70 48.65 7.58 48.49 7.50C48.33 7.43 48.10 7.34 47.82 7.22C47.79 7.21 47.67 7.16 47.47 7.08C47.28 7.01 47.16 6.96 47.11 6.94C47.06 6.91 46.96 6.87 46.79 6.80C46.62 6.73 46.51 6.67 46.46 6.64C46.41 6.60 46.32 6.54 46.19 6.45C46.06 6.37 45.97 6.30 45.92 6.24C45.87 6.18 45.81 6.10 45.72 6.00C45.64 5.90 45.58 5.80 45.55 5.70C45.52 5.61 45.49 5.50 45.46 5.38C45.43 5.25 45.42 5.12 45.42 4.98C45.42 4.41 45.61 3.95 46.01 3.62C46.41 3.29 46.90 3.12 47.49 3.12C48.62 3.12 49.40 3.77 49.84 5.07L50.25 4.90C50.04 4.23 49.70 3.69 49.24 3.29C48.77 2.89 48.19 2.69 47.50 2.69C46.81 2.69 46.21 2.90 45.70 3.33C45.19 3.76 44.94 4.33 44.94 5.04C44.94 5.39 45.01 5.71 45.16 5.99C45.30 6.27 45.52 6.51 45.80 6.71C46.09 6.91 46.34 7.07 46.57 7.17C46.80 7.28 47.10 7.41 47.46 7.55C47.74 7.65 47.93 7.72 48.03 7.77C48.14 7.82 48.31 7.90 48.55 8.02C48.79 8.13 48.97 8.24 49.08 8.34C49.18 8.45 49.31 8.58 49.45 8.75C49.60 8.92 49.70 9.11 49.76 9.32C49.81 9.54 49.84 9.78 49.84 10.05C49.84 10.72 49.65 11.27 49.27 11.68C48.89 12.09 48.33 12.29 47.57 12.29C46.34 12.29 45.40 11.44 44.76 9.74ZM70.95 7.48L75.29 7.48L75.29 7.08L70.95 7.08L70.95 3.21L75.57 3.21L75.57 2.80L70.53 2.80L70.53 12.60L75.57 12.60L75.57 12.19L70.95 12.19ZM88.17 2.45L83.90 12.60L84.39 12.60L85.67 9.52L90.68 9.52L91.95 12.60L92.44 12.60ZM88.17 3.50L90.48 9.07L85.86 9.07ZM100.59 9.74L100.21 9.90C100.84 11.77 101.89 12.71 103.36 12.71C104.28 12.71 104.97 12.45 105.43 11.93C105.90 11.41 106.13 10.77 106.13 10.01C106.13 9.66 106.08 9.35 105.96 9.06C105.84 8.78 105.71 8.55 105.57 8.37C105.42 8.19 105.22 8.02 104.96 7.86C104.70 7.70 104.48 7.58 104.32 7.50C104.16 7.43 103.94 7.34 103.66 7.22C103.62 7.21 103.50 7.16 103.31 7.08C103.11 7.01 102.99 6.96 102.94 6.94C102.90 6.91 102.79 6.87 102.62 6.80C102.45 6.73 102.34 6.67 102.29 6.64C102.24 6.60 102.15 6.54 102.02 6.45C101.89 6.37 101.80 6.30 101.75 6.24C101.71 6.18 101.64 6.10 101.56 6.00C101.47 5.90 101.41 5.80 101.38 5.70C101.35 5.61 101.32 5.50 101.29 5.38C101.26 5.25 101.25 5.12 101.25 4.98C101.25 4.41 101.45 3.95 101.84 3.62C102.24 3.29 102.73 3.12 103.32 3.12C104.45 3.12 105.23 3.77 105.67 5.07L106.08 4.90C105.87 4.23 105.54 3.69 105.07 3.29C104.60 2.89 104.02 2.69 103.33 2.69C102.64 2.69 102.04 2.90 101.53 3.33C101.03 3.76 100.77 4.33 100.77 5.04C100.77 5.39 100.84 5.71 100.99 5.99C101.13 6.27 101.35 6.51 101.63 6.71C101.92 6.91 102.17 7.07 102.40 7.17C102.63 7.28 102.93 7.41 103.29 7.55C103.57 7.65 103.76 7.72 103.87 7.77C103.97 7.82 104.14 7.90 104.38 8.02C104.63 8.13 104.80 8.24 104.91 8.34C105.02 8.45 105.14 8.58 105.29 8.75C105.43 8.92 105.53 9.11 105.59 9.32C105.64 9.54 105.67 9.78 105.67 10.05C105.67 10.72 105.48 11.27 105.10 11.68C104.73 12.09 104.16 12.29 103.40 12.29C102.17 12.29 101.23 11.44 100.59 9.74ZM120.54 2.80L117.53 8.16L114.65 2.80L114.11 2.80L117.31 8.62L117.31 12.60L117.75 12.60L117.75 8.61L121.07 2.80Z"></path></g></svg>