<?xml version="1.0" encoding="UTF-8" standalone="no"?>
<svg
   version="1.1"
   viewBox="0 0 1129 663"
   id="svg77"
   sodipodi:docname="undraw_attributico_douple.svg"
   inkscape:version="1.3.2 (091e20e, 2023-11-25, custom)"
   xmlns:inkscape="http://www.inkscape.org/namespaces/inkscape"
   xmlns:sodipodi="http://sodipodi.sourceforge.net/DTD/sodipodi-0.dtd"
   xmlns:xlink="http://www.w3.org/1999/xlink"
   xmlns="http://www.w3.org/2000/svg"
   xmlns:svg="http://www.w3.org/2000/svg">
  <sodipodi:namedview
     id="namedview77"
     pagecolor="#ffffff"
     bordercolor="#000000"
     borderopacity="0.25"
     inkscape:showpageshadow="2"
     inkscape:pageopacity="0.0"
     inkscape:pagecheckerboard="0"
     inkscape:deskcolor="#d1d1d1"
     inkscape:zoom="0.87422498"
     inkscape:cx="564.5"
     inkscape:cy="331.15046"
     inkscape:window-width="1920"
     inkscape:window-height="1009"
     inkscape:window-x="-8"
     inkscape:window-y="-8"
     inkscape:window-maximized="1"
     inkscape:current-layer="svg77" />
  <path
     transform="scale(0.64736,0.64746)"
     d="m0 0h1742.5c1.02 1.6116 1.29 2.829 1.38 4.7128 0.69 13.992 0.1 28.296 0.1 42.313l0.01 81.987 0.01 250.85 0.01 431.8v93.478c0 8.197 1.39 28.686-0.48 35.514-0.16 0.584-0.41 1.151-0.68 1.692 0.96 3.081 0.94 3.593 0.12 6.719 1.84 4.665 1.94 69.971 0.14 73.841-0.24 0.52-0.34 0.66-0.61 1.1h-1742.5v-1024z"
     fill="#FAFAFA"
     id="path1" />
  <defs
     id="defs3">
    <linearGradient
       id="gradient_0"
       x1="862.84"
       x2="874.72"
       y1="421.89"
       y2="1018.4"
       gradientUnits="userSpaceOnUse">
      <stop
         stop-color="#0D0A0A"
         offset="0"
         id="stop2" />
      <stop
         stop-color="#121E23"
         offset="1"
         id="stop3" />
    </linearGradient>
  </defs>
  <path
     id="Path_299"
     data-name="Path 299"
     d="m 1005.915,486.96739 q -1.74,3.75 -3.47,7.4 -2.69995,5.67 -5.32995,11.12 c -0.78,1.61 -1.56,3.19 -2.32,4.77 -8.6,17.57 -16.63,33.11 -23.45,45.89 a 73.21,73.21 0 0 1 -63.81,38.7 l -151.65,1.65 h -1.6 l -13,0.14 -11.12,0.12 -34.1,0.37 h -1.38 l -17.36,0.19 h -0.53 l -107,1.16 -95.51,1 -11.11,0.12 -69,0.75 h -0.08 l -44.75,0.48 h -0.48 l -141.5,1.53 -42.33,0.46 a 87.991,87.991 0 0 1 -10.79,-0.54 v 0 c -1.22,-0.14 -2.44,-0.3 -3.65,-0.49 a 87.38,87.38 0 0 1 -51.290009,-27.54 c -18.21,-20.03 -31.46,-43.4 -40.36,-68.76 q -1.93,-5.49 -3.6,-11.12 c -30.81,-104.15 6.75,-238.52 74.350009,-328.44 q 4.25,-5.64 8.64,-11 l 0.07,-0.08 c 20.79,-25.52 44.1,-46.84 68.93,-62 44,-26.91 92.75,-34.49 140.7,-11.9 40.57,19.12 78.45,28.11 115.17,30.55 3.71,0.24 7.42,0.42 11.11,0.53 84.23,2.65 163.17,-27.7 255.87,-47.29 3.69,-0.78 7.39,-1.55 11.12,-2.28 66.13,-13.16 139.49,-20.1 226.73,-5.51 a 189.089,189.089 0 0 1 26.76,6.4 q 5.76995,1.86 11.11995,4 c 41.64,16.94 64.35,48.24 74,87.46 q 1.37,5.46 2.37,11.11 c 17.11,94.34 -33,228.16 -76.37,321.05 z"
     fill="#f2f2f2" />
  <path
     d="m 543.81387,494.66358 a 95.21,95.21 0 0 1 -1.87,11.12 h 93.7 v -11.12 z m -78.25,62.81 11.11,-0.09 v -27.47 c -3.81,-0.17 -7.52,-0.34 -11.11,-0.52 z m -232.92,-62.81 v 11.12 h 198.5 v -11.12 z m 849.68003,-339.52 h -74 V 67.653576 q -5.35,-2.17 -11.12003,-4 v 91.490004 h -253.54 V 62.723576 c -3.73,0.73 -7.43,1.5 -11.12,2.28 v 90.140004 h -255.87 v -42.85 c -3.69,-0.11 -7.4,-0.29 -11.11,-0.53 v 43.38 h -255.87 V 93.143576 c -24.83,15.160004 -48.14,36.480004 -68.93,62.000004 h -0.07 v 0.08 q -4.4,5.4 -8.64,11 h 8.64 v 328.44 h -83 q 1.66,5.63 3.6,11.12 h 79.39 v 93.62 a 87,87 0 0 0 12.2,2.79 c 1.21,0.19 2.43,0.35 3.65,0.49 a 87.991,87.991 0 0 0 10.79,0.54 l 42.33,-0.46 v -97 h 255.91 v 94.21 l 11.11,-0.12 v -94.07 h 255.87 v 91.36 l 11.12,-0.12 v -91.24 h 253.49 v 4.77 c 0.76,-1.58 1.54,-3.16 2.32,-4.77 q 2.63003,-5.45 5.33003,-11.12 1.73,-3.64 3.47,-7.4 v -321 h 76.42 q -1.01,-5.69 -2.37,-11.12 z m -872.63003,339.52 v -328.44 h 255.87 v 328.44 z m 267,0 v -328.44 h 255.85 v 328.44 z m 520.48,0 h -253.51 v -328.44 h 253.49 z"
     opacity="0.1"
     data-name="Path 300"
     id="path4" />
  <path
     transform="scale(0.64736,0.64746)"
     d="m1369.7 501.06c0.21 0.137 0.42 0.271 0.63 0.411 1.02 0.687 1.82 1.594 2.66 2.487l0.7-0.387 0.35-2.387 0.51 0.044 0.05 0.522c0.55 5.057-9.72 30.089-11.51 37.642-16.41 69.246-9.53 135.22 18.28 200.24 1.04 2.448 2.63 4.908 2.08 7.611 2.92 2.045 10.58 13.478 11.27 17.098 0.05 0.272 0.08 0.547 0.13 0.82l-4.5 1.859c-1.04-4.681-7.85-14.527-10.96-18.308-0.4-5.271-7.61-17.089-9.9-22.613-5.52-13.367-9.34-28.842-12.44-42.924-10.74-48.732-9.66-97.647 1.43-146.15 2.72-11.875 9.38-23.522 11.14-35.387 0.03-0.191 0.05-0.382 0.08-0.573z"
     fill="#0C1216"
     id="path2" />
  <path
     d="m1369.7 501.06 0.35-0.579c5.12-8.451 8.67-17.985 13.59-26.622 16.32-28.66 40.99-54.605 73.87-62.866 22.64-5.689 45.59-1.484 65.5 10.47 40.15 24.117 63.78 70.769 74.67 114.9 17.16 69.519 12.92 155.95-24.99 218.26-16.72 27.475-40.62 53.921-73.16 61.715q-3.94 0.92-7.95 1.526c1.84 4.114 2.11 80.06 0.33 84.423-0.21 0.509-0.29 0.606-0.58 1.134 39.15 2.481 230.47 15.307 250.49 37.152 0.52 0.563 0.82 1.052 1.08 1.766 0.96 3.081 0.94 3.593 0.12 6.719-0.11 0.238-0.2 0.491-0.34 0.715-7.98 12.886-50.5 24.594-64.76 27.695-28.74 6.254-57.9 10.017-87.1 13.383q-84.34 9.208-169.12 12.408-94.9 4.61-189.86 7.71-291.35 11.38-582.89 6.96-171.42-4.15-342.51-15.67-79.97-4.896-159.68-13.003c-32.922-3.371-66.89-5.798-98.932-14.553q-4.8454-1.305-9.5775-2.975-4.7321-1.671-9.3232-3.697-4.5912-2.025-9.0149-4.395t-8.6541-5.07c-3.5723-2.318-8.0612-5.55-8.7664-10.074-0.38106-2.444 0.60309-4.597 2.1153-6.464 13.131-16.215 81.191-23.47 101.59-25.308 1.9 1.039 1.854 1.034 2.526 3.099-0.298 0.52-0.43 1.18-0.893 1.561-2.832 2.329-77.482 8.742-95.062 20.082-2.238 1.444-4.0253 3.006-4.5806 5.622 2.2864 5.4 10.059 9.538 15.096 12.274 12.15 6.601 25.583 10.247 39.029 13.135 27.98 6.012 57.117 8.422 85.579 11.335q71.556 7.475 143.37 11.78 134.98 9.331 270.19 14.201 194.59 4.97 389.24 2.91 194.65-2.06 389.09-11.14c75.92-3.32 151.94-6.176 227.61-13.518 43-4.173 88.56-8.826 130.08-21.145 9.58-2.84 34.68-11.674 39.61-20.731-0.11-1.911-0.05-2.374-1.49-3.809-16.75-16.626-212.84-32.585-244.74-33.614 0.62 0.996 1.16 2.07 1.36 3.236 1.05 6.132 1.64 30.07-1.38 34.741-9.41 0.567-19.2-0.097-28.65-0.19 0.34-0.589 0.62-1.191 0.83-1.838 1.61-4.871 1.71-33.918-0.52-38.669-19.06-3.432-111.87-3.945-119.19-7.568 0.24-1.755 0.35-2.046 1.42-3.446 5.19-1.979 103.87 4.112 117.63 5.511 0.4-0.615 0.72-1.134 0.9-1.849 1.56-5.935 0.85-68.765 0.27-77.377-0.1-1.376-0.4-2.374-1.09-3.554-23.54-4.876-43.13-16.219-59.11-34.306-4.47-5.065-7.85-11.058-12.5-15.947l-0.48-0.492 4.5-1.859c4.95 2.806 10.14 11.672 14.09 16.305 10.78 12.633 24.65 21.436 40.06 27.285 4.17 1.583 8.53 2.571 12.66 4.255l0.5 0.209c2.81-4.624 1.5-38.804 1.32-46.944-0.77-34.476-16.93-61.392-48.82-76.005-6.97-3.195-17.73-5.593-23.26-10.886l0.94-2.195c1.86-0.453 3.73-0.784 5.64-0.898 19.03-1.127 49.88 6.902 64.45 19.724 0.08-0.271 0.17-0.54 0.24-0.812 1.99-7.365 0.85-17.739 0.89-25.434 0.23-38.345-4.52-63.154-31.46-92.336-4.83-5.236-21.99-18.428-23.51-20.949l0.79-1.13c2.82-0.875 5.22-0.634 8.09-0.254 10.67 1.417 24.05 11.536 32.02 18.72 4.49 4.048 14.97 13.229 15.06 19.326 0 0.156-0.01 0.311-0.02 0.466 0.34-0.578 0.64-1.152 0.96-1.741 4.83-8.98 6.67-99.915 10.85-119.51 1.35-1.372 1.2-1.482 3.25-1.499l1.27 1.629c1.27 10.079 6.55 73.554 4.9 78.615 4.19-2.496 7.58-6.758 11.72-9.574 10.68-7.261 25.91-10.741 38.73-7.837 2.01 0.456 2.35 0.986 3.42 2.586-2.06 4.996-14.62 7.666-19.42 10.01-7.59 3.704-14.61 10.309-19.42 17.184-14.54 20.753-8.99 45.63-8.44 69.306 0.12 5.311 0.6 11.14-1.08 16.244 15.72-5.669 21.63-11.242 40.11-13.518 8.87-1.092 34.7-1.332 41.3 3.83l0.16 1.417c-3.71 4.424-19.51 4.689-25.67 6.173-24.65 5.932-49.1 18.679-53.63 46.244-1.91 11.634-0.89 24.37-0.87 36.192l0.23 58.824c0.05 6.48 1.61 18.91-1.71 24.312 20.58-2.172 40.39-15.786 54.31-30.389 44.82-47.021 57.88-116.38 56.33-179.25-1.33-53.835-19.04-121.66-59.39-159.89-18.6-17.624-40.41-29.864-66.67-29.083-39.98 1.19-70.04 31.115-88.84 63.893-3.8 6.625-6.85 18.491-11.96 23.632-0.12 0.12-0.25 0.232-0.37 0.348l-0.05-0.522-0.51-0.044-0.35 2.387-0.7 0.387c-0.84-0.893-1.64-1.8-2.66-2.487-0.21-0.14-0.42-0.274-0.63-0.411z"
     fill="url(#gradient_0)"
     id="path3"
     transform="scale(0.64736,0.64746)" />
  <path
     transform="scale(.64736 .64746)"
     d="m1477.3 512.42c4.4 1.226 1.53 41.454 7.37 46.645 5.17-1.579 10.94-9.814 15.81-13.068 6.79-4.533 13.87-6.381 21.66-8.359-1.65 3.736-14.67 10.791-18.48 14.475-5.19 5.013-9.7 11.575-12.74 18.098q-0.92 1.952-1.67 3.975-0.75 2.022-1.34 4.1-0.58 2.078-0.98 4.197-0.41 2.119-0.64 4.265c-0.94 8.926-0.17 63.117 2.17 69.45 0.46 0.333 0.83 0.86 1.38 0.999 0.22 0.057 13.5-8.136 15.68-9.044 13.88-5.797 26.62-7.447 41.57-8.407-1.73 1.764-5.5 2.693-7.84 3.584-17.55 6.677-33.07 12.917-43.77 29.551-3.18 4.954-5.83 10.377-6.82 16.228-2.97 17.489-1.14 39.761-1.15 57.848-0.01 18.436 1.78 188.76-1.35 194.36-4.27-0.139-9.02 0.881-13.1 0.493-1.87-0.178-2.75-1.761-3.83-3.085-0.29-2.091-0.72-3.802-1.57-5.743l-0.25-0.559c0.41-0.696 0.8-1.358 1.05-2.133 1.59-5.086 0.78-166.92-0.49-178.55-1-9.153-4.24-19.097-8.44-27.304-10.09-19.685-31.02-35.964-51.91-42.609 15.48 1.421 28.91 6.058 42.8 12.922 4.47 2.208 11.91 9.1 16.55 8.67 0.18-0.231 0.37-0.453 0.53-0.694 3.67-5.451 0.84-63.964-1.34-73.797-5.09-22.956-21.35-51.586-41.54-64.383 25.52 8.729 37.69 35.816 43.95 38.548l1.67-0.758c2.61-4.042 7.8-82.207 7.06-89.915z"
     fill="#9ED9C7"
     id="path5" />
  <path
     transform="scale(.64736 .64746)"
     d="m1374.6 501.75c0.12-0.116 0.25-0.228 0.37-0.348 5.11-5.141 8.16-17.007 11.96-23.632 18.8-32.778 48.86-62.703 88.84-63.893 26.26-0.781 48.07 11.459 66.67 29.083 40.35 38.233 58.06 106.05 59.39 159.89 1.55 62.864-11.51 132.23-56.33 179.25-13.92 14.603-33.73 28.217-54.31 30.389 3.32-5.402 1.76-17.832 1.71-24.312l-0.23-58.824c-0.02-11.822-1.04-24.558 0.87-36.192 4.53-27.565 28.98-40.312 53.63-46.244 6.16-1.484 21.96-1.749 25.67-6.173l-0.16-1.417c-6.6-5.162-32.43-4.922-41.3-3.83-18.48 2.276-24.39 7.849-40.11 13.518 1.68-5.104 1.2-10.933 1.08-16.244-0.55-23.676-6.1-48.553 8.44-69.306 4.81-6.875 11.83-13.48 19.42-17.184 4.8-2.344 17.36-5.014 19.42-10.01-1.07-1.6-1.41-2.13-3.42-2.586-12.82-2.904-28.05 0.576-38.73 7.837-4.14 2.816-7.53 7.078-11.72 9.574 1.65-5.061-3.63-68.536-4.9-78.615l-1.27-1.629c-2.05 0.017-1.9 0.127-3.25 1.499-4.18 19.599-6.02 110.53-10.85 119.51-0.32 0.589-0.62 1.163-0.96 1.741 0.01-0.155 0.02-0.31 0.02-0.466-0.09-6.097-10.57-15.278-15.06-19.326-7.97-7.184-21.35-17.303-32.02-18.72-2.87-0.38-5.27-0.621-8.09 0.254l-0.79 1.13c1.52 2.521 18.68 15.713 23.51 20.949 26.94 29.182 31.69 53.991 31.46 92.336-0.04 7.695 1.1 18.069-0.89 25.434-0.07 0.272-0.16 0.541-0.24 0.812-14.57-12.822-45.42-20.851-64.45-19.724-1.91 0.114-3.78 0.445-5.64 0.898l-0.94 2.195c5.53 5.293 16.29 7.691 23.26 10.886 31.89 14.613 48.05 41.529 48.82 76.005 0.18 8.14 1.49 42.32-1.32 46.944l-0.5-0.209c-4.13-1.684-8.49-2.672-12.66-4.255-15.41-5.849-29.28-14.652-40.06-27.285-3.95-4.633-9.14-13.499-14.09-16.305-0.05-0.273-0.08-0.548-0.13-0.82-0.69-3.62-8.35-15.053-11.27-17.098 0.55-2.703-1.04-5.163-2.08-7.611-27.81-65.012-34.69-130.99-18.28-200.24 1.79-7.553 12.06-32.585 11.51-37.642z"
     fill="#9ED9C7"
     id="path6" />
  <path
     d="m872.06 188.7 280.06-0.057 88.71-0.041c15.52-6e-3 32.11-1.183 47.48 0.696 5.97 0.731 11.11 3.695 15.36 7.887 6.25 6.16 8.28 12.614 9.13 21.22 0.89 8.947 0.39 18.27 0.37 27.27l-0.12 46.085-0.18 144.1-0.09 464.65c0.1 13.894 1.44 27.662-9.26 38.265-4.17 4.134-10.5 6.95-16.35 7.412-9.38 0.741-19.16 0.205-28.57 0.198l-52.01-1e-3 -165.13-0.013-517.96 0.077-275.52 0.096c-12.129 0-24.836 0.788-36.868-0.654-5.459-0.654-9.771-2.582-13.858-6.303-8.054-7.331-9.336-16.831-9.899-27.076-11.367 1.774-23.372 3.023-34.831 4.165-2.777 0.276-4.065-0.312-6.131-1.985l0.112-1.938c4.675-3.14 33.514-5.135 40.968-5.971 0.706-16.689 0.351-33.543 0.421-50.251l-0.137-113.77-0.014-314.47c-14.659-0.042-30.465 0.72-42.565-9.066-11.318-9.156-14.023-22.686-15.577-36.366 12.354-26.613 26.832-52.579 40.378-78.616 5.426-10.427 13.22-22.289 16.535-33.536 5.328-18.08-4.314-45.739 3.712-63.975q0.512-1.169 1.128-2.285 0.616-1.117 1.331-2.173 0.716-1.056 1.525-2.042t1.705-1.894c4.472-4.528 10.473-8.166 16.873-8.886 8.189-0.922 16.764-0.467 25.009-0.484l43.728-0.019 141.28 0.047 449.26-0.303z"
     fill="#0C1216"
     id="path7"
     transform="scale(.64736 .64746)" />
  <g
     id="g79">
    <g
       fill="#FAFAFA"
       id="g15">
      <path
         transform="scale(.64736 .64746)"
         d="m601.79 385.77c28.855-1.532 58.438-0.224 87.351-0.112-0.408 10.562-4.409 17.787-10.911 25.819-7.212 6.257-14.825 9.644-24.356 10.689-13.414 1.471-28.175 0.161-38.974-8.669-8.855-7.239-11.92-16.73-13.11-27.727z"
         id="path8" />
      <path
         transform="scale(.64736 .64746)"
         d="m433.9 385.49q33.045-0.207 66.089 0.028c-0.46 5.001-0.885 9.899-2.784 14.606-3.964 9.822-11.466 15.749-21.024 19.762-3.737 1.34-7.914 2.028-11.865 2.416-13.321 1.31-27.841-0.291-38.451-9.177-8.67-7.261-11.719-16.604-12.675-27.496l20.71-0.139z"
         id="path9" />
      <path
         transform="scale(.64736 .64746)"
         d="m786.86 385.81 87.597-0.105c-1.228 10.844-4.137 17.812-10.967 26.224-7.986 6.837-16.695 9.988-27.161 10.671-13.068 0.853-27.278-0.669-37.414-9.756-7.779-6.974-11.449-16.777-12.055-27.034z"
         id="path10" />
      <path
         transform="scale(.64736 .64746)"
         d="m726.35 385.48c17.619-0.163 35.641-0.894 53.21 0.286 1.71 1.081 2.039 1.98 2.412 4.019 0.834 4.556-2.783 10.77-5.135 14.42-6.124 9.507-14.589 15.118-25.547 17.493-13.898 0.783-29.427 2.379-41.564-5.826-10.757-7.272-13.982-18.147-16.264-30.21l32.888-0.182z"
         id="path11" />
      <path
         transform="scale(.64736 .64746)"
         d="m320.94 385.36 56.486-0.048c9.416-4e-3 20.145-0.938 29.381 0.699 1.027 1.525 1.547 2.158 1.623 4.069 0.319 7.993-6.203 17.116-11.495 22.548-10.245 8.189-22.156 10.55-35.022 10.395-12.01-0.146-23.812-3.603-32.318-12.491-6.945-7.256-8.792-15.393-8.655-25.172z"
         id="path12" />
      <path
         transform="scale(.64736 .64746)"
         d="m263.37 385.51c17.494-0.305 35.017-0.15 52.515-0.201 0.151 8.241-0.917 15.331-5.848 22.197-6.778 9.436-16.57 13.224-27.581 15.025-9.155 0.143-22.237 1.724-30.859-1.818-10.072-4.138-17.483-12.863-21.659-22.726-1.36-3.213-2.826-6.744-1.411-10.161 5.016-4.028 27.316-2.323 34.843-2.316z"
         id="path13" />
      <path
         transform="scale(.64736 .64746)"
         d="m135.15 385.85q44.08-0.372 88.159 5e-3c0.047 11.749-2.465 18.323-10.344 27.056-6.216 5.672-13.561 8.561-21.843 9.717-13.605 1.899-30.299 1.536-41.616-7.044-10.102-7.658-12.628-17.867-14.356-29.734z"
         id="path14" />
      <path
         transform="scale(.64736 .64746)"
         d="m505.57 385.66 91.68 0.031c-0.813 10.565-3.469 18.523-10.573 26.43-8.69 7.184-17.93 9.813-29.037 10.436-14.498 0.814-29.976 0.647-41.33-9.763-8.199-7.517-10.379-16.435-10.74-27.134z"
         id="path15" />
    </g>
    <path
       transform="scale(.64736 .64746)"
       d="m551.06 280.76c5.189 7.138 8.692 17.638 12.412 25.724q16.897 36.695 32.973 73.757l-45.057-0.15-46.543 0.086c15.852-32.809 28.728-67.48 46.215-99.417z"
       fill="#f6575e"
       id="path16" />
    <path
       transform="scale(.64736 .64746)"
       d="m463.06 275.07 84.646 0.114c-17.051 34.499-32.385 69.893-48.49 104.84l-85.59-0.091c17.4-34.448 32.452-70.182 49.434-104.86z"
       fill="#FAFAFA"
       id="path17" />
    <path
       transform="scale(.64736 .64746)"
       d="m554.95 275.15q41.689-0.336 83.378-0.114 25.101 52.67 50.845 105.03c-28.986 0.569-58.105-0.011-87.103 0.012-6.052-15.944-14.153-31.632-21.263-47.182-8.772-19.183-16.963-38.619-25.857-57.746z"
       fill="#f6575e"
       id="path18" />
    <path
       transform="scale(.64736 .64746)"
       d="m280.86 274.96q42.056-0.329 84.112-0.047c-8.949 21.743-19.83 42.881-29.877 64.147-6.279 13.292-11.972 28.691-20.04 40.95l-85.299 0.021c17.829-34.577 34.224-70.017 51.104-105.07z"
       fill="#FAFAFA"
       id="path19" />
    <g
       fill="#f6575e"
       id="g22">
      <path
         transform="scale(.64736 .64746)"
         d="m735.55 275.09 85.579 0.122c7.395 12.119 13.123 26.199 19.376 38.968l32.747 66.098-85.777-0.083-51.925-105.1z"
         id="path20" />
      <path
         transform="scale(.64736 .64746)"
         d="m191.02 275.12q41.866-0.283 83.732-0.12c-4.767 10.259-47.776 101.78-50.659 104.4-0.446 0.406-1.11 0.471-1.664 0.706q-42.776-0.22-85.552 0.033c9.539-20.463 20.516-40.464 31.044-60.434 7.807-14.807 15.217-29.82 23.099-44.589z"
         id="path21" />
      <path
         transform="scale(.64736 .64746)"
         d="m370.67 275.13 86.186 0.023-49.007 104.77-86.044 0.117c15.425-35.265 34.583-69.207 48.865-104.91z"
         id="path22" />
    </g>
  </g>
  <g
     id="g78">
    <path
       transform="scale(.64736 .64746)"
       d="m644.03 275.22 85.702-0.117c5.296 11.695 11.48 23.157 17.157 34.687q17.188 35.307 35.047 70.278l-87.238-0.072c-3.951-10.668-10.366-21.229-15.313-31.549q-17.468-36.715-35.355-73.227z"
       fill="#FAFAFA"
       id="path23" />
    <path
       transform="scale(.64736 .64746)"
       d="m1290.8 275.59c5.11-0.484 10.47-0.147 15.61-0.132 1.1 1.853 1.23 3.534 1.27 5.657 0.79 44.327-0.01 88.795-0.07 133.14l-0.4 268.47v158.69l0.21 49.282c0.05 8.86 0.57 18.007 0 26.839-0.41 6.164-2.3 12.12-6.74 16.574-3.85 3.87-8.46 6.122-13.9 6.488-12.52 0.842-25.53 0.094-38.11 0.07l-73.54-0.089-229.87-3e-3 -717.48 0.753c-9.475 0.067-20.98 0.471-28.166-6.866-3.718-3.796-6.048-9.619-6.549-14.863-1.513-15.848-0.353-32.536-0.254-48.499l0.231-87.025-0.288-294.02-0.065-62.319c5.431-1.294 10.526-2.894 15.744-4.876l0.263 324.24-0.17 86.511c-0.018 13.292-1.537 28.86 0.655 41.935 0.976 5.827 5.655 12.745 10.497 16.056 3.213 2.197 6.918 3.509 10.734 4.166 9.24 1.593 19.597 0.507 28.973 0.434l40.855 0.054 166.22-0.075 596.58 0.074 148.56 1e-3c12.44 0 48.1 1.612 58.41-0.649 7.01-1.538 12.83-6.73 16.63-12.634 3.56-5.525 4.68-11.026 4.86-17.522 1.07-38.374-0.07-77.012 0.04-115.43l-0.31-306.27 0.1-111.93c0.09-13.867 2.04-44.055-0.53-56.241z"
       fill="#505051"
       id="path24" />
    <path
       transform="scale(.64736 .64746)"
       d="m213.2 194.5c14.552-0.689 29.336-0.176 43.91-0.182l81.598-0.017 254.79 0.082 679.1 0.078c5.48 0.054 18.8-0.855 23.03 2.566 5.43 4.393 9.05 10.299 10.88 17.026 2.09 7.655 3.34 50.218-0.04 56.202l-23.38-0.123-624.1-0.422-249.09-0.132q-108.67-0.487-217.34 0.164c0.054-15.912-3.245-50.63 4.213-63.536 3.809-6.59 9.253-9.786 16.434-11.706z"
       fill="#156eac"
       id="path25" />
    <path
       transform="scale(.64736 .64746)"
       d="m1136.3 215.1c5.12-0.701 9.62-0.065 13.94 2.903q0.77 0.537 1.49 1.147t1.37 1.287 1.24 1.416q0.58 0.738 1.09 1.53t0.94 1.63 0.77 1.715q0.35 0.876 0.61 1.782 0.25 0.905 0.42 1.832c0.88 4.814-0.04 9.978-2.86 14.02-3.28 4.703-7.69 6.625-13.16 7.621-2.79 0.391-5.84-0.083-8.47-1.08-4.23-1.602-7.52-4.559-9.37-8.706-2.21-4.97-2.19-10.775-0.17-15.804 2.46-6.112 6.28-8.767 12.16-11.293z"
       fill="#0C1216"
       id="path26" />
    <path
       transform="scale(.64736 .64746)"
       d="m1135.1 221.07c3.68-0.78 6.99-1.208 10.51 0.577q0.64 0.331 1.25 0.725 0.61 0.393 1.18 0.845 0.56 0.452 1.08 0.958t0.99 1.061q0.46 0.555 0.87 1.154t0.75 1.235q0.35 0.636 0.63 1.303 0.29 0.668 0.5 1.36c0.96 3.152 0.69 6.548-0.98 9.414-1.92 3.306-4.5 4.74-8.05 5.776-0.87 0.587-1.99 0.825-3.03 0.888-3.34 0.201-6.54-0.794-8.89-3.261-2.59-2.73-3.45-6.35-3.42-10.015 0.03-5.424 3.01-8.477 6.61-12.02z"
       fill="#77CDEB"
       id="path27" />
    <path
       transform="scale(.64736 .64746)"
       d="m1243.8 215.11c4.83-0.72 9.31-0.645 13.7 1.754q0.43 0.228 0.84 0.478 0.42 0.25 0.82 0.521t0.79 0.562 0.76 0.601 0.73 0.639q0.35 0.329 0.69 0.676 0.34 0.346 0.66 0.71 0.32 0.363 0.63 0.743 0.3 0.379 0.58 0.773 0.28 0.395 0.54 0.803 0.27 0.408 0.51 0.829t0.45 0.853q0.22 0.433 0.42 0.876 0.2 0.444 0.37 0.896 0.17 0.453 0.32 0.914t0.28 0.929c1.32 4.891 0.72 10.149-1.94 14.487-2.95 4.811-7.49 7.386-12.87 8.592-2.04 0.806-4.26 0.547-6.37 0.129-4.61-0.91-8.33-3.47-10.8-7.466-2.98-4.805-4.07-10.563-2.63-16.069 1.75-6.674 5.75-9.925 11.52-13.23z"
       fill="#0C1216"
       id="path28" />
    <path
       transform="scale(.64736 .64746)"
       d="m1244.6 221.07c3.75-0.478 6.79-0.989 10.32 0.877 3.32 1.757 5.95 5.092 6.94 8.705 0.88 3.162 0.54 6.448-1.14 9.283-1.8 3.043-4.52 4.959-7.91 5.845-1.29 0.383-2.71 0.614-4.06 0.475-3.28-0.341-6.42-1.442-8.51-4.138-2.32-3.003-3.06-7.619-2.54-11.347 0.66-4.732 3.36-6.968 6.9-9.7z"
       fill="#F1CD92"
       id="path29" />
    <path
       transform="scale(.64736 .64746)"
       d="m1190.1 215.1c4.87-0.789 9.34-0.411 13.68 2.096q0.42 0.243 0.82 0.506 0.41 0.264 0.8 0.547t0.77 0.586 0.74 0.624 0.71 0.66q0.34 0.339 0.67 0.695t0.64 0.728 0.6 0.759q0.29 0.386 0.56 0.787t0.52 0.815 0.48 0.841q0.23 0.426 0.44 0.863t0.39 0.884q0.19 0.447 0.35 0.902 0.16 0.456 0.3 0.919t0.26 0.933q0.12 0.458 0.21 0.921t0.16 0.931q0.07 0.467 0.12 0.937 0.04 0.47 0.06 0.942 0.03 0.472 0.02 0.945 0 0.472-0.03 0.944-0.02 0.471-0.07 0.941t-0.13 0.937q-0.07 0.466-0.17 0.928t-0.22 0.919-0.26 0.907q-0.15 0.449-0.32 0.891-0.16 0.442-0.35 0.875t-0.4 0.856q-0.21 0.422-0.44 0.834-0.24 0.411-0.49 0.81c-2.87 4.463-7.14 7.268-12.24 8.429-2.04 0.56-4.64 0.218-6.68-0.3-4.88-1.238-9.04-3.65-11.63-8.079-2.63-4.506-3.54-10.024-2.15-15.088 1.92-7.025 6.25-10.084 12.28-13.625z"
       fill="#0C1216"
       id="path30" />
    <path
       transform="scale(.64736 .64746)"
       d="m1190.1 221.07c3.11-0.575 6.46-1.134 9.45 0.177 3.51 1.536 6.5 4.423 7.82 8.058 1.16 3.176 1.17 6.557-0.35 9.626-1.79 3.612-4.87 5.68-8.61 6.849-1.02 0.557-2.41 0.81-3.56 0.825-3.28 0.042-6.65-1.536-8.79-3.98-2.48-2.826-3.33-6.478-3.1-10.159 0.33-5.367 3.29-8.098 7.14-11.396z"
       fill="#E17871"
       id="path31" />
    <path
       d="m827.62 275.41c19.649-0.767 39.487-0.332 59.156-0.328l101.99 0.084 296.38 0.079c0.57 0.877 0.87 1.517 1.01 2.573 0.96 7.3 0.24 15.606 0.24 23.015l-0.03 47.19 0.17 152.36-0.01 251.64 0.05 73.356c0.04 13.036 0.73 26.382-0.04 39.381-0.37 6.42-2.01 13.097-6.16 18.168-4.27 5.214-9.97 7.264-16.45 7.983-14.83 0.965-30.2 0.185-45.08 0.192l-87.92 0.031-270.41 0.039 0.079-282.06c0.031-62.716-0.638-125.52 0.249-188.23q0.8-0.631 1.582-1.284c12.946-10.829 15.48-22.215 16.924-38.339-15.987-35.822-35.392-70.164-51.728-105.86z"
       fill="#FAFAFA"
       id="path32"
       transform="scale(.64736 .64746)" />
    <path
       transform="scale(.64736 .64746)"
       d="m915.48 774.61c13.308-0.909 27.151-0.146 40.525-0.151l81.646 0.026 66.82-0.093c11.86-0.05 24.27-0.841 36.09 0.065 4.44 0.341 8.29 1.707 12.07 4.06 4.92 3.056 9.61 8.033 10.78 13.874 0.98 4.904-1.22 9.335-3.84 13.338-3.6 5.482-8.55 7.816-14.83 9.124-6.17 2.034-30.96 0.649-39.28 0.743q-62.86 0.808-125.72 0.46c-19.315-0.04-38.771 0.472-58.067-0.118-3.153-0.096-6.689-0.112-9.589-1.466-5.11-2.386-9.302-6.703-11.185-12.033-2.066-5.851-1.009-12.553 1.694-18.024 2.648-5.357 7.431-7.955 12.887-9.805z"
       fill="#DCDBDB"
       id="path33" />
    <path
       transform="scale(.64736 .64746)"
       d="m1000.7 348.35c12.15-0.834 24.8-0.154 37-0.158l71.89-0.046 91.09-0.025c17.18 0.011 34.55-0.459 51.7 0.379 0.76 1.074 1.25 1.907 1.46 3.221 0.97 6.064 1.21 37.027-0.36 41.781-0.2 0.608-1.22 1.656-1.64 2.216-1.55 0.945-1.67 0.729-3.39 0.425l-0.55 1.673-0.45-0.745c-82.23-1.225-164.61-0.279-246.85-0.08-0.57-16.074-0.41-32.566 0.1-48.641z"
       fill="#0C1216"
       id="path34" />
    <path
       transform="scale(.64736 .64746)"
       d="m1005.8 353.58 241.85 0.073c0.49 0.783 0.88 1.563 1.05 2.487 0.97 5.545 1.22 31.434-1.77 35.316-7.31 0.916-15.62 0.213-23.02 0.19q-22.35-0.116-44.7 0.015l-173.5-0.079 0.09-38.002z"
       fill="#f6575e"
       id="path35" />
  </g>
  <g
     fill="#DCDBDB"
     id="g41">
    <path
       transform="scale(.64736 .64746)"
       d="m918.16 672.43c64.071-1.514 128.48-0.244 192.58-0.186l79.01 0.118c14.98 0.049 30.35-0.475 45.26 0.663 4.36 0.332 8.37 0.861 12.11 3.264 4.74 3.046 8.34 8.428 9.36 13.979q0.14 0.763 0.2 1.535 0.05 0.773 0.03 1.547-0.02 0.775-0.12 1.543t-0.28 1.522-0.43 1.486-0.58 1.433q-0.33 0.702-0.73 1.367t-0.86 1.285c-4.26 5.766-10.27 8.362-17.18 9.34-19.71 0.781-39.7 0.051-59.44 0.041q-65.94 0.088-131.88-0.495c-28.87-0.083-57.77 0.386-86.644 0.638-12.055 0.106-24.361 0.989-36.388 0.423-4.731-0.222-9.812-1.07-13.867-3.671-4.118-2.642-7.366-7.847-8.292-12.611-0.958-4.929 0.15-9.875 2.946-14.021 3.767-5.585 8.741-8.024 15.2-9.2z"
       id="path36" />
    <path
       transform="scale(.64736 .64746)"
       d="m1118.8 479.2q38.78-0.517 77.57-0.274c12.55-0.042 27.19-1.603 39.53 0.273 5.64 0.858 10.05 2.514 14.29 6.406 4.06 3.735 5.97 7.575 6.14 13.14 0.15 5.285-1.59 9.648-5.32 13.428-4.26 4.327-9.83 5.602-15.69 6.246-8.32 0.913-17.12 0.403-25.49 0.387q-23.66-0.038-47.31-0.316-64.05-0.741-128.1-0.489l-75.217 0.223c-13.9 0.174-29.826 2.111-43.442-0.086-3.985-0.644-7.036-2.229-9.988-4.965-4.213-3.905-6.203-9.349-6.314-15.05-0.086-4.433 1.326-8.379 4.468-11.55 3.943-3.979 9.626-6.049 15.077-6.806 7.366-1.023 15.409-0.365 22.846-0.302l36.015 0.082q70.465 0.181 140.94-0.347z"
       id="path37" />
    <path
       transform="scale(.64736 .64746)"
       d="m916.13 530.18c43.543-1.485 87.612 0.179 131.19 0.237l125.55 3e-3c12.64 0.02 60.66-1.855 69.95 1.753l0.51 0.204c1.22 0.472 2.39 0.934 3.5 1.643 4.58 2.93 8.21 8.042 9.23 13.403q0.09 0.442 0.15 0.888t0.11 0.895q0.04 0.449 0.06 0.899 0.01 0.45 0.01 0.9 0 0.451-0.03 0.901-0.03 0.449-0.08 0.897t-0.12 0.893q-0.08 0.444-0.17 0.885-0.1 0.44-0.21 0.875-0.12 0.435-0.26 0.863-0.14 0.429-0.3 0.849-0.16 0.421-0.35 0.833-0.18 0.412-0.38 0.814-0.21 0.402-0.43 0.793-0.22 0.392-0.47 0.771-0.24 0.379-0.5 0.746c-3.81 5.374-9.27 7.801-15.59 8.889-0.22 0.095-0.44 0.198-0.67 0.287-5.12 1.991-203.62 0.556-226.38 0.578-29.073 0.028-58.298 0.982-87.357 0.388-4.072-0.083-8.134-0.046-11.869-1.879-4.975-2.441-8.574-6.914-10.302-12.138q-0.168-0.505-0.31-1.017-0.143-0.512-0.259-1.031t-0.206-1.043-0.153-1.052-0.099-1.058q-0.036-0.531-0.045-1.062-0.01-0.532 8e-3 -1.064 0.018-0.531 0.062-1.061 0.045-0.53 0.116-1.057 0.071-0.526 0.169-1.049t0.223-1.04q0.124-0.517 0.274-1.027 0.151-0.51 0.327-1.011 0.176-0.502 0.377-0.994t0.427-0.974q0.226-0.481 0.476-0.95c3.024-5.774 7.791-8.619 13.819-10.58z"
       id="path38" />
    <path
       transform="scale(.64736 .64746)"
       d="m922.71 620.56c32.937-0.736 65.93-5e-3 98.873 0.169l108.25-0.047 67.64 0.071c13.18-0.028 27.14-0.938 40.21 0.533 4.37 0.491 8.32 2.723 11.6 5.578 4.03 3.507 7.21 8.294 7.49 13.756 0.26 4.893-1.99 9.606-5.3 13.105-5.53 5.84-11.58 7.837-19.42 7.953-77.45-1.256-155.09-0.124-232.57-0.309l-54.679 0.026c-9.312 0.01-19.982 0.981-29.146-0.652-5.121-0.912-10.01-3.467-12.997-7.821-2.931-4.271-3.695-9.862-2.609-14.873 1.718-7.92 6.306-12.501 12.896-16.753l9.76-0.736z"
       id="path39" />
    <path
       transform="scale(.64736 .64746)"
       d="m929.26 722.81 198.58 0.176q37.02-0.494 74.04-0.435c11.41 0.041 23.68-0.724 34.98 0.798q1.01 0.133 2.01 0.344 0.99 0.212 1.97 0.501t1.93 0.654 1.87 0.803q0.92 0.439 1.8 0.948 0.89 0.509 1.73 1.086t1.63 1.218q0.79 0.642 1.53 1.343c3.78 3.522 5.71 8.633 5.78 13.779 0.07 4.879-1.81 9.187-5.28 12.599-6.69 6.602-14.4 7.337-23.24 7.168q-109.4-0.578-218.8 0.219l-60.864 0.081c-10.498 9e-3 -21.9 0.891-32.282-0.497-5.002-0.668-9.968-3.467-12.947-7.582-3.204-4.426-4.19-10.411-3.19-15.727 1.478-7.848 6.041-12.433 12.393-16.813l16.362-0.663z"
       id="path40" />
    <path
       transform="scale(.64736 .64746)"
       d="m916.41 427.04c17.148-0.535 34.454-0.02 51.621-0.089l130.5-0.055 89.64-0.099c15.77-0.019 31.85-0.688 47.59 0.14 3.98 0.209 6.83 0.65 10.29 2.716 5.07 3.023 8.93 7.709 10.34 13.501 1.16 4.771 0.51 9.828-2.11 14.01-3.58 5.725-10.42 8.99-16.8 10.363-9.62 2.182-21.68 1.071-31.59 1.023l-57.02-0.444q-80.45 0.639-160.9 0.139c-24.914-0.119-50.046 0.477-74.929-0.716-6.048-3.305-10.417-7.671-12.486-14.354-1.618-5.228-1.202-11.2 1.489-16.003 3.136-5.597 8.355-8.514 14.364-10.132z"
       id="path41" />
  </g>
  <path
     transform="scale(.64736 .64746)"
     d="m784.5 400.06c4.5 9.989 10.164 17.66 20.179 22.756 14.815 7.537 35.074 6.105 50.451 1.128l0.052 467-388.98 0.209-150.17 0.049c-25.528 4e-3 -51.531 1.017-77.008-0.141-5.667-0.258-13.733-0.295-17.737-4.739l-0.393-0.444c-3.294-3.675-5.667-7.708-6.815-12.548-2.893-12.204-0.807-44.452-0.687-58.945l0.054-300.85c0.224-31.338-0.735-62.771 0.242-94.089 5.658-4.891 8.897-9.899 12.479-16.344 4.06 8.149 9.199 14.627 17.223 19.183 12.631 7.172 33.546 7.797 47.436 3.953 12.959-3.585 21.157-11.566 27.639-22.939 4.232 7.981 9.65 14.107 17.595 18.586 13.054 7.36 32.918 8.156 47.212 3.943 13.447-3.963 21.323-12.409 27.75-24.377 4.63 9.616 10.817 16.823 20.522 21.598 12.84 6.318 31.883 6.968 45.399 2.317 12.601-4.337 19.968-12.844 25.736-24.417 3.605 9.91 10.44 17.697 19.914 22.397 13.615 6.756 37.527 6.879 51.816 1.809 12.465-4.422 19.608-12.331 25.181-23.901 4.9 9.502 10.836 17.28 20.688 22.03 12.346 5.953 32.828 6.351 45.764 1.808 12.379-4.347 19.963-13.232 25.581-24.65 4.889 9.477 10.13 17.623 20.034 22.551 12.373 6.157 34.185 6.798 47.276 2.37 13.119-4.439 19.651-13.469 25.566-25.306z"
     fill="#FAFAFA"
     id="path42" />
  <path
     transform="scale(.64736 .64746)"
     d="m248.68 486.6c38.135-0.767 76.406-0.199 114.55-0.22 47.497-0.025 95.041-0.484 142.53 0.129 1.289 26.352 0.195 53.306 0.228 79.715l0.101 152.31-0.062 76.622c-7e-3 12.119 1.214 25.902-0.619 37.854l-257.39 0.144c-0.729-12.762-0.156-25.879-0.154-38.674l-0.016-74.052-0.114-166.16c-3e-3 -10.759-1.663-59.799 0.939-67.67z"
     fill="#0C1216"
     id="path43" />
  <g
     fill="#4C918C"
     id="g50">
    <path
       transform="scale(.64736 .64746)"
       d="m325.3 551.32c2.049 0.046 4.2 0.021 6.22 0.369 1.941 0.335 3.126 0.398 4.308 2.049-1.08 2.778-4.267 4.512-6.6 6.242-0.864 0.816-1.679 1.479-2.679 2.127-1.312 0.851-1.565 0.527-3.045 0.204-1.073-1.654-1.359-2.167-1.377-4.227-0.027-2.999 1.102-4.726 3.173-6.764z"
       id="path44" />
    <path
       transform="scale(.64736 .64746)"
       d="m274.45 745.22c1.924 0.141 2.509-0.038 4.027 1.225 1.123 4.026 1.661 9.16-0.314 13.007l-1.828 0.04c-1.683-1-3.578-2.061-5.053-3.342-1.773-1.54-1.842-2.857-2.011-5.02 0.862-2.744 3.032-4.188 5.179-5.91z"
       id="path45" />
    <path
       transform="scale(.64736 .64746)"
       d="m301.86 582.84c2.79 0.25 5.155 0.476 7.247 2.367 0.681 3.701-2.933 8.981-4.543 12.292l-0.974 0.078c-0.996-0.632-2.164-1.319-2.962-2.202-1.804-1.997-2.576-5.532-2.207-8.19 0.253-1.826 2.128-3.214 3.439-4.345z"
       id="path46" />
    <path
       transform="scale(.64736 .64746)"
       d="m359.25 531.36c1.779 0.482 3.381 1.17 4.976 2.087 2.574 1.48 4.061 2.984 4.825 5.847-1.49 2.167-2.76 2.118-5.149 2.815-2.042 0.601-3.618 0.968-5.752 0.87-1.034-0.523-2.137-1.02-2.84-1.977-0.978-1.333-1.18-2.548-0.882-4.195 0.471-2.61 2.816-4.049 4.822-5.447z"
       id="path47" />
    <path
       transform="scale(.64736 .64746)"
       d="m274.26 705.37c2.623 0.042 4.153-0.477 6.159 1.355 1.407 4.666 0.357 8.137-0.816 12.72l-1.556 0.4c-3.874-2.337-7.192-3.778-8.43-8.368 0.61-2.893 2.53-4.266 4.643-6.107z"
       id="path48" />
    <path
       transform="scale(.64736 .64746)"
       d="m281.26 663.67 3.676 0.154c1.357 1.455 1.484 2.371 1.582 4.32 0.151 3.002-0.987 9.211-2.945 11.444-2.745-1.594-5.137-3.121-6.931-5.815-1.332-2.001-1.344-3.529-0.883-5.82 1.232-2.546 3.073-3.191 5.501-4.283z"
       id="path49" />
    <path
       id="path50"
       transform="scale(.64736 .64746)"
       d="m287.9 623.73c0.386-0.045 0.772-0.094 1.159-0.121 2.572-0.18 3.593-0.407 5.539 1.33 0.978 4.433-1.844 10.94-3.015 15.423q-2.051-1.794-4.038-3.659c-2.418-2.288-3.831-4.018-3.93-7.487 0.754-2.764 2.145-3.807 4.285-5.486z"
       fill="#4C918C" />
  </g>
  <path
     d="m363.48 316.21c24.687-0.4966 49.462-0.12884 74.158-0.14244 30.748-0.0162 61.526-0.31337 92.27 0.0835 0.83445 17.062 0.12624 34.514 0.1476 51.612l0.0654 98.615-0.0401 49.61c-5e-3 7.8466 0.7859 16.771-0.40072 24.509l-166.62 0.0932c-0.47193-8.2629-0.10099-16.756-0.0997-25.04l-0.0104-47.946-0.0738-107.58c-2e-3 -6.966-1.0766-38.718 0.60788-43.814z"
     fill="#0c1216"
     stroke-width=".64741"
     id="path51" />
  <path
     transform="scale(.64736 .64746)"
     d="m280.52 783.34q110.1-0.574 220.21 0.271l-0.018 43.774-30.444-0.037q-108.68-0.53-217.36 0.483l0.177-44.3 27.441-0.191z"
     fill="#9ED9C7"
     id="path52" />
  <path
     transform="scale(.64736 .64746)"
     d="m428.27 682.04q2.138 0.885 4.153 2.022c10.967 6.279 20.209 19.472 23.219 31.641 1.46 5.901 1.775 11.641-1.459 16.938-2.538 1.293-5.781 2.742-8.631 2.144-2.785-4.942-3.011-17.574-4.897-23.944-2.992-10.102-7.74-19.39-12.385-28.801z"
     fill="#4C918C"
     id="path53" />
  <path
     transform="scale(.64736 .64746)"
     d="m252.98 491.71 247.78 0.095-0.038 286.42q-30.383-0.164-60.765 0.091c3.561-12.457 5-24.502 5.289-37.428 2.243-0.197 4.97-0.247 7.089-1.009 3.803-1.366 7.376-4.894 8.889-8.635 3.17-7.84-0.508-19.481-3.886-26.686q-0.607-1.303-1.277-2.574-0.671-1.271-1.404-2.507t-1.527-2.434q-0.794-1.197-1.646-2.354-0.853-1.157-1.762-2.27t-1.872-2.179q-0.964-1.066-1.979-2.083t-2.08-1.982q-1.064-0.965-2.176-1.876-1.111-0.911-2.266-1.765-1.156-0.854-2.352-1.65t-2.431-1.531-2.504-1.407q-1.27-0.673-2.571-1.281-1.302-0.609-2.632-1.151-1.33-0.543-2.686-1.019c-4.292-8.552-5.75-16.583-6.133-26.028 14.383 0.114 28.363-0.322 40.588-9.024 9.927-7.067 16.242-17.835 18.119-29.831 2.624-16.775-3.005-32.724-12.81-46.176-2.376-2.896-4.89-5.56-7.683-8.062-21.321-19.095-54.238-17.027-81.059-15.606-1.994-4.621-4.848-9.063-9.573-11.222-3.202-1.464-6.74-1.985-10.08-0.591-2.124 0.887-3.778 2.713-4.644 4.827-1.963 4.789-0.507 8.548 1.363 13.019-3.636 1.507-7.148 3.299-10.677 5.036-2.385-1.709-4.712-3.235-7.552-4.078-3.864-1.148-8.338-0.957-11.856 1.137-2.552 1.519-4.273 3.97-4.903 6.867-1.111 5.103 1.219 9.192 3.845 13.347l-7.748 12.066c-3.286-1.085-6.73-2.39-10.245-2.211-3.096 0.158-6.481 1.397-8.5 3.846-1.827 2.217-2.306 5.019-1.979 7.805 0.759 6.459 4.954 9.785 9.749 13.641l-5.133 15.247c-2.781-0.085-5.664-0.171-8.415 0.31-3.392 0.593-7.004 2.825-8.851 5.748-1.522 2.408-1.772 5.337-0.974 8.041 1.761 5.96 6.594 8.972 11.637 11.98l-2.652 13.988c-2.231 0.035-4.486 0.189-6.686 0.584-3.65 0.656-7.418 2.823-9.407 6.019-1.334 2.143-1.619 4.53-1.004 6.961 1.635 6.46 7.23 9.473 12.553 12.584q-1.069 7.571-1.921 15.169c-2.893 0.121-5.77 0.263-8.519 1.256-3.271 1.181-6.649 3.64-8.021 6.924-0.899 2.149-0.781 4.432 0.098 6.565 2.469 5.993 8.796 8.626 14.283 11.131l-0.308 13.278c-2.28 0.634-4.823 1.238-6.96 2.268-3.291 1.585-6.648 4.899-7.652 8.479-0.651 2.322-0.3 4.685 0.858 6.782 2.927 5.301 8.458 6.865 13.821 8.614l1.121 12.675-27.205 0.116-0.075-286.26z"
     fill="#77CDEB"
     id="path54" />
  <path
     transform="scale(.64736 .64746)"
     d="m376.9 545.53c15.707-2.357 46.1-1.503 60.505 4.384 13.421 5.486 25.518 17.395 31.017 30.838 4.871 11.909 5.265 26.405 0.08 38.275-7.079 16.205-23.177 23.76-40.219 24.069-3.469 0.063-10.019-0.838-12.999 0.608-1.842 0.895-2.122 3.108-2.222 4.953-0.863 15.987 7.067 29.073 13.868 42.819 13.814 27.923 16.871 56.318 7.765 86.288l-24.876-0.078-124.39 0.197c-3.879-54.854 4.874-160.8 38.506-204.17 13.199-17.023 32.027-25.577 52.964-28.179z"
     fill="#4C918C"
     id="path55" />
  <path
     transform="scale(.64736 .64746)"
     d="m406.13 600.58c9.009 4.361 8.55-0.041 16.352 0.618 0.966 1.723 0.679 2.045 0.354 3.931-3.733 2.527-6.469 3.39-10.988 2.887-2.694-0.3-5.069-0.96-6.836-3.143-0.226-2.201-0.035-2.372 1.118-4.293z"
     fill="#0C1216"
     id="path56" />
  <path
     transform="scale(.64736 .64746)"
     d="m384.26 571.81c3.207-0.379 6.982-0.73 10.134 0.077 3.787 0.969 8.805 3.808 10.651 7.384q0.153 0.29 0.275 0.594 0.121 0.305 0.21 0.62 0.088 0.316 0.142 0.64 0.055 0.323 0.074 0.65 0.02 0.328 4e-3 0.655-0.015 0.327-0.066 0.651-0.05 0.324-0.135 0.641-0.084 0.317-0.202 0.623c-1.407 3.625-5.823 5.54-9.142 6.922-2.577 0.328-5.396 0.549-7.978 0.221-4.152-0.529-9.185-2.554-11.636-6.129-1.174-1.712-1.513-3.706-0.933-5.702 1.213-4.173 5.074-5.974 8.602-7.847z"
     fill="#0C1216"
     id="path57" />
  <path
     transform="scale(.64736 .64746)"
     d="m384.64 576.88c4.399-0.566 8.811-0.605 12.892 1.421 1.962 0.975 2.269 1.312 2.984 3.348-1.431 2.288-2.603 2.719-4.922 3.966-3.38 0.772-6.928 0.787-10.27-0.161-2.478-0.703-3.259-1.429-4.411-3.546 0.679-2.613 1.783-3.256 3.727-5.028z"
     fill="#FAFAFA"
     id="path58" />
  <path
     transform="scale(.64736 .64746)"
     d="m431.87 571.83c3.612-0.422 7.71-0.726 11.179 0.553 3.342 1.233 7.389 3.87 8.79 7.243 0.713 1.717 0.706 3.412-0.079 5.101-1.74 3.747-5.437 5.213-9.01 6.636-3.84 0.135-7.973 0.49-11.685-0.681-3.365-1.061-7.309-3.228-8.929-6.464-0.731-1.46-0.861-3.163-0.232-4.711 1.643-4.041 6.299-5.986 9.966-7.677z"
     fill="#0C1216"
     id="path59" />
  <path
     transform="scale(.64736 .64746)"
     d="m433.48 576.82c1.423-0.134 2.859-0.241 4.29-0.219 2.814 0.043 6.349 1.131 8.332 3.247 0.928 0.991 0.652 1.441 0.611 2.781-1.661 2.163-3.603 2.706-6.067 3.558-4.32 0.046-8.764 0.104-12.412-2.59-1.207-0.891-1.006-1.212-1.212-2.694 1.616-2.353 3.919-3.039 6.458-4.083z"
     fill="#FAFAFA"
     id="path60" />
  <path
     transform="scale(.64736 .64746)"
     d="m461.2 612.7c1.471-0.192 3.088-0.073 4.579-0.07 1.723 1 2.346 0.978 2.959 2.933-0.285 0.317-0.532 0.637-0.879 0.886-3.168 2.267-10.21 2.56-14.1 3.122-25.665 3.712-51.617 4.652-77.471 1.776-3.414-0.218-7.326-0.135-9.978-2.429l0.137-1.742c1.857-0.972 3.369-1.145 5.421-1.202 6.828-0.192 13.955 0.959 20.795 1.354 8.857 0.511 17.827 0.428 26.701 0.287 14.265-0.227 27.908-1.839 41.836-4.915z"
     fill="#0C1216"
     id="path61" />
  <path
     d="m366.19 508.97 103.99 0.15992q29.095-0.26934 58.188 0.16899l0.1107 28.853-162.31 0.0129q0.14177-14.597 0.0214-29.195z"
     fill="#4c918c"
     id="path62" />
  <g
     transform="translate(202.18 1.4316)"
     id="g73">
    <path
       transform="scale(.64736 .64746)"
       d="m252.98 491.71 247.78 0.095-0.038 286.42q-30.383-0.164-60.765 0.091c3.561-12.457 5-24.502 5.289-37.428 2.243-0.197 4.97-0.247 7.089-1.009 3.803-1.366 7.376-4.894 8.889-8.635 3.17-7.84-0.508-19.481-3.886-26.686q-0.607-1.303-1.277-2.574-0.671-1.271-1.404-2.507t-1.527-2.434q-0.794-1.197-1.646-2.354-0.853-1.157-1.762-2.27t-1.872-2.179q-0.964-1.066-1.979-2.083t-2.08-1.982q-1.064-0.965-2.176-1.876-1.111-0.911-2.266-1.765-1.156-0.854-2.352-1.65t-2.431-1.531-2.504-1.407q-1.27-0.673-2.571-1.281-1.302-0.609-2.632-1.151-1.33-0.543-2.686-1.019c-4.292-8.552-5.75-16.583-6.133-26.028 14.383 0.114 28.363-0.322 40.588-9.024 9.927-7.067 16.242-17.835 18.119-29.831 2.624-16.775-3.005-32.724-12.81-46.176-2.376-2.896-4.89-5.56-7.683-8.062-21.321-19.095-54.238-17.027-81.059-15.606-1.994-4.621-4.848-9.063-9.573-11.222-3.202-1.464-6.74-1.985-10.08-0.591-2.124 0.887-3.778 2.713-4.644 4.827-1.963 4.789-0.507 8.548 1.363 13.019-3.636 1.507-7.148 3.299-10.677 5.036-2.385-1.709-4.712-3.235-7.552-4.078-3.864-1.148-8.338-0.957-11.856 1.137-2.552 1.519-4.273 3.97-4.903 6.867-1.111 5.103 1.219 9.192 3.845 13.347l-7.748 12.066c-3.286-1.085-6.73-2.39-10.245-2.211-3.096 0.158-6.481 1.397-8.5 3.846-1.827 2.217-2.306 5.019-1.979 7.805 0.759 6.459 4.954 9.785 9.749 13.641l-5.133 15.247c-2.781-0.085-5.664-0.171-8.415 0.31-3.392 0.593-7.004 2.825-8.851 5.748-1.522 2.408-1.772 5.337-0.974 8.041 1.761 5.96 6.594 8.972 11.637 11.98l-2.652 13.988c-2.231 0.035-4.486 0.189-6.686 0.584-3.65 0.656-7.418 2.823-9.407 6.019-1.334 2.143-1.619 4.53-1.004 6.961 1.635 6.46 7.23 9.473 12.553 12.584q-1.069 7.571-1.921 15.169c-2.893 0.121-5.77 0.263-8.519 1.256-3.271 1.181-6.649 3.64-8.021 6.924-0.899 2.149-0.781 4.432 0.098 6.565 2.469 5.993 8.796 8.626 14.283 11.131l-0.308 13.278c-2.28 0.634-4.823 1.238-6.96 2.268-3.291 1.585-6.648 4.899-7.652 8.479-0.651 2.322-0.3 4.685 0.858 6.782 2.927 5.301 8.458 6.865 13.821 8.614l1.121 12.675-27.205 0.116z"
       fill="#77cdeb"
       id="path63" />
    <path
       transform="scale(.64736 .64746)"
       d="m376.9 545.53c15.707-2.357 46.1-1.503 60.505 4.384 13.421 5.486 25.518 17.395 31.017 30.838 4.871 11.909 5.265 26.405 0.08 38.275-7.079 16.205-23.177 23.76-40.219 24.069-3.469 0.063-10.019-0.838-12.999 0.608-1.842 0.895-2.122 3.108-2.222 4.953-0.863 15.987 7.067 29.073 13.868 42.819 13.814 27.923 16.871 56.318 7.765 86.288l-24.876-0.078-124.39 0.197c-3.879-54.854 4.874-160.8 38.506-204.17 13.199-17.023 32.027-25.577 52.964-28.179z"
       fill="#4c918c"
       id="path64" />
    <path
       d="m178.32 483.14c1.2455 0.0913 1.6242-0.0246 2.6069 0.79314 0.72699 2.6067 1.0753 5.9308-0.20327 8.4215l-1.1834 0.0259c-1.0895-0.64746-2.3163-1.3344-3.2711-2.1638-1.1478-0.99709-1.1924-1.8498-1.3018-3.2502 0.55802-1.7766 1.9628-2.7116 3.3527-3.8265z"
       fill="#4c918c"
       stroke-width=".64741"
       id="path65" />
    <path
       transform="scale(.64736 .64746)"
       d="m406.13 600.58c9.009 4.361 8.55-0.041 16.352 0.618 0.966 1.723 0.679 2.045 0.354 3.931-3.733 2.527-6.469 3.39-10.988 2.887-2.694-0.3-5.069-0.96-6.836-3.143-0.226-2.201-0.035-2.372 1.118-4.293z"
       fill="#0c1216"
       id="path66" />
    <path
       transform="scale(.64736 .64746)"
       d="m384.26 571.81c3.207-0.379 6.982-0.73 10.134 0.077 3.787 0.969 8.805 3.808 10.651 7.384q0.153 0.29 0.275 0.594 0.121 0.305 0.21 0.62 0.088 0.316 0.142 0.64 0.055 0.323 0.074 0.65 0.02 0.328 4e-3 0.655-0.015 0.327-0.066 0.651-0.05 0.324-0.135 0.641-0.084 0.317-0.202 0.623c-1.407 3.625-5.823 5.54-9.142 6.922-2.577 0.328-5.396 0.549-7.978 0.221-4.152-0.529-9.185-2.554-11.636-6.129-1.174-1.712-1.513-3.706-0.933-5.702 1.213-4.173 5.074-5.974 8.602-7.847z"
       fill="#0c1216"
       id="path67" />
    <path
       transform="scale(.64736 .64746)"
       d="m384.64 576.88c4.399-0.566 8.811-0.605 12.892 1.421 1.962 0.975 2.269 1.312 2.984 3.348-1.431 2.288-2.603 2.719-4.922 3.966-3.38 0.772-6.928 0.787-10.27-0.161-2.478-0.703-3.259-1.429-4.411-3.546 0.679-2.613 1.783-3.256 3.727-5.028z"
       fill="#fafafa"
       id="path68" />
    <path
       transform="scale(.64736 .64746)"
       d="m431.87 571.83c3.612-0.422 7.71-0.726 11.179 0.553 3.342 1.233 7.389 3.87 8.79 7.243 0.713 1.717 0.706 3.412-0.079 5.101-1.74 3.747-5.437 5.213-9.01 6.636-3.84 0.135-7.973 0.49-11.685-0.681-3.365-1.061-7.309-3.228-8.929-6.464-0.731-1.46-0.861-3.163-0.232-4.711 1.643-4.041 6.299-5.986 9.966-7.677z"
       fill="#0c1216"
       id="path69" />
    <path
       transform="scale(.64736 .64746)"
       d="m433.48 576.82c1.423-0.134 2.859-0.241 4.29-0.219 2.814 0.043 6.349 1.131 8.332 3.247 0.928 0.991 0.652 1.441 0.611 2.781-1.661 2.163-3.603 2.706-6.067 3.558-4.32 0.046-8.764 0.104-12.412-2.59-1.207-0.891-1.006-1.212-1.212-2.694 1.616-2.353 3.919-3.039 6.458-4.083z"
       fill="#fafafa"
       id="path70" />
    <path
       transform="scale(.64736 .64746)"
       d="m461.2 612.7c1.471-0.192 3.088-0.073 4.579-0.07 1.723 1 2.346 0.978 2.959 2.933-0.285 0.317-0.532 0.637-0.879 0.886-3.168 2.267-10.21 2.56-14.1 3.122-25.665 3.712-51.617 4.652-77.471 1.776-3.414-0.218-7.326-0.135-9.978-2.429l0.137-1.742c1.857-0.972 3.369-1.145 5.421-1.202 6.828-0.192 13.955 0.959 20.795 1.354 8.857 0.511 17.827 0.428 26.701 0.287 14.265-0.227 27.908-1.839 41.836-4.915z"
       fill="#0c1216"
       id="path71" />
    <path
       d="m194.11 376.57c1.8061 0.16187 3.3372 0.3082 4.6914 1.5325 0.44086 2.3963-1.8987 5.8148-2.941 7.9586l-0.63053 0.0505c-0.64478-0.4092-1.4009-0.854-1.9175-1.4257-1.1678-1.293-1.6676-3.5818-1.4287-5.3027 0.16379-1.1823 1.3776-2.0809 2.2263-2.8132z"
       fill="#4c918c"
       stroke-width=".64741"
       id="path72" />
    <path
       d="m177.83 455.59c1.698 0.0272 2.6885-0.30884 3.9871 0.87731 0.91084 3.021 0.23111 5.2684-0.52825 8.2357l-1.0073 0.25899c-2.5079-1.5131-4.6558-2.4461-5.4573-5.418 0.39489-1.8731 1.6378-2.7621 3.0057-3.954z"
       fill="#4c918c"
       stroke-width=".64741"
       id="path73" />
  </g>
  <g
     fill="#4c918c"
     stroke-width=".64741"
     id="g77">
    <path
       d="m434.2 347c1.1517 0.31208 2.1887 0.75753 3.2213 1.3513 1.6663 0.95824 2.6289 1.932 3.1235 3.7857-0.96457 1.403-1.7867 1.3713-3.3333 1.8226-1.3219 0.38913-2.3422 0.62674-3.7236 0.56329-0.66937-0.33862-1.3834-0.66041-1.8385-1.28-0.63312-0.86306-0.76388-1.6497-0.57097-2.7161 0.30491-1.6899 1.823-2.6216 3.1216-3.5267z"
       id="path74" />
    <path
       d="m411.05 360c1.3264 0.0298 2.7189 0.0136 4.0266 0.23891 1.2565 0.2169 2.0237 0.25769 2.7888 1.3266-0.69915 1.7986-2.7623 2.9213-4.2726 4.0414-0.55932 0.52833-1.0869 0.95759-1.7343 1.3772-0.84934 0.55099-1.0131 0.34121-1.9712 0.13208-0.69462-1.0709-0.87977-1.403-0.89142-2.7368-0.0175-1.9417 0.71339-3.0599 2.0541-4.3794z"
       id="path75" />
    <path
       d="m380.77 433.16c0.24988-0.0291 0.49977-0.0609 0.7503-0.0783 1.665-0.11655 2.326-0.26352 3.5857 0.86112 0.63312 2.8702-1.1937 7.0832-1.9518 9.9858q-1.3277-1.1615-2.614-2.3691c-1.5653-1.4814-2.48-2.6015-2.5441-4.8475 0.48811-1.7896 1.3886-2.4649 2.7739-3.552z"
       id="path76" />
    <path
       d="m477.22 444.4q1.3841 0.573 2.6885 1.3092c7.0996 4.0654 13.083 12.607 15.031 20.486 0.94515 3.8207 1.1491 7.5371-0.9445 10.967-1.643 0.83717-3.7424 1.7753-5.5874 1.3882-1.8029-3.1998-1.9492-11.378-3.1701-15.503-1.9369-6.5406-5.0106-12.554-8.0176-18.648z"
       id="path77" />
  </g>
  <use
     transform="translate(200.18 1.4316)"
     xlink:href="#path49"
     id="use77" />
</svg>
